%TF.GenerationSoftware,KiCad,Pcbnew,7.0.7*%
%TF.CreationDate,2023-09-30T12:20:31-04:00*%
%TF.ProjectId,bt-md-remote,62742d6d-642d-4726-956d-6f74652e6b69,rev?*%
%TF.SameCoordinates,Original*%
%TF.FileFunction,Profile,NP*%
%FSLAX46Y46*%
G04 Gerber Fmt 4.6, Leading zero omitted, Abs format (unit mm)*
G04 Created by KiCad (PCBNEW 7.0.7) date 2023-09-30 12:20:31*
%MOMM*%
%LPD*%
G01*
G04 APERTURE LIST*
%TA.AperFunction,Profile*%
%ADD10C,0.100000*%
%TD*%
%TA.AperFunction,Profile*%
%ADD11C,0.200000*%
%TD*%
G04 APERTURE END LIST*
D10*
X162125000Y-109220000D02*
G75*
G03*
X161925000Y-109420000I0J-200000D01*
G01*
X108404000Y-131064000D02*
X196396000Y-131064000D01*
X158115000Y-110290000D02*
G75*
G03*
X158315000Y-110490000I200000J0D01*
G01*
X116967000Y-110290000D02*
X116967000Y-109420000D01*
X196596000Y-109420000D02*
G75*
G03*
X196396000Y-109220000I-200000J0D01*
G01*
X143945000Y-110490000D02*
G75*
G03*
X144145000Y-110290000I0J200000D01*
G01*
X120577000Y-110490000D02*
X117167000Y-110490000D01*
X165230200Y-109220000D02*
X162125000Y-109220000D01*
D11*
X177817736Y-118770612D02*
X177817736Y-124374612D01*
X177047736Y-118270612D02*
X177317736Y-118270612D01*
D10*
X126339600Y-110290000D02*
X126339600Y-109420000D01*
X169040200Y-110490000D02*
G75*
G03*
X169240200Y-110290000I0J200000D01*
G01*
X130149600Y-109420000D02*
X130149600Y-110290000D01*
X165430200Y-110290000D02*
X165430200Y-109420000D01*
X161725000Y-110490000D02*
G75*
G03*
X161925000Y-110290000I0J200000D01*
G01*
X196396000Y-131064000D02*
G75*
G03*
X196596000Y-130864000I0J200000D01*
G01*
X126139600Y-109220000D02*
X120977000Y-109220000D01*
X161925000Y-109420000D02*
X161925000Y-110290000D01*
X157915000Y-109220000D02*
X144345000Y-109220000D01*
D11*
X177317736Y-124874612D02*
X177047736Y-124874612D01*
D10*
X165430200Y-109420000D02*
G75*
G03*
X165230200Y-109220000I-200000J0D01*
G01*
X169440200Y-109220000D02*
G75*
G03*
X169240200Y-109420000I0J-200000D01*
G01*
D11*
X177317736Y-124874636D02*
G75*
G03*
X177817736Y-124374612I-36J500036D01*
G01*
D10*
X158115000Y-109420000D02*
G75*
G03*
X157915000Y-109220000I-200000J0D01*
G01*
X144145000Y-109420000D02*
X144145000Y-110290000D01*
X144345000Y-109220000D02*
G75*
G03*
X144145000Y-109420000I0J-200000D01*
G01*
X196596000Y-130864000D02*
X196596000Y-109420000D01*
X120977000Y-109220000D02*
G75*
G03*
X120777000Y-109420000I0J-200000D01*
G01*
X169240200Y-109420000D02*
X169240200Y-110290000D01*
X140335000Y-110290000D02*
G75*
G03*
X140535000Y-110490000I200000J0D01*
G01*
X108204000Y-109420000D02*
X108204000Y-130864000D01*
X143945000Y-110490000D02*
X140535000Y-110490000D01*
X140135000Y-109220000D02*
X130349600Y-109220000D01*
X116767000Y-109220000D02*
X108404000Y-109220000D01*
D11*
X177047736Y-118270636D02*
G75*
G03*
X176547736Y-118770612I-36J-499964D01*
G01*
D10*
X116967000Y-110290000D02*
G75*
G03*
X117167000Y-110490000I200000J0D01*
G01*
D11*
X176547736Y-124374612D02*
X176547736Y-118770612D01*
D10*
X140335000Y-109420000D02*
G75*
G03*
X140135000Y-109220000I-200000J0D01*
G01*
X108404000Y-109220000D02*
G75*
G03*
X108204000Y-109420000I0J-200000D01*
G01*
X130349600Y-109220000D02*
G75*
G03*
X130149600Y-109420000I0J-200000D01*
G01*
X158115000Y-110290000D02*
X158115000Y-109420000D01*
X126339600Y-109420000D02*
G75*
G03*
X126139600Y-109220000I-200000J0D01*
G01*
X169040200Y-110490000D02*
X165630200Y-110490000D01*
D11*
X177817788Y-118770612D02*
G75*
G03*
X177317736Y-118270612I-500088J-88D01*
G01*
D10*
X120577000Y-110490000D02*
G75*
G03*
X120777000Y-110290000I0J200000D01*
G01*
X196396000Y-109220000D02*
X169440200Y-109220000D01*
X116967000Y-109420000D02*
G75*
G03*
X116767000Y-109220000I-200000J0D01*
G01*
X126339600Y-110290000D02*
G75*
G03*
X126539600Y-110490000I200000J0D01*
G01*
X120777000Y-109420000D02*
X120777000Y-110290000D01*
D11*
X176547688Y-124374612D02*
G75*
G03*
X177047736Y-124874612I500012J12D01*
G01*
D10*
X129949600Y-110490000D02*
X126539600Y-110490000D01*
X140335000Y-110290000D02*
X140335000Y-109420000D01*
X161725000Y-110490000D02*
X158315000Y-110490000D01*
X165430200Y-110290000D02*
G75*
G03*
X165630200Y-110490000I200000J0D01*
G01*
X108204000Y-130864000D02*
G75*
G03*
X108404000Y-131064000I200000J0D01*
G01*
X129949600Y-110490000D02*
G75*
G03*
X130149600Y-110290000I0J200000D01*
G01*
M02*
