M48
; DRILL file {KiCad 7.0.7} date Sat Sep 30 12:20:38 2023
; FORMAT={-:-/ absolute / inch / decimal}
; #@! TF.CreationDate,2023-09-30T12:20:38-04:00
; #@! TF.GenerationSoftware,Kicad,Pcbnew,7.0.7
; #@! TF.FileFunction,MixedPlating,1,4
FMAT,2
INCH
; #@! TA.AperFunction,Plated,PTH,ViaDrill
T1C0.0100
; #@! TA.AperFunction,Plated,PTH,ComponentDrill
T2C0.0197
; #@! TA.AperFunction,NonPlated,NPTH,ComponentDrill
T3C0.0256
; #@! TA.AperFunction,NonPlated,NPTH,ComponentDrill
T4C0.0390
; #@! TA.AperFunction,NonPlated,NPTH,ComponentDrill
T5C0.0433
%
G90
G05
T1
X4.3Y-5.095
X4.41Y-5.095
X4.4292Y-4.5
X4.44Y-5.02
X4.4492Y-4.9141
X4.4708Y-4.87
X4.48Y-4.975
X4.5Y-4.86
X4.53Y-4.855
X4.545Y-4.45
X4.58Y-4.39
X4.5814Y-5.001
X4.59Y-5.06
X4.5987Y-4.57
X4.62Y-4.85
X4.62Y-5.0392
X4.655Y-5.02
X4.67Y-4.64
X4.68Y-5.06
X4.69Y-4.68
X4.6958Y-4.895
X4.74Y-4.57
X4.74Y-4.85
X4.7419Y-5.0181
X4.775Y-5.065
X4.825Y-4.575
X4.8278Y-4.7278
X4.83Y-4.45
X4.83Y-4.9
X4.8417Y-4.498
X4.845Y-5.02
X4.8543Y-4.5846
X4.8642Y-4.9654
X4.87Y-4.39
X4.8815Y-4.6035
X4.885Y-5.08
X4.89Y-4.45
X4.9Y-4.5453
X4.925Y-4.57
X5.1017Y-4.9802
X5.105Y-4.865
X5.11Y-4.77
X5.11Y-4.8
X5.1142Y-4.665
X5.1142Y-4.695
X5.1142Y-4.725
X5.125Y-4.83
X5.13Y-4.42
X5.1385Y-4.5091
X5.165Y-4.9703
X5.1674Y-4.5155
X5.2Y-4.3263
X5.21Y-4.6242
X5.22Y-5.1223
X5.2207Y-4.4807
X5.2479Y-4.9707
X5.28Y-4.96
X5.3Y-4.44
X5.3115Y-4.96
X5.3393Y-4.9357
X5.345Y-4.475
X5.345Y-4.625
X5.35Y-4.965
X5.37Y-4.72
X5.37Y-4.8792
X5.3796Y-4.9754
X5.3802Y-5.1182
X5.401Y-4.8814
X5.43Y-4.86
X5.455Y-4.83
X5.5Y-5.0
X5.51Y-4.39
X5.5254Y-4.9848
X5.5254Y-5.0202
X5.58Y-4.72
X5.61Y-4.795
X5.615Y-4.83
X5.62Y-5.105
X5.625Y-4.9912
X5.625Y-5.03
X5.6795Y-4.9395
X5.7Y-4.39
X5.7Y-5.03
X5.7071Y-5.0807
X5.7113Y-4.9401
X5.715Y-4.67
X5.725Y-4.42
X5.735Y-4.715
X5.74Y-4.33
X5.76Y-4.39
X5.7685Y-4.58
X5.77Y-4.51
X5.8Y-4.65
X5.83Y-4.438
X5.83Y-4.98
X5.8448Y-4.8404
X5.845Y-4.875
X5.85Y-4.805
X5.865Y-5.105
X5.87Y-4.98
X5.8852Y-4.7952
X5.9543Y-4.7893
X5.9547Y-4.7594
X5.96Y-4.8608
X5.9798Y-4.675
X6.005Y-4.7
X6.01Y-4.495
X6.0198Y-4.918
X6.0258Y-4.65
X6.06Y-4.5658
X6.075Y-4.97
X6.0863Y-4.3669
X6.14Y-4.57
X6.16Y-4.845
X6.17Y-4.32
X6.21Y-4.38
X6.22Y-4.86
X6.29Y-4.89
X6.29Y-5.11
X6.31Y-5.04
X6.3112Y-4.9944
X6.325Y-4.72
X6.33Y-4.8
X6.34Y-4.895
X6.38Y-4.97
X6.39Y-4.59
X6.405Y-4.8992
X6.41Y-4.66
X6.44Y-4.33
X6.44Y-4.88
X6.5Y-4.41
X6.5044Y-4.77
X6.54Y-4.4808
X6.55Y-4.69
X6.61Y-4.429
X6.62Y-4.86
X6.63Y-4.81
X6.63Y-5.03
X6.63Y-5.09
X6.6614Y-4.7586
X6.7Y-4.99
X6.71Y-4.89
X6.7308Y-4.3408
X6.74Y-4.82
X6.8Y-4.56
X6.83Y-4.71
X6.85Y-4.46
X6.8692Y-4.75
X6.87Y-5.01
X6.87Y-5.11
X6.9Y-4.61
X6.9Y-4.86
X6.92Y-4.48
X7.01Y-4.5492
X7.01Y-5.1
X7.0197Y-4.3241
X7.02Y-4.94
X7.1447Y-4.785
X7.1496Y-4.8618
X7.19Y-5.08
X7.19Y-5.12
X7.39Y-4.48
T2
X4.32Y-4.36
T3
X7.37Y-4.7783
T4
X5.19Y-4.3778
X5.39Y-4.3378
X5.39Y-4.4178
T5
X7.65Y-4.7016
X7.65Y-4.8984
T2
G00X7.0515Y-5.0736
M15
G01X7.0515Y-5.05
M16
G05
G00X7.0657Y-4.8394
M15
G01X7.0657Y-4.8157
M16
G05
G00X7.3909Y-4.8394
M15
G01X7.3909Y-4.8157
M16
G05
G00X7.405Y-5.0736
M15
G01X7.405Y-5.05
M16
G05
T3
G00X7.0924Y-4.7783
M15
G01X7.0806Y-4.7783
M16
G05
T0
M30
