%TF.GenerationSoftware,KiCad,Pcbnew,7.0.7*%
%TF.CreationDate,2023-09-30T12:20:31-04:00*%
%TF.ProjectId,bt-md-remote,62742d6d-642d-4726-956d-6f74652e6b69,rev?*%
%TF.SameCoordinates,Original*%
%TF.FileFunction,Copper,L2,Inr*%
%TF.FilePolarity,Positive*%
%FSLAX46Y46*%
G04 Gerber Fmt 4.6, Leading zero omitted, Abs format (unit mm)*
G04 Created by KiCad (PCBNEW 7.0.7) date 2023-09-30 12:20:31*
%MOMM*%
%LPD*%
G01*
G04 APERTURE LIST*
%TA.AperFunction,ComponentPad*%
%ADD10R,1.000000X1.000000*%
%TD*%
%TA.AperFunction,ComponentPad*%
%ADD11O,0.800000X1.400000*%
%TD*%
%TA.AperFunction,ViaPad*%
%ADD12C,0.600000*%
%TD*%
G04 APERTURE END LIST*
D10*
%TO.N,GND*%
%TO.C,TP2*%
X109728000Y-110744000D03*
%TD*%
D11*
%TO.N,GND*%
%TO.C,CN1*%
X188088000Y-128570000D03*
X187728000Y-122620000D03*
X179468000Y-122620000D03*
X179108000Y-128570000D03*
%TD*%
D12*
%TO.N,GND*%
X144780000Y-111506000D03*
X187706000Y-113792000D03*
X123698000Y-111506000D03*
X159766000Y-129794000D03*
X116367280Y-127026473D03*
X154592578Y-110919024D03*
X148590000Y-122047000D03*
X148082000Y-126492000D03*
X153055600Y-118110000D03*
X144960340Y-129049500D03*
X169199356Y-120868644D03*
X139954000Y-111506000D03*
X152654000Y-114173000D03*
X162306000Y-116586000D03*
X155956000Y-116078000D03*
X130302000Y-112268000D03*
X152902394Y-124918000D03*
X116332000Y-111506000D03*
X142875000Y-126776530D03*
X173990000Y-113284000D03*
X142494000Y-121793000D03*
X129794000Y-121158000D03*
X160654998Y-119888000D03*
X125095000Y-116078000D03*
X134620000Y-112776000D03*
X147320000Y-118110000D03*
X122979347Y-114248753D03*
X148082000Y-112726000D03*
X165212534Y-121158000D03*
X145796000Y-109982000D03*
X123063000Y-127508000D03*
X160274000Y-128016000D03*
X173482000Y-119634000D03*
X156718000Y-109728000D03*
X162687000Y-124439400D03*
X157988000Y-123444000D03*
X117348000Y-123190000D03*
X163576000Y-109982000D03*
X174498000Y-127254000D03*
X109220000Y-129413000D03*
X120396000Y-123190000D03*
X167894000Y-112496600D03*
X166370000Y-119126000D03*
X170180000Y-126746000D03*
X122682000Y-124460000D03*
X170434000Y-124206000D03*
X178308000Y-125476000D03*
X112501400Y-114300000D03*
X160782000Y-121920000D03*
%TO.N,+BATT*%
X115443000Y-113030000D03*
X168402000Y-129286000D03*
X162814000Y-118364000D03*
X146304000Y-111506000D03*
X161036000Y-124333000D03*
X160303534Y-126857679D03*
X135763000Y-113664996D03*
X178054000Y-115549400D03*
X132605961Y-113809960D03*
%TO.N,+1V8*%
X132080000Y-109888177D03*
X120443297Y-127460703D03*
X144260500Y-125464500D03*
X151384000Y-123464100D03*
X168148000Y-123444000D03*
X113558600Y-123698000D03*
X124460000Y-115450910D03*
X116807375Y-116078000D03*
X142621000Y-122682000D03*
X123550378Y-126120512D03*
X122625725Y-120085720D03*
X159766000Y-124206000D03*
X166116000Y-113812600D03*
X174477400Y-120650000D03*
X162052000Y-126238000D03*
X144780000Y-127762000D03*
X172720000Y-115824000D03*
X119273600Y-124333000D03*
X129794000Y-121920000D03*
%TO.N,+16V5*%
X153924000Y-115971600D03*
X152527000Y-119380000D03*
%TO.N,VBUS*%
X174498000Y-129794000D03*
X181474456Y-121538454D03*
%TO.N,VREMOTE*%
X140345180Y-127514108D03*
X148971000Y-129667000D03*
X112014000Y-129413000D03*
X142748000Y-129667006D03*
%TO.N,AUDIO_IN_L*%
X113792000Y-126365000D03*
%TO.N,AUDIO_IN_R*%
X112776000Y-127508000D03*
%TO.N,RAW_BATT+*%
X178301324Y-109830940D03*
%TO.N,Net-(CN1-CC2)*%
X181600809Y-123489476D03*
%TO.N,FROM_MD*%
X149098000Y-126492000D03*
X154305000Y-126238000D03*
%TO.N,OLED_FR*%
X140345180Y-126612892D03*
X145669000Y-119761000D03*
%TO.N,OLED_~{CS}*%
X141732000Y-119888000D03*
X138557000Y-122682000D03*
%TO.N,OLED_DC*%
X151250511Y-120889329D03*
X146558000Y-114554000D03*
%TO.N,OLED_SCLK*%
X151239197Y-121648197D03*
X151887182Y-118746204D03*
%TO.N,OLED_DATA*%
X145161000Y-118618000D03*
X149484832Y-121798833D03*
%TO.N,~{MCLR}{slash}Vpp*%
X133297800Y-126255122D03*
%TO.N,ICSPDAT*%
X134112000Y-125984000D03*
%TO.N,ICSPCLK*%
X134912000Y-125984000D03*
%TO.N,Net-(LED1-A1)*%
X175260020Y-123444000D03*
X178054000Y-129540000D03*
%TO.N,I2C_SCL*%
X168402000Y-122174000D03*
X118237000Y-127508000D03*
X135890000Y-126111000D03*
X148463000Y-123825000D03*
%TO.N,I2C_SDA*%
X171196000Y-122428000D03*
X145066351Y-125479113D03*
X117348000Y-127995362D03*
X136643019Y-126373981D03*
%TO.N,BTN_PLAYPAUSE_HV*%
X168402000Y-127762000D03*
X175260000Y-117094000D03*
%TO.N,BTN_DISPLAY_ON*%
X135618039Y-125366961D03*
X145415000Y-112268000D03*
%TO.N,BTN_DISPLAY*%
X130517834Y-114530279D03*
X130175000Y-122682000D03*
%TO.N,BTN_MODE*%
X131252479Y-114692780D03*
X131191000Y-126245920D03*
%TO.N,BTN_TRK_BCK*%
X136398000Y-123931004D03*
X157734000Y-111252000D03*
%TO.N,BTN_TRK_FWD*%
X165100000Y-112014000D03*
X137184641Y-123987864D03*
%TO.N,HOLD_ALL*%
X129667000Y-123571000D03*
X129583585Y-126495840D03*
%TO.N,BTN_VOL_DOWN*%
X182626000Y-129032000D03*
X136656675Y-130001442D03*
%TO.N,BTN_VOL_PRESS*%
X182626000Y-130048000D03*
X132588000Y-130106700D03*
%TO.N,REMOTE_TAKEOVER*%
X163576000Y-123952000D03*
X146519900Y-116332000D03*
%TO.N,REMOTE_SEND*%
X148456892Y-122946180D03*
X156464000Y-123063000D03*
%TO.N,MD_LCD*%
X136398000Y-119888000D03*
X142875000Y-127762000D03*
%TO.N,MD_LCD_DIR*%
X135763000Y-117474999D03*
X139700008Y-127000000D03*
%TO.N,/HCI_RTS*%
X122682000Y-113030000D03*
X124206000Y-113030000D03*
%TO.N,/HCI_CTS*%
X129900400Y-119254195D03*
X123298125Y-116449794D03*
%TO.N,/HCI_TO_BT*%
X129900400Y-118492204D03*
X123991183Y-116927817D03*
%TO.N,/HCI_FROM_BT*%
X129900400Y-120016204D03*
X122555000Y-116205000D03*
%TO.N,/I2S_WCLK*%
X118872000Y-128524000D03*
X115062000Y-123317000D03*
%TO.N,/I2S_BCLK*%
X124079000Y-129032000D03*
X120396000Y-116078000D03*
%TO.N,/I2S_TO_CODEC*%
X118618000Y-117856000D03*
X121285000Y-128651000D03*
%TO.N,/I2C_FROM_CODEC*%
X119126000Y-118872000D03*
X116586000Y-128524000D03*
%TO.N,~{BATT_ALERT}*%
X137922000Y-123444000D03*
%TO.N,/BT_SLOW_CLK*%
X132334000Y-117454400D03*
X114300000Y-123444000D03*
%TO.N,/Power + Charging/FG_KEVIN_POS*%
X170962600Y-110256600D03*
X175768000Y-113792000D03*
%TO.N,/UI/PLAYPAUSE_HOLD*%
X113009400Y-124819296D03*
%TD*%
%TA.AperFunction,Conductor*%
%TO.N,GND*%
G36*
X116772835Y-109221424D02*
G01*
X116779340Y-109222454D01*
X116824883Y-109231513D01*
X116844347Y-109238262D01*
X116858113Y-109245277D01*
X116861920Y-109247507D01*
X116889670Y-109266050D01*
X116901062Y-109275400D01*
X116911598Y-109285936D01*
X116920950Y-109297330D01*
X116939483Y-109325065D01*
X116941724Y-109328889D01*
X116948735Y-109342650D01*
X116955486Y-109362117D01*
X116964545Y-109407659D01*
X116965573Y-109414150D01*
X116965574Y-109414151D01*
X116966500Y-109425917D01*
X116966500Y-110239903D01*
X116960379Y-110256720D01*
X116965055Y-110280226D01*
X116966500Y-110294897D01*
X116966500Y-110321759D01*
X116968832Y-110328934D01*
X116968249Y-110345625D01*
X116974162Y-110354475D01*
X116983154Y-110373012D01*
X116986126Y-110382157D01*
X116986127Y-110382160D01*
X117023458Y-110433542D01*
X117074840Y-110470873D01*
X117083991Y-110473846D01*
X117102526Y-110482837D01*
X117110868Y-110488411D01*
X117128067Y-110488168D01*
X117135244Y-110490500D01*
X117135245Y-110490500D01*
X117162107Y-110490500D01*
X117176778Y-110491945D01*
X117200245Y-110496612D01*
X117217096Y-110490500D01*
X120526903Y-110490500D01*
X120543718Y-110496620D01*
X120567221Y-110491945D01*
X120581892Y-110490500D01*
X120608755Y-110490500D01*
X120608756Y-110490500D01*
X120615932Y-110488168D01*
X120632622Y-110488750D01*
X120641469Y-110482839D01*
X120660005Y-110473847D01*
X120669160Y-110470873D01*
X120720542Y-110433542D01*
X120757873Y-110382160D01*
X120760847Y-110373005D01*
X120769839Y-110354469D01*
X120775411Y-110346129D01*
X120775168Y-110328932D01*
X120777500Y-110321756D01*
X120777500Y-110294890D01*
X120778945Y-110280220D01*
X120783612Y-110256755D01*
X120777500Y-110239902D01*
X120777500Y-109425913D01*
X120778426Y-109414150D01*
X120779457Y-109407642D01*
X120788514Y-109362111D01*
X120795260Y-109342656D01*
X120802287Y-109328865D01*
X120804497Y-109325094D01*
X120823057Y-109297318D01*
X120832390Y-109285947D01*
X120842947Y-109275390D01*
X120854318Y-109266057D01*
X120882094Y-109247497D01*
X120885871Y-109245284D01*
X120899657Y-109238260D01*
X120919111Y-109231514D01*
X120964649Y-109222456D01*
X120971165Y-109221424D01*
X120982916Y-109220500D01*
X126133683Y-109220500D01*
X126145435Y-109221424D01*
X126151940Y-109222454D01*
X126197483Y-109231513D01*
X126216947Y-109238262D01*
X126230713Y-109245277D01*
X126234520Y-109247507D01*
X126262270Y-109266050D01*
X126273662Y-109275400D01*
X126284198Y-109285936D01*
X126293550Y-109297330D01*
X126312083Y-109325065D01*
X126314324Y-109328889D01*
X126321335Y-109342650D01*
X126328086Y-109362117D01*
X126337145Y-109407659D01*
X126338173Y-109414150D01*
X126338174Y-109414151D01*
X126339100Y-109425917D01*
X126339100Y-110239903D01*
X126332979Y-110256720D01*
X126337655Y-110280226D01*
X126339100Y-110294897D01*
X126339100Y-110321759D01*
X126341432Y-110328934D01*
X126340849Y-110345625D01*
X126346762Y-110354475D01*
X126355754Y-110373012D01*
X126358726Y-110382157D01*
X126358727Y-110382160D01*
X126396058Y-110433542D01*
X126447440Y-110470873D01*
X126456591Y-110473846D01*
X126475126Y-110482837D01*
X126483468Y-110488411D01*
X126500667Y-110488168D01*
X126507844Y-110490500D01*
X126507845Y-110490500D01*
X126534707Y-110490500D01*
X126549378Y-110491945D01*
X126572845Y-110496612D01*
X126589696Y-110490500D01*
X129899503Y-110490500D01*
X129916318Y-110496620D01*
X129939821Y-110491945D01*
X129954492Y-110490500D01*
X129981355Y-110490500D01*
X129981356Y-110490500D01*
X129988532Y-110488168D01*
X130005222Y-110488750D01*
X130014069Y-110482839D01*
X130032605Y-110473847D01*
X130041760Y-110470873D01*
X130093142Y-110433542D01*
X130130473Y-110382160D01*
X130133447Y-110373005D01*
X130142439Y-110354469D01*
X130148011Y-110346129D01*
X130147768Y-110328932D01*
X130150100Y-110321756D01*
X130150100Y-110294890D01*
X130151545Y-110280220D01*
X130156212Y-110256755D01*
X130150100Y-110239902D01*
X130150100Y-109425913D01*
X130151026Y-109414150D01*
X130152057Y-109407642D01*
X130161114Y-109362111D01*
X130167860Y-109342656D01*
X130174887Y-109328865D01*
X130177097Y-109325094D01*
X130195657Y-109297318D01*
X130204990Y-109285947D01*
X130215547Y-109275390D01*
X130226918Y-109266057D01*
X130254694Y-109247497D01*
X130258471Y-109245284D01*
X130272257Y-109238260D01*
X130291711Y-109231514D01*
X130337249Y-109222456D01*
X130343765Y-109221424D01*
X130355516Y-109220500D01*
X140129083Y-109220500D01*
X140140835Y-109221424D01*
X140147340Y-109222454D01*
X140192883Y-109231513D01*
X140212347Y-109238262D01*
X140226113Y-109245277D01*
X140229920Y-109247507D01*
X140257670Y-109266050D01*
X140269062Y-109275400D01*
X140279598Y-109285936D01*
X140288950Y-109297330D01*
X140307483Y-109325065D01*
X140309724Y-109328889D01*
X140316735Y-109342650D01*
X140323486Y-109362117D01*
X140332545Y-109407659D01*
X140333573Y-109414150D01*
X140333574Y-109414151D01*
X140334500Y-109425917D01*
X140334500Y-110239903D01*
X140328379Y-110256720D01*
X140333055Y-110280226D01*
X140334500Y-110294897D01*
X140334500Y-110321759D01*
X140336832Y-110328934D01*
X140336249Y-110345625D01*
X140342162Y-110354475D01*
X140351154Y-110373012D01*
X140354126Y-110382157D01*
X140354127Y-110382160D01*
X140391458Y-110433542D01*
X140442840Y-110470873D01*
X140451991Y-110473846D01*
X140470526Y-110482837D01*
X140478868Y-110488411D01*
X140496067Y-110488168D01*
X140503244Y-110490500D01*
X140503245Y-110490500D01*
X140530107Y-110490500D01*
X140544778Y-110491945D01*
X140568245Y-110496612D01*
X140585096Y-110490500D01*
X143894903Y-110490500D01*
X143911718Y-110496620D01*
X143935221Y-110491945D01*
X143949892Y-110490500D01*
X143976755Y-110490500D01*
X143976756Y-110490500D01*
X143983932Y-110488168D01*
X144000622Y-110488750D01*
X144009469Y-110482839D01*
X144028005Y-110473847D01*
X144037160Y-110470873D01*
X144088542Y-110433542D01*
X144125873Y-110382160D01*
X144128847Y-110373005D01*
X144137839Y-110354469D01*
X144143411Y-110346129D01*
X144143168Y-110328932D01*
X144145500Y-110321756D01*
X144145500Y-110294890D01*
X144146945Y-110280220D01*
X144151612Y-110256755D01*
X144145500Y-110239902D01*
X144145500Y-109425913D01*
X144146426Y-109414150D01*
X144147457Y-109407642D01*
X144156514Y-109362111D01*
X144163260Y-109342656D01*
X144170287Y-109328865D01*
X144172497Y-109325094D01*
X144191057Y-109297318D01*
X144200390Y-109285947D01*
X144210947Y-109275390D01*
X144222318Y-109266057D01*
X144250094Y-109247497D01*
X144253871Y-109245284D01*
X144267657Y-109238260D01*
X144287111Y-109231514D01*
X144332649Y-109222456D01*
X144339165Y-109221424D01*
X144350916Y-109220500D01*
X157909083Y-109220500D01*
X157920835Y-109221424D01*
X157927340Y-109222454D01*
X157972883Y-109231513D01*
X157992347Y-109238262D01*
X158006113Y-109245277D01*
X158009920Y-109247507D01*
X158037670Y-109266050D01*
X158049062Y-109275400D01*
X158059598Y-109285936D01*
X158068950Y-109297330D01*
X158087483Y-109325065D01*
X158089724Y-109328889D01*
X158096735Y-109342650D01*
X158103486Y-109362117D01*
X158112545Y-109407659D01*
X158113573Y-109414150D01*
X158113574Y-109414151D01*
X158114500Y-109425917D01*
X158114500Y-110239903D01*
X158108379Y-110256720D01*
X158113055Y-110280226D01*
X158114500Y-110294897D01*
X158114500Y-110321759D01*
X158116832Y-110328934D01*
X158116249Y-110345625D01*
X158122162Y-110354475D01*
X158131154Y-110373012D01*
X158134126Y-110382157D01*
X158134127Y-110382160D01*
X158171458Y-110433542D01*
X158222840Y-110470873D01*
X158231991Y-110473846D01*
X158250526Y-110482837D01*
X158258868Y-110488411D01*
X158276067Y-110488168D01*
X158283244Y-110490500D01*
X158283245Y-110490500D01*
X158310107Y-110490500D01*
X158324778Y-110491945D01*
X158348245Y-110496612D01*
X158365096Y-110490500D01*
X161674903Y-110490500D01*
X161691718Y-110496620D01*
X161715221Y-110491945D01*
X161729892Y-110490500D01*
X161756755Y-110490500D01*
X161756756Y-110490500D01*
X161763932Y-110488168D01*
X161780622Y-110488750D01*
X161789469Y-110482839D01*
X161808005Y-110473847D01*
X161817160Y-110470873D01*
X161868542Y-110433542D01*
X161905873Y-110382160D01*
X161908847Y-110373005D01*
X161917839Y-110354469D01*
X161923411Y-110346129D01*
X161923168Y-110328932D01*
X161925500Y-110321756D01*
X161925500Y-110294890D01*
X161926945Y-110280220D01*
X161931612Y-110256755D01*
X161925500Y-110239902D01*
X161925500Y-109425913D01*
X161926426Y-109414150D01*
X161927457Y-109407642D01*
X161936514Y-109362111D01*
X161943260Y-109342656D01*
X161950287Y-109328865D01*
X161952497Y-109325094D01*
X161971057Y-109297318D01*
X161980390Y-109285947D01*
X161990947Y-109275390D01*
X162002318Y-109266057D01*
X162030094Y-109247497D01*
X162033871Y-109245284D01*
X162047657Y-109238260D01*
X162067111Y-109231514D01*
X162112649Y-109222456D01*
X162119165Y-109221424D01*
X162130916Y-109220500D01*
X165224283Y-109220500D01*
X165236035Y-109221424D01*
X165242540Y-109222454D01*
X165288083Y-109231513D01*
X165307547Y-109238262D01*
X165321313Y-109245277D01*
X165325120Y-109247507D01*
X165352870Y-109266050D01*
X165364262Y-109275400D01*
X165374798Y-109285936D01*
X165384150Y-109297330D01*
X165402683Y-109325065D01*
X165404924Y-109328889D01*
X165411935Y-109342650D01*
X165418686Y-109362117D01*
X165427745Y-109407659D01*
X165428773Y-109414150D01*
X165428774Y-109414151D01*
X165429700Y-109425917D01*
X165429700Y-110239903D01*
X165423579Y-110256720D01*
X165428255Y-110280226D01*
X165429700Y-110294897D01*
X165429700Y-110321759D01*
X165432032Y-110328934D01*
X165431449Y-110345625D01*
X165437362Y-110354475D01*
X165446354Y-110373012D01*
X165449326Y-110382157D01*
X165449327Y-110382160D01*
X165486658Y-110433542D01*
X165538040Y-110470873D01*
X165547191Y-110473846D01*
X165565726Y-110482837D01*
X165574068Y-110488411D01*
X165591267Y-110488168D01*
X165598444Y-110490500D01*
X165598445Y-110490500D01*
X165625307Y-110490500D01*
X165639978Y-110491945D01*
X165663445Y-110496612D01*
X165680296Y-110490500D01*
X168990103Y-110490500D01*
X169006918Y-110496620D01*
X169030421Y-110491945D01*
X169045092Y-110490500D01*
X169071955Y-110490500D01*
X169071956Y-110490500D01*
X169079132Y-110488168D01*
X169095822Y-110488750D01*
X169104669Y-110482839D01*
X169123205Y-110473847D01*
X169132360Y-110470873D01*
X169183742Y-110433542D01*
X169221073Y-110382160D01*
X169224047Y-110373005D01*
X169233039Y-110354469D01*
X169238611Y-110346129D01*
X169238368Y-110328932D01*
X169240700Y-110321756D01*
X169240700Y-110294890D01*
X169242145Y-110280220D01*
X169246812Y-110256755D01*
X169246756Y-110256600D01*
X170505043Y-110256600D01*
X170523577Y-110385511D01*
X170577678Y-110503973D01*
X170577680Y-110503976D01*
X170662966Y-110602401D01*
X170772526Y-110672809D01*
X170897483Y-110709500D01*
X171027717Y-110709500D01*
X171152673Y-110672809D01*
X171152673Y-110672808D01*
X171152676Y-110672808D01*
X171262236Y-110602399D01*
X171347521Y-110503974D01*
X171401623Y-110385509D01*
X171420157Y-110256600D01*
X171401623Y-110127691D01*
X171379072Y-110078313D01*
X171347521Y-110009226D01*
X171347519Y-110009223D01*
X171262233Y-109910798D01*
X171152673Y-109840390D01*
X171120486Y-109830939D01*
X177843767Y-109830939D01*
X177862301Y-109959851D01*
X177916402Y-110078313D01*
X177916404Y-110078316D01*
X178001690Y-110176741D01*
X178067420Y-110218982D01*
X178099974Y-110239903D01*
X178111250Y-110247149D01*
X178236207Y-110283840D01*
X178366441Y-110283840D01*
X178491397Y-110247149D01*
X178491397Y-110247148D01*
X178491400Y-110247148D01*
X178600960Y-110176739D01*
X178686245Y-110078314D01*
X178740347Y-109959849D01*
X178758881Y-109830940D01*
X178740347Y-109702031D01*
X178723797Y-109665793D01*
X178686245Y-109583566D01*
X178686243Y-109583563D01*
X178600957Y-109485138D01*
X178491397Y-109414730D01*
X178366441Y-109378040D01*
X178236207Y-109378040D01*
X178111250Y-109414730D01*
X178001690Y-109485138D01*
X177916404Y-109583563D01*
X177916402Y-109583566D01*
X177862301Y-109702028D01*
X177843767Y-109830939D01*
X171120486Y-109830939D01*
X171027717Y-109803700D01*
X170897483Y-109803700D01*
X170772526Y-109840390D01*
X170662966Y-109910798D01*
X170577680Y-110009223D01*
X170577678Y-110009226D01*
X170523577Y-110127688D01*
X170505043Y-110256600D01*
X169246756Y-110256600D01*
X169240700Y-110239902D01*
X169240700Y-109425913D01*
X169241626Y-109414150D01*
X169242657Y-109407642D01*
X169251714Y-109362111D01*
X169258460Y-109342656D01*
X169265487Y-109328865D01*
X169267697Y-109325094D01*
X169286257Y-109297318D01*
X169295590Y-109285947D01*
X169306147Y-109275390D01*
X169317518Y-109266057D01*
X169345294Y-109247497D01*
X169349071Y-109245284D01*
X169362857Y-109238260D01*
X169382311Y-109231514D01*
X169427849Y-109222456D01*
X169434365Y-109221424D01*
X169446116Y-109220500D01*
X196390083Y-109220500D01*
X196401835Y-109221424D01*
X196408340Y-109222454D01*
X196453883Y-109231513D01*
X196473347Y-109238262D01*
X196487113Y-109245277D01*
X196490920Y-109247507D01*
X196518670Y-109266050D01*
X196530062Y-109275400D01*
X196540598Y-109285936D01*
X196549950Y-109297330D01*
X196568483Y-109325065D01*
X196570724Y-109328889D01*
X196577735Y-109342650D01*
X196584486Y-109362117D01*
X196593545Y-109407659D01*
X196594573Y-109414150D01*
X196594574Y-109414151D01*
X196595500Y-109425917D01*
X196595500Y-130858081D01*
X196594574Y-130869845D01*
X196593546Y-130876336D01*
X196584486Y-130921881D01*
X196577735Y-130941348D01*
X196570724Y-130955109D01*
X196568483Y-130958933D01*
X196549950Y-130986668D01*
X196540598Y-130998062D01*
X196530062Y-131008598D01*
X196518668Y-131017950D01*
X196490933Y-131036483D01*
X196487109Y-131038724D01*
X196473348Y-131045735D01*
X196453881Y-131052486D01*
X196408336Y-131061546D01*
X196401845Y-131062574D01*
X196390081Y-131063500D01*
X108409918Y-131063500D01*
X108398154Y-131062574D01*
X108391663Y-131061546D01*
X108346117Y-131052486D01*
X108326650Y-131045735D01*
X108312889Y-131038724D01*
X108309069Y-131036485D01*
X108281330Y-131017950D01*
X108269936Y-131008598D01*
X108259400Y-130998062D01*
X108250048Y-130986668D01*
X108231507Y-130958920D01*
X108229275Y-130955110D01*
X108222262Y-130941347D01*
X108215513Y-130921881D01*
X108206453Y-130876336D01*
X108205424Y-130869839D01*
X108204500Y-130858082D01*
X108204500Y-130106700D01*
X132130443Y-130106700D01*
X132133844Y-130130353D01*
X132148977Y-130235611D01*
X132203078Y-130354073D01*
X132203080Y-130354076D01*
X132288366Y-130452501D01*
X132397926Y-130522909D01*
X132522883Y-130559600D01*
X132653117Y-130559600D01*
X132778073Y-130522909D01*
X132778073Y-130522908D01*
X132778076Y-130522908D01*
X132887636Y-130452499D01*
X132972921Y-130354074D01*
X133027023Y-130235609D01*
X133045557Y-130106700D01*
X133030423Y-130001441D01*
X136199118Y-130001441D01*
X136217652Y-130130353D01*
X136271753Y-130248815D01*
X136271755Y-130248818D01*
X136357041Y-130347243D01*
X136466601Y-130417651D01*
X136591558Y-130454342D01*
X136721792Y-130454342D01*
X136846748Y-130417651D01*
X136846748Y-130417650D01*
X136846751Y-130417650D01*
X136956311Y-130347241D01*
X137041596Y-130248816D01*
X137095698Y-130130351D01*
X137114232Y-130001442D01*
X137095698Y-129872533D01*
X137089666Y-129859326D01*
X137041596Y-129754068D01*
X137041594Y-129754065D01*
X136986506Y-129690490D01*
X136966156Y-129667005D01*
X142290443Y-129667005D01*
X142308977Y-129795917D01*
X142363078Y-129914379D01*
X142363080Y-129914382D01*
X142448366Y-130012807D01*
X142503129Y-130048000D01*
X142557916Y-130083209D01*
X142557926Y-130083215D01*
X142682883Y-130119906D01*
X142813117Y-130119906D01*
X142938073Y-130083215D01*
X142938073Y-130083214D01*
X142938076Y-130083214D01*
X143047636Y-130012805D01*
X143132921Y-129914380D01*
X143187023Y-129795915D01*
X143205557Y-129667006D01*
X143205556Y-129667000D01*
X148513443Y-129667000D01*
X148531977Y-129795911D01*
X148586078Y-129914373D01*
X148586080Y-129914376D01*
X148671366Y-130012801D01*
X148780926Y-130083209D01*
X148905883Y-130119900D01*
X149036117Y-130119900D01*
X149161073Y-130083209D01*
X149161073Y-130083208D01*
X149161076Y-130083208D01*
X149270636Y-130012799D01*
X149355921Y-129914374D01*
X149410023Y-129795909D01*
X149410297Y-129794000D01*
X174040443Y-129794000D01*
X174058977Y-129922911D01*
X174113078Y-130041373D01*
X174113080Y-130041376D01*
X174118820Y-130048000D01*
X174190177Y-130130351D01*
X174198366Y-130139801D01*
X174307926Y-130210209D01*
X174432883Y-130246900D01*
X174563117Y-130246900D01*
X174688073Y-130210209D01*
X174688073Y-130210208D01*
X174688076Y-130210208D01*
X174797636Y-130139799D01*
X174877180Y-130048000D01*
X182168443Y-130048000D01*
X182186977Y-130176911D01*
X182241078Y-130295373D01*
X182241080Y-130295376D01*
X182326366Y-130393801D01*
X182435926Y-130464209D01*
X182560883Y-130500900D01*
X182691117Y-130500900D01*
X182816073Y-130464209D01*
X182816073Y-130464208D01*
X182816076Y-130464208D01*
X182925636Y-130393799D01*
X183010921Y-130295374D01*
X183065023Y-130176909D01*
X183083557Y-130048000D01*
X183065023Y-129919091D01*
X183062872Y-129914382D01*
X183010921Y-129800626D01*
X183010919Y-129800623D01*
X182925633Y-129702198D01*
X182853189Y-129655643D01*
X182816076Y-129631792D01*
X182816069Y-129631790D01*
X182749196Y-129612154D01*
X182707773Y-129581655D01*
X182695645Y-129531665D01*
X182718488Y-129485575D01*
X182749196Y-129467846D01*
X182753930Y-129466456D01*
X182816076Y-129448208D01*
X182925636Y-129377799D01*
X183010921Y-129279374D01*
X183065023Y-129160909D01*
X183083557Y-129032000D01*
X183066181Y-128911144D01*
X187434000Y-128911144D01*
X187449511Y-129033935D01*
X187449512Y-129033939D01*
X187510337Y-129187565D01*
X187510339Y-129187570D01*
X187607466Y-129321253D01*
X187734783Y-129426578D01*
X187884299Y-129496935D01*
X187884302Y-129496936D01*
X187960999Y-129511565D01*
X187961000Y-129511565D01*
X187961000Y-129191267D01*
X187978593Y-129142929D01*
X188023142Y-129117209D01*
X188050868Y-129117511D01*
X188088000Y-129124898D01*
X188125130Y-129117512D01*
X188175969Y-129125337D01*
X188209887Y-129164011D01*
X188215000Y-129191267D01*
X188215000Y-129516391D01*
X188368669Y-129466461D01*
X188368679Y-129466456D01*
X188508187Y-129377922D01*
X188621303Y-129257464D01*
X188700906Y-129112667D01*
X188742000Y-128952617D01*
X188742000Y-128697000D01*
X188413200Y-128697000D01*
X188364862Y-128679407D01*
X188339142Y-128634858D01*
X188338000Y-128621800D01*
X188338000Y-128518200D01*
X188355593Y-128469862D01*
X188400142Y-128444142D01*
X188413200Y-128443000D01*
X188742000Y-128443000D01*
X188742000Y-128228855D01*
X188726488Y-128106064D01*
X188726487Y-128106060D01*
X188665662Y-127952434D01*
X188665660Y-127952429D01*
X188568533Y-127818746D01*
X188441216Y-127713421D01*
X188291703Y-127643065D01*
X188215000Y-127628433D01*
X188215000Y-127948732D01*
X188197407Y-127997070D01*
X188152858Y-128022790D01*
X188125130Y-128022487D01*
X188088002Y-128015102D01*
X188087998Y-128015102D01*
X188050870Y-128022487D01*
X188000029Y-128014662D01*
X187966113Y-127975987D01*
X187961000Y-127948732D01*
X187961000Y-127623608D01*
X187960999Y-127623607D01*
X187807330Y-127673538D01*
X187807320Y-127673543D01*
X187667812Y-127762077D01*
X187554696Y-127882535D01*
X187475093Y-128027332D01*
X187434000Y-128187382D01*
X187434000Y-128443000D01*
X187762800Y-128443000D01*
X187811138Y-128460593D01*
X187836858Y-128505142D01*
X187838000Y-128518200D01*
X187838000Y-128621800D01*
X187820407Y-128670138D01*
X187775858Y-128695858D01*
X187762800Y-128697000D01*
X187434000Y-128697000D01*
X187434000Y-128911144D01*
X183066181Y-128911144D01*
X183065023Y-128903091D01*
X183062868Y-128898373D01*
X183010921Y-128784626D01*
X183010919Y-128784623D01*
X182934993Y-128697000D01*
X182925636Y-128686201D01*
X182925635Y-128686200D01*
X182925633Y-128686198D01*
X182816073Y-128615790D01*
X182691117Y-128579100D01*
X182560883Y-128579100D01*
X182435926Y-128615790D01*
X182326366Y-128686198D01*
X182241080Y-128784623D01*
X182241078Y-128784626D01*
X182186977Y-128903088D01*
X182186977Y-128903091D01*
X182168443Y-129032000D01*
X182173504Y-129067198D01*
X182186977Y-129160911D01*
X182241078Y-129279373D01*
X182241080Y-129279376D01*
X182326366Y-129377801D01*
X182391458Y-129419632D01*
X182435913Y-129448201D01*
X182435926Y-129448209D01*
X182502803Y-129467846D01*
X182544226Y-129498345D01*
X182556354Y-129548335D01*
X182533511Y-129594425D01*
X182502803Y-129612154D01*
X182435926Y-129631790D01*
X182326366Y-129702198D01*
X182241080Y-129800623D01*
X182241078Y-129800626D01*
X182186977Y-129919088D01*
X182168443Y-130048000D01*
X174877180Y-130048000D01*
X174882921Y-130041374D01*
X174937023Y-129922909D01*
X174955557Y-129794000D01*
X174937023Y-129665091D01*
X174934868Y-129660373D01*
X174882921Y-129546626D01*
X174882919Y-129546623D01*
X174877180Y-129540000D01*
X177596443Y-129540000D01*
X177596718Y-129541911D01*
X177614977Y-129668911D01*
X177669078Y-129787373D01*
X177669080Y-129787376D01*
X177705328Y-129829208D01*
X177742866Y-129872530D01*
X177754366Y-129885801D01*
X177863926Y-129956209D01*
X177988883Y-129992900D01*
X178119117Y-129992900D01*
X178244073Y-129956209D01*
X178244073Y-129956208D01*
X178244076Y-129956208D01*
X178353636Y-129885799D01*
X178438921Y-129787374D01*
X178493023Y-129668909D01*
X178511557Y-129540000D01*
X178493023Y-129411091D01*
X178466520Y-129353058D01*
X178462443Y-129301780D01*
X178492281Y-129259878D01*
X178542072Y-129246958D01*
X178588518Y-129269067D01*
X178595762Y-129277616D01*
X178627466Y-129321253D01*
X178754783Y-129426578D01*
X178904299Y-129496935D01*
X178904302Y-129496936D01*
X178980999Y-129511565D01*
X178981000Y-129511565D01*
X178981000Y-129191267D01*
X178998593Y-129142929D01*
X179043142Y-129117209D01*
X179070868Y-129117511D01*
X179108000Y-129124898D01*
X179145130Y-129117512D01*
X179195969Y-129125337D01*
X179229887Y-129164011D01*
X179235000Y-129191267D01*
X179235000Y-129516391D01*
X179388669Y-129466461D01*
X179388679Y-129466456D01*
X179528187Y-129377922D01*
X179641303Y-129257464D01*
X179720906Y-129112667D01*
X179762000Y-128952617D01*
X179762000Y-128697000D01*
X179433200Y-128697000D01*
X179384862Y-128679407D01*
X179359142Y-128634858D01*
X179358000Y-128621800D01*
X179358000Y-128518200D01*
X179375593Y-128469862D01*
X179420142Y-128444142D01*
X179433200Y-128443000D01*
X179762000Y-128443000D01*
X179762000Y-128228855D01*
X179746488Y-128106064D01*
X179746487Y-128106060D01*
X179685662Y-127952434D01*
X179685660Y-127952429D01*
X179588533Y-127818746D01*
X179461216Y-127713421D01*
X179311703Y-127643065D01*
X179235000Y-127628433D01*
X179235000Y-127948732D01*
X179217407Y-127997070D01*
X179172858Y-128022790D01*
X179145130Y-128022487D01*
X179108002Y-128015102D01*
X179107998Y-128015102D01*
X179070870Y-128022487D01*
X179020029Y-128014662D01*
X178986113Y-127975987D01*
X178981000Y-127948732D01*
X178981000Y-127623608D01*
X178980999Y-127623607D01*
X178827330Y-127673538D01*
X178827320Y-127673543D01*
X178687812Y-127762077D01*
X178574696Y-127882535D01*
X178495093Y-128027332D01*
X178454000Y-128187382D01*
X178454000Y-128443000D01*
X178782800Y-128443000D01*
X178831138Y-128460593D01*
X178856858Y-128505142D01*
X178858000Y-128518200D01*
X178858000Y-128621800D01*
X178840407Y-128670138D01*
X178795858Y-128695858D01*
X178782800Y-128697000D01*
X178454000Y-128697000D01*
X178454000Y-128911144D01*
X178469511Y-129033935D01*
X178469512Y-129033939D01*
X178521116Y-129164276D01*
X178522552Y-129215696D01*
X178490600Y-129256009D01*
X178440211Y-129266352D01*
X178394962Y-129241886D01*
X178394365Y-129241205D01*
X178372261Y-129215696D01*
X178353636Y-129194201D01*
X178353635Y-129194200D01*
X178353633Y-129194198D01*
X178244073Y-129123790D01*
X178119117Y-129087100D01*
X177988883Y-129087100D01*
X177863926Y-129123790D01*
X177754366Y-129194198D01*
X177669080Y-129292623D01*
X177669078Y-129292626D01*
X177614977Y-129411088D01*
X177596443Y-129539999D01*
X177596443Y-129540000D01*
X174877180Y-129540000D01*
X174797633Y-129448198D01*
X174688073Y-129377790D01*
X174563117Y-129341100D01*
X174432883Y-129341100D01*
X174307926Y-129377790D01*
X174198366Y-129448198D01*
X174113080Y-129546623D01*
X174113078Y-129546626D01*
X174058977Y-129665088D01*
X174040443Y-129794000D01*
X149410297Y-129794000D01*
X149428557Y-129667000D01*
X149410023Y-129538091D01*
X149407868Y-129533373D01*
X149355921Y-129419626D01*
X149355919Y-129419623D01*
X149270641Y-129321207D01*
X149270636Y-129321201D01*
X149270635Y-129321200D01*
X149270633Y-129321198D01*
X149215862Y-129286000D01*
X167944443Y-129286000D01*
X167949505Y-129321207D01*
X167962977Y-129414911D01*
X168017078Y-129533373D01*
X168017080Y-129533376D01*
X168102366Y-129631801D01*
X168157146Y-129667005D01*
X168211913Y-129702201D01*
X168211926Y-129702209D01*
X168336883Y-129738900D01*
X168467117Y-129738900D01*
X168592073Y-129702209D01*
X168592073Y-129702208D01*
X168592076Y-129702208D01*
X168701636Y-129631799D01*
X168786921Y-129533374D01*
X168841023Y-129414909D01*
X168859557Y-129286000D01*
X168841023Y-129157091D01*
X168834555Y-129142929D01*
X168786921Y-129038626D01*
X168786919Y-129038623D01*
X168733436Y-128976900D01*
X168701636Y-128940201D01*
X168701635Y-128940200D01*
X168701633Y-128940198D01*
X168592073Y-128869790D01*
X168467117Y-128833100D01*
X168336883Y-128833100D01*
X168211926Y-128869790D01*
X168102366Y-128940198D01*
X168017080Y-129038623D01*
X168017078Y-129038626D01*
X167962977Y-129157088D01*
X167945648Y-129277616D01*
X167944443Y-129286000D01*
X149215862Y-129286000D01*
X149161073Y-129250790D01*
X149036117Y-129214100D01*
X148905883Y-129214100D01*
X148780926Y-129250790D01*
X148671366Y-129321198D01*
X148586080Y-129419623D01*
X148586078Y-129419626D01*
X148531977Y-129538088D01*
X148513443Y-129667000D01*
X143205556Y-129667000D01*
X143187023Y-129538097D01*
X143187020Y-129538091D01*
X143132921Y-129419632D01*
X143132919Y-129419629D01*
X143064873Y-129341100D01*
X143047636Y-129321207D01*
X143047635Y-129321206D01*
X143047633Y-129321204D01*
X142938073Y-129250796D01*
X142813117Y-129214106D01*
X142682883Y-129214106D01*
X142557926Y-129250796D01*
X142448366Y-129321204D01*
X142363080Y-129419629D01*
X142363078Y-129419632D01*
X142308977Y-129538094D01*
X142290443Y-129667005D01*
X136966156Y-129667005D01*
X136956311Y-129655643D01*
X136956310Y-129655642D01*
X136956308Y-129655640D01*
X136846748Y-129585232D01*
X136721792Y-129548542D01*
X136591558Y-129548542D01*
X136466601Y-129585232D01*
X136357041Y-129655640D01*
X136271755Y-129754065D01*
X136271753Y-129754068D01*
X136217652Y-129872530D01*
X136199118Y-130001441D01*
X133030423Y-130001441D01*
X133027023Y-129977791D01*
X133017166Y-129956208D01*
X132972921Y-129859326D01*
X132972919Y-129859323D01*
X132917977Y-129795917D01*
X132887636Y-129760901D01*
X132887635Y-129760900D01*
X132887633Y-129760898D01*
X132778073Y-129690490D01*
X132653117Y-129653800D01*
X132522883Y-129653800D01*
X132397926Y-129690490D01*
X132288366Y-129760898D01*
X132203080Y-129859323D01*
X132203078Y-129859326D01*
X132148977Y-129977788D01*
X132130443Y-130106699D01*
X132130443Y-130106700D01*
X108204500Y-130106700D01*
X108204500Y-129413000D01*
X111556443Y-129413000D01*
X111556718Y-129414911D01*
X111574977Y-129541911D01*
X111629078Y-129660373D01*
X111629080Y-129660376D01*
X111714366Y-129758801D01*
X111823926Y-129829209D01*
X111948883Y-129865900D01*
X112079117Y-129865900D01*
X112204073Y-129829209D01*
X112204073Y-129829208D01*
X112204076Y-129829208D01*
X112313636Y-129758799D01*
X112398921Y-129660374D01*
X112453023Y-129541909D01*
X112471557Y-129413000D01*
X112453023Y-129284091D01*
X112450868Y-129279373D01*
X112398921Y-129165626D01*
X112398919Y-129165623D01*
X112313633Y-129067198D01*
X112204073Y-128996790D01*
X112079117Y-128960100D01*
X111948883Y-128960100D01*
X111823926Y-128996790D01*
X111714366Y-129067198D01*
X111629080Y-129165623D01*
X111629078Y-129165626D01*
X111574977Y-129284088D01*
X111569634Y-129321253D01*
X111556443Y-129413000D01*
X108204500Y-129413000D01*
X108204500Y-128524000D01*
X116128443Y-128524000D01*
X116146977Y-128652911D01*
X116201078Y-128771373D01*
X116201080Y-128771376D01*
X116286366Y-128869801D01*
X116330828Y-128898374D01*
X116395913Y-128940201D01*
X116395926Y-128940209D01*
X116520883Y-128976900D01*
X116651117Y-128976900D01*
X116776073Y-128940209D01*
X116776073Y-128940208D01*
X116776076Y-128940208D01*
X116885636Y-128869799D01*
X116970921Y-128771374D01*
X117025023Y-128652909D01*
X117043557Y-128524000D01*
X118414443Y-128524000D01*
X118432977Y-128652911D01*
X118487078Y-128771373D01*
X118487080Y-128771376D01*
X118572366Y-128869801D01*
X118616828Y-128898374D01*
X118681913Y-128940201D01*
X118681926Y-128940209D01*
X118806883Y-128976900D01*
X118937117Y-128976900D01*
X119062073Y-128940209D01*
X119062073Y-128940208D01*
X119062076Y-128940208D01*
X119171636Y-128869799D01*
X119256921Y-128771374D01*
X119311023Y-128652909D01*
X119311297Y-128651000D01*
X120827443Y-128651000D01*
X120827718Y-128652911D01*
X120845977Y-128779911D01*
X120900078Y-128898373D01*
X120900080Y-128898376D01*
X120985366Y-128996801D01*
X121050444Y-129038623D01*
X121094913Y-129067201D01*
X121094926Y-129067209D01*
X121219883Y-129103900D01*
X121350117Y-129103900D01*
X121475073Y-129067209D01*
X121475073Y-129067208D01*
X121475076Y-129067208D01*
X121529861Y-129032000D01*
X123621443Y-129032000D01*
X123639977Y-129160911D01*
X123694078Y-129279373D01*
X123694080Y-129279376D01*
X123779366Y-129377801D01*
X123844458Y-129419632D01*
X123888913Y-129448201D01*
X123888926Y-129448209D01*
X124013883Y-129484900D01*
X124144117Y-129484900D01*
X124269073Y-129448209D01*
X124269073Y-129448208D01*
X124269076Y-129448208D01*
X124378636Y-129377799D01*
X124463921Y-129279374D01*
X124518023Y-129160909D01*
X124536557Y-129032000D01*
X124518023Y-128903091D01*
X124515868Y-128898373D01*
X124463921Y-128784626D01*
X124463919Y-128784623D01*
X124387993Y-128697000D01*
X124378636Y-128686201D01*
X124378635Y-128686200D01*
X124378633Y-128686198D01*
X124269073Y-128615790D01*
X124144117Y-128579100D01*
X124013883Y-128579100D01*
X123888926Y-128615790D01*
X123779366Y-128686198D01*
X123694080Y-128784623D01*
X123694078Y-128784626D01*
X123639977Y-128903088D01*
X123621443Y-129032000D01*
X121529861Y-129032000D01*
X121584636Y-128996799D01*
X121669921Y-128898374D01*
X121724023Y-128779909D01*
X121742557Y-128651000D01*
X121724023Y-128522091D01*
X121700170Y-128469862D01*
X121669921Y-128403626D01*
X121669919Y-128403623D01*
X121584633Y-128305198D01*
X121475073Y-128234790D01*
X121350117Y-128198100D01*
X121219883Y-128198100D01*
X121094926Y-128234790D01*
X120985366Y-128305198D01*
X120900080Y-128403623D01*
X120900078Y-128403626D01*
X120845977Y-128522088D01*
X120837780Y-128579100D01*
X120827443Y-128651000D01*
X119311297Y-128651000D01*
X119329557Y-128524000D01*
X119311023Y-128395091D01*
X119256921Y-128276626D01*
X119256919Y-128276623D01*
X119171633Y-128178198D01*
X119062073Y-128107790D01*
X118937117Y-128071100D01*
X118806883Y-128071100D01*
X118681926Y-128107790D01*
X118572366Y-128178198D01*
X118487080Y-128276623D01*
X118487078Y-128276626D01*
X118432977Y-128395088D01*
X118414443Y-128524000D01*
X117043557Y-128524000D01*
X117037537Y-128482130D01*
X117048071Y-128431781D01*
X117088505Y-128399983D01*
X117139919Y-128401614D01*
X117152626Y-128408165D01*
X117157926Y-128411571D01*
X117282883Y-128448262D01*
X117413117Y-128448262D01*
X117538073Y-128411571D01*
X117538073Y-128411570D01*
X117538076Y-128411570D01*
X117647636Y-128341161D01*
X117732921Y-128242736D01*
X117787023Y-128124271D01*
X117805557Y-127995362D01*
X117791380Y-127896760D01*
X117801916Y-127846413D01*
X117842350Y-127814615D01*
X117893764Y-127816247D01*
X117922648Y-127836815D01*
X117937364Y-127853799D01*
X117973327Y-127876911D01*
X118046926Y-127924209D01*
X118171883Y-127960900D01*
X118302117Y-127960900D01*
X118427073Y-127924209D01*
X118427073Y-127924208D01*
X118427076Y-127924208D01*
X118536636Y-127853799D01*
X118621921Y-127755374D01*
X118676023Y-127636909D01*
X118694557Y-127508000D01*
X118687757Y-127460703D01*
X119985740Y-127460703D01*
X120004274Y-127589614D01*
X120058375Y-127708076D01*
X120058377Y-127708079D01*
X120143663Y-127806504D01*
X120253223Y-127876912D01*
X120378180Y-127913603D01*
X120508414Y-127913603D01*
X120633370Y-127876912D01*
X120633370Y-127876911D01*
X120633373Y-127876911D01*
X120742933Y-127806502D01*
X120828218Y-127708077D01*
X120882320Y-127589612D01*
X120900854Y-127460703D01*
X120882320Y-127331794D01*
X120872631Y-127310579D01*
X120828218Y-127213329D01*
X120828216Y-127213326D01*
X120742930Y-127114901D01*
X120633370Y-127044493D01*
X120508414Y-127007803D01*
X120378180Y-127007803D01*
X120253223Y-127044493D01*
X120143663Y-127114901D01*
X120058377Y-127213326D01*
X120058375Y-127213329D01*
X120004274Y-127331791D01*
X119985740Y-127460703D01*
X118687757Y-127460703D01*
X118676023Y-127379091D01*
X118654421Y-127331791D01*
X118621921Y-127260626D01*
X118621919Y-127260623D01*
X118570790Y-127201617D01*
X118536636Y-127162201D01*
X118536635Y-127162200D01*
X118536633Y-127162198D01*
X118427073Y-127091790D01*
X118302117Y-127055100D01*
X118171883Y-127055100D01*
X118046926Y-127091790D01*
X117937366Y-127162198D01*
X117852080Y-127260623D01*
X117852078Y-127260626D01*
X117797977Y-127379088D01*
X117779443Y-127508000D01*
X117793619Y-127606600D01*
X117783083Y-127656949D01*
X117742648Y-127688747D01*
X117691234Y-127687114D01*
X117662352Y-127666547D01*
X117647636Y-127649563D01*
X117647635Y-127649562D01*
X117647633Y-127649560D01*
X117538073Y-127579152D01*
X117413117Y-127542462D01*
X117282883Y-127542462D01*
X117157926Y-127579152D01*
X117048366Y-127649560D01*
X116963080Y-127747985D01*
X116963078Y-127747988D01*
X116908977Y-127866450D01*
X116904619Y-127896762D01*
X116890443Y-127995362D01*
X116894386Y-128022790D01*
X116896463Y-128037231D01*
X116885927Y-128087581D01*
X116845492Y-128119379D01*
X116794079Y-128117746D01*
X116781374Y-128111197D01*
X116776073Y-128107790D01*
X116651117Y-128071100D01*
X116520883Y-128071100D01*
X116395926Y-128107790D01*
X116286366Y-128178198D01*
X116201080Y-128276623D01*
X116201078Y-128276626D01*
X116146977Y-128395088D01*
X116128443Y-128524000D01*
X108204500Y-128524000D01*
X108204500Y-127508000D01*
X112318443Y-127508000D01*
X112336977Y-127636911D01*
X112391078Y-127755373D01*
X112391080Y-127755376D01*
X112435381Y-127806502D01*
X112461647Y-127836815D01*
X112476366Y-127853801D01*
X112585926Y-127924209D01*
X112710883Y-127960900D01*
X112841117Y-127960900D01*
X112966073Y-127924209D01*
X112966073Y-127924208D01*
X112966076Y-127924208D01*
X113075636Y-127853799D01*
X113160921Y-127755374D01*
X113215023Y-127636909D01*
X113233557Y-127508000D01*
X113215023Y-127379091D01*
X113193421Y-127331791D01*
X113160921Y-127260626D01*
X113160919Y-127260623D01*
X113109790Y-127201618D01*
X113075636Y-127162201D01*
X113075635Y-127162200D01*
X113075633Y-127162198D01*
X112966073Y-127091790D01*
X112841117Y-127055100D01*
X112710883Y-127055100D01*
X112585926Y-127091790D01*
X112476366Y-127162198D01*
X112391080Y-127260623D01*
X112391078Y-127260626D01*
X112336977Y-127379088D01*
X112318443Y-127508000D01*
X108204500Y-127508000D01*
X108204500Y-127000000D01*
X139242451Y-127000000D01*
X139260985Y-127128911D01*
X139315086Y-127247373D01*
X139315088Y-127247376D01*
X139400374Y-127345801D01*
X139452171Y-127379088D01*
X139509921Y-127416201D01*
X139509934Y-127416209D01*
X139634891Y-127452900D01*
X139765126Y-127452900D01*
X139780130Y-127448494D01*
X139791235Y-127445233D01*
X139842572Y-127448494D01*
X139879801Y-127483991D01*
X139885648Y-127508957D01*
X139886858Y-127508784D01*
X139887623Y-127514106D01*
X139887623Y-127514108D01*
X139891700Y-127542462D01*
X139906157Y-127643019D01*
X139960258Y-127761481D01*
X139960260Y-127761484D01*
X140007713Y-127816247D01*
X140040251Y-127853799D01*
X140045546Y-127859909D01*
X140102892Y-127896762D01*
X140145601Y-127924209D01*
X140155106Y-127930317D01*
X140280063Y-127967008D01*
X140410297Y-127967008D01*
X140535253Y-127930317D01*
X140535253Y-127930316D01*
X140535256Y-127930316D01*
X140644816Y-127859907D01*
X140729652Y-127762000D01*
X142417443Y-127762000D01*
X142435977Y-127890911D01*
X142490078Y-128009373D01*
X142490080Y-128009376D01*
X142575366Y-128107801D01*
X142600995Y-128124271D01*
X142684913Y-128178201D01*
X142684926Y-128178209D01*
X142809883Y-128214900D01*
X142940117Y-128214900D01*
X143065073Y-128178209D01*
X143065073Y-128178208D01*
X143065076Y-128178208D01*
X143174636Y-128107799D01*
X143259921Y-128009374D01*
X143314023Y-127890909D01*
X143332557Y-127762000D01*
X143332557Y-127761999D01*
X144322443Y-127761999D01*
X144340977Y-127890911D01*
X144395078Y-128009373D01*
X144395080Y-128009376D01*
X144480366Y-128107801D01*
X144505995Y-128124271D01*
X144589913Y-128178201D01*
X144589926Y-128178209D01*
X144714883Y-128214900D01*
X144845117Y-128214900D01*
X144970073Y-128178209D01*
X144970073Y-128178208D01*
X144970076Y-128178208D01*
X145079636Y-128107799D01*
X145164921Y-128009374D01*
X145219023Y-127890909D01*
X145237557Y-127762000D01*
X145237557Y-127761999D01*
X167944443Y-127761999D01*
X167962977Y-127890911D01*
X168017078Y-128009373D01*
X168017080Y-128009376D01*
X168102366Y-128107801D01*
X168127995Y-128124271D01*
X168211913Y-128178201D01*
X168211926Y-128178209D01*
X168336883Y-128214900D01*
X168467117Y-128214900D01*
X168592073Y-128178209D01*
X168592073Y-128178208D01*
X168592076Y-128178208D01*
X168701636Y-128107799D01*
X168786921Y-128009374D01*
X168841023Y-127890909D01*
X168859557Y-127762000D01*
X168841023Y-127633091D01*
X168836692Y-127623608D01*
X168786921Y-127514626D01*
X168786919Y-127514623D01*
X168701633Y-127416198D01*
X168592073Y-127345790D01*
X168467117Y-127309100D01*
X168336883Y-127309100D01*
X168211926Y-127345790D01*
X168102366Y-127416198D01*
X168017080Y-127514623D01*
X168017078Y-127514626D01*
X167962977Y-127633088D01*
X167944443Y-127761999D01*
X145237557Y-127761999D01*
X145219023Y-127633091D01*
X145214692Y-127623608D01*
X145164921Y-127514626D01*
X145164919Y-127514623D01*
X145079633Y-127416198D01*
X144970073Y-127345790D01*
X144845117Y-127309100D01*
X144714883Y-127309100D01*
X144589926Y-127345790D01*
X144480366Y-127416198D01*
X144395080Y-127514623D01*
X144395078Y-127514626D01*
X144340977Y-127633088D01*
X144322443Y-127761999D01*
X143332557Y-127761999D01*
X143314023Y-127633091D01*
X143309692Y-127623608D01*
X143259921Y-127514626D01*
X143259919Y-127514623D01*
X143174633Y-127416198D01*
X143065073Y-127345790D01*
X142940117Y-127309100D01*
X142809883Y-127309100D01*
X142684926Y-127345790D01*
X142575366Y-127416198D01*
X142490080Y-127514623D01*
X142490078Y-127514626D01*
X142435977Y-127633088D01*
X142417443Y-127762000D01*
X140729652Y-127762000D01*
X140730101Y-127761482D01*
X140784203Y-127643017D01*
X140802737Y-127514108D01*
X140784203Y-127385199D01*
X140781412Y-127379088D01*
X140730101Y-127266734D01*
X140730099Y-127266731D01*
X140644813Y-127168306D01*
X140590080Y-127133133D01*
X140580167Y-127126762D01*
X140549015Y-127085829D01*
X140551462Y-127034448D01*
X140580168Y-127000237D01*
X140644813Y-126958693D01*
X140644813Y-126958692D01*
X140644816Y-126958691D01*
X140730101Y-126860266D01*
X140784203Y-126741801D01*
X140802737Y-126612892D01*
X140785356Y-126492000D01*
X148640443Y-126492000D01*
X148658977Y-126620911D01*
X148713078Y-126739373D01*
X148713080Y-126739376D01*
X148798366Y-126837801D01*
X148907926Y-126908209D01*
X149032883Y-126944900D01*
X149163117Y-126944900D01*
X149288073Y-126908209D01*
X149288073Y-126908208D01*
X149288076Y-126908208D01*
X149366702Y-126857679D01*
X159845977Y-126857679D01*
X159864511Y-126986590D01*
X159918612Y-127105052D01*
X159918614Y-127105055D01*
X160003900Y-127203480D01*
X160113460Y-127273888D01*
X160238417Y-127310579D01*
X160368651Y-127310579D01*
X160493607Y-127273888D01*
X160493607Y-127273887D01*
X160493610Y-127273887D01*
X160603170Y-127203478D01*
X160688455Y-127105053D01*
X160742557Y-126986588D01*
X160761091Y-126857679D01*
X160742557Y-126728770D01*
X160738452Y-126719782D01*
X160688455Y-126610305D01*
X160688453Y-126610302D01*
X160624694Y-126536720D01*
X160603170Y-126511880D01*
X160603169Y-126511879D01*
X160603167Y-126511877D01*
X160493607Y-126441469D01*
X160368651Y-126404779D01*
X160238417Y-126404779D01*
X160113460Y-126441469D01*
X160003900Y-126511877D01*
X159918614Y-126610302D01*
X159918612Y-126610305D01*
X159864511Y-126728767D01*
X159845977Y-126857679D01*
X149366702Y-126857679D01*
X149397636Y-126837799D01*
X149482921Y-126739374D01*
X149537023Y-126620909D01*
X149555557Y-126492000D01*
X149537023Y-126363091D01*
X149534868Y-126358373D01*
X149482921Y-126244626D01*
X149482919Y-126244623D01*
X149477180Y-126238000D01*
X153847443Y-126238000D01*
X153865977Y-126366911D01*
X153920078Y-126485373D01*
X153920080Y-126485376D01*
X154005366Y-126583801D01*
X154049828Y-126612374D01*
X154114913Y-126654201D01*
X154114926Y-126654209D01*
X154239883Y-126690900D01*
X154370117Y-126690900D01*
X154495073Y-126654209D01*
X154495073Y-126654208D01*
X154495076Y-126654208D01*
X154604636Y-126583799D01*
X154689921Y-126485374D01*
X154744023Y-126366909D01*
X154762557Y-126238000D01*
X161594443Y-126238000D01*
X161612977Y-126366911D01*
X161667078Y-126485373D01*
X161667080Y-126485376D01*
X161752366Y-126583801D01*
X161796828Y-126612374D01*
X161861913Y-126654201D01*
X161861926Y-126654209D01*
X161986883Y-126690900D01*
X162117117Y-126690900D01*
X162242073Y-126654209D01*
X162242073Y-126654208D01*
X162242076Y-126654208D01*
X162351636Y-126583799D01*
X162436921Y-126485374D01*
X162491023Y-126366909D01*
X162509557Y-126238000D01*
X162491023Y-126109091D01*
X162477569Y-126079632D01*
X162436921Y-125990626D01*
X162436919Y-125990623D01*
X162366472Y-125909323D01*
X162351636Y-125892201D01*
X162351635Y-125892200D01*
X162351633Y-125892198D01*
X162242073Y-125821790D01*
X162117117Y-125785100D01*
X161986883Y-125785100D01*
X161861926Y-125821790D01*
X161752366Y-125892198D01*
X161667080Y-125990623D01*
X161667078Y-125990626D01*
X161612977Y-126109088D01*
X161594443Y-126238000D01*
X154762557Y-126238000D01*
X154744023Y-126109091D01*
X154730569Y-126079632D01*
X154689921Y-125990626D01*
X154689919Y-125990623D01*
X154619472Y-125909323D01*
X154604636Y-125892201D01*
X154604635Y-125892200D01*
X154604633Y-125892198D01*
X154495073Y-125821790D01*
X154370117Y-125785100D01*
X154239883Y-125785100D01*
X154114926Y-125821790D01*
X154005366Y-125892198D01*
X153920080Y-125990623D01*
X153920078Y-125990626D01*
X153865977Y-126109088D01*
X153847443Y-126238000D01*
X149477180Y-126238000D01*
X149400963Y-126150041D01*
X149397636Y-126146201D01*
X149397635Y-126146200D01*
X149397633Y-126146198D01*
X149288073Y-126075790D01*
X149163117Y-126039100D01*
X149032883Y-126039100D01*
X148907926Y-126075790D01*
X148798366Y-126146198D01*
X148713080Y-126244623D01*
X148713078Y-126244626D01*
X148658977Y-126363088D01*
X148640443Y-126492000D01*
X140785356Y-126492000D01*
X140784203Y-126483983D01*
X140776133Y-126466313D01*
X140730101Y-126365518D01*
X140730099Y-126365515D01*
X140678970Y-126306509D01*
X140644816Y-126267093D01*
X140644815Y-126267092D01*
X140644813Y-126267090D01*
X140535253Y-126196682D01*
X140410297Y-126159992D01*
X140280063Y-126159992D01*
X140155106Y-126196682D01*
X140045546Y-126267090D01*
X139960260Y-126365515D01*
X139960257Y-126365520D01*
X139906157Y-126483982D01*
X139906156Y-126483986D01*
X139904087Y-126498376D01*
X139879793Y-126543717D01*
X139832037Y-126562834D01*
X139808467Y-126559826D01*
X139765125Y-126547100D01*
X139634891Y-126547100D01*
X139509934Y-126583790D01*
X139400374Y-126654198D01*
X139315088Y-126752623D01*
X139315086Y-126752626D01*
X139260985Y-126871088D01*
X139242451Y-127000000D01*
X108204500Y-127000000D01*
X108204500Y-126365000D01*
X113334443Y-126365000D01*
X113352977Y-126493911D01*
X113407078Y-126612373D01*
X113407080Y-126612376D01*
X113492366Y-126710801D01*
X113601926Y-126781209D01*
X113726883Y-126817900D01*
X113857117Y-126817900D01*
X113982073Y-126781209D01*
X113982073Y-126781208D01*
X113982076Y-126781208D01*
X114091636Y-126710799D01*
X114176921Y-126612374D01*
X114231023Y-126493909D01*
X114249557Y-126365000D01*
X114231023Y-126236091D01*
X114228867Y-126231371D01*
X114178239Y-126120512D01*
X123092821Y-126120512D01*
X123111355Y-126249423D01*
X123165456Y-126367885D01*
X123165458Y-126367888D01*
X123250744Y-126466313D01*
X123307664Y-126502892D01*
X123345502Y-126527209D01*
X123360304Y-126536721D01*
X123485261Y-126573412D01*
X123615495Y-126573412D01*
X123740451Y-126536721D01*
X123740451Y-126536720D01*
X123740454Y-126536720D01*
X123804065Y-126495840D01*
X129126028Y-126495840D01*
X129144562Y-126624751D01*
X129198663Y-126743213D01*
X129198665Y-126743216D01*
X129261179Y-126815361D01*
X129280623Y-126837801D01*
X129283951Y-126841641D01*
X129362252Y-126891961D01*
X129387535Y-126908209D01*
X129393511Y-126912049D01*
X129518468Y-126948740D01*
X129648702Y-126948740D01*
X129773658Y-126912049D01*
X129773658Y-126912048D01*
X129773661Y-126912048D01*
X129883221Y-126841639D01*
X129968506Y-126743214D01*
X130022608Y-126624749D01*
X130041142Y-126495840D01*
X130022608Y-126366931D01*
X130021961Y-126365515D01*
X129968506Y-126248466D01*
X129968504Y-126248463D01*
X129966300Y-126245920D01*
X130733443Y-126245920D01*
X130751977Y-126374831D01*
X130806078Y-126493293D01*
X130806080Y-126493296D01*
X130849770Y-126543717D01*
X130884501Y-126583799D01*
X130891366Y-126591721D01*
X131000926Y-126662129D01*
X131125883Y-126698820D01*
X131256117Y-126698820D01*
X131381073Y-126662129D01*
X131381073Y-126662128D01*
X131381076Y-126662128D01*
X131490636Y-126591719D01*
X131575921Y-126493294D01*
X131630023Y-126374829D01*
X131647234Y-126255122D01*
X132840243Y-126255122D01*
X132858777Y-126384033D01*
X132912878Y-126502495D01*
X132912880Y-126502498D01*
X132944565Y-126539064D01*
X132990190Y-126591719D01*
X132998166Y-126600923D01*
X133107726Y-126671331D01*
X133232683Y-126708022D01*
X133362917Y-126708022D01*
X133487873Y-126671331D01*
X133487873Y-126671330D01*
X133487876Y-126671330D01*
X133597436Y-126600921D01*
X133682721Y-126502496D01*
X133736823Y-126384031D01*
X133736823Y-126384030D01*
X133737059Y-126383514D01*
X133773143Y-126346854D01*
X133824350Y-126341964D01*
X133846115Y-126351489D01*
X133921924Y-126400208D01*
X134046883Y-126436900D01*
X134177117Y-126436900D01*
X134302073Y-126400209D01*
X134302073Y-126400208D01*
X134302076Y-126400208D01*
X134411636Y-126329799D01*
X134455167Y-126279560D01*
X134500118Y-126254551D01*
X134550629Y-126264286D01*
X134568832Y-126279560D01*
X134612366Y-126329801D01*
X134721926Y-126400209D01*
X134846883Y-126436900D01*
X134977117Y-126436900D01*
X135102073Y-126400209D01*
X135102073Y-126400208D01*
X135102076Y-126400208D01*
X135211636Y-126329799D01*
X135296921Y-126231374D01*
X135306764Y-126209820D01*
X135342849Y-126173159D01*
X135394055Y-126168269D01*
X135436425Y-126197439D01*
X135449603Y-126230356D01*
X135450976Y-126239906D01*
X135450977Y-126239911D01*
X135505078Y-126358373D01*
X135505080Y-126358376D01*
X135590366Y-126456801D01*
X135699926Y-126527209D01*
X135824883Y-126563900D01*
X135955117Y-126563900D01*
X136080076Y-126527208D01*
X136111457Y-126507040D01*
X136161631Y-126495708D01*
X136207353Y-126519279D01*
X136220516Y-126539064D01*
X136258096Y-126621352D01*
X136258099Y-126621357D01*
X136343385Y-126719782D01*
X136452945Y-126790190D01*
X136577902Y-126826881D01*
X136708136Y-126826881D01*
X136833092Y-126790190D01*
X136833092Y-126790189D01*
X136833095Y-126790189D01*
X136942655Y-126719780D01*
X137027940Y-126621355D01*
X137082042Y-126502890D01*
X137100576Y-126373981D01*
X137082042Y-126245072D01*
X137081838Y-126244626D01*
X137027940Y-126126607D01*
X137027938Y-126126604D01*
X136942652Y-126028179D01*
X136833092Y-125957771D01*
X136708136Y-125921081D01*
X136577902Y-125921081D01*
X136452945Y-125957771D01*
X136421562Y-125977940D01*
X136371386Y-125989272D01*
X136325665Y-125965700D01*
X136312503Y-125945917D01*
X136274921Y-125863626D01*
X136274919Y-125863623D01*
X136197878Y-125774713D01*
X136189636Y-125765201D01*
X136189635Y-125765200D01*
X136189633Y-125765198D01*
X136108035Y-125712760D01*
X136080076Y-125694792D01*
X136080074Y-125694791D01*
X136080072Y-125694790D01*
X136062947Y-125689761D01*
X136021525Y-125659260D01*
X136009400Y-125609270D01*
X136015732Y-125586368D01*
X136024217Y-125567790D01*
X136057062Y-125495870D01*
X136061572Y-125464499D01*
X143802943Y-125464499D01*
X143821477Y-125593411D01*
X143875578Y-125711873D01*
X143875580Y-125711876D01*
X143960866Y-125810301D01*
X144070426Y-125880709D01*
X144195383Y-125917400D01*
X144325617Y-125917400D01*
X144450573Y-125880709D01*
X144450573Y-125880708D01*
X144450576Y-125880708D01*
X144560136Y-125810299D01*
X144600264Y-125763988D01*
X144645211Y-125738980D01*
X144695722Y-125748714D01*
X144713924Y-125763987D01*
X144764010Y-125821790D01*
X144766717Y-125824914D01*
X144813675Y-125855091D01*
X144871415Y-125892198D01*
X144876277Y-125895322D01*
X145001234Y-125932013D01*
X145131468Y-125932013D01*
X145256424Y-125895322D01*
X145256424Y-125895321D01*
X145256427Y-125895321D01*
X145365987Y-125824912D01*
X145451272Y-125726487D01*
X145505374Y-125608022D01*
X145523908Y-125479113D01*
X145505374Y-125350204D01*
X145498700Y-125335591D01*
X145451272Y-125231739D01*
X145451270Y-125231736D01*
X145393525Y-125165095D01*
X145365987Y-125133314D01*
X145365986Y-125133313D01*
X145365984Y-125133311D01*
X145256424Y-125062903D01*
X145131468Y-125026213D01*
X145001234Y-125026213D01*
X144876277Y-125062903D01*
X144766717Y-125133312D01*
X144726588Y-125179622D01*
X144681637Y-125204632D01*
X144631126Y-125194896D01*
X144612924Y-125179622D01*
X144572796Y-125133312D01*
X144560136Y-125118701D01*
X144560135Y-125118700D01*
X144560133Y-125118698D01*
X144450573Y-125048290D01*
X144325617Y-125011600D01*
X144195383Y-125011600D01*
X144070426Y-125048290D01*
X143960866Y-125118698D01*
X143875580Y-125217123D01*
X143875578Y-125217126D01*
X143821477Y-125335588D01*
X143802943Y-125464499D01*
X136061572Y-125464499D01*
X136075596Y-125366961D01*
X136057062Y-125238052D01*
X136055898Y-125235504D01*
X136002960Y-125119587D01*
X136002958Y-125119584D01*
X135941181Y-125048290D01*
X135917675Y-125021162D01*
X135917674Y-125021161D01*
X135917672Y-125021159D01*
X135808112Y-124950751D01*
X135683156Y-124914061D01*
X135552922Y-124914061D01*
X135427965Y-124950751D01*
X135318405Y-125021159D01*
X135233119Y-125119584D01*
X135233117Y-125119587D01*
X135179016Y-125238049D01*
X135160482Y-125366961D01*
X135176551Y-125478726D01*
X135166015Y-125529076D01*
X135125580Y-125560874D01*
X135080930Y-125561582D01*
X134977117Y-125531100D01*
X134846883Y-125531100D01*
X134721926Y-125567790D01*
X134612366Y-125638198D01*
X134568832Y-125688440D01*
X134523882Y-125713449D01*
X134473371Y-125703714D01*
X134455168Y-125688440D01*
X134447643Y-125679756D01*
X134411636Y-125638201D01*
X134411635Y-125638200D01*
X134411633Y-125638198D01*
X134302073Y-125567790D01*
X134177117Y-125531100D01*
X134046883Y-125531100D01*
X133921926Y-125567790D01*
X133812366Y-125638198D01*
X133727080Y-125736623D01*
X133727078Y-125736626D01*
X133672741Y-125855607D01*
X133636657Y-125892267D01*
X133585450Y-125897157D01*
X133563682Y-125887630D01*
X133487873Y-125838912D01*
X133362917Y-125802222D01*
X133232683Y-125802222D01*
X133107726Y-125838912D01*
X132998166Y-125909320D01*
X132912880Y-126007745D01*
X132912878Y-126007748D01*
X132858777Y-126126210D01*
X132840243Y-126255122D01*
X131647234Y-126255122D01*
X131648557Y-126245920D01*
X131630023Y-126117011D01*
X131612952Y-126079632D01*
X131575921Y-125998546D01*
X131575919Y-125998543D01*
X131505608Y-125917400D01*
X131490636Y-125900121D01*
X131490635Y-125900120D01*
X131490633Y-125900118D01*
X131381073Y-125829710D01*
X131256117Y-125793020D01*
X131125883Y-125793020D01*
X131000926Y-125829710D01*
X130891366Y-125900118D01*
X130806080Y-125998543D01*
X130806078Y-125998546D01*
X130751977Y-126117008D01*
X130733443Y-126245920D01*
X129966300Y-126245920D01*
X129903253Y-126173159D01*
X129883221Y-126150041D01*
X129883220Y-126150040D01*
X129883218Y-126150038D01*
X129773658Y-126079630D01*
X129648702Y-126042940D01*
X129518468Y-126042940D01*
X129393511Y-126079630D01*
X129283951Y-126150038D01*
X129198665Y-126248463D01*
X129198663Y-126248466D01*
X129144562Y-126366928D01*
X129126028Y-126495840D01*
X123804065Y-126495840D01*
X123850014Y-126466311D01*
X123935299Y-126367886D01*
X123989401Y-126249421D01*
X124007935Y-126120512D01*
X123989401Y-125991603D01*
X123988953Y-125990623D01*
X123935299Y-125873138D01*
X123935297Y-125873135D01*
X123850011Y-125774710D01*
X123740451Y-125704302D01*
X123615495Y-125667612D01*
X123485261Y-125667612D01*
X123360304Y-125704302D01*
X123250744Y-125774710D01*
X123165458Y-125873135D01*
X123165456Y-125873138D01*
X123111355Y-125991600D01*
X123092821Y-126120512D01*
X114178239Y-126120512D01*
X114176921Y-126117626D01*
X114176919Y-126117623D01*
X114091633Y-126019198D01*
X113982073Y-125948790D01*
X113857117Y-125912100D01*
X113726883Y-125912100D01*
X113601926Y-125948790D01*
X113492366Y-126019198D01*
X113407080Y-126117623D01*
X113407078Y-126117626D01*
X113352977Y-126236088D01*
X113334443Y-126365000D01*
X108204500Y-126365000D01*
X108204500Y-124819296D01*
X112551843Y-124819296D01*
X112552614Y-124824657D01*
X112570377Y-124948207D01*
X112624478Y-125066669D01*
X112624480Y-125066672D01*
X112709766Y-125165097D01*
X112772428Y-125205366D01*
X112813465Y-125231739D01*
X112819326Y-125235505D01*
X112944283Y-125272196D01*
X113074517Y-125272196D01*
X113199473Y-125235505D01*
X113199473Y-125235504D01*
X113199476Y-125235504D01*
X113309036Y-125165095D01*
X113394321Y-125066670D01*
X113448423Y-124948205D01*
X113466957Y-124819296D01*
X113448423Y-124690387D01*
X113426594Y-124642590D01*
X113394321Y-124571922D01*
X113394319Y-124571919D01*
X113326218Y-124493326D01*
X113309036Y-124473497D01*
X113309035Y-124473496D01*
X113309033Y-124473494D01*
X113199473Y-124403086D01*
X113074517Y-124366396D01*
X112944283Y-124366396D01*
X112819326Y-124403086D01*
X112709766Y-124473494D01*
X112624480Y-124571919D01*
X112624478Y-124571922D01*
X112570377Y-124690384D01*
X112552019Y-124818070D01*
X112551843Y-124819296D01*
X108204500Y-124819296D01*
X108204500Y-124333000D01*
X118816043Y-124333000D01*
X118820845Y-124366396D01*
X118834577Y-124461911D01*
X118888678Y-124580373D01*
X118888680Y-124580376D01*
X118973966Y-124678801D01*
X119047400Y-124725993D01*
X119080919Y-124747534D01*
X119083526Y-124749209D01*
X119208483Y-124785900D01*
X119338717Y-124785900D01*
X119463673Y-124749209D01*
X119463673Y-124749208D01*
X119463676Y-124749208D01*
X119573236Y-124678799D01*
X119658521Y-124580374D01*
X119712623Y-124461909D01*
X119731157Y-124333000D01*
X119712623Y-124204091D01*
X119710468Y-124199373D01*
X119658521Y-124085626D01*
X119658519Y-124085623D01*
X119573233Y-123987198D01*
X119463673Y-123916790D01*
X119338717Y-123880100D01*
X119208483Y-123880100D01*
X119083526Y-123916790D01*
X118973966Y-123987198D01*
X118888680Y-124085623D01*
X118888678Y-124085626D01*
X118834577Y-124204088D01*
X118824122Y-124276805D01*
X118816043Y-124333000D01*
X108204500Y-124333000D01*
X108204500Y-123698000D01*
X113101043Y-123698000D01*
X113119577Y-123826911D01*
X113173678Y-123945373D01*
X113173680Y-123945376D01*
X113258966Y-124043801D01*
X113368526Y-124114209D01*
X113493483Y-124150900D01*
X113623717Y-124150900D01*
X113748673Y-124114209D01*
X113748673Y-124114208D01*
X113748676Y-124114208D01*
X113858236Y-124043799D01*
X113943521Y-123945374D01*
X113975295Y-123875798D01*
X114011378Y-123839138D01*
X114062585Y-123834248D01*
X114084355Y-123843776D01*
X114109924Y-123860208D01*
X114234883Y-123896900D01*
X114365117Y-123896900D01*
X114490073Y-123860209D01*
X114490073Y-123860208D01*
X114490076Y-123860208D01*
X114591739Y-123794873D01*
X114599633Y-123789801D01*
X114599633Y-123789800D01*
X114599636Y-123789799D01*
X114684921Y-123691374D01*
X114684922Y-123691370D01*
X114685852Y-123690298D01*
X114730803Y-123665288D01*
X114781313Y-123675022D01*
X114783340Y-123676280D01*
X114871926Y-123733209D01*
X114996883Y-123769900D01*
X115127117Y-123769900D01*
X115252073Y-123733209D01*
X115252073Y-123733208D01*
X115252076Y-123733208D01*
X115361636Y-123662799D01*
X115441180Y-123571000D01*
X129209443Y-123571000D01*
X129209718Y-123572911D01*
X129227977Y-123699911D01*
X129282078Y-123818373D01*
X129282080Y-123818376D01*
X129367366Y-123916801D01*
X129425109Y-123953909D01*
X129476913Y-123987201D01*
X129476926Y-123987209D01*
X129601883Y-124023900D01*
X129732117Y-124023900D01*
X129857073Y-123987209D01*
X129857073Y-123987208D01*
X129857076Y-123987208D01*
X129944532Y-123931004D01*
X135940443Y-123931004D01*
X135958977Y-124059915D01*
X136013078Y-124178377D01*
X136013080Y-124178380D01*
X136067521Y-124241208D01*
X136086146Y-124262703D01*
X136098366Y-124276805D01*
X136176668Y-124327125D01*
X136185809Y-124333000D01*
X136207926Y-124347213D01*
X136332883Y-124383904D01*
X136463117Y-124383904D01*
X136588073Y-124347213D01*
X136588073Y-124347212D01*
X136588076Y-124347212D01*
X136697636Y-124276803D01*
X136709853Y-124262703D01*
X136754802Y-124237693D01*
X136805312Y-124247426D01*
X136823516Y-124262700D01*
X136835737Y-124276804D01*
X136885007Y-124333665D01*
X136994567Y-124404073D01*
X137119524Y-124440764D01*
X137249758Y-124440764D01*
X137374714Y-124404073D01*
X137374714Y-124404072D01*
X137374717Y-124404072D01*
X137484277Y-124333663D01*
X137569562Y-124235238D01*
X137623664Y-124116773D01*
X137642198Y-123987864D01*
X137635732Y-123942894D01*
X137646268Y-123892547D01*
X137686702Y-123860749D01*
X137731354Y-123860040D01*
X137731922Y-123860206D01*
X137731924Y-123860208D01*
X137856883Y-123896900D01*
X137856885Y-123896900D01*
X137987117Y-123896900D01*
X138112073Y-123860209D01*
X138112073Y-123860208D01*
X138112076Y-123860208D01*
X138213739Y-123794873D01*
X138221633Y-123789801D01*
X138221633Y-123789800D01*
X138221636Y-123789799D01*
X138306921Y-123691374D01*
X138361023Y-123572909D01*
X138379557Y-123444000D01*
X138361023Y-123315091D01*
X138358868Y-123310373D01*
X138338695Y-123266201D01*
X138314126Y-123212404D01*
X138310050Y-123161128D01*
X138339887Y-123119226D01*
X138389678Y-123106306D01*
X138403717Y-123109012D01*
X138491883Y-123134900D01*
X138622117Y-123134900D01*
X138747073Y-123098209D01*
X138747073Y-123098208D01*
X138747076Y-123098208D01*
X138856636Y-123027799D01*
X138941921Y-122929374D01*
X138996023Y-122810909D01*
X139014557Y-122682000D01*
X142163443Y-122682000D01*
X142181977Y-122810911D01*
X142236078Y-122929373D01*
X142236080Y-122929376D01*
X142266837Y-122964871D01*
X142311995Y-123016987D01*
X142321366Y-123027801D01*
X142386444Y-123069623D01*
X142430913Y-123098201D01*
X142430926Y-123098209D01*
X142555883Y-123134900D01*
X142686117Y-123134900D01*
X142811073Y-123098209D01*
X142811073Y-123098208D01*
X142811076Y-123098208D01*
X142920636Y-123027799D01*
X142991359Y-122946180D01*
X147999335Y-122946180D01*
X148002022Y-122964871D01*
X148017869Y-123075091D01*
X148071970Y-123193553D01*
X148071972Y-123193556D01*
X148157258Y-123291981D01*
X148207532Y-123324289D01*
X148238685Y-123365223D01*
X148236238Y-123416604D01*
X148207533Y-123450814D01*
X148163367Y-123479197D01*
X148078080Y-123577623D01*
X148078078Y-123577626D01*
X148023977Y-123696088D01*
X148005443Y-123825000D01*
X148023977Y-123953911D01*
X148078078Y-124072373D01*
X148078080Y-124072376D01*
X148163366Y-124170801D01*
X148241667Y-124221121D01*
X148272194Y-124240739D01*
X148272926Y-124241209D01*
X148397883Y-124277900D01*
X148528117Y-124277900D01*
X148653073Y-124241209D01*
X148653073Y-124241208D01*
X148653076Y-124241208D01*
X148707861Y-124206000D01*
X159308443Y-124206000D01*
X159313439Y-124240747D01*
X159326977Y-124334911D01*
X159381078Y-124453373D01*
X159381080Y-124453376D01*
X159466366Y-124551801D01*
X159575926Y-124622209D01*
X159700883Y-124658900D01*
X159831117Y-124658900D01*
X159956073Y-124622209D01*
X159956073Y-124622208D01*
X159956076Y-124622208D01*
X160065636Y-124551799D01*
X160150921Y-124453374D01*
X160205023Y-124334909D01*
X160205297Y-124333000D01*
X160578443Y-124333000D01*
X160596977Y-124461911D01*
X160651078Y-124580373D01*
X160651080Y-124580376D01*
X160736366Y-124678801D01*
X160809800Y-124725993D01*
X160843319Y-124747534D01*
X160845926Y-124749209D01*
X160970883Y-124785900D01*
X161101117Y-124785900D01*
X161226073Y-124749209D01*
X161226073Y-124749208D01*
X161226076Y-124749208D01*
X161335636Y-124678799D01*
X161420921Y-124580374D01*
X161475023Y-124461909D01*
X161493557Y-124333000D01*
X161475023Y-124204091D01*
X161472868Y-124199373D01*
X161420921Y-124085626D01*
X161420919Y-124085623D01*
X161335633Y-123987198D01*
X161280862Y-123952000D01*
X163118443Y-123952000D01*
X163136977Y-124080911D01*
X163191078Y-124199373D01*
X163191080Y-124199376D01*
X163276366Y-124297801D01*
X163334109Y-124334909D01*
X163385603Y-124368002D01*
X163385926Y-124368209D01*
X163510883Y-124404900D01*
X163641117Y-124404900D01*
X163766073Y-124368209D01*
X163766073Y-124368208D01*
X163766076Y-124368208D01*
X163806037Y-124342527D01*
X176543511Y-124342527D01*
X176546866Y-124368002D01*
X176547188Y-124372915D01*
X176547189Y-124431004D01*
X176547190Y-124431012D01*
X176558184Y-124479173D01*
X176557325Y-124486028D01*
X176560299Y-124493208D01*
X176564138Y-124505254D01*
X176572290Y-124540967D01*
X176572293Y-124540977D01*
X176600544Y-124599633D01*
X176601290Y-124607087D01*
X176604203Y-124610883D01*
X176612294Y-124624029D01*
X176621234Y-124642591D01*
X176669897Y-124703607D01*
X176672568Y-124711557D01*
X176674734Y-124713219D01*
X176687748Y-124725990D01*
X176691562Y-124730772D01*
X176691563Y-124730773D01*
X176696341Y-124734583D01*
X176709112Y-124747594D01*
X176710760Y-124749742D01*
X176718725Y-124752431D01*
X176740158Y-124769522D01*
X176779751Y-124801093D01*
X176798308Y-124810028D01*
X176811460Y-124818120D01*
X176814820Y-124820697D01*
X176821639Y-124821272D01*
X176822693Y-124821768D01*
X176881375Y-124850024D01*
X176917111Y-124858178D01*
X176929148Y-124862014D01*
X176935101Y-124864479D01*
X176940637Y-124863591D01*
X176943142Y-124864118D01*
X176991340Y-124875116D01*
X177044133Y-124875112D01*
X177049049Y-124875112D01*
X177053975Y-124875435D01*
X177076500Y-124878407D01*
X177084005Y-124875217D01*
X177087983Y-124875112D01*
X177276715Y-124875112D01*
X177286604Y-124878711D01*
X177311302Y-124875458D01*
X177316217Y-124875135D01*
X177317736Y-124875134D01*
X177317736Y-124875136D01*
X177374129Y-124875132D01*
X177374131Y-124875131D01*
X177374134Y-124875131D01*
X177422700Y-124864043D01*
X177429460Y-124864889D01*
X177436451Y-124861993D01*
X177448492Y-124858154D01*
X177484087Y-124850028D01*
X177542968Y-124821668D01*
X177550369Y-124820927D01*
X177554093Y-124818070D01*
X177567235Y-124809980D01*
X177585702Y-124801087D01*
X177646858Y-124752313D01*
X177654769Y-124749655D01*
X177656397Y-124747534D01*
X177669168Y-124734520D01*
X177673880Y-124730763D01*
X177677635Y-124726053D01*
X177690650Y-124713279D01*
X177692755Y-124711663D01*
X177695431Y-124703737D01*
X177744200Y-124642582D01*
X177753085Y-124624130D01*
X177761179Y-124610978D01*
X177763704Y-124607686D01*
X177764276Y-124600914D01*
X177764776Y-124599854D01*
X177793136Y-124540964D01*
X177801262Y-124505362D01*
X177805099Y-124493326D01*
X177807490Y-124487552D01*
X177806617Y-124482102D01*
X177807147Y-124479582D01*
X177811181Y-124461909D01*
X177818235Y-124431005D01*
X177818235Y-124420000D01*
X193504435Y-124420000D01*
X193524631Y-124599252D01*
X193524633Y-124599260D01*
X193569003Y-124726061D01*
X193584211Y-124769522D01*
X193644134Y-124864889D01*
X193680185Y-124922264D01*
X193807735Y-125049814D01*
X193807737Y-125049815D01*
X193807738Y-125049816D01*
X193960478Y-125145789D01*
X194100818Y-125194896D01*
X194128641Y-125204632D01*
X194130745Y-125205368D01*
X194265046Y-125220500D01*
X194265048Y-125220500D01*
X194354952Y-125220500D01*
X194354954Y-125220500D01*
X194489255Y-125205368D01*
X194659522Y-125145789D01*
X194812262Y-125049816D01*
X194939816Y-124922262D01*
X195035789Y-124769522D01*
X195095368Y-124599255D01*
X195115565Y-124420000D01*
X195113770Y-124404073D01*
X195105837Y-124333663D01*
X195095368Y-124240745D01*
X195035789Y-124070478D01*
X194939816Y-123917738D01*
X194939815Y-123917737D01*
X194939814Y-123917735D01*
X194812264Y-123790185D01*
X194753243Y-123753100D01*
X194659522Y-123694211D01*
X194648339Y-123690298D01*
X194489260Y-123634633D01*
X194489252Y-123634631D01*
X194389058Y-123623342D01*
X194354954Y-123619500D01*
X194265046Y-123619500D01*
X194234784Y-123622909D01*
X194130747Y-123634631D01*
X194130739Y-123634633D01*
X193960480Y-123694210D01*
X193960478Y-123694210D01*
X193960478Y-123694211D01*
X193943903Y-123704626D01*
X193807735Y-123790185D01*
X193680185Y-123917735D01*
X193654494Y-123958623D01*
X193590850Y-124059913D01*
X193584210Y-124070480D01*
X193524633Y-124240739D01*
X193524631Y-124240747D01*
X193504435Y-124419999D01*
X193504435Y-124420000D01*
X177818235Y-124420000D01*
X177818236Y-124374612D01*
X177818236Y-124374112D01*
X177818236Y-124373266D01*
X177818558Y-124368361D01*
X177821503Y-124346025D01*
X177818341Y-124338585D01*
X177818236Y-124334617D01*
X177818236Y-122961144D01*
X178814000Y-122961144D01*
X178829511Y-123083935D01*
X178829512Y-123083939D01*
X178890337Y-123237565D01*
X178890339Y-123237570D01*
X178987466Y-123371253D01*
X179114783Y-123476578D01*
X179264299Y-123546935D01*
X179264302Y-123546936D01*
X179340999Y-123561565D01*
X179341000Y-123561565D01*
X179341000Y-123241267D01*
X179358593Y-123192929D01*
X179403142Y-123167209D01*
X179430868Y-123167511D01*
X179468000Y-123174898D01*
X179505130Y-123167512D01*
X179555969Y-123175337D01*
X179589887Y-123214011D01*
X179595000Y-123241267D01*
X179595000Y-123566391D01*
X179748669Y-123516461D01*
X179748679Y-123516456D01*
X179791193Y-123489476D01*
X181143252Y-123489476D01*
X181161786Y-123618387D01*
X181215887Y-123736849D01*
X181215889Y-123736852D01*
X181263090Y-123791325D01*
X181286527Y-123818373D01*
X181301175Y-123835277D01*
X181410735Y-123905685D01*
X181535692Y-123942376D01*
X181665926Y-123942376D01*
X181790882Y-123905685D01*
X181790882Y-123905684D01*
X181790885Y-123905684D01*
X181900445Y-123835275D01*
X181985730Y-123736850D01*
X182039832Y-123618385D01*
X182058366Y-123489476D01*
X182039832Y-123360567D01*
X182036011Y-123352201D01*
X181985730Y-123242102D01*
X181985728Y-123242099D01*
X181900442Y-123143674D01*
X181790882Y-123073266D01*
X181665926Y-123036576D01*
X181535692Y-123036576D01*
X181410735Y-123073266D01*
X181301175Y-123143674D01*
X181215889Y-123242099D01*
X181215887Y-123242102D01*
X181161786Y-123360564D01*
X181143252Y-123489476D01*
X179791193Y-123489476D01*
X179888187Y-123427922D01*
X180001303Y-123307464D01*
X180080906Y-123162667D01*
X180122000Y-123002617D01*
X180122000Y-122747000D01*
X179793200Y-122747000D01*
X179744862Y-122729407D01*
X179719142Y-122684858D01*
X179718000Y-122671800D01*
X179718000Y-122568200D01*
X179735593Y-122519862D01*
X179780142Y-122494142D01*
X179793200Y-122493000D01*
X180122000Y-122493000D01*
X180122000Y-122278855D01*
X180106488Y-122156064D01*
X180106487Y-122156060D01*
X180063855Y-122048383D01*
X180062419Y-121996963D01*
X180094371Y-121956650D01*
X180133774Y-121945500D01*
X180185717Y-121945500D01*
X180185720Y-121945500D01*
X180298236Y-121930687D01*
X180438233Y-121872698D01*
X180558451Y-121780451D01*
X180650698Y-121660233D01*
X180701141Y-121538454D01*
X181016899Y-121538454D01*
X181035433Y-121667365D01*
X181089534Y-121785827D01*
X181089536Y-121785830D01*
X181174822Y-121884255D01*
X181242491Y-121927742D01*
X181270123Y-121945500D01*
X181284382Y-121954663D01*
X181409339Y-121991354D01*
X181539573Y-121991354D01*
X181664529Y-121954663D01*
X181664529Y-121954662D01*
X181664532Y-121954662D01*
X181774092Y-121884253D01*
X181859377Y-121785828D01*
X181913479Y-121667363D01*
X181932013Y-121538454D01*
X181913479Y-121409545D01*
X181909494Y-121400820D01*
X181895419Y-121370000D01*
X186617534Y-121370000D01*
X186637313Y-121520236D01*
X186695302Y-121660233D01*
X186695303Y-121660235D01*
X186695304Y-121660236D01*
X186787548Y-121780451D01*
X186902617Y-121868746D01*
X186907767Y-121872698D01*
X187047764Y-121930687D01*
X187076636Y-121934488D01*
X187122262Y-121958239D01*
X187141947Y-122005763D01*
X187132718Y-122045271D01*
X187115093Y-122077330D01*
X187074000Y-122237382D01*
X187074000Y-122493000D01*
X187402800Y-122493000D01*
X187451138Y-122510593D01*
X187476858Y-122555142D01*
X187478000Y-122568200D01*
X187478000Y-122671800D01*
X187460407Y-122720138D01*
X187415858Y-122745858D01*
X187402800Y-122747000D01*
X187074000Y-122747000D01*
X187074000Y-122961144D01*
X187089511Y-123083935D01*
X187089512Y-123083939D01*
X187150337Y-123237565D01*
X187150339Y-123237570D01*
X187247466Y-123371253D01*
X187374783Y-123476578D01*
X187524299Y-123546935D01*
X187524302Y-123546936D01*
X187600999Y-123561565D01*
X187601000Y-123561565D01*
X187601000Y-123241267D01*
X187618593Y-123192929D01*
X187663142Y-123167209D01*
X187690868Y-123167511D01*
X187728000Y-123174898D01*
X187765130Y-123167512D01*
X187815969Y-123175337D01*
X187849887Y-123214011D01*
X187855000Y-123241267D01*
X187855000Y-123566391D01*
X188008669Y-123516461D01*
X188008679Y-123516456D01*
X188148187Y-123427922D01*
X188261303Y-123307464D01*
X188340906Y-123162667D01*
X188382000Y-123002617D01*
X188382000Y-122747000D01*
X188053200Y-122747000D01*
X188004862Y-122729407D01*
X187979142Y-122684858D01*
X187978000Y-122671800D01*
X187978000Y-122568200D01*
X187995593Y-122519862D01*
X188040142Y-122494142D01*
X188053200Y-122493000D01*
X188382000Y-122493000D01*
X188382000Y-122278855D01*
X188366488Y-122156064D01*
X188366487Y-122156060D01*
X188305662Y-122002434D01*
X188305660Y-122002429D01*
X188208533Y-121868746D01*
X188081216Y-121763421D01*
X187931700Y-121693064D01*
X187931698Y-121693063D01*
X187795743Y-121667129D01*
X187751558Y-121640790D01*
X187734641Y-121592211D01*
X187740358Y-121564484D01*
X187758687Y-121520236D01*
X187778466Y-121370000D01*
X187758687Y-121219764D01*
X187700698Y-121079767D01*
X187690294Y-121066208D01*
X187608451Y-120959548D01*
X187488236Y-120867304D01*
X187488235Y-120867303D01*
X187488233Y-120867302D01*
X187397734Y-120829816D01*
X187348237Y-120809313D01*
X187320107Y-120805609D01*
X187235720Y-120794500D01*
X187160280Y-120794500D01*
X187092770Y-120803387D01*
X187047762Y-120809313D01*
X186948766Y-120850319D01*
X186907767Y-120867302D01*
X186907766Y-120867302D01*
X186907763Y-120867304D01*
X186787548Y-120959548D01*
X186695304Y-121079763D01*
X186637313Y-121219762D01*
X186623519Y-121324537D01*
X186617534Y-121370000D01*
X181895419Y-121370000D01*
X181859377Y-121291080D01*
X181859375Y-121291077D01*
X181797580Y-121219762D01*
X181774092Y-121192655D01*
X181774091Y-121192654D01*
X181774089Y-121192652D01*
X181664529Y-121122244D01*
X181539573Y-121085554D01*
X181409339Y-121085554D01*
X181284382Y-121122244D01*
X181174822Y-121192652D01*
X181089536Y-121291077D01*
X181089534Y-121291080D01*
X181035433Y-121409542D01*
X181016899Y-121538454D01*
X180701141Y-121538454D01*
X180708687Y-121520236D01*
X180728466Y-121370000D01*
X180708687Y-121219764D01*
X180650698Y-121079767D01*
X180640294Y-121066208D01*
X180558451Y-120959548D01*
X180438236Y-120867304D01*
X180438235Y-120867303D01*
X180438233Y-120867302D01*
X180347734Y-120829816D01*
X180298237Y-120809313D01*
X180270106Y-120805609D01*
X180185720Y-120794500D01*
X179810280Y-120794500D01*
X179742770Y-120803387D01*
X179697762Y-120809313D01*
X179598766Y-120850319D01*
X179557767Y-120867302D01*
X179557766Y-120867302D01*
X179557763Y-120867304D01*
X179437548Y-120959548D01*
X179345304Y-121079763D01*
X179287313Y-121219762D01*
X179267534Y-121369999D01*
X179287313Y-121520237D01*
X179318543Y-121595631D01*
X179320787Y-121647022D01*
X179289472Y-121687832D01*
X179272306Y-121695928D01*
X179187328Y-121723539D01*
X179187320Y-121723543D01*
X179047812Y-121812077D01*
X178934696Y-121932535D01*
X178855093Y-122077332D01*
X178814000Y-122237382D01*
X178814000Y-122493000D01*
X179142800Y-122493000D01*
X179191138Y-122510593D01*
X179216858Y-122555142D01*
X179218000Y-122568200D01*
X179218000Y-122671800D01*
X179200407Y-122720138D01*
X179155858Y-122745858D01*
X179142800Y-122747000D01*
X178814000Y-122747000D01*
X178814000Y-122961144D01*
X177818236Y-122961144D01*
X177818236Y-119420000D01*
X193504435Y-119420000D01*
X193524631Y-119599252D01*
X193524633Y-119599260D01*
X193539107Y-119640623D01*
X193584211Y-119769522D01*
X193627456Y-119838346D01*
X193680185Y-119922264D01*
X193807735Y-120049814D01*
X193807737Y-120049815D01*
X193807738Y-120049816D01*
X193960478Y-120145789D01*
X194130745Y-120205368D01*
X194265046Y-120220500D01*
X194265048Y-120220500D01*
X194354952Y-120220500D01*
X194354954Y-120220500D01*
X194489255Y-120205368D01*
X194659522Y-120145789D01*
X194812262Y-120049816D01*
X194939816Y-119922262D01*
X195035789Y-119769522D01*
X195095368Y-119599255D01*
X195115565Y-119420000D01*
X195095368Y-119240745D01*
X195035789Y-119070478D01*
X194939816Y-118917738D01*
X194939815Y-118917737D01*
X194939814Y-118917735D01*
X194812264Y-118790185D01*
X194742268Y-118746204D01*
X194659522Y-118694211D01*
X194648923Y-118690502D01*
X194489260Y-118634633D01*
X194489252Y-118634631D01*
X194389058Y-118623342D01*
X194354954Y-118619500D01*
X194265046Y-118619500D01*
X194234783Y-118622909D01*
X194130747Y-118634631D01*
X194130739Y-118634633D01*
X193960480Y-118694210D01*
X193807735Y-118790185D01*
X193680185Y-118917735D01*
X193584210Y-119070480D01*
X193524633Y-119240739D01*
X193524631Y-119240747D01*
X193504435Y-119419999D01*
X193504435Y-119420000D01*
X177818236Y-119420000D01*
X177818236Y-118813130D01*
X177821981Y-118802837D01*
X177818610Y-118777257D01*
X177818287Y-118772343D01*
X177818287Y-118770612D01*
X177818288Y-118770612D01*
X177818280Y-118714218D01*
X177807295Y-118666122D01*
X177808154Y-118659255D01*
X177805171Y-118652055D01*
X177801332Y-118640014D01*
X177793166Y-118604264D01*
X177793166Y-118604263D01*
X177793166Y-118604262D01*
X177764928Y-118545641D01*
X177764181Y-118538180D01*
X177761260Y-118534374D01*
X177753166Y-118521223D01*
X177753002Y-118520883D01*
X177744219Y-118502648D01*
X177695577Y-118441662D01*
X177692905Y-118433710D01*
X177690735Y-118432045D01*
X177677724Y-118419276D01*
X177673894Y-118414475D01*
X177673889Y-118414469D01*
X177669082Y-118410636D01*
X177656313Y-118397628D01*
X177654660Y-118395475D01*
X177646695Y-118392785D01*
X177585712Y-118344156D01*
X177585708Y-118344153D01*
X177567119Y-118335201D01*
X177553975Y-118327112D01*
X177550595Y-118324519D01*
X177543759Y-118323942D01*
X177542705Y-118323444D01*
X177484094Y-118295218D01*
X177484086Y-118295215D01*
X177448339Y-118287055D01*
X177436298Y-118283217D01*
X177430300Y-118280732D01*
X177424740Y-118281623D01*
X177422229Y-118281094D01*
X177374134Y-118270115D01*
X177374127Y-118270114D01*
X177320461Y-118270112D01*
X177317835Y-118270112D01*
X177316423Y-118270112D01*
X177311495Y-118269788D01*
X177288956Y-118266810D01*
X177281434Y-118270007D01*
X177277466Y-118270112D01*
X177086199Y-118270112D01*
X177076994Y-118266761D01*
X177053981Y-118269790D01*
X177049071Y-118270112D01*
X177040749Y-118270112D01*
X177040505Y-118270134D01*
X176991345Y-118270132D01*
X176991342Y-118270132D01*
X176941925Y-118281408D01*
X176935357Y-118280584D01*
X176928725Y-118283331D01*
X176916682Y-118287168D01*
X176881388Y-118295221D01*
X176822031Y-118323803D01*
X176814734Y-118324532D01*
X176811154Y-118327280D01*
X176798006Y-118335370D01*
X176779770Y-118344151D01*
X176779763Y-118344155D01*
X176718321Y-118393151D01*
X176710477Y-118395786D01*
X176708908Y-118397831D01*
X176696139Y-118410840D01*
X176691590Y-118414467D01*
X176687957Y-118419023D01*
X176674947Y-118431790D01*
X176672921Y-118433344D01*
X176670266Y-118441205D01*
X176621268Y-118502644D01*
X176621265Y-118502649D01*
X176612484Y-118520883D01*
X176604392Y-118534033D01*
X176601974Y-118537183D01*
X176601412Y-118543853D01*
X176600912Y-118544912D01*
X176572333Y-118604257D01*
X176572330Y-118604264D01*
X176564274Y-118639565D01*
X176560435Y-118651608D01*
X176558197Y-118657008D01*
X176559044Y-118662280D01*
X176558514Y-118664799D01*
X176547236Y-118714218D01*
X176547235Y-118714222D01*
X176547235Y-118771943D01*
X176546914Y-118776847D01*
X176544026Y-118798818D01*
X176547130Y-118806113D01*
X176547236Y-118810110D01*
X176547236Y-124332293D01*
X176543511Y-124342527D01*
X163806037Y-124342527D01*
X163875636Y-124297799D01*
X163960921Y-124199374D01*
X164015023Y-124080909D01*
X164033557Y-123952000D01*
X164015023Y-123823091D01*
X164012868Y-123818373D01*
X163960921Y-123704626D01*
X163960919Y-123704623D01*
X163900271Y-123634632D01*
X163875636Y-123606201D01*
X163875635Y-123606200D01*
X163875633Y-123606198D01*
X163766073Y-123535790D01*
X163641117Y-123499100D01*
X163510883Y-123499100D01*
X163385926Y-123535790D01*
X163276366Y-123606198D01*
X163191080Y-123704623D01*
X163191078Y-123704626D01*
X163136977Y-123823088D01*
X163118443Y-123952000D01*
X161280862Y-123952000D01*
X161226073Y-123916790D01*
X161101117Y-123880100D01*
X160970883Y-123880100D01*
X160845926Y-123916790D01*
X160736366Y-123987198D01*
X160651080Y-124085623D01*
X160651078Y-124085626D01*
X160596977Y-124204088D01*
X160578443Y-124333000D01*
X160205297Y-124333000D01*
X160223557Y-124206000D01*
X160205023Y-124077091D01*
X160202868Y-124072373D01*
X160150921Y-123958626D01*
X160150919Y-123958623D01*
X160093664Y-123892547D01*
X160065636Y-123860201D01*
X160065635Y-123860200D01*
X160065633Y-123860198D01*
X159956073Y-123789790D01*
X159831117Y-123753100D01*
X159700883Y-123753100D01*
X159575926Y-123789790D01*
X159466366Y-123860198D01*
X159381080Y-123958623D01*
X159381078Y-123958626D01*
X159326977Y-124077088D01*
X159312414Y-124178378D01*
X159308443Y-124206000D01*
X148707861Y-124206000D01*
X148762636Y-124170799D01*
X148847921Y-124072374D01*
X148902023Y-123953909D01*
X148920557Y-123825000D01*
X148902023Y-123696091D01*
X148901164Y-123694211D01*
X148847921Y-123577626D01*
X148847919Y-123577623D01*
X148810954Y-123534964D01*
X148762636Y-123479201D01*
X148739138Y-123464100D01*
X150926443Y-123464100D01*
X150931475Y-123499100D01*
X150944977Y-123593011D01*
X150999078Y-123711473D01*
X150999080Y-123711476D01*
X151084366Y-123809901D01*
X151122252Y-123834248D01*
X151193600Y-123880100D01*
X151193926Y-123880309D01*
X151318883Y-123917000D01*
X151449117Y-123917000D01*
X151574073Y-123880309D01*
X151574073Y-123880308D01*
X151574076Y-123880308D01*
X151683636Y-123809899D01*
X151768921Y-123711474D01*
X151823023Y-123593009D01*
X151841557Y-123464100D01*
X151823023Y-123335191D01*
X151817741Y-123323626D01*
X151768921Y-123216726D01*
X151768919Y-123216723D01*
X151717790Y-123157717D01*
X151683636Y-123118301D01*
X151683635Y-123118300D01*
X151683633Y-123118298D01*
X151597585Y-123063000D01*
X156006443Y-123063000D01*
X156024977Y-123191911D01*
X156079078Y-123310373D01*
X156079080Y-123310376D01*
X156164366Y-123408801D01*
X156229444Y-123450623D01*
X156273913Y-123479201D01*
X156273926Y-123479209D01*
X156398883Y-123515900D01*
X156529117Y-123515900D01*
X156654073Y-123479209D01*
X156654073Y-123479208D01*
X156654076Y-123479208D01*
X156708861Y-123444000D01*
X167690443Y-123444000D01*
X167708977Y-123572911D01*
X167763078Y-123691373D01*
X167763080Y-123691376D01*
X167848366Y-123789801D01*
X167906109Y-123826909D01*
X167957913Y-123860201D01*
X167957926Y-123860209D01*
X168082883Y-123896900D01*
X168213117Y-123896900D01*
X168338073Y-123860209D01*
X168338073Y-123860208D01*
X168338076Y-123860208D01*
X168439739Y-123794873D01*
X168447633Y-123789801D01*
X168447633Y-123789800D01*
X168447636Y-123789799D01*
X168532921Y-123691374D01*
X168587023Y-123572909D01*
X168605557Y-123444000D01*
X174802463Y-123444000D01*
X174807524Y-123479200D01*
X174820997Y-123572911D01*
X174875098Y-123691373D01*
X174875100Y-123691376D01*
X174960386Y-123789801D01*
X175018129Y-123826909D01*
X175069933Y-123860201D01*
X175069946Y-123860209D01*
X175194903Y-123896900D01*
X175325137Y-123896900D01*
X175450093Y-123860209D01*
X175450093Y-123860208D01*
X175450096Y-123860208D01*
X175551760Y-123794873D01*
X175559653Y-123789801D01*
X175559653Y-123789800D01*
X175559656Y-123789799D01*
X175644941Y-123691374D01*
X175699043Y-123572909D01*
X175717577Y-123444000D01*
X175699043Y-123315091D01*
X175696888Y-123310373D01*
X175644941Y-123196626D01*
X175644939Y-123196623D01*
X175591456Y-123134900D01*
X175559656Y-123098201D01*
X175559655Y-123098200D01*
X175559653Y-123098198D01*
X175450093Y-123027790D01*
X175325137Y-122991100D01*
X175194903Y-122991100D01*
X175069946Y-123027790D01*
X174960386Y-123098198D01*
X174875100Y-123196623D01*
X174875098Y-123196626D01*
X174820997Y-123315088D01*
X174802738Y-123442088D01*
X174802463Y-123444000D01*
X168605557Y-123444000D01*
X168587023Y-123315091D01*
X168584868Y-123310373D01*
X168532921Y-123196626D01*
X168532919Y-123196623D01*
X168479436Y-123134900D01*
X168447636Y-123098201D01*
X168447635Y-123098200D01*
X168447633Y-123098198D01*
X168338073Y-123027790D01*
X168213117Y-122991100D01*
X168082883Y-122991100D01*
X167957926Y-123027790D01*
X167848366Y-123098198D01*
X167763080Y-123196623D01*
X167763078Y-123196626D01*
X167708977Y-123315088D01*
X167690443Y-123444000D01*
X156708861Y-123444000D01*
X156763636Y-123408799D01*
X156848921Y-123310374D01*
X156903023Y-123191909D01*
X156921557Y-123063000D01*
X156903023Y-122934091D01*
X156900868Y-122929373D01*
X156848921Y-122815626D01*
X156848919Y-122815623D01*
X156763633Y-122717198D01*
X156654073Y-122646790D01*
X156529117Y-122610100D01*
X156398883Y-122610100D01*
X156273926Y-122646790D01*
X156164366Y-122717198D01*
X156079080Y-122815623D01*
X156079078Y-122815626D01*
X156024977Y-122934088D01*
X156006443Y-123063000D01*
X151597585Y-123063000D01*
X151574073Y-123047890D01*
X151449117Y-123011200D01*
X151318883Y-123011200D01*
X151193926Y-123047890D01*
X151084366Y-123118298D01*
X150999080Y-123216723D01*
X150999078Y-123216726D01*
X150944977Y-123335188D01*
X150928380Y-123450626D01*
X150926443Y-123464100D01*
X148739138Y-123464100D01*
X148712357Y-123446889D01*
X148681206Y-123405956D01*
X148683653Y-123354575D01*
X148712359Y-123320364D01*
X148756528Y-123291979D01*
X148841813Y-123193554D01*
X148895915Y-123075089D01*
X148914449Y-122946180D01*
X148895915Y-122817271D01*
X148895162Y-122815623D01*
X148841813Y-122698806D01*
X148841811Y-122698803D01*
X148756525Y-122600378D01*
X148646965Y-122529970D01*
X148522009Y-122493280D01*
X148391775Y-122493280D01*
X148266818Y-122529970D01*
X148157258Y-122600378D01*
X148071972Y-122698803D01*
X148071970Y-122698806D01*
X148017869Y-122817268D01*
X148001073Y-122934091D01*
X147999335Y-122946180D01*
X142991359Y-122946180D01*
X143005921Y-122929374D01*
X143060023Y-122810909D01*
X143078557Y-122682000D01*
X143060023Y-122553091D01*
X143060021Y-122553087D01*
X143005921Y-122434626D01*
X143005919Y-122434623D01*
X142920633Y-122336198D01*
X142811073Y-122265790D01*
X142686117Y-122229100D01*
X142555883Y-122229100D01*
X142430926Y-122265790D01*
X142321366Y-122336198D01*
X142236080Y-122434623D01*
X142236078Y-122434626D01*
X142181977Y-122553088D01*
X142163443Y-122682000D01*
X139014557Y-122682000D01*
X138996023Y-122553091D01*
X138996021Y-122553087D01*
X138941921Y-122434626D01*
X138941919Y-122434623D01*
X138856633Y-122336198D01*
X138747073Y-122265790D01*
X138622117Y-122229100D01*
X138491883Y-122229100D01*
X138366926Y-122265790D01*
X138257366Y-122336198D01*
X138172080Y-122434623D01*
X138172078Y-122434626D01*
X138117977Y-122553088D01*
X138099443Y-122682000D01*
X138117977Y-122810911D01*
X138164872Y-122913593D01*
X138168949Y-122964871D01*
X138139111Y-123006773D01*
X138089320Y-123019693D01*
X138075282Y-123016987D01*
X137987117Y-122991100D01*
X137856883Y-122991100D01*
X137731926Y-123027790D01*
X137622366Y-123098198D01*
X137537080Y-123196623D01*
X137537078Y-123196626D01*
X137482977Y-123315088D01*
X137464443Y-123444000D01*
X137470908Y-123488968D01*
X137460372Y-123539317D01*
X137419937Y-123571115D01*
X137375287Y-123571823D01*
X137249758Y-123534964D01*
X137119524Y-123534964D01*
X136994567Y-123571654D01*
X136885007Y-123642062D01*
X136872784Y-123656168D01*
X136827831Y-123681175D01*
X136777322Y-123671437D01*
X136759123Y-123656166D01*
X136697636Y-123585205D01*
X136697635Y-123585204D01*
X136697633Y-123585202D01*
X136588073Y-123514794D01*
X136463117Y-123478104D01*
X136332883Y-123478104D01*
X136207926Y-123514794D01*
X136098366Y-123585202D01*
X136013080Y-123683627D01*
X136013078Y-123683630D01*
X135958977Y-123802092D01*
X135940443Y-123931004D01*
X129944532Y-123931004D01*
X129966636Y-123916799D01*
X130051921Y-123818374D01*
X130106023Y-123699909D01*
X130124557Y-123571000D01*
X130106023Y-123442091D01*
X130094383Y-123416604D01*
X130051921Y-123323626D01*
X130051919Y-123323623D01*
X130002162Y-123266201D01*
X129980517Y-123241220D01*
X129962159Y-123193171D01*
X129978983Y-123144560D01*
X130023118Y-123118136D01*
X130058536Y-123119823D01*
X130109883Y-123134900D01*
X130240117Y-123134900D01*
X130365073Y-123098209D01*
X130365073Y-123098208D01*
X130365076Y-123098208D01*
X130474636Y-123027799D01*
X130559921Y-122929374D01*
X130614023Y-122810909D01*
X130632557Y-122682000D01*
X130614023Y-122553091D01*
X130614021Y-122553087D01*
X130559921Y-122434626D01*
X130559919Y-122434623D01*
X130474633Y-122336198D01*
X130365073Y-122265790D01*
X130259783Y-122234874D01*
X130244570Y-122230407D01*
X130203148Y-122199909D01*
X130191020Y-122149919D01*
X130197353Y-122127014D01*
X130233022Y-122048911D01*
X130233021Y-122048911D01*
X130233023Y-122048909D01*
X130251557Y-121920000D01*
X130234136Y-121798832D01*
X149027275Y-121798832D01*
X149045809Y-121927744D01*
X149099910Y-122046206D01*
X149099912Y-122046209D01*
X149133096Y-122084505D01*
X149180974Y-122139760D01*
X149185198Y-122144634D01*
X149294758Y-122215042D01*
X149419715Y-122251733D01*
X149549949Y-122251733D01*
X149674905Y-122215042D01*
X149674905Y-122215041D01*
X149674908Y-122215041D01*
X149738770Y-122174000D01*
X167944443Y-122174000D01*
X167962977Y-122302911D01*
X168017078Y-122421373D01*
X168017080Y-122421376D01*
X168102366Y-122519801D01*
X168211926Y-122590209D01*
X168336883Y-122626900D01*
X168467117Y-122626900D01*
X168592073Y-122590209D01*
X168592073Y-122590208D01*
X168592076Y-122590208D01*
X168701636Y-122519799D01*
X168781180Y-122428000D01*
X170738443Y-122428000D01*
X170756977Y-122556911D01*
X170811078Y-122675373D01*
X170811080Y-122675376D01*
X170896366Y-122773801D01*
X171005926Y-122844209D01*
X171130883Y-122880900D01*
X171261117Y-122880900D01*
X171386073Y-122844209D01*
X171386073Y-122844208D01*
X171386076Y-122844208D01*
X171495636Y-122773799D01*
X171580921Y-122675374D01*
X171635023Y-122556909D01*
X171653557Y-122428000D01*
X171635023Y-122299091D01*
X171633326Y-122295376D01*
X171580921Y-122180626D01*
X171580919Y-122180623D01*
X171495633Y-122082198D01*
X171386073Y-122011790D01*
X171261117Y-121975100D01*
X171130883Y-121975100D01*
X171005926Y-122011790D01*
X170896366Y-122082198D01*
X170811080Y-122180623D01*
X170811078Y-122180626D01*
X170756977Y-122299088D01*
X170738443Y-122428000D01*
X168781180Y-122428000D01*
X168786921Y-122421374D01*
X168841023Y-122302909D01*
X168859557Y-122174000D01*
X168841023Y-122045091D01*
X168819043Y-121996963D01*
X168786921Y-121926626D01*
X168786919Y-121926623D01*
X168701633Y-121828198D01*
X168592073Y-121757790D01*
X168467117Y-121721100D01*
X168336883Y-121721100D01*
X168211926Y-121757790D01*
X168102366Y-121828198D01*
X168017080Y-121926623D01*
X168017078Y-121926626D01*
X167962977Y-122045088D01*
X167944443Y-122174000D01*
X149738770Y-122174000D01*
X149784468Y-122144632D01*
X149869753Y-122046207D01*
X149923855Y-121927742D01*
X149942389Y-121798833D01*
X149923855Y-121669924D01*
X149922686Y-121667365D01*
X149913932Y-121648197D01*
X150781640Y-121648197D01*
X150783371Y-121660236D01*
X150800174Y-121777108D01*
X150854275Y-121895570D01*
X150854277Y-121895573D01*
X150939563Y-121993998D01*
X150967249Y-122011790D01*
X151025008Y-122048909D01*
X151049123Y-122064406D01*
X151174080Y-122101097D01*
X151304314Y-122101097D01*
X151429270Y-122064406D01*
X151429270Y-122064405D01*
X151429273Y-122064405D01*
X151538833Y-121993996D01*
X151624118Y-121895571D01*
X151678220Y-121777106D01*
X151696754Y-121648197D01*
X151678220Y-121519288D01*
X151671142Y-121503790D01*
X151624118Y-121400823D01*
X151624116Y-121400820D01*
X151558016Y-121324537D01*
X151539657Y-121276484D01*
X151556482Y-121227874D01*
X151557973Y-121226095D01*
X151635432Y-121136703D01*
X151689534Y-121018238D01*
X151708068Y-120889329D01*
X151689534Y-120760420D01*
X151639106Y-120650000D01*
X174019843Y-120650000D01*
X174038377Y-120778911D01*
X174092478Y-120897373D01*
X174092480Y-120897376D01*
X174177766Y-120995801D01*
X174287326Y-121066209D01*
X174412283Y-121102900D01*
X174542517Y-121102900D01*
X174667473Y-121066209D01*
X174667473Y-121066208D01*
X174667476Y-121066208D01*
X174777036Y-120995799D01*
X174862321Y-120897374D01*
X174916423Y-120778909D01*
X174934957Y-120650000D01*
X174916423Y-120521091D01*
X174907671Y-120501928D01*
X174862321Y-120402626D01*
X174862319Y-120402623D01*
X174777033Y-120304198D01*
X174667473Y-120233790D01*
X174542517Y-120197100D01*
X174412283Y-120197100D01*
X174287326Y-120233790D01*
X174177766Y-120304198D01*
X174092480Y-120402623D01*
X174092478Y-120402626D01*
X174038377Y-120521088D01*
X174019843Y-120650000D01*
X151639106Y-120650000D01*
X151635432Y-120641955D01*
X151635430Y-120641952D01*
X151550144Y-120543527D01*
X151440584Y-120473119D01*
X151315628Y-120436429D01*
X151185394Y-120436429D01*
X151060437Y-120473119D01*
X150950877Y-120543527D01*
X150865591Y-120641952D01*
X150865589Y-120641955D01*
X150811488Y-120760417D01*
X150792954Y-120889328D01*
X150811488Y-121018240D01*
X150865589Y-121136702D01*
X150865591Y-121136705D01*
X150931690Y-121212987D01*
X150950049Y-121261040D01*
X150933224Y-121309650D01*
X150931691Y-121311478D01*
X150854277Y-121400820D01*
X150854275Y-121400823D01*
X150800174Y-121519285D01*
X150782705Y-121640790D01*
X150781640Y-121648197D01*
X149913932Y-121648197D01*
X149869753Y-121551459D01*
X149869751Y-121551456D01*
X149784465Y-121453031D01*
X149674905Y-121382623D01*
X149549949Y-121345933D01*
X149419715Y-121345933D01*
X149294758Y-121382623D01*
X149185198Y-121453031D01*
X149099912Y-121551456D01*
X149099910Y-121551459D01*
X149045809Y-121669921D01*
X149027275Y-121798832D01*
X130234136Y-121798832D01*
X130233023Y-121791091D01*
X130230620Y-121785830D01*
X130178921Y-121672626D01*
X130178919Y-121672623D01*
X130112205Y-121595631D01*
X130093636Y-121574201D01*
X130093635Y-121574200D01*
X130093633Y-121574198D01*
X129984073Y-121503790D01*
X129859117Y-121467100D01*
X129728883Y-121467100D01*
X129603926Y-121503790D01*
X129494366Y-121574198D01*
X129409080Y-121672623D01*
X129409078Y-121672626D01*
X129354977Y-121791088D01*
X129341582Y-121884255D01*
X129336443Y-121920000D01*
X129337979Y-121930686D01*
X129354977Y-122048911D01*
X129409078Y-122167373D01*
X129409080Y-122167376D01*
X129494366Y-122265801D01*
X129533517Y-122290960D01*
X129603924Y-122336208D01*
X129724429Y-122371592D01*
X129765851Y-122402090D01*
X129777979Y-122452080D01*
X129771646Y-122474984D01*
X129735978Y-122553085D01*
X129735978Y-122553087D01*
X129735978Y-122553088D01*
X129735977Y-122553091D01*
X129725365Y-122626900D01*
X129717443Y-122681999D01*
X129735977Y-122810911D01*
X129790078Y-122929373D01*
X129790080Y-122929376D01*
X129794166Y-122934091D01*
X129861481Y-123011777D01*
X129879840Y-123059828D01*
X129863016Y-123108439D01*
X129818881Y-123134863D01*
X129783463Y-123133176D01*
X129732117Y-123118100D01*
X129601883Y-123118100D01*
X129476926Y-123154790D01*
X129367366Y-123225198D01*
X129282080Y-123323623D01*
X129282078Y-123323626D01*
X129227977Y-123442088D01*
X129210396Y-123564373D01*
X129209443Y-123571000D01*
X115441180Y-123571000D01*
X115446921Y-123564374D01*
X115501023Y-123445909D01*
X115519557Y-123317000D01*
X115501023Y-123188091D01*
X115495198Y-123175337D01*
X115446921Y-123069626D01*
X115446919Y-123069623D01*
X115361633Y-122971198D01*
X115252073Y-122900790D01*
X115127117Y-122864100D01*
X114996883Y-122864100D01*
X114871926Y-122900790D01*
X114762366Y-122971198D01*
X114676145Y-123070702D01*
X114631194Y-123095711D01*
X114580684Y-123085976D01*
X114578658Y-123084719D01*
X114490073Y-123027790D01*
X114365117Y-122991100D01*
X114234883Y-122991100D01*
X114109926Y-123027790D01*
X114000366Y-123098198D01*
X113915080Y-123196623D01*
X113915078Y-123196626D01*
X113883304Y-123266201D01*
X113847220Y-123302861D01*
X113796013Y-123307751D01*
X113774245Y-123298224D01*
X113748673Y-123281790D01*
X113623717Y-123245100D01*
X113493483Y-123245100D01*
X113368526Y-123281790D01*
X113258966Y-123352198D01*
X113173680Y-123450623D01*
X113173678Y-123450626D01*
X113119577Y-123569088D01*
X113101043Y-123698000D01*
X108204500Y-123698000D01*
X108204500Y-120085719D01*
X122168168Y-120085719D01*
X122186702Y-120214631D01*
X122240803Y-120333093D01*
X122240805Y-120333096D01*
X122326091Y-120431521D01*
X122435651Y-120501929D01*
X122560608Y-120538620D01*
X122690842Y-120538620D01*
X122815798Y-120501929D01*
X122815798Y-120501928D01*
X122815801Y-120501928D01*
X122923970Y-120432413D01*
X122925358Y-120431521D01*
X122925358Y-120431520D01*
X122925361Y-120431519D01*
X123010646Y-120333094D01*
X123064748Y-120214629D01*
X123083282Y-120085720D01*
X123073287Y-120016204D01*
X129442843Y-120016204D01*
X129461377Y-120145115D01*
X129515478Y-120263577D01*
X129515480Y-120263580D01*
X129600766Y-120362005D01*
X129663971Y-120402623D01*
X129708934Y-120431519D01*
X129710326Y-120432413D01*
X129835283Y-120469104D01*
X129965517Y-120469104D01*
X130090473Y-120432413D01*
X130090473Y-120432412D01*
X130090476Y-120432412D01*
X130200036Y-120362003D01*
X130285321Y-120263578D01*
X130339423Y-120145113D01*
X130357957Y-120016204D01*
X130339524Y-119888000D01*
X135940443Y-119888000D01*
X135958977Y-120016911D01*
X136013078Y-120135373D01*
X136013080Y-120135376D01*
X136049328Y-120177208D01*
X136086840Y-120220500D01*
X136098366Y-120233801D01*
X136176668Y-120284121D01*
X136207913Y-120304201D01*
X136207926Y-120304209D01*
X136332883Y-120340900D01*
X136463117Y-120340900D01*
X136588073Y-120304209D01*
X136588073Y-120304208D01*
X136588076Y-120304208D01*
X136697636Y-120233799D01*
X136782921Y-120135374D01*
X136837023Y-120016909D01*
X136855557Y-119888000D01*
X141274443Y-119888000D01*
X141292977Y-120016911D01*
X141347078Y-120135373D01*
X141347080Y-120135376D01*
X141383328Y-120177208D01*
X141420840Y-120220500D01*
X141432366Y-120233801D01*
X141510668Y-120284121D01*
X141541913Y-120304201D01*
X141541926Y-120304209D01*
X141666883Y-120340900D01*
X141797117Y-120340900D01*
X141922073Y-120304209D01*
X141922073Y-120304208D01*
X141922076Y-120304208D01*
X142031636Y-120233799D01*
X142116921Y-120135374D01*
X142171023Y-120016909D01*
X142189557Y-119888000D01*
X142171297Y-119761000D01*
X145211443Y-119761000D01*
X145229977Y-119889911D01*
X145284078Y-120008373D01*
X145284080Y-120008376D01*
X145369366Y-120106801D01*
X145478926Y-120177209D01*
X145603883Y-120213900D01*
X145734117Y-120213900D01*
X145859073Y-120177209D01*
X145859073Y-120177208D01*
X145859076Y-120177208D01*
X145968636Y-120106799D01*
X146053921Y-120008374D01*
X146108023Y-119889909D01*
X146126557Y-119761000D01*
X146108023Y-119632091D01*
X146105868Y-119627373D01*
X146053921Y-119513626D01*
X146053919Y-119513623D01*
X145968633Y-119415198D01*
X145859073Y-119344790D01*
X145734117Y-119308100D01*
X145603883Y-119308100D01*
X145478926Y-119344790D01*
X145369366Y-119415198D01*
X145284080Y-119513623D01*
X145284078Y-119513626D01*
X145229977Y-119632088D01*
X145211443Y-119761000D01*
X142171297Y-119761000D01*
X142171023Y-119759091D01*
X142162268Y-119739921D01*
X142116921Y-119640626D01*
X142116919Y-119640623D01*
X142031633Y-119542198D01*
X141922073Y-119471790D01*
X141797117Y-119435100D01*
X141666883Y-119435100D01*
X141541926Y-119471790D01*
X141432366Y-119542198D01*
X141347080Y-119640623D01*
X141347078Y-119640626D01*
X141292977Y-119759088D01*
X141274443Y-119888000D01*
X136855557Y-119888000D01*
X136837023Y-119759091D01*
X136828268Y-119739921D01*
X136782921Y-119640626D01*
X136782919Y-119640623D01*
X136697633Y-119542198D01*
X136588073Y-119471790D01*
X136463117Y-119435100D01*
X136332883Y-119435100D01*
X136207926Y-119471790D01*
X136098366Y-119542198D01*
X136013080Y-119640623D01*
X136013078Y-119640626D01*
X135958977Y-119759088D01*
X135940443Y-119888000D01*
X130339524Y-119888000D01*
X130339423Y-119887295D01*
X130317068Y-119838346D01*
X130285321Y-119768830D01*
X130285319Y-119768827D01*
X130248035Y-119725799D01*
X130212200Y-119684443D01*
X130193842Y-119636392D01*
X130210667Y-119587782D01*
X130212156Y-119586006D01*
X130285321Y-119501569D01*
X130339423Y-119383104D01*
X130357957Y-119254195D01*
X130339423Y-119125286D01*
X130330540Y-119105836D01*
X130285321Y-119006821D01*
X130285319Y-119006818D01*
X130212209Y-118922445D01*
X130193850Y-118874392D01*
X130210675Y-118825782D01*
X130212170Y-118823999D01*
X130285321Y-118739578D01*
X130339423Y-118621113D01*
X130339871Y-118618000D01*
X144703443Y-118618000D01*
X144721977Y-118746911D01*
X144776078Y-118865373D01*
X144776080Y-118865376D01*
X144861366Y-118963801D01*
X144919109Y-119000909D01*
X144970913Y-119034201D01*
X144970926Y-119034209D01*
X145095883Y-119070900D01*
X145226117Y-119070900D01*
X145351073Y-119034209D01*
X145351073Y-119034208D01*
X145351076Y-119034208D01*
X145460636Y-118963799D01*
X145545921Y-118865374D01*
X145600023Y-118746909D01*
X145600124Y-118746204D01*
X151429625Y-118746204D01*
X151448159Y-118875115D01*
X151502260Y-118993577D01*
X151502262Y-118993580D01*
X151587548Y-119092005D01*
X151697108Y-119162413D01*
X151822065Y-119199104D01*
X151952300Y-119199104D01*
X151963341Y-119195861D01*
X151989487Y-119188184D01*
X152040822Y-119191445D01*
X152078052Y-119226941D01*
X152085109Y-119271039D01*
X152069443Y-119379999D01*
X152087977Y-119508911D01*
X152142078Y-119627373D01*
X152142080Y-119627376D01*
X152227366Y-119725801D01*
X152336926Y-119796209D01*
X152461883Y-119832900D01*
X152592117Y-119832900D01*
X152717073Y-119796209D01*
X152717073Y-119796208D01*
X152717076Y-119796208D01*
X152826636Y-119725799D01*
X152911921Y-119627374D01*
X152966023Y-119508909D01*
X152984557Y-119380000D01*
X152966023Y-119251091D01*
X152961295Y-119240739D01*
X152911921Y-119132626D01*
X152911919Y-119132623D01*
X152826633Y-119034198D01*
X152717073Y-118963790D01*
X152592117Y-118927100D01*
X152461883Y-118927100D01*
X152461882Y-118927100D01*
X152424692Y-118938019D01*
X152373355Y-118934756D01*
X152336127Y-118899257D01*
X152329072Y-118855167D01*
X152344739Y-118746204D01*
X152326205Y-118617295D01*
X152323500Y-118611373D01*
X152272103Y-118498830D01*
X152272101Y-118498827D01*
X152215677Y-118433710D01*
X152186818Y-118400405D01*
X152186817Y-118400404D01*
X152186815Y-118400402D01*
X152130171Y-118364000D01*
X162356443Y-118364000D01*
X162374977Y-118492911D01*
X162429078Y-118611373D01*
X162429080Y-118611376D01*
X162514366Y-118709801D01*
X162623926Y-118780209D01*
X162748883Y-118816900D01*
X162879117Y-118816900D01*
X163004073Y-118780209D01*
X163004073Y-118780208D01*
X163004076Y-118780208D01*
X163113636Y-118709799D01*
X163198921Y-118611374D01*
X163253023Y-118492909D01*
X163271557Y-118364000D01*
X163253023Y-118235091D01*
X163212519Y-118146402D01*
X163198921Y-118116626D01*
X163198919Y-118116623D01*
X163113633Y-118018198D01*
X163004073Y-117947790D01*
X162879117Y-117911100D01*
X162748883Y-117911100D01*
X162623926Y-117947790D01*
X162514366Y-118018198D01*
X162429080Y-118116623D01*
X162429078Y-118116626D01*
X162374977Y-118235088D01*
X162356443Y-118364000D01*
X152130171Y-118364000D01*
X152077255Y-118329994D01*
X151952299Y-118293304D01*
X151822065Y-118293304D01*
X151697108Y-118329994D01*
X151587548Y-118400402D01*
X151502262Y-118498827D01*
X151502260Y-118498830D01*
X151448159Y-118617292D01*
X151429625Y-118746204D01*
X145600124Y-118746204D01*
X145618557Y-118618000D01*
X145600023Y-118489091D01*
X145586364Y-118459183D01*
X145545921Y-118370626D01*
X145545919Y-118370623D01*
X145492436Y-118308900D01*
X145460636Y-118272201D01*
X145460635Y-118272200D01*
X145460633Y-118272198D01*
X145351073Y-118201790D01*
X145226117Y-118165100D01*
X145095883Y-118165100D01*
X144970926Y-118201790D01*
X144861366Y-118272198D01*
X144776080Y-118370623D01*
X144776078Y-118370626D01*
X144721977Y-118489088D01*
X144703443Y-118618000D01*
X130339871Y-118618000D01*
X130357957Y-118492204D01*
X130339423Y-118363295D01*
X130330682Y-118344156D01*
X130285321Y-118244830D01*
X130285319Y-118244827D01*
X130200033Y-118146402D01*
X130090473Y-118075994D01*
X129965517Y-118039304D01*
X129835283Y-118039304D01*
X129710326Y-118075994D01*
X129600766Y-118146402D01*
X129515480Y-118244827D01*
X129515478Y-118244830D01*
X129461377Y-118363292D01*
X129442843Y-118492203D01*
X129442843Y-118492204D01*
X129442945Y-118492911D01*
X129461377Y-118621115D01*
X129515478Y-118739577D01*
X129515480Y-118739580D01*
X129559329Y-118790184D01*
X129582478Y-118816900D01*
X129588590Y-118823953D01*
X129606949Y-118872006D01*
X129590124Y-118920616D01*
X129588591Y-118922444D01*
X129515480Y-119006819D01*
X129515478Y-119006821D01*
X129461377Y-119125283D01*
X129442843Y-119254195D01*
X129461377Y-119383106D01*
X129515478Y-119501568D01*
X129515480Y-119501571D01*
X129588598Y-119585953D01*
X129606957Y-119634006D01*
X129590132Y-119682616D01*
X129588598Y-119684444D01*
X129515483Y-119768823D01*
X129515478Y-119768830D01*
X129461377Y-119887292D01*
X129442843Y-120016204D01*
X123073287Y-120016204D01*
X123064748Y-119956811D01*
X123034194Y-119889909D01*
X123010646Y-119838346D01*
X123010644Y-119838343D01*
X122951010Y-119769522D01*
X122925361Y-119739921D01*
X122925360Y-119739920D01*
X122925358Y-119739918D01*
X122815798Y-119669510D01*
X122690842Y-119632820D01*
X122560608Y-119632820D01*
X122435651Y-119669510D01*
X122326091Y-119739918D01*
X122240805Y-119838343D01*
X122240803Y-119838346D01*
X122186702Y-119956808D01*
X122168168Y-120085719D01*
X108204500Y-120085719D01*
X108204500Y-118872000D01*
X118668443Y-118872000D01*
X118668787Y-118874392D01*
X118686977Y-119000911D01*
X118741078Y-119119373D01*
X118741080Y-119119376D01*
X118826366Y-119217801D01*
X118935926Y-119288209D01*
X119060883Y-119324900D01*
X119191117Y-119324900D01*
X119316073Y-119288209D01*
X119316073Y-119288208D01*
X119316076Y-119288208D01*
X119425636Y-119217799D01*
X119510921Y-119119374D01*
X119565023Y-119000909D01*
X119583557Y-118872000D01*
X119565023Y-118743091D01*
X119563418Y-118739577D01*
X119510921Y-118624626D01*
X119510919Y-118624623D01*
X119449628Y-118553890D01*
X119425636Y-118526201D01*
X119425635Y-118526200D01*
X119425633Y-118526198D01*
X119316073Y-118455790D01*
X119191117Y-118419100D01*
X119060883Y-118419100D01*
X118935926Y-118455790D01*
X118826366Y-118526198D01*
X118741080Y-118624623D01*
X118741078Y-118624626D01*
X118686977Y-118743088D01*
X118678387Y-118802837D01*
X118668443Y-118872000D01*
X108204500Y-118872000D01*
X108204500Y-117856000D01*
X118160443Y-117856000D01*
X118178977Y-117984911D01*
X118233078Y-118103373D01*
X118233080Y-118103376D01*
X118318366Y-118201801D01*
X118370163Y-118235088D01*
X118427913Y-118272201D01*
X118427926Y-118272209D01*
X118552883Y-118308900D01*
X118683117Y-118308900D01*
X118808073Y-118272209D01*
X118808073Y-118272208D01*
X118808076Y-118272208D01*
X118917636Y-118201799D01*
X119002921Y-118103374D01*
X119057023Y-117984909D01*
X119075557Y-117856000D01*
X119057023Y-117727091D01*
X119054869Y-117722375D01*
X119002921Y-117608626D01*
X119002919Y-117608623D01*
X118917633Y-117510198D01*
X118830807Y-117454400D01*
X131876443Y-117454400D01*
X131879405Y-117474999D01*
X131894977Y-117583311D01*
X131949078Y-117701773D01*
X131949080Y-117701776D01*
X132034366Y-117800201D01*
X132143926Y-117870609D01*
X132268883Y-117907300D01*
X132399117Y-117907300D01*
X132524073Y-117870609D01*
X132524073Y-117870608D01*
X132524076Y-117870608D01*
X132633636Y-117800199D01*
X132718921Y-117701774D01*
X132773023Y-117583309D01*
X132788595Y-117474999D01*
X135305443Y-117474999D01*
X135323977Y-117603910D01*
X135378078Y-117722372D01*
X135378080Y-117722375D01*
X135463366Y-117820800D01*
X135572926Y-117891208D01*
X135697883Y-117927899D01*
X135828117Y-117927899D01*
X135953073Y-117891208D01*
X135953073Y-117891207D01*
X135953076Y-117891207D01*
X136062636Y-117820798D01*
X136147921Y-117722373D01*
X136202023Y-117603908D01*
X136220557Y-117474999D01*
X136202023Y-117346090D01*
X136201080Y-117344026D01*
X136147921Y-117227625D01*
X136147919Y-117227622D01*
X136062633Y-117129197D01*
X136007864Y-117094000D01*
X174802443Y-117094000D01*
X174807504Y-117129200D01*
X174820977Y-117222911D01*
X174875078Y-117341373D01*
X174875080Y-117341376D01*
X174960366Y-117439801D01*
X175015135Y-117474998D01*
X175069913Y-117510201D01*
X175069926Y-117510209D01*
X175194883Y-117546900D01*
X175325117Y-117546900D01*
X175450073Y-117510209D01*
X175450073Y-117510208D01*
X175450076Y-117510208D01*
X175559636Y-117439799D01*
X175644921Y-117341374D01*
X175699023Y-117222909D01*
X175717557Y-117094000D01*
X175699023Y-116965091D01*
X175688299Y-116941610D01*
X175644921Y-116846626D01*
X175644919Y-116846623D01*
X175559633Y-116748198D01*
X175450073Y-116677790D01*
X175325117Y-116641100D01*
X175194883Y-116641100D01*
X175069926Y-116677790D01*
X174960366Y-116748198D01*
X174875080Y-116846623D01*
X174875078Y-116846626D01*
X174820977Y-116965088D01*
X174810467Y-117038190D01*
X174802443Y-117094000D01*
X136007864Y-117094000D01*
X135953073Y-117058789D01*
X135828117Y-117022099D01*
X135697883Y-117022099D01*
X135572926Y-117058789D01*
X135463366Y-117129197D01*
X135378080Y-117227622D01*
X135378078Y-117227625D01*
X135323977Y-117346087D01*
X135305443Y-117474999D01*
X132788595Y-117474999D01*
X132791557Y-117454400D01*
X132773023Y-117325491D01*
X132718921Y-117207026D01*
X132718919Y-117207023D01*
X132633633Y-117108598D01*
X132524073Y-117038190D01*
X132399117Y-117001500D01*
X132268883Y-117001500D01*
X132143926Y-117038190D01*
X132034366Y-117108598D01*
X131949080Y-117207023D01*
X131949078Y-117207026D01*
X131894977Y-117325488D01*
X131878543Y-117439792D01*
X131876443Y-117454400D01*
X118830807Y-117454400D01*
X118808073Y-117439790D01*
X118683117Y-117403100D01*
X118552883Y-117403100D01*
X118427926Y-117439790D01*
X118318366Y-117510198D01*
X118233080Y-117608623D01*
X118233078Y-117608626D01*
X118178977Y-117727088D01*
X118160443Y-117856000D01*
X108204500Y-117856000D01*
X108204500Y-116078000D01*
X116349818Y-116078000D01*
X116353620Y-116104444D01*
X116368352Y-116206911D01*
X116422453Y-116325373D01*
X116422455Y-116325376D01*
X116507741Y-116423801D01*
X116552203Y-116452374D01*
X116617269Y-116494189D01*
X116617301Y-116494209D01*
X116742258Y-116530900D01*
X116872492Y-116530900D01*
X116997448Y-116494209D01*
X116997448Y-116494208D01*
X116997451Y-116494208D01*
X117107011Y-116423799D01*
X117192296Y-116325374D01*
X117246398Y-116206909D01*
X117264932Y-116078000D01*
X119938443Y-116078000D01*
X119956977Y-116206911D01*
X120011078Y-116325373D01*
X120011080Y-116325376D01*
X120096366Y-116423801D01*
X120140828Y-116452374D01*
X120205894Y-116494189D01*
X120205926Y-116494209D01*
X120330883Y-116530900D01*
X120461117Y-116530900D01*
X120586073Y-116494209D01*
X120586073Y-116494208D01*
X120586076Y-116494208D01*
X120695636Y-116423799D01*
X120780921Y-116325374D01*
X120835023Y-116206909D01*
X120835297Y-116205000D01*
X122097443Y-116205000D01*
X122115977Y-116333911D01*
X122170078Y-116452373D01*
X122170080Y-116452376D01*
X122255366Y-116550801D01*
X122364926Y-116621209D01*
X122489883Y-116657900D01*
X122620117Y-116657900D01*
X122745076Y-116621208D01*
X122775230Y-116601829D01*
X122825403Y-116590497D01*
X122871125Y-116614068D01*
X122884288Y-116633852D01*
X122913203Y-116697167D01*
X122913205Y-116697170D01*
X122998491Y-116795595D01*
X123108051Y-116866003D01*
X123233008Y-116902694D01*
X123363240Y-116902694D01*
X123363242Y-116902694D01*
X123439990Y-116880158D01*
X123491323Y-116883420D01*
X123528552Y-116918917D01*
X123535609Y-116941610D01*
X123552160Y-117056728D01*
X123606261Y-117175190D01*
X123606263Y-117175193D01*
X123691549Y-117273618D01*
X123769851Y-117323938D01*
X123796980Y-117341373D01*
X123801109Y-117344026D01*
X123926066Y-117380717D01*
X124056300Y-117380717D01*
X124181256Y-117344026D01*
X124181256Y-117344025D01*
X124181259Y-117344025D01*
X124290819Y-117273616D01*
X124376104Y-117175191D01*
X124430206Y-117056726D01*
X124448740Y-116927817D01*
X124430206Y-116798908D01*
X124376104Y-116680443D01*
X124376102Y-116680440D01*
X124290816Y-116582015D01*
X124181256Y-116511607D01*
X124056300Y-116474917D01*
X123926066Y-116474917D01*
X123849319Y-116497452D01*
X123797983Y-116494189D01*
X123760754Y-116458692D01*
X123753699Y-116436004D01*
X123738746Y-116332000D01*
X146062343Y-116332000D01*
X146062618Y-116333911D01*
X146080877Y-116460911D01*
X146134978Y-116579373D01*
X146134980Y-116579376D01*
X146220266Y-116677801D01*
X146250406Y-116697170D01*
X146329813Y-116748201D01*
X146329826Y-116748209D01*
X146454783Y-116784900D01*
X146585017Y-116784900D01*
X146709973Y-116748209D01*
X146709973Y-116748208D01*
X146709976Y-116748208D01*
X146815422Y-116680443D01*
X146819533Y-116677801D01*
X146819533Y-116677800D01*
X146819536Y-116677799D01*
X146904821Y-116579374D01*
X146958923Y-116460909D01*
X146977457Y-116332000D01*
X146958923Y-116203091D01*
X146958615Y-116202417D01*
X146904821Y-116084626D01*
X146904819Y-116084623D01*
X146819533Y-115986198D01*
X146796816Y-115971599D01*
X153466443Y-115971599D01*
X153484977Y-116100511D01*
X153539078Y-116218973D01*
X153539080Y-116218976D01*
X153624366Y-116317401D01*
X153733926Y-116387809D01*
X153858883Y-116424500D01*
X153989117Y-116424500D01*
X154114073Y-116387809D01*
X154114073Y-116387808D01*
X154114076Y-116387808D01*
X154223636Y-116317399D01*
X154308921Y-116218974D01*
X154363023Y-116100509D01*
X154381557Y-115971600D01*
X154363023Y-115842691D01*
X154354486Y-115823999D01*
X172262443Y-115823999D01*
X172280977Y-115952911D01*
X172335078Y-116071373D01*
X172335080Y-116071376D01*
X172420366Y-116169801D01*
X172529926Y-116240209D01*
X172654883Y-116276900D01*
X172785117Y-116276900D01*
X172910073Y-116240209D01*
X172910073Y-116240208D01*
X172910076Y-116240208D01*
X173019636Y-116169799D01*
X173104921Y-116071374D01*
X173159023Y-115952909D01*
X173177557Y-115824000D01*
X173159023Y-115695091D01*
X173127377Y-115625798D01*
X173104921Y-115576626D01*
X173104919Y-115576623D01*
X173081329Y-115549399D01*
X177596443Y-115549399D01*
X177614977Y-115678311D01*
X177669078Y-115796773D01*
X177669080Y-115796776D01*
X177754366Y-115895201D01*
X177863926Y-115965609D01*
X177988883Y-116002300D01*
X178119117Y-116002300D01*
X178244073Y-115965609D01*
X178244073Y-115965608D01*
X178244076Y-115965608D01*
X178353636Y-115895199D01*
X178438921Y-115796774D01*
X178493023Y-115678309D01*
X178511557Y-115549400D01*
X178493023Y-115420491D01*
X178487223Y-115407792D01*
X178438921Y-115302026D01*
X178438919Y-115302023D01*
X178353633Y-115203598D01*
X178244073Y-115133190D01*
X178119117Y-115096500D01*
X177988883Y-115096500D01*
X177863926Y-115133190D01*
X177754366Y-115203598D01*
X177669080Y-115302023D01*
X177669078Y-115302026D01*
X177614977Y-115420488D01*
X177596443Y-115549399D01*
X173081329Y-115549399D01*
X173019633Y-115478198D01*
X172910073Y-115407790D01*
X172785117Y-115371100D01*
X172654883Y-115371100D01*
X172529926Y-115407790D01*
X172420366Y-115478198D01*
X172335080Y-115576623D01*
X172335078Y-115576626D01*
X172280977Y-115695088D01*
X172262443Y-115823999D01*
X154354486Y-115823999D01*
X154342024Y-115796711D01*
X154308921Y-115724226D01*
X154308919Y-115724223D01*
X154223633Y-115625798D01*
X154114073Y-115555390D01*
X153989117Y-115518700D01*
X153858883Y-115518700D01*
X153733926Y-115555390D01*
X153624366Y-115625798D01*
X153539080Y-115724223D01*
X153539078Y-115724226D01*
X153484977Y-115842688D01*
X153466443Y-115971599D01*
X146796816Y-115971599D01*
X146709973Y-115915790D01*
X146585017Y-115879100D01*
X146454783Y-115879100D01*
X146329826Y-115915790D01*
X146220266Y-115986198D01*
X146134980Y-116084623D01*
X146134978Y-116084626D01*
X146080877Y-116203088D01*
X146063941Y-116320885D01*
X146062343Y-116332000D01*
X123738746Y-116332000D01*
X123737148Y-116320885D01*
X123737147Y-116320883D01*
X123737147Y-116320881D01*
X123683046Y-116202420D01*
X123683044Y-116202417D01*
X123597758Y-116103992D01*
X123488198Y-116033584D01*
X123363242Y-115996894D01*
X123233008Y-115996894D01*
X123108050Y-116033585D01*
X123077895Y-116052964D01*
X123027718Y-116064296D01*
X122981997Y-116040724D01*
X122968836Y-116020940D01*
X122939922Y-115957628D01*
X122939919Y-115957623D01*
X122854633Y-115859198D01*
X122745073Y-115788790D01*
X122620117Y-115752100D01*
X122489883Y-115752100D01*
X122364926Y-115788790D01*
X122255366Y-115859198D01*
X122170080Y-115957623D01*
X122170078Y-115957626D01*
X122115977Y-116076088D01*
X122097443Y-116205000D01*
X120835297Y-116205000D01*
X120853557Y-116078000D01*
X120835023Y-115949091D01*
X120780921Y-115830626D01*
X120780919Y-115830623D01*
X120695633Y-115732198D01*
X120586073Y-115661790D01*
X120461117Y-115625100D01*
X120330883Y-115625100D01*
X120205926Y-115661790D01*
X120096366Y-115732198D01*
X120011080Y-115830623D01*
X120011078Y-115830626D01*
X119956977Y-115949088D01*
X119938443Y-116078000D01*
X117264932Y-116078000D01*
X117246398Y-115949091D01*
X117192296Y-115830626D01*
X117192294Y-115830623D01*
X117107008Y-115732198D01*
X116997448Y-115661790D01*
X116872492Y-115625100D01*
X116742258Y-115625100D01*
X116617301Y-115661790D01*
X116507741Y-115732198D01*
X116422455Y-115830623D01*
X116422453Y-115830626D01*
X116368352Y-115949088D01*
X116351788Y-116064296D01*
X116349818Y-116078000D01*
X108204500Y-116078000D01*
X108204500Y-115450909D01*
X124002443Y-115450909D01*
X124020977Y-115579821D01*
X124075078Y-115698283D01*
X124075080Y-115698286D01*
X124160366Y-115796711D01*
X124269926Y-115867119D01*
X124394883Y-115903810D01*
X124525117Y-115903810D01*
X124650073Y-115867119D01*
X124650073Y-115867118D01*
X124650076Y-115867118D01*
X124759535Y-115796774D01*
X124759633Y-115796711D01*
X124759633Y-115796710D01*
X124759636Y-115796709D01*
X124844921Y-115698284D01*
X124899023Y-115579819D01*
X124917557Y-115450910D01*
X124899023Y-115322001D01*
X124889899Y-115302023D01*
X124844921Y-115203536D01*
X124844919Y-115203533D01*
X124759633Y-115105108D01*
X124650073Y-115034700D01*
X124525117Y-114998010D01*
X124394883Y-114998010D01*
X124269926Y-115034700D01*
X124160366Y-115105108D01*
X124075080Y-115203533D01*
X124075078Y-115203536D01*
X124020977Y-115321998D01*
X124002443Y-115450909D01*
X108204500Y-115450909D01*
X108204500Y-114530278D01*
X130060277Y-114530278D01*
X130078811Y-114659190D01*
X130132912Y-114777652D01*
X130132914Y-114777655D01*
X130218200Y-114876080D01*
X130327760Y-114946488D01*
X130452717Y-114983179D01*
X130582951Y-114983179D01*
X130707910Y-114946487D01*
X130760562Y-114912649D01*
X130810737Y-114901317D01*
X130856458Y-114924888D01*
X130863922Y-114936101D01*
X130864652Y-114935632D01*
X130867559Y-114940156D01*
X130952845Y-115038581D01*
X131031147Y-115088901D01*
X131056370Y-115105111D01*
X131062405Y-115108989D01*
X131187362Y-115145680D01*
X131317596Y-115145680D01*
X131442552Y-115108989D01*
X131442552Y-115108988D01*
X131442555Y-115108988D01*
X131552115Y-115038579D01*
X131637400Y-114940154D01*
X131691502Y-114821689D01*
X131710036Y-114692780D01*
X131691502Y-114563871D01*
X131686993Y-114553999D01*
X146100443Y-114553999D01*
X146118977Y-114682911D01*
X146173078Y-114801373D01*
X146173080Y-114801376D01*
X146258366Y-114899801D01*
X146367926Y-114970209D01*
X146492883Y-115006900D01*
X146623117Y-115006900D01*
X146748073Y-114970209D01*
X146748073Y-114970208D01*
X146748076Y-114970208D01*
X146857636Y-114899799D01*
X146942921Y-114801374D01*
X146997023Y-114682909D01*
X147015557Y-114554000D01*
X146997023Y-114425091D01*
X146986188Y-114401367D01*
X146942921Y-114306626D01*
X146942919Y-114306623D01*
X146857633Y-114208198D01*
X146748073Y-114137790D01*
X146623117Y-114101100D01*
X146492883Y-114101100D01*
X146367926Y-114137790D01*
X146258366Y-114208198D01*
X146173080Y-114306623D01*
X146173078Y-114306626D01*
X146118977Y-114425088D01*
X146100443Y-114553999D01*
X131686993Y-114553999D01*
X131676160Y-114530278D01*
X131637400Y-114445406D01*
X131637398Y-114445403D01*
X131552112Y-114346978D01*
X131442552Y-114276570D01*
X131317596Y-114239880D01*
X131187362Y-114239880D01*
X131062405Y-114276570D01*
X131009750Y-114310409D01*
X130959574Y-114321741D01*
X130913853Y-114298169D01*
X130906397Y-114286953D01*
X130905661Y-114287427D01*
X130902753Y-114282902D01*
X130838024Y-114208201D01*
X130817470Y-114184480D01*
X130817469Y-114184479D01*
X130817467Y-114184477D01*
X130707907Y-114114069D01*
X130582951Y-114077379D01*
X130452717Y-114077379D01*
X130327760Y-114114069D01*
X130218200Y-114184477D01*
X130132914Y-114282902D01*
X130132912Y-114282905D01*
X130078811Y-114401367D01*
X130060277Y-114530278D01*
X108204500Y-114530278D01*
X108204500Y-113809960D01*
X132148404Y-113809960D01*
X132148784Y-113812600D01*
X132166938Y-113938871D01*
X132221039Y-114057333D01*
X132221041Y-114057336D01*
X132241723Y-114081204D01*
X132290764Y-114137801D01*
X132306327Y-114155761D01*
X132415887Y-114226169D01*
X132540844Y-114262860D01*
X132671078Y-114262860D01*
X132796034Y-114226169D01*
X132796034Y-114226168D01*
X132796037Y-114226168D01*
X132905597Y-114155759D01*
X132990882Y-114057334D01*
X133044984Y-113938869D01*
X133063518Y-113809960D01*
X133044984Y-113681051D01*
X133037651Y-113664996D01*
X135305443Y-113664996D01*
X135308131Y-113683691D01*
X135323977Y-113793907D01*
X135378078Y-113912369D01*
X135378080Y-113912372D01*
X135463366Y-114010797D01*
X135572926Y-114081205D01*
X135697883Y-114117896D01*
X135828117Y-114117896D01*
X135953073Y-114081205D01*
X135953073Y-114081204D01*
X135953076Y-114081204D01*
X136062636Y-114010795D01*
X136147921Y-113912370D01*
X136193485Y-113812600D01*
X165658443Y-113812600D01*
X165676977Y-113941511D01*
X165731078Y-114059973D01*
X165731080Y-114059976D01*
X165777952Y-114114069D01*
X165814076Y-114155759D01*
X165816366Y-114158401D01*
X165925926Y-114228809D01*
X166050883Y-114265500D01*
X166181117Y-114265500D01*
X166306073Y-114228809D01*
X166306073Y-114228808D01*
X166306076Y-114228808D01*
X166415636Y-114158399D01*
X166500921Y-114059974D01*
X166555023Y-113941509D01*
X166573557Y-113812600D01*
X166570595Y-113792000D01*
X175310443Y-113792000D01*
X175328977Y-113920911D01*
X175383078Y-114039373D01*
X175383080Y-114039376D01*
X175468366Y-114137801D01*
X175540997Y-114184477D01*
X175577913Y-114208201D01*
X175577926Y-114208209D01*
X175702883Y-114244900D01*
X175833117Y-114244900D01*
X175958073Y-114208209D01*
X175958073Y-114208208D01*
X175958076Y-114208208D01*
X176067636Y-114137799D01*
X176152921Y-114039374D01*
X176207023Y-113920909D01*
X176225557Y-113792000D01*
X176207023Y-113663091D01*
X176162327Y-113565223D01*
X176152921Y-113544626D01*
X176152919Y-113544623D01*
X176083198Y-113464161D01*
X176067636Y-113446201D01*
X176067635Y-113446200D01*
X176067633Y-113446198D01*
X175958073Y-113375790D01*
X175833117Y-113339100D01*
X175702883Y-113339100D01*
X175577926Y-113375790D01*
X175468366Y-113446198D01*
X175383080Y-113544623D01*
X175383078Y-113544626D01*
X175328977Y-113663088D01*
X175310443Y-113792000D01*
X166570595Y-113792000D01*
X166555023Y-113683691D01*
X166553817Y-113681051D01*
X166500921Y-113565226D01*
X166500919Y-113565223D01*
X166415633Y-113466798D01*
X166306073Y-113396390D01*
X166181117Y-113359700D01*
X166050883Y-113359700D01*
X165925926Y-113396390D01*
X165816366Y-113466798D01*
X165731080Y-113565223D01*
X165731078Y-113565226D01*
X165676977Y-113683688D01*
X165658443Y-113812600D01*
X136193485Y-113812600D01*
X136202023Y-113793905D01*
X136220557Y-113664996D01*
X136202023Y-113536087D01*
X136160976Y-113446209D01*
X136147921Y-113417622D01*
X136147919Y-113417619D01*
X136062633Y-113319194D01*
X135953073Y-113248786D01*
X135828117Y-113212096D01*
X135697883Y-113212096D01*
X135572926Y-113248786D01*
X135463366Y-113319194D01*
X135378080Y-113417619D01*
X135378078Y-113417622D01*
X135323977Y-113536084D01*
X135305717Y-113663088D01*
X135305443Y-113664996D01*
X133037651Y-113664996D01*
X133037651Y-113664995D01*
X132990882Y-113562586D01*
X132990880Y-113562583D01*
X132921834Y-113482900D01*
X132905597Y-113464161D01*
X132905596Y-113464160D01*
X132905594Y-113464158D01*
X132796034Y-113393750D01*
X132671078Y-113357060D01*
X132540844Y-113357060D01*
X132415887Y-113393750D01*
X132306327Y-113464158D01*
X132221041Y-113562583D01*
X132221039Y-113562586D01*
X132166938Y-113681048D01*
X132166558Y-113683691D01*
X132148404Y-113809960D01*
X108204500Y-113809960D01*
X108204500Y-113030000D01*
X114985443Y-113030000D01*
X115003977Y-113158911D01*
X115058078Y-113277373D01*
X115058080Y-113277376D01*
X115143366Y-113375801D01*
X115208438Y-113417619D01*
X115252913Y-113446201D01*
X115252926Y-113446209D01*
X115377883Y-113482900D01*
X115508117Y-113482900D01*
X115633073Y-113446209D01*
X115633073Y-113446208D01*
X115633076Y-113446208D01*
X115742636Y-113375799D01*
X115827921Y-113277374D01*
X115882023Y-113158909D01*
X115900557Y-113030000D01*
X115900557Y-113029999D01*
X122224443Y-113029999D01*
X122242977Y-113158911D01*
X122297078Y-113277373D01*
X122297080Y-113277376D01*
X122382366Y-113375801D01*
X122447438Y-113417619D01*
X122491913Y-113446201D01*
X122491926Y-113446209D01*
X122616883Y-113482900D01*
X122747117Y-113482900D01*
X122872073Y-113446209D01*
X122872073Y-113446208D01*
X122872076Y-113446208D01*
X122981636Y-113375799D01*
X123066921Y-113277374D01*
X123121023Y-113158909D01*
X123139557Y-113030000D01*
X123139557Y-113029999D01*
X123748443Y-113029999D01*
X123766977Y-113158911D01*
X123821078Y-113277373D01*
X123821080Y-113277376D01*
X123906366Y-113375801D01*
X123971438Y-113417619D01*
X124015913Y-113446201D01*
X124015926Y-113446209D01*
X124140883Y-113482900D01*
X124271117Y-113482900D01*
X124396073Y-113446209D01*
X124396073Y-113446208D01*
X124396076Y-113446208D01*
X124505636Y-113375799D01*
X124590921Y-113277374D01*
X124645023Y-113158909D01*
X124663557Y-113030000D01*
X124645023Y-112901091D01*
X124637256Y-112884085D01*
X124590921Y-112782626D01*
X124590919Y-112782623D01*
X124505633Y-112684198D01*
X124396073Y-112613790D01*
X124271117Y-112577100D01*
X124140883Y-112577100D01*
X124015926Y-112613790D01*
X123906366Y-112684198D01*
X123821080Y-112782623D01*
X123821078Y-112782626D01*
X123766977Y-112901088D01*
X123748443Y-113029999D01*
X123139557Y-113029999D01*
X123121023Y-112901091D01*
X123113256Y-112884085D01*
X123066921Y-112782626D01*
X123066919Y-112782623D01*
X122981633Y-112684198D01*
X122872073Y-112613790D01*
X122747117Y-112577100D01*
X122616883Y-112577100D01*
X122491926Y-112613790D01*
X122382366Y-112684198D01*
X122297080Y-112782623D01*
X122297078Y-112782626D01*
X122242977Y-112901088D01*
X122224443Y-113029999D01*
X115900557Y-113029999D01*
X115882023Y-112901091D01*
X115874256Y-112884085D01*
X115827921Y-112782626D01*
X115827919Y-112782623D01*
X115742633Y-112684198D01*
X115633073Y-112613790D01*
X115508117Y-112577100D01*
X115377883Y-112577100D01*
X115252926Y-112613790D01*
X115143366Y-112684198D01*
X115058080Y-112782623D01*
X115058078Y-112782626D01*
X115003977Y-112901088D01*
X114985443Y-113030000D01*
X108204500Y-113030000D01*
X108204500Y-112256737D01*
X136156393Y-112256737D01*
X136186668Y-112428433D01*
X136255720Y-112588514D01*
X136359832Y-112728360D01*
X136493382Y-112840423D01*
X136493383Y-112840424D01*
X136493384Y-112840424D01*
X136493386Y-112840426D01*
X136649185Y-112918671D01*
X136818829Y-112958877D01*
X136949443Y-112958877D01*
X136949445Y-112958876D01*
X136966182Y-112956919D01*
X137079164Y-112943714D01*
X137242993Y-112884085D01*
X137388654Y-112788282D01*
X137508296Y-112661470D01*
X137595467Y-112510484D01*
X137645469Y-112343465D01*
X137649865Y-112268000D01*
X144957443Y-112268000D01*
X144975977Y-112396911D01*
X145030078Y-112515373D01*
X145030080Y-112515376D01*
X145115366Y-112613801D01*
X145193668Y-112664121D01*
X145224913Y-112684201D01*
X145224926Y-112684209D01*
X145349883Y-112720900D01*
X145480117Y-112720900D01*
X145605073Y-112684209D01*
X145605073Y-112684208D01*
X145605076Y-112684208D01*
X145714636Y-112613799D01*
X145799921Y-112515374D01*
X145854023Y-112396909D01*
X145872557Y-112268000D01*
X145854023Y-112139091D01*
X145799921Y-112020626D01*
X145799919Y-112020623D01*
X145794180Y-112014000D01*
X164642443Y-112014000D01*
X164660977Y-112142911D01*
X164715078Y-112261373D01*
X164715080Y-112261376D01*
X164800366Y-112359801D01*
X164909926Y-112430209D01*
X165034883Y-112466900D01*
X165165117Y-112466900D01*
X165290073Y-112430209D01*
X165290073Y-112430208D01*
X165290076Y-112430208D01*
X165399636Y-112359799D01*
X165484921Y-112261374D01*
X165539023Y-112142909D01*
X165557557Y-112014000D01*
X165539023Y-111885091D01*
X165531256Y-111868085D01*
X165484921Y-111766626D01*
X165484919Y-111766623D01*
X165399633Y-111668198D01*
X165290073Y-111597790D01*
X165165117Y-111561100D01*
X165034883Y-111561100D01*
X164909926Y-111597790D01*
X164800366Y-111668198D01*
X164715080Y-111766623D01*
X164715078Y-111766626D01*
X164660977Y-111885088D01*
X164642443Y-112014000D01*
X145794180Y-112014000D01*
X145714633Y-111922198D01*
X145605073Y-111851790D01*
X145480117Y-111815100D01*
X145349883Y-111815100D01*
X145224926Y-111851790D01*
X145115366Y-111922198D01*
X145030080Y-112020623D01*
X145030078Y-112020626D01*
X144975977Y-112139088D01*
X144957443Y-112268000D01*
X137649865Y-112268000D01*
X137655607Y-112169417D01*
X137625332Y-111997723D01*
X137601673Y-111942876D01*
X137556279Y-111837639D01*
X137452167Y-111697793D01*
X137318617Y-111585730D01*
X137318616Y-111585729D01*
X137162815Y-111507483D01*
X137156558Y-111506000D01*
X145846443Y-111506000D01*
X145864977Y-111634911D01*
X145919078Y-111753373D01*
X145919080Y-111753376D01*
X145972564Y-111815100D01*
X145992094Y-111837639D01*
X146004366Y-111851801D01*
X146056163Y-111885088D01*
X146113913Y-111922201D01*
X146113926Y-111922209D01*
X146238883Y-111958900D01*
X146369117Y-111958900D01*
X146494073Y-111922209D01*
X146494073Y-111922208D01*
X146494076Y-111922208D01*
X146603636Y-111851799D01*
X146688921Y-111753374D01*
X146743023Y-111634909D01*
X146761557Y-111506000D01*
X146743023Y-111377091D01*
X146693666Y-111269017D01*
X146688921Y-111258626D01*
X146688919Y-111258623D01*
X146683180Y-111252000D01*
X157276443Y-111252000D01*
X157294977Y-111380911D01*
X157349078Y-111499373D01*
X157349080Y-111499376D01*
X157354820Y-111506000D01*
X157423905Y-111585729D01*
X157434366Y-111597801D01*
X157512668Y-111648121D01*
X157543913Y-111668201D01*
X157543926Y-111668209D01*
X157668883Y-111704900D01*
X157799117Y-111704900D01*
X157924073Y-111668209D01*
X157924073Y-111668208D01*
X157924076Y-111668208D01*
X158033636Y-111597799D01*
X158118921Y-111499374D01*
X158173023Y-111380909D01*
X158191557Y-111252000D01*
X158173023Y-111123091D01*
X158118921Y-111004626D01*
X158118919Y-111004623D01*
X158033633Y-110906198D01*
X157924073Y-110835790D01*
X157799117Y-110799100D01*
X157668883Y-110799100D01*
X157543926Y-110835790D01*
X157434366Y-110906198D01*
X157349080Y-111004623D01*
X157349078Y-111004626D01*
X157294977Y-111123088D01*
X157276443Y-111252000D01*
X146683180Y-111252000D01*
X146603633Y-111160198D01*
X146494073Y-111089790D01*
X146369117Y-111053100D01*
X146238883Y-111053100D01*
X146113926Y-111089790D01*
X146004366Y-111160198D01*
X145919080Y-111258623D01*
X145919078Y-111258626D01*
X145864977Y-111377088D01*
X145846443Y-111506000D01*
X137156558Y-111506000D01*
X136993171Y-111467277D01*
X136862564Y-111467277D01*
X136862554Y-111467277D01*
X136732838Y-111482439D01*
X136569009Y-111542068D01*
X136569008Y-111542068D01*
X136569007Y-111542069D01*
X136423346Y-111637872D01*
X136423345Y-111637872D01*
X136423345Y-111637873D01*
X136303704Y-111764683D01*
X136216532Y-111915670D01*
X136166531Y-112082686D01*
X136166531Y-112082688D01*
X136156393Y-112256737D01*
X108204500Y-112256737D01*
X108204500Y-110617000D01*
X108974000Y-110617000D01*
X109406732Y-110617000D01*
X109455070Y-110634593D01*
X109480790Y-110679142D01*
X109480487Y-110706870D01*
X109473102Y-110743998D01*
X109473102Y-110744001D01*
X109480487Y-110781130D01*
X109472662Y-110831971D01*
X109433987Y-110865887D01*
X109406732Y-110871000D01*
X108974001Y-110871000D01*
X108974001Y-111269017D01*
X108988737Y-111343105D01*
X109044876Y-111427124D01*
X109128894Y-111483262D01*
X109128896Y-111483263D01*
X109202982Y-111497999D01*
X109601000Y-111497999D01*
X109601000Y-111065267D01*
X109618593Y-111016929D01*
X109663142Y-110991209D01*
X109690872Y-110991512D01*
X109696960Y-110992723D01*
X109703374Y-110994000D01*
X109703376Y-110994000D01*
X109752626Y-110994000D01*
X109759039Y-110992723D01*
X109765126Y-110991513D01*
X109815967Y-110999335D01*
X109849885Y-111038008D01*
X109855000Y-111065267D01*
X109855000Y-111497999D01*
X110253016Y-111497999D01*
X110253017Y-111497998D01*
X110327105Y-111483262D01*
X110411124Y-111427123D01*
X110467262Y-111343105D01*
X110467263Y-111343103D01*
X110481999Y-111269017D01*
X110481999Y-111240737D01*
X131076393Y-111240737D01*
X131106668Y-111412433D01*
X131175720Y-111572514D01*
X131279832Y-111712360D01*
X131413382Y-111824423D01*
X131413383Y-111824424D01*
X131413384Y-111824424D01*
X131413386Y-111824426D01*
X131569185Y-111902671D01*
X131738829Y-111942877D01*
X131869443Y-111942877D01*
X131869445Y-111942876D01*
X131886182Y-111940919D01*
X131999164Y-111927714D01*
X132162993Y-111868085D01*
X132308654Y-111772282D01*
X132428296Y-111645470D01*
X132515467Y-111494484D01*
X132565469Y-111327465D01*
X132575607Y-111153417D01*
X132545332Y-110981723D01*
X132521673Y-110926876D01*
X132476279Y-110821639D01*
X132421965Y-110748683D01*
X132372168Y-110681794D01*
X132372167Y-110681793D01*
X132238617Y-110569730D01*
X132238616Y-110569729D01*
X132082815Y-110491483D01*
X132074237Y-110489450D01*
X132031260Y-110461184D01*
X132016506Y-110411905D01*
X132036880Y-110364672D01*
X132082848Y-110341586D01*
X132091579Y-110341077D01*
X132145117Y-110341077D01*
X132270073Y-110304386D01*
X132270073Y-110304385D01*
X132270076Y-110304385D01*
X132379636Y-110233976D01*
X132387642Y-110224737D01*
X136156393Y-110224737D01*
X136186668Y-110396433D01*
X136255720Y-110556514D01*
X136359832Y-110696360D01*
X136493382Y-110808423D01*
X136493383Y-110808424D01*
X136493384Y-110808424D01*
X136493386Y-110808426D01*
X136649185Y-110886671D01*
X136818829Y-110926877D01*
X136949443Y-110926877D01*
X136949445Y-110926876D01*
X136971997Y-110924240D01*
X137079164Y-110911714D01*
X137242993Y-110852085D01*
X137388654Y-110756282D01*
X137508296Y-110629470D01*
X137595467Y-110478484D01*
X137645469Y-110311465D01*
X137655607Y-110137417D01*
X137625332Y-109965723D01*
X137622798Y-109959849D01*
X137556279Y-109805639D01*
X137501965Y-109732683D01*
X137452168Y-109665794D01*
X137422382Y-109640800D01*
X137318617Y-109553730D01*
X137318616Y-109553729D01*
X137162815Y-109475483D01*
X136993171Y-109435277D01*
X136862564Y-109435277D01*
X136862554Y-109435277D01*
X136732838Y-109450439D01*
X136569009Y-109510068D01*
X136569008Y-109510068D01*
X136569007Y-109510069D01*
X136423346Y-109605872D01*
X136423345Y-109605872D01*
X136423345Y-109605873D01*
X136303704Y-109732683D01*
X136216532Y-109883670D01*
X136166531Y-110050686D01*
X136166531Y-110050688D01*
X136156393Y-110224737D01*
X132387642Y-110224737D01*
X132464921Y-110135551D01*
X132519023Y-110017086D01*
X132537557Y-109888177D01*
X132519023Y-109759268D01*
X132506882Y-109732684D01*
X132464921Y-109640803D01*
X132464919Y-109640800D01*
X132389472Y-109553730D01*
X132379636Y-109542378D01*
X132379635Y-109542377D01*
X132379633Y-109542375D01*
X132270073Y-109471967D01*
X132145117Y-109435277D01*
X132014883Y-109435277D01*
X131889926Y-109471967D01*
X131780366Y-109542375D01*
X131695080Y-109640800D01*
X131695078Y-109640803D01*
X131640977Y-109759265D01*
X131622443Y-109888177D01*
X131640977Y-110017088D01*
X131695078Y-110135550D01*
X131695080Y-110135553D01*
X131703176Y-110144896D01*
X131772358Y-110224737D01*
X131780366Y-110233978D01*
X131889926Y-110304386D01*
X131894821Y-110306622D01*
X131894114Y-110308167D01*
X131929773Y-110334423D01*
X131941900Y-110384413D01*
X131919056Y-110430503D01*
X131871931Y-110451126D01*
X131867163Y-110451277D01*
X131782554Y-110451277D01*
X131652838Y-110466439D01*
X131489009Y-110526068D01*
X131489008Y-110526068D01*
X131489007Y-110526069D01*
X131343346Y-110621872D01*
X131343345Y-110621872D01*
X131343345Y-110621873D01*
X131223704Y-110748683D01*
X131136532Y-110899670D01*
X131086531Y-111066686D01*
X131086531Y-111066688D01*
X131076393Y-111240737D01*
X110481999Y-111240737D01*
X110482000Y-110871000D01*
X110049268Y-110871000D01*
X110000930Y-110853407D01*
X109975210Y-110808858D01*
X109975513Y-110781130D01*
X109982898Y-110744001D01*
X109982898Y-110743998D01*
X109975513Y-110706870D01*
X109983338Y-110656029D01*
X110022013Y-110622113D01*
X110049268Y-110617000D01*
X110481999Y-110617000D01*
X110481999Y-110218983D01*
X110481998Y-110218982D01*
X110467262Y-110144894D01*
X110411123Y-110060875D01*
X110327105Y-110004737D01*
X110327103Y-110004736D01*
X110253018Y-109990000D01*
X109855000Y-109990000D01*
X109855000Y-110422732D01*
X109837407Y-110471070D01*
X109792858Y-110496790D01*
X109765129Y-110496487D01*
X109752626Y-110494000D01*
X109752624Y-110494000D01*
X109703376Y-110494000D01*
X109703374Y-110494000D01*
X109690871Y-110496487D01*
X109640029Y-110488662D01*
X109606113Y-110449987D01*
X109601000Y-110422732D01*
X109601000Y-109990000D01*
X109202984Y-109990000D01*
X109202982Y-109990001D01*
X109128894Y-110004737D01*
X109044875Y-110060876D01*
X108988737Y-110144894D01*
X108988736Y-110144896D01*
X108974000Y-110218982D01*
X108974000Y-110617000D01*
X108204500Y-110617000D01*
X108204500Y-109425916D01*
X108205424Y-109414165D01*
X108206454Y-109407659D01*
X108215514Y-109362111D01*
X108222260Y-109342657D01*
X108229284Y-109328871D01*
X108231497Y-109325094D01*
X108250057Y-109297318D01*
X108259390Y-109285947D01*
X108269947Y-109275390D01*
X108281318Y-109266057D01*
X108309094Y-109247497D01*
X108312871Y-109245284D01*
X108326657Y-109238260D01*
X108346111Y-109231514D01*
X108391649Y-109222456D01*
X108398165Y-109221424D01*
X108409916Y-109220500D01*
X116761083Y-109220500D01*
X116772835Y-109221424D01*
G37*
%TD.AperFunction*%
%TD*%
M02*
