%TF.GenerationSoftware,KiCad,Pcbnew,7.0.7*%
%TF.CreationDate,2023-09-30T12:20:31-04:00*%
%TF.ProjectId,bt-md-remote,62742d6d-642d-4726-956d-6f74652e6b69,rev?*%
%TF.SameCoordinates,Original*%
%TF.FileFunction,Soldermask,Top*%
%TF.FilePolarity,Negative*%
%FSLAX46Y46*%
G04 Gerber Fmt 4.6, Leading zero omitted, Abs format (unit mm)*
G04 Created by KiCad (PCBNEW 7.0.7) date 2023-09-30 12:20:31*
%MOMM*%
%LPD*%
G01*
G04 APERTURE LIST*
G04 Aperture macros list*
%AMRoundRect*
0 Rectangle with rounded corners*
0 $1 Rounding radius*
0 $2 $3 $4 $5 $6 $7 $8 $9 X,Y pos of 4 corners*
0 Add a 4 corners polygon primitive as box body*
4,1,4,$2,$3,$4,$5,$6,$7,$8,$9,$2,$3,0*
0 Add four circle primitives for the rounded corners*
1,1,$1+$1,$2,$3*
1,1,$1+$1,$4,$5*
1,1,$1+$1,$6,$7*
1,1,$1+$1,$8,$9*
0 Add four rect primitives between the rounded corners*
20,1,$1+$1,$2,$3,$4,$5,0*
20,1,$1+$1,$4,$5,$6,$7,0*
20,1,$1+$1,$6,$7,$8,$9,0*
20,1,$1+$1,$8,$9,$2,$3,0*%
G04 Aperture macros list end*
%ADD10RoundRect,0.050000X0.337500X0.050000X-0.337500X0.050000X-0.337500X-0.050000X0.337500X-0.050000X0*%
%ADD11R,1.780000X2.350000*%
%ADD12RoundRect,0.200000X-0.275000X0.200000X-0.275000X-0.200000X0.275000X-0.200000X0.275000X0.200000X0*%
%ADD13R,1.000000X1.000000*%
%ADD14R,0.900000X1.500000*%
%ADD15RoundRect,0.175000X0.175000X-0.275000X0.175000X0.275000X-0.175000X0.275000X-0.175000X-0.275000X0*%
%ADD16RoundRect,0.200000X0.275000X-0.200000X0.275000X0.200000X-0.275000X0.200000X-0.275000X-0.200000X0*%
%ADD17RoundRect,0.140000X-0.170000X0.140000X-0.170000X-0.140000X0.170000X-0.140000X0.170000X0.140000X0*%
%ADD18RoundRect,0.140000X-0.140000X-0.170000X0.140000X-0.170000X0.140000X0.170000X-0.140000X0.170000X0*%
%ADD19R,1.100000X1.750000*%
%ADD20RoundRect,0.500000X-1.500000X0.500000X-1.500000X-0.500000X1.500000X-0.500000X1.500000X0.500000X0*%
%ADD21C,0.990600*%
%ADD22C,0.787400*%
%ADD23C,0.650000*%
%ADD24O,0.950000X0.650000*%
%ADD25O,0.800000X1.400000*%
%ADD26C,1.100000*%
G04 APERTURE END LIST*
D10*
%TO.C,U15*%
X174969500Y-112198000D03*
X174969500Y-111798000D03*
X174969500Y-111398000D03*
X174969500Y-110998000D03*
X174969500Y-110598000D03*
X174969500Y-110198000D03*
X174969500Y-109798000D03*
X171994500Y-109798000D03*
X171994500Y-110198000D03*
X171994500Y-110598000D03*
X171994500Y-110998000D03*
X171994500Y-111398000D03*
X171994500Y-111798000D03*
X171994500Y-112198000D03*
D11*
X173482000Y-110998000D03*
%TD*%
D12*
%TO.C,R18*%
X109209316Y-126669971D03*
X109209316Y-128319971D03*
%TD*%
D13*
%TO.C,TP3*%
X179832000Y-118872000D03*
%TD*%
D14*
%TO.C,LED1*%
X176852987Y-129312000D03*
X175452987Y-129312000D03*
X176852987Y-126212000D03*
X175452987Y-126212000D03*
%TD*%
D15*
%TO.C,SW1*%
X181900000Y-118900000D03*
X186350000Y-118900000D03*
X181900000Y-122600000D03*
X186350000Y-122600000D03*
%TD*%
D16*
%TO.C,R16*%
X109220000Y-125285000D03*
X109220000Y-123635000D03*
%TD*%
D12*
%TO.C,R2*%
X181610000Y-124397000D03*
X181610000Y-126047000D03*
%TD*%
D17*
%TO.C,C31*%
X175006000Y-113340000D03*
X175006000Y-114300000D03*
%TD*%
D12*
%TO.C,R15*%
X110750638Y-123627805D03*
X110750638Y-125277805D03*
%TD*%
D18*
%TO.C,C30*%
X169770414Y-111247295D03*
X170730414Y-111247295D03*
%TD*%
D12*
%TO.C,R17*%
X110744000Y-126683000D03*
X110744000Y-128333000D03*
%TD*%
D19*
%TO.C,R19*%
X178438000Y-114002000D03*
X177038000Y-114002000D03*
X177038000Y-111252000D03*
X178438000Y-111252000D03*
%TD*%
D13*
%TO.C,TP29*%
X166522400Y-111734600D03*
%TD*%
D20*
%TO.C,CN6*%
X110744000Y-121626000D03*
X110744000Y-119126000D03*
X110744000Y-116626000D03*
%TD*%
D21*
%TO.C,CN5*%
X131826000Y-111197077D03*
X136906000Y-110181077D03*
X136906000Y-112213077D03*
D22*
X133096000Y-111832077D03*
X133096000Y-110562077D03*
X134366000Y-111832077D03*
X134366000Y-110562077D03*
X135636000Y-111832077D03*
X135636000Y-110562077D03*
%TD*%
D13*
%TO.C,TP2*%
X109728000Y-110744000D03*
%TD*%
D23*
%TO.C,CN1*%
X187198000Y-121370000D03*
D24*
X179998000Y-121370000D03*
D25*
X188088000Y-128570000D03*
X187728000Y-122620000D03*
X179468000Y-122620000D03*
X179108000Y-128570000D03*
%TD*%
D26*
%TO.C,SW8*%
X194310000Y-124420000D03*
X194310000Y-119420000D03*
%TD*%
M02*
