%TF.GenerationSoftware,KiCad,Pcbnew,7.0.7*%
%TF.CreationDate,2023-09-30T12:20:31-04:00*%
%TF.ProjectId,bt-md-remote,62742d6d-642d-4726-956d-6f74652e6b69,rev?*%
%TF.SameCoordinates,Original*%
%TF.FileFunction,Copper,L1,Top*%
%TF.FilePolarity,Positive*%
%FSLAX46Y46*%
G04 Gerber Fmt 4.6, Leading zero omitted, Abs format (unit mm)*
G04 Created by KiCad (PCBNEW 7.0.7) date 2023-09-30 12:20:31*
%MOMM*%
%LPD*%
G01*
G04 APERTURE LIST*
G04 Aperture macros list*
%AMRoundRect*
0 Rectangle with rounded corners*
0 $1 Rounding radius*
0 $2 $3 $4 $5 $6 $7 $8 $9 X,Y pos of 4 corners*
0 Add a 4 corners polygon primitive as box body*
4,1,4,$2,$3,$4,$5,$6,$7,$8,$9,$2,$3,0*
0 Add four circle primitives for the rounded corners*
1,1,$1+$1,$2,$3*
1,1,$1+$1,$4,$5*
1,1,$1+$1,$6,$7*
1,1,$1+$1,$8,$9*
0 Add four rect primitives between the rounded corners*
20,1,$1+$1,$2,$3,$4,$5,0*
20,1,$1+$1,$4,$5,$6,$7,0*
20,1,$1+$1,$6,$7,$8,$9,0*
20,1,$1+$1,$8,$9,$2,$3,0*%
G04 Aperture macros list end*
%TA.AperFunction,SMDPad,CuDef*%
%ADD10RoundRect,0.050000X0.337500X0.050000X-0.337500X0.050000X-0.337500X-0.050000X0.337500X-0.050000X0*%
%TD*%
%TA.AperFunction,SMDPad,CuDef*%
%ADD11R,1.780000X2.350000*%
%TD*%
%TA.AperFunction,SMDPad,CuDef*%
%ADD12RoundRect,0.200000X-0.275000X0.200000X-0.275000X-0.200000X0.275000X-0.200000X0.275000X0.200000X0*%
%TD*%
%TA.AperFunction,SMDPad,CuDef*%
%ADD13R,1.000000X1.000000*%
%TD*%
%TA.AperFunction,SMDPad,CuDef*%
%ADD14R,0.900000X1.500000*%
%TD*%
%TA.AperFunction,SMDPad,CuDef*%
%ADD15RoundRect,0.175000X0.175000X-0.275000X0.175000X0.275000X-0.175000X0.275000X-0.175000X-0.275000X0*%
%TD*%
%TA.AperFunction,SMDPad,CuDef*%
%ADD16RoundRect,0.200000X0.275000X-0.200000X0.275000X0.200000X-0.275000X0.200000X-0.275000X-0.200000X0*%
%TD*%
%TA.AperFunction,SMDPad,CuDef*%
%ADD17RoundRect,0.140000X-0.170000X0.140000X-0.170000X-0.140000X0.170000X-0.140000X0.170000X0.140000X0*%
%TD*%
%TA.AperFunction,SMDPad,CuDef*%
%ADD18RoundRect,0.140000X-0.140000X-0.170000X0.140000X-0.170000X0.140000X0.170000X-0.140000X0.170000X0*%
%TD*%
%TA.AperFunction,SMDPad,CuDef*%
%ADD19R,1.100000X1.750000*%
%TD*%
%TA.AperFunction,SMDPad,CuDef*%
%ADD20RoundRect,0.500000X-1.500000X0.500000X-1.500000X-0.500000X1.500000X-0.500000X1.500000X0.500000X0*%
%TD*%
%TA.AperFunction,ConnectorPad*%
%ADD21C,0.787400*%
%TD*%
%TA.AperFunction,ComponentPad*%
%ADD22R,1.000000X1.000000*%
%TD*%
%TA.AperFunction,ComponentPad*%
%ADD23O,0.800000X1.400000*%
%TD*%
%TA.AperFunction,ViaPad*%
%ADD24C,0.600000*%
%TD*%
%TA.AperFunction,Conductor*%
%ADD25C,0.152400*%
%TD*%
%TA.AperFunction,Conductor*%
%ADD26C,0.127000*%
%TD*%
%TA.AperFunction,Conductor*%
%ADD27C,0.254000*%
%TD*%
G04 APERTURE END LIST*
D10*
%TO.P,U15,1,TH*%
%TO.N,unconnected-(U15-TH-Pad1)*%
X174969500Y-112198000D03*
%TO.P,U15,2,NC*%
%TO.N,unconnected-(U15-NC-Pad2)*%
X174969500Y-111798000D03*
%TO.P,U15,3,NC*%
%TO.N,unconnected-(U15-NC-Pad3)*%
X174969500Y-111398000D03*
%TO.P,U15,4,NC*%
%TO.N,unconnected-(U15-NC-Pad4)*%
X174969500Y-110998000D03*
%TO.P,U15,5,NC*%
%TO.N,unconnected-(U15-NC-Pad5)*%
X174969500Y-110598000D03*
%TO.P,U15,6,BATT*%
%TO.N,RAW_BATT+*%
X174969500Y-110198000D03*
%TO.P,U15,7,CSN*%
%TO.N,/Power + Charging/FG_KELVIN_NEG*%
X174969500Y-109798000D03*
%TO.P,U15,8,GND*%
%TO.N,GND*%
X171994500Y-109798000D03*
%TO.P,U15,9,CSPL*%
X171994500Y-110198000D03*
%TO.P,U15,10,CSPH*%
%TO.N,/Power + Charging/FG_KEVIN_POS*%
X171994500Y-110598000D03*
%TO.P,U15,11,REG*%
%TO.N,Net-(U15-REG)*%
X171994500Y-110998000D03*
%TO.P,U15,12,ALRT*%
%TO.N,~{BATT_ALERT}*%
X171994500Y-111398000D03*
%TO.P,U15,13,SDA*%
%TO.N,I2C_SDA*%
X171994500Y-111798000D03*
%TO.P,U15,14,SCL*%
%TO.N,I2C_SCL*%
X171994500Y-112198000D03*
D11*
%TO.P,U15,15,EP*%
%TO.N,GND*%
X173482000Y-110998000D03*
%TD*%
D12*
%TO.P,R18,1*%
%TO.N,AUDIO_IN_R*%
X109209316Y-126669971D03*
%TO.P,R18,2*%
%TO.N,GND*%
X109209316Y-128319971D03*
%TD*%
D13*
%TO.P,TP3,1,1*%
%TO.N,VBUS*%
X179832000Y-118872000D03*
%TD*%
D14*
%TO.P,LED1,1,A1*%
%TO.N,Net-(LED1-A1)*%
X176852987Y-129312000D03*
%TO.P,LED1,2,A2*%
%TO.N,VBUS*%
X175452987Y-129312000D03*
%TO.P,LED1,3,K1*%
%TO.N,GND*%
X176852987Y-126212000D03*
%TO.P,LED1,4,K2*%
%TO.N,Net-(LED1-A1)*%
X175452987Y-126212000D03*
%TD*%
D15*
%TO.P,SW1,1,1*%
%TO.N,/UI/PLAYPAUSE_HOLD*%
X181900000Y-118900000D03*
%TO.P,SW1,2,2*%
X186350000Y-118900000D03*
%TO.P,SW1,3,K*%
%TO.N,BTN_PLAYPAUSE_HV*%
X181900000Y-122600000D03*
%TO.P,SW1,4,A*%
X186350000Y-122600000D03*
%TD*%
D16*
%TO.P,R16,1*%
%TO.N,AUDIO_IN_R*%
X109220000Y-125285000D03*
%TO.P,R16,2*%
%TO.N,/IO/AUD_IN_R_LINE*%
X109220000Y-123635000D03*
%TD*%
D12*
%TO.P,R2,1*%
%TO.N,Net-(CN1-CC2)*%
X181610000Y-124397000D03*
%TO.P,R2,2*%
%TO.N,GND*%
X181610000Y-126047000D03*
%TD*%
D17*
%TO.P,C31,1*%
%TO.N,RAW_BATT+*%
X175006000Y-113340000D03*
%TO.P,C31,2*%
%TO.N,GND*%
X175006000Y-114300000D03*
%TD*%
D12*
%TO.P,R15,1*%
%TO.N,/IO/AUD_IN_L_LINE*%
X110750638Y-123627805D03*
%TO.P,R15,2*%
%TO.N,AUDIO_IN_L*%
X110750638Y-125277805D03*
%TD*%
D18*
%TO.P,C30,1*%
%TO.N,GND*%
X169770414Y-111247295D03*
%TO.P,C30,2*%
%TO.N,Net-(U15-REG)*%
X170730414Y-111247295D03*
%TD*%
D12*
%TO.P,R17,1*%
%TO.N,AUDIO_IN_L*%
X110744000Y-126683000D03*
%TO.P,R17,2*%
%TO.N,GND*%
X110744000Y-128333000D03*
%TD*%
D19*
%TO.P,R19,1,1*%
%TO.N,+BATT*%
X178438000Y-114002000D03*
%TO.P,R19,2,2*%
%TO.N,/Power + Charging/FG_KEVIN_POS*%
X177038000Y-114002000D03*
%TO.P,R19,3,3*%
%TO.N,/Power + Charging/FG_KELVIN_NEG*%
X177038000Y-111252000D03*
%TO.P,R19,4,4*%
%TO.N,RAW_BATT+*%
X178438000Y-111252000D03*
%TD*%
D13*
%TO.P,TP29,1,1*%
%TO.N,~{BATT_ALERT}*%
X166522400Y-111734600D03*
%TD*%
D20*
%TO.P,CN6,1,Pin_1*%
%TO.N,/IO/AUD_IN_L_LINE*%
X110744000Y-121626000D03*
%TO.P,CN6,2,Pin_2*%
%TO.N,/IO/AUD_IN_R_LINE*%
X110744000Y-119126000D03*
%TO.P,CN6,3,Pin_3*%
%TO.N,GND*%
X110744000Y-116626000D03*
%TD*%
D21*
%TO.P,CN5,1,~{MCLR}/VPP*%
%TO.N,~{MCLR}{slash}Vpp*%
X133096000Y-111832077D03*
%TO.P,CN5,2,VDD*%
%TO.N,+1V8*%
X133096000Y-110562077D03*
%TO.P,CN5,3,VSS*%
%TO.N,GND*%
X134366000Y-111832077D03*
%TO.P,CN5,4,PGD/ICSPDAT*%
%TO.N,ICSPDAT*%
X134366000Y-110562077D03*
%TO.P,CN5,5,PGC/ICSPCLK*%
%TO.N,ICSPCLK*%
X135636000Y-111832077D03*
%TO.P,CN5,6,PGM/LVP*%
%TO.N,unconnected-(CN5-PGM{slash}LVP-Pad6)*%
X135636000Y-110562077D03*
%TD*%
D22*
%TO.P,TP2,1,1*%
%TO.N,GND*%
X109728000Y-110744000D03*
%TD*%
D23*
%TO.P,CN1,S1,SHIELD*%
%TO.N,GND*%
X188088000Y-128570000D03*
X187728000Y-122620000D03*
X179468000Y-122620000D03*
X179108000Y-128570000D03*
%TD*%
D24*
%TO.N,GND*%
X144780000Y-111506000D03*
X187706000Y-113792000D03*
X123698000Y-111506000D03*
X159766000Y-129794000D03*
X116367280Y-127026473D03*
X154592578Y-110919024D03*
X148590000Y-122047000D03*
X148082000Y-126492000D03*
X153055600Y-118110000D03*
X144960340Y-129049500D03*
X169199356Y-120868644D03*
X139954000Y-111506000D03*
X152654000Y-114173000D03*
X162306000Y-116586000D03*
X155956000Y-116078000D03*
X130302000Y-112268000D03*
X152902394Y-124918000D03*
X116332000Y-111506000D03*
X142875000Y-126776530D03*
X173990000Y-113284000D03*
X142494000Y-121793000D03*
X129794000Y-121158000D03*
X160654998Y-119888000D03*
X125095000Y-116078000D03*
X134620000Y-112776000D03*
X147320000Y-118110000D03*
X122979347Y-114248753D03*
X148082000Y-112726000D03*
X165212534Y-121158000D03*
X145796000Y-109982000D03*
X123063000Y-127508000D03*
X160274000Y-128016000D03*
X173482000Y-119634000D03*
X156718000Y-109728000D03*
X162687000Y-124439400D03*
X157988000Y-123444000D03*
X117348000Y-123190000D03*
X163576000Y-109982000D03*
X174498000Y-127254000D03*
X109220000Y-129413000D03*
X120396000Y-123190000D03*
X167894000Y-112496600D03*
X166370000Y-119126000D03*
X170180000Y-126746000D03*
X122682000Y-124460000D03*
X170434000Y-124206000D03*
X178308000Y-125476000D03*
X112501400Y-114300000D03*
X160782000Y-121920000D03*
%TO.N,+BATT*%
X115443000Y-113030000D03*
X168402000Y-129286000D03*
X162814000Y-118364000D03*
X146304000Y-111506000D03*
X161036000Y-124333000D03*
X160303534Y-126857679D03*
X135763000Y-113664996D03*
X178054000Y-115549400D03*
X132605961Y-113809960D03*
%TO.N,+1V8*%
X132080000Y-109888177D03*
X120443297Y-127460703D03*
X144260500Y-125464500D03*
X151384000Y-123464100D03*
X168148000Y-123444000D03*
X113558600Y-123698000D03*
X124460000Y-115450910D03*
X116807375Y-116078000D03*
X142621000Y-122682000D03*
X123550378Y-126120512D03*
X122625725Y-120085720D03*
X159766000Y-124206000D03*
X166116000Y-113812600D03*
X174477400Y-120650000D03*
X162052000Y-126238000D03*
X144780000Y-127762000D03*
X172720000Y-115824000D03*
X119273600Y-124333000D03*
X129794000Y-121920000D03*
%TO.N,+16V5*%
X153924000Y-115971600D03*
X152527000Y-119380000D03*
%TO.N,VBUS*%
X174498000Y-129794000D03*
X181474456Y-121538454D03*
%TO.N,VREMOTE*%
X140345180Y-127514108D03*
X148971000Y-129667000D03*
X112014000Y-129413000D03*
X142748000Y-129667006D03*
%TO.N,AUDIO_IN_L*%
X113792000Y-126365000D03*
%TO.N,AUDIO_IN_R*%
X112776000Y-127508000D03*
%TO.N,RAW_BATT+*%
X178301324Y-109830940D03*
%TO.N,Net-(CN1-CC2)*%
X181600809Y-123489476D03*
%TO.N,FROM_MD*%
X149098000Y-126492000D03*
X154305000Y-126238000D03*
%TO.N,OLED_FR*%
X140345180Y-126612892D03*
X145669000Y-119761000D03*
%TO.N,OLED_~{CS}*%
X141732000Y-119888000D03*
X138557000Y-122682000D03*
%TO.N,OLED_DC*%
X151250511Y-120889329D03*
X146558000Y-114554000D03*
%TO.N,OLED_SCLK*%
X151239197Y-121648197D03*
X151887182Y-118746204D03*
%TO.N,OLED_DATA*%
X145161000Y-118618000D03*
X149484832Y-121798833D03*
%TO.N,~{MCLR}{slash}Vpp*%
X133297800Y-126255122D03*
%TO.N,ICSPDAT*%
X134112000Y-125984000D03*
%TO.N,ICSPCLK*%
X134912000Y-125984000D03*
%TO.N,Net-(LED1-A1)*%
X175260020Y-123444000D03*
X178054000Y-129540000D03*
%TO.N,I2C_SCL*%
X168402000Y-122174000D03*
X118237000Y-127508000D03*
X135890000Y-126111000D03*
X148463000Y-123825000D03*
%TO.N,I2C_SDA*%
X171196000Y-122428000D03*
X145066351Y-125479113D03*
X117348000Y-127995362D03*
X136643019Y-126373981D03*
%TO.N,BTN_PLAYPAUSE_HV*%
X168402000Y-127762000D03*
X175260000Y-117094000D03*
%TO.N,BTN_DISPLAY_ON*%
X135618039Y-125366961D03*
X145415000Y-112268000D03*
%TO.N,BTN_DISPLAY*%
X130517834Y-114530279D03*
X130175000Y-122682000D03*
%TO.N,BTN_MODE*%
X131252479Y-114692780D03*
X131191000Y-126245920D03*
%TO.N,BTN_TRK_BCK*%
X136398000Y-123931004D03*
X157734000Y-111252000D03*
%TO.N,BTN_TRK_FWD*%
X165100000Y-112014000D03*
X137184641Y-123987864D03*
%TO.N,HOLD_ALL*%
X129667000Y-123571000D03*
X129583585Y-126495840D03*
%TO.N,BTN_VOL_DOWN*%
X182626000Y-129032000D03*
X136656675Y-130001442D03*
%TO.N,BTN_VOL_PRESS*%
X182626000Y-130048000D03*
X132588000Y-130106700D03*
%TO.N,REMOTE_TAKEOVER*%
X163576000Y-123952000D03*
X146519900Y-116332000D03*
%TO.N,REMOTE_SEND*%
X148456892Y-122946180D03*
X156464000Y-123063000D03*
%TO.N,MD_LCD*%
X136398000Y-119888000D03*
X142875000Y-127762000D03*
%TO.N,MD_LCD_DIR*%
X135763000Y-117474999D03*
X139700008Y-127000000D03*
%TO.N,/HCI_RTS*%
X122682000Y-113030000D03*
X124206000Y-113030000D03*
%TO.N,/HCI_CTS*%
X129900400Y-119254195D03*
X123298125Y-116449794D03*
%TO.N,/HCI_TO_BT*%
X129900400Y-118492204D03*
X123991183Y-116927817D03*
%TO.N,/HCI_FROM_BT*%
X129900400Y-120016204D03*
X122555000Y-116205000D03*
%TO.N,/I2S_WCLK*%
X118872000Y-128524000D03*
X115062000Y-123317000D03*
%TO.N,/I2S_BCLK*%
X124079000Y-129032000D03*
X120396000Y-116078000D03*
%TO.N,/I2S_TO_CODEC*%
X118618000Y-117856000D03*
X121285000Y-128651000D03*
%TO.N,/I2C_FROM_CODEC*%
X119126000Y-118872000D03*
X116586000Y-128524000D03*
%TO.N,~{BATT_ALERT}*%
X137922000Y-123444000D03*
%TO.N,/BT_SLOW_CLK*%
X132334000Y-117454400D03*
X114300000Y-123444000D03*
%TO.N,/Power + Charging/FG_KEVIN_POS*%
X170962600Y-110256600D03*
X175768000Y-113792000D03*
%TO.N,/UI/PLAYPAUSE_HOLD*%
X113009400Y-124819296D03*
%TD*%
D25*
%TO.N,GND*%
X169143305Y-111247295D02*
X167894000Y-112496600D01*
D26*
X109209316Y-128319971D02*
X109209316Y-129402316D01*
X173482000Y-110998000D02*
X172682000Y-110198000D01*
X181610000Y-126047000D02*
X181610000Y-126068000D01*
D25*
X173482000Y-112776000D02*
X173990000Y-113284000D01*
X173482000Y-110998000D02*
X173482000Y-112776000D01*
X177572000Y-126212000D02*
X178308000Y-125476000D01*
D26*
X110744000Y-128333000D02*
X109222345Y-128333000D01*
D25*
X109728000Y-115610000D02*
X109728000Y-110744000D01*
X181610000Y-126068000D02*
X179108000Y-128570000D01*
D26*
X110744000Y-116626000D02*
X109728000Y-115610000D01*
D25*
X176852987Y-126212000D02*
X177572000Y-126212000D01*
X175006000Y-114300000D02*
X173990000Y-113284000D01*
D26*
X109209316Y-129402316D02*
X109220000Y-129413000D01*
D25*
X169770414Y-111247295D02*
X169143305Y-111247295D01*
D26*
X171994500Y-110198000D02*
X171994500Y-109798000D01*
D25*
X134366000Y-111832077D02*
X134366000Y-112522000D01*
X134366000Y-112522000D02*
X134620000Y-112776000D01*
D26*
X172682000Y-110198000D02*
X171994500Y-110198000D01*
X109222345Y-128333000D02*
X109209316Y-128319971D01*
D25*
%TO.N,+BATT*%
X162685381Y-122556619D02*
X161036000Y-124206000D01*
X139593600Y-110977400D02*
X136906004Y-113664996D01*
X162685381Y-118492619D02*
X162685381Y-122556619D01*
X132605961Y-113809960D02*
X132507404Y-113711403D01*
X130877564Y-113711403D02*
X130863040Y-113696879D01*
X130158104Y-113711403D02*
X122380703Y-113711403D01*
X130863040Y-113696879D02*
X130172628Y-113696879D01*
X146304000Y-111506000D02*
X145775400Y-110977400D01*
X121699300Y-113030000D02*
X115443000Y-113030000D01*
D26*
X132554701Y-113758700D02*
X132605961Y-113809960D01*
D25*
X145775400Y-110977400D02*
X139593600Y-110977400D01*
X178438000Y-114002000D02*
X178438000Y-115165400D01*
X122380703Y-113711403D02*
X121699300Y-113030000D01*
X162814000Y-118364000D02*
X162685381Y-118492619D01*
X160303534Y-126857679D02*
X162731855Y-129286000D01*
X132507404Y-113711403D02*
X130877564Y-113711403D01*
X136906004Y-113664996D02*
X135763000Y-113664996D01*
X162731855Y-129286000D02*
X168402000Y-129286000D01*
X130172628Y-113696879D02*
X130158104Y-113711403D01*
X178438000Y-115165400D02*
X178054000Y-115549400D01*
%TO.N,+1V8*%
X132422100Y-109888177D02*
X132080000Y-109888177D01*
X133096000Y-110562077D02*
X132422100Y-109888177D01*
%TO.N,+16V5*%
X152527000Y-117368600D02*
X153924000Y-115971600D01*
X152527000Y-119380000D02*
X152527000Y-117368600D01*
%TO.N,VBUS*%
X177240187Y-127762000D02*
X176745787Y-127762000D01*
X179832000Y-118872000D02*
X179832000Y-119895998D01*
X180096600Y-124905587D02*
X177240187Y-127762000D01*
X181474456Y-121538454D02*
X180096600Y-122916310D01*
X175452987Y-129592000D02*
X174700000Y-129592000D01*
X174700000Y-129592000D02*
X174498000Y-129794000D01*
X175452987Y-129292000D02*
X175452987Y-129592000D01*
X175452987Y-129054800D02*
X175452987Y-129312000D01*
X180096600Y-122916310D02*
X180096600Y-124905587D01*
X176745787Y-127762000D02*
X175452987Y-129054800D01*
X179832000Y-119895998D02*
X181474456Y-121538454D01*
%TO.N,VREMOTE*%
X112014000Y-129413000D02*
X113118900Y-130517900D01*
X148971000Y-129667000D02*
X148844000Y-129794000D01*
X133851992Y-129578100D02*
X135774492Y-127655600D01*
X140203688Y-127655600D02*
X140345180Y-127514108D01*
X148844000Y-129794000D02*
X142874994Y-129794000D01*
X135774492Y-127655600D02*
X140203688Y-127655600D01*
X131946992Y-129578100D02*
X133851992Y-129578100D01*
X113118900Y-130517900D02*
X131007192Y-130517900D01*
X142874994Y-129794000D02*
X142748000Y-129667006D01*
X131007192Y-130517900D02*
X131946992Y-129578100D01*
%TO.N,AUDIO_IN_L*%
X112704805Y-125277805D02*
X113792000Y-126365000D01*
X110750638Y-125277805D02*
X110750638Y-126676362D01*
X110750638Y-126676362D02*
X110744000Y-126683000D01*
X110750638Y-125277805D02*
X112704805Y-125277805D01*
%TO.N,AUDIO_IN_R*%
X109220000Y-125285000D02*
X109220000Y-126659287D01*
X109220000Y-126659287D02*
X109209316Y-126669971D01*
X112776000Y-127508000D02*
X110047345Y-127508000D01*
X110047345Y-127508000D02*
X109209316Y-126669971D01*
%TO.N,Net-(U15-REG)*%
X171994500Y-110998000D02*
X171973900Y-111018600D01*
X170921400Y-111018600D02*
X170688000Y-111252000D01*
X171973900Y-111018600D02*
X170921400Y-111018600D01*
%TO.N,RAW_BATT+*%
X174969500Y-110198000D02*
X175351000Y-110198000D01*
X178090400Y-112522000D02*
X178438000Y-112174400D01*
D27*
X178438000Y-111147000D02*
X178438000Y-109858000D01*
D25*
X178438000Y-112174400D02*
X178438000Y-111147000D01*
X175006000Y-113284000D02*
X176022000Y-112268000D01*
X178438000Y-109858000D02*
X178308000Y-109728000D01*
X175006000Y-113340000D02*
X175006000Y-113284000D01*
X176022000Y-112268000D02*
X176276000Y-112522000D01*
X175351000Y-110198000D02*
X176022000Y-110869000D01*
X176276000Y-112522000D02*
X178090400Y-112522000D01*
X176022000Y-110869000D02*
X176022000Y-112268000D01*
%TO.N,Net-(CN1-CC2)*%
X181600809Y-123489476D02*
X181600809Y-124387809D01*
X181600809Y-124387809D02*
X181610000Y-124397000D01*
%TO.N,FROM_MD*%
X154051000Y-125984000D02*
X154305000Y-126238000D01*
X149606000Y-125984000D02*
X154051000Y-125984000D01*
X149098000Y-126492000D02*
X149606000Y-125984000D01*
%TO.N,OLED_FR*%
X142022888Y-128290600D02*
X140345180Y-126612892D01*
X143093954Y-128290600D02*
X142022888Y-128290600D01*
X143403600Y-122026400D02*
X143403600Y-127980954D01*
X145669000Y-119761000D02*
X143403600Y-122026400D01*
X143403600Y-127980954D02*
X143093954Y-128290600D01*
%TO.N,OLED_~{CS}*%
X141732000Y-119888000D02*
X138938000Y-122682000D01*
X138938000Y-122682000D02*
X138557000Y-122682000D01*
%TO.N,OLED_DC*%
X146558000Y-114554000D02*
X145923000Y-115189000D01*
X147582182Y-117221000D02*
X151250511Y-120889329D01*
X145923000Y-116482654D02*
X146661346Y-117221000D01*
X145923000Y-115189000D02*
X145923000Y-116482654D01*
X146661346Y-117221000D02*
X147582182Y-117221000D01*
%TO.N,OLED_SCLK*%
X151887182Y-121000212D02*
X151887182Y-118746204D01*
X151239197Y-121648197D02*
X151887182Y-121000212D01*
%TO.N,OLED_DATA*%
X145161000Y-118618000D02*
X146304000Y-118618000D01*
X146304000Y-118618000D02*
X149484832Y-121798833D01*
%TO.N,~{MCLR}{slash}Vpp*%
X133096000Y-111832077D02*
X133096000Y-112388852D01*
X133297800Y-112590652D02*
X133297800Y-126255122D01*
X133096000Y-112388852D02*
X133297800Y-112590652D01*
%TO.N,ICSPDAT*%
X134366000Y-110562077D02*
X133743700Y-111184377D01*
X133743700Y-125615700D02*
X134112000Y-125984000D01*
X133743700Y-111184377D02*
X133743700Y-125615700D01*
%TO.N,ICSPCLK*%
X134750683Y-119110150D02*
X134750685Y-120021499D01*
X135636000Y-111832077D02*
X135636000Y-112619475D01*
X134789900Y-119070932D02*
X134750683Y-119110150D01*
X134750685Y-120021499D02*
X134789900Y-120060714D01*
X134797783Y-117578114D02*
X134789900Y-117585997D01*
X134797783Y-124643294D02*
X134797783Y-125869783D01*
X134797783Y-113457692D02*
X134797783Y-117578114D01*
X134797783Y-125869783D02*
X134912000Y-125984000D01*
X134789900Y-120060714D02*
X134789900Y-124635411D01*
X134789900Y-124635411D02*
X134797783Y-124643294D01*
X135636000Y-112619475D02*
X134797783Y-113457692D01*
X134789900Y-117585997D02*
X134789900Y-119070932D01*
%TO.N,Net-(LED1-A1)*%
X175452987Y-123636967D02*
X175260020Y-123444000D01*
X178002000Y-129592000D02*
X178054000Y-129540000D01*
X175452987Y-126492000D02*
X175452987Y-123636967D01*
X176852987Y-129592000D02*
X178002000Y-129592000D01*
%TO.N,I2C_SCL*%
X172085000Y-113628500D02*
X171994500Y-113538000D01*
X150084600Y-125446600D02*
X148463000Y-123825000D01*
X171686477Y-123190000D02*
X172085000Y-122791477D01*
X131158908Y-128778000D02*
X130028608Y-129908300D01*
X135890000Y-126111000D02*
X133223000Y-128778000D01*
X165129400Y-125446600D02*
X150084600Y-125446600D01*
X171994500Y-113538000D02*
X171994500Y-112198000D01*
X133223000Y-128778000D02*
X131158908Y-128778000D01*
X119126000Y-127508000D02*
X118237000Y-127508000D01*
X170688000Y-123190000D02*
X171686477Y-123190000D01*
X121526300Y-129908300D02*
X119126000Y-127508000D01*
X172085000Y-122791477D02*
X172085000Y-113628500D01*
X168402000Y-122174000D02*
X169672000Y-122174000D01*
X168402000Y-122174000D02*
X165129400Y-125446600D01*
X169672000Y-122174000D02*
X170688000Y-123190000D01*
X130028608Y-129908300D02*
X121526300Y-129908300D01*
%TO.N,I2C_SDA*%
X145066351Y-125451942D02*
X147315593Y-123202700D01*
X131820740Y-129273300D02*
X133725740Y-129273300D01*
X156682954Y-122407400D02*
X156992600Y-122717046D01*
X170413400Y-121645400D02*
X171196000Y-122428000D01*
X150840954Y-122407400D02*
X156682954Y-122407400D01*
X118505446Y-128143000D02*
X118653046Y-127995400D01*
X117495638Y-128143000D02*
X118505446Y-128143000D01*
X171994500Y-111798000D02*
X171613000Y-111798000D01*
X144632400Y-118399046D02*
X144942046Y-118089400D01*
X136625059Y-126373981D02*
X136643019Y-126373981D01*
X147315593Y-123202700D02*
X147315593Y-120634639D01*
X118653046Y-127995400D02*
X119182348Y-127995400D01*
X144632400Y-118836954D02*
X144632400Y-118399046D01*
X133725740Y-129273300D02*
X136625059Y-126373981D01*
X119182348Y-127995400D02*
X121400048Y-130213100D01*
X156992600Y-124226600D02*
X157734000Y-124968000D01*
X144942046Y-118089400D02*
X146522954Y-118089400D01*
X121400048Y-130213100D02*
X130880940Y-130213100D01*
X145066351Y-125479113D02*
X145066351Y-125451942D01*
X171196000Y-112215000D02*
X171196000Y-122428000D01*
X147315593Y-120634639D02*
X145827554Y-119146600D01*
X171613000Y-111798000D02*
X171196000Y-112215000D01*
X117348000Y-127995362D02*
X117495638Y-128143000D01*
X144942046Y-119146600D02*
X144632400Y-118836954D01*
X168183046Y-121645400D02*
X170413400Y-121645400D01*
X157734000Y-124968000D02*
X164860446Y-124968000D01*
X146522954Y-118089400D02*
X150840954Y-122407400D01*
X130880940Y-130213100D02*
X131820740Y-129273300D01*
X164860446Y-124968000D02*
X168183046Y-121645400D01*
X145827554Y-119146600D02*
X144942046Y-119146600D01*
X156992600Y-122717046D02*
X156992600Y-124226600D01*
%TO.N,BTN_PLAYPAUSE_HV*%
X175260000Y-120904000D02*
X175260000Y-117094000D01*
X180560600Y-118584600D02*
X180560600Y-118076600D01*
X168402000Y-127762000D02*
X175260000Y-120904000D01*
X182003056Y-122496944D02*
X182003056Y-120027056D01*
X181900000Y-122600000D02*
X182003056Y-122496944D01*
X179578000Y-117094000D02*
X175260000Y-117094000D01*
X182003056Y-120027056D02*
X180560600Y-118584600D01*
X180560600Y-118076600D02*
X179578000Y-117094000D01*
X186350000Y-122600000D02*
X181900000Y-122600000D01*
%TO.N,BTN_DISPLAY_ON*%
X135094700Y-124509159D02*
X135120100Y-124534559D01*
X139917398Y-112626930D02*
X145056070Y-112626930D01*
X135120100Y-124534559D02*
X135120100Y-124869022D01*
X145056070Y-112626930D02*
X145415000Y-112268000D01*
X135055485Y-119895247D02*
X135094700Y-119934461D01*
X135055485Y-119236398D02*
X135055485Y-119895247D01*
X135094700Y-119197182D02*
X135055485Y-119236398D01*
X135234400Y-117256045D02*
X135234400Y-117274008D01*
X135120100Y-117686849D02*
X135094700Y-117712249D01*
X135234400Y-117274008D02*
X135120100Y-117388308D01*
X139917398Y-112626930D02*
X135597929Y-116946399D01*
X135094700Y-119934461D02*
X135094700Y-124509159D01*
X135120100Y-124869022D02*
X135618039Y-125366961D01*
X135544046Y-116946399D02*
X135234400Y-117256045D01*
X135597929Y-116946399D02*
X135544046Y-116946399D01*
X135120100Y-117388308D02*
X135120100Y-117686849D01*
X135094700Y-117712249D02*
X135094700Y-119197182D01*
%TO.N,BTN_DISPLAY*%
X130175000Y-122682000D02*
X130429000Y-122428000D01*
X130429000Y-114619113D02*
X130517834Y-114530279D01*
X130429000Y-122428000D02*
X130429000Y-114619113D01*
%TO.N,BTN_MODE*%
X131191000Y-114754259D02*
X131252479Y-114692780D01*
X131191000Y-126245920D02*
X131191000Y-114754259D01*
%TO.N,BTN_TRK_BCK*%
X157518681Y-111467319D02*
X147612681Y-111467319D01*
D26*
X157734000Y-111252000D02*
X157518681Y-111467319D01*
D25*
X136398000Y-122682000D02*
X136398000Y-123931004D01*
X147612681Y-111467319D02*
X136398000Y-122682000D01*
%TO.N,BTN_TRK_FWD*%
X137184641Y-122403359D02*
X147574000Y-112014000D01*
X137184641Y-123987864D02*
X137184641Y-122403359D01*
X147574000Y-112014000D02*
X165100000Y-112014000D01*
%TO.N,HOLD_ALL*%
X129583585Y-126495840D02*
X129667000Y-126412425D01*
X129667000Y-126412425D02*
X129667000Y-123571000D01*
%TO.N,BTN_VOL_DOWN*%
X182626000Y-129032000D02*
X181169283Y-130488717D01*
X181169283Y-130488717D02*
X137143950Y-130488717D01*
X137143950Y-130488717D02*
X136656675Y-130001442D01*
%TO.N,BTN_VOL_PRESS*%
X182626000Y-130048000D02*
X181864000Y-130810000D01*
X133291300Y-130810000D02*
X132588000Y-130106700D01*
X181864000Y-130810000D02*
X133291300Y-130810000D01*
%TO.N,REMOTE_TAKEOVER*%
X162306000Y-117348000D02*
X160401000Y-115443000D01*
X163667181Y-117947181D02*
X163068000Y-117348000D01*
X163629081Y-123898919D02*
X163667181Y-123860819D01*
X147408900Y-115443000D02*
X146519900Y-116332000D01*
X160401000Y-115443000D02*
X147408900Y-115443000D01*
X163667181Y-123860819D02*
X163667181Y-117947181D01*
X163068000Y-117348000D02*
X162306000Y-117348000D01*
D26*
X163629081Y-123898919D02*
X163576000Y-123952000D01*
D25*
%TO.N,REMOTE_SEND*%
X148467072Y-122936000D02*
X148456892Y-122946180D01*
X156337000Y-122936000D02*
X148467072Y-122936000D01*
X156464000Y-123063000D02*
X156337000Y-122936000D01*
%TO.N,MD_LCD*%
X142875000Y-127762000D02*
X141097000Y-125984000D01*
X141097000Y-125984000D02*
X137555333Y-125984000D01*
X137555333Y-125984000D02*
X135742400Y-124171067D01*
X135742400Y-120543600D02*
X136398000Y-119888000D01*
X135742400Y-124171067D02*
X135742400Y-120543600D01*
%TO.N,MD_LCD_DIR*%
X135763000Y-117474999D02*
X135399500Y-117838499D01*
X135399500Y-117838499D02*
X135399500Y-124382907D01*
X138016593Y-127000000D02*
X139700008Y-127000000D01*
X135399500Y-124382907D02*
X138016593Y-127000000D01*
D26*
%TO.N,/HCI_RTS*%
X124206000Y-113030000D02*
X122682000Y-113030000D01*
D25*
%TO.N,/HCI_CTS*%
X123298125Y-116449794D02*
X123298125Y-116982313D01*
X129899195Y-119252990D02*
X129900400Y-119254195D01*
X123298125Y-116982313D02*
X125568802Y-119252990D01*
X125568802Y-119252990D02*
X129899195Y-119252990D01*
%TO.N,/HCI_TO_BT*%
X123991183Y-116927817D02*
X128336013Y-116927817D01*
X128336013Y-116927817D02*
X129900400Y-118492204D01*
%TO.N,/HCI_FROM_BT*%
X125900964Y-120016204D02*
X129900400Y-120016204D01*
X122555000Y-116205000D02*
X122555000Y-116670240D01*
X122555000Y-116670240D02*
X125900964Y-120016204D01*
%TO.N,/I2S_WCLK*%
X117602000Y-129794000D02*
X118872000Y-128524000D01*
X115062000Y-123317000D02*
X115062000Y-129413000D01*
X115443000Y-129794000D02*
X117602000Y-129794000D01*
X115062000Y-129413000D02*
X115443000Y-129794000D01*
%TO.N,/I2S_BCLK*%
X120396000Y-116078000D02*
X124079000Y-119761000D01*
X124079000Y-119761000D02*
X124079000Y-129032000D01*
%TO.N,/I2S_TO_CODEC*%
X121285000Y-128651000D02*
X121285000Y-119888000D01*
X121285000Y-119888000D02*
X119253000Y-117856000D01*
X119253000Y-117856000D02*
X118618000Y-117856000D01*
%TO.N,/I2C_FROM_CODEC*%
X118745000Y-125486184D02*
X118745000Y-119253000D01*
X118745000Y-119253000D02*
X119126000Y-118872000D01*
X116586000Y-128524000D02*
X116586000Y-127645184D01*
X116586000Y-127645184D02*
X118745000Y-125486184D01*
%TO.N,~{BATT_ALERT}*%
X166522400Y-111734600D02*
X166522400Y-112572800D01*
X169565639Y-113284000D02*
X167233600Y-113284000D01*
X171994500Y-111398000D02*
X171451639Y-111398000D01*
X146926513Y-113284000D02*
X137922000Y-122288513D01*
X146926513Y-113284000D02*
X165811200Y-113284000D01*
X166522400Y-112572800D02*
X167233600Y-113284000D01*
X171451639Y-111398000D02*
X169565639Y-113284000D01*
X165811200Y-113284000D02*
X166522400Y-112572800D01*
X137922000Y-122288513D02*
X137922000Y-123444000D01*
%TO.N,/BT_SLOW_CLK*%
X132334000Y-114649250D02*
X132334000Y-117454400D01*
X130284356Y-114016203D02*
X130298880Y-114001679D01*
X115062000Y-114808000D02*
X129445407Y-114808000D01*
X129445407Y-114808000D02*
X130237204Y-114016203D01*
X114300000Y-123444000D02*
X114300000Y-115570000D01*
X130237204Y-114016203D02*
X130284356Y-114016203D01*
X130298880Y-114001679D02*
X130736788Y-114001679D01*
X114300000Y-115570000D02*
X115062000Y-114808000D01*
X130736788Y-114001679D02*
X130751312Y-114016203D01*
X131700953Y-114016203D02*
X132334000Y-114649250D01*
X130751312Y-114016203D02*
X131700953Y-114016203D01*
%TO.N,/Power + Charging/FG_KEVIN_POS*%
X171050000Y-110598000D02*
X170942000Y-110490000D01*
X177038000Y-113897000D02*
X175873000Y-113897000D01*
X175873000Y-113897000D02*
X175768000Y-113792000D01*
X171994500Y-110598000D02*
X171050000Y-110598000D01*
%TO.N,/Power + Charging/FG_KELVIN_NEG*%
X174969500Y-109798000D02*
X176451000Y-109798000D01*
X176451000Y-109798000D02*
X177038000Y-110385000D01*
%TO.N,/UI/PLAYPAUSE_HOLD*%
X154811532Y-110390424D02*
X154373624Y-110390424D01*
X130048000Y-110744000D02*
X116205000Y-110744000D01*
X170605660Y-109302340D02*
X169259200Y-110648800D01*
X131432423Y-109359577D02*
X130048000Y-110744000D01*
X155069908Y-110648800D02*
X154811532Y-110390424D01*
X154373624Y-110390424D02*
X154115248Y-110648800D01*
X116205000Y-110744000D02*
X113030000Y-113919000D01*
X178520278Y-109302340D02*
X170605660Y-109302340D01*
X113030000Y-113919000D02*
X113030000Y-124798696D01*
X113030000Y-124798696D02*
X113009400Y-124819296D01*
X137553577Y-109359577D02*
X131432423Y-109359577D01*
X169259200Y-110648800D02*
X155069908Y-110648800D01*
X181900000Y-118900000D02*
X186350000Y-118900000D01*
X181900000Y-118900000D02*
X181900000Y-112682062D01*
X154115248Y-110648800D02*
X138842800Y-110648800D01*
X181900000Y-112682062D02*
X178520278Y-109302340D01*
X138842800Y-110648800D02*
X137553577Y-109359577D01*
%TO.N,/IO/AUD_IN_L_LINE*%
X110744000Y-121626000D02*
X110744000Y-123621167D01*
X110744000Y-123621167D02*
X110750638Y-123627805D01*
%TO.N,/IO/AUD_IN_R_LINE*%
X108458000Y-122873000D02*
X109220000Y-123635000D01*
X109474000Y-119126000D02*
X108458000Y-120142000D01*
X110744000Y-119126000D02*
X109474000Y-119126000D01*
X108458000Y-120142000D02*
X108458000Y-122873000D01*
%TD*%
M02*
