%TF.GenerationSoftware,KiCad,Pcbnew,7.0.7*%
%TF.CreationDate,2023-09-30T12:20:31-04:00*%
%TF.ProjectId,bt-md-remote,62742d6d-642d-4726-956d-6f74652e6b69,rev?*%
%TF.SameCoordinates,Original*%
%TF.FileFunction,Copper,L3,Inr*%
%TF.FilePolarity,Positive*%
%FSLAX46Y46*%
G04 Gerber Fmt 4.6, Leading zero omitted, Abs format (unit mm)*
G04 Created by KiCad (PCBNEW 7.0.7) date 2023-09-30 12:20:31*
%MOMM*%
%LPD*%
G01*
G04 APERTURE LIST*
%TA.AperFunction,ComponentPad*%
%ADD10R,1.000000X1.000000*%
%TD*%
%TA.AperFunction,ComponentPad*%
%ADD11O,0.800000X1.400000*%
%TD*%
%TA.AperFunction,ViaPad*%
%ADD12C,0.600000*%
%TD*%
G04 APERTURE END LIST*
D10*
%TO.N,GND*%
%TO.C,TP2*%
X109728000Y-110744000D03*
%TD*%
D11*
%TO.N,GND*%
%TO.C,CN1*%
X188088000Y-128570000D03*
X187728000Y-122620000D03*
X179468000Y-122620000D03*
X179108000Y-128570000D03*
%TD*%
D12*
%TO.N,GND*%
X144780000Y-111506000D03*
X187706000Y-113792000D03*
X123698000Y-111506000D03*
X159766000Y-129794000D03*
X116367280Y-127026473D03*
X154592578Y-110919024D03*
X148590000Y-122047000D03*
X148082000Y-126492000D03*
X153055600Y-118110000D03*
X144960340Y-129049500D03*
X169199356Y-120868644D03*
X139954000Y-111506000D03*
X152654000Y-114173000D03*
X162306000Y-116586000D03*
X155956000Y-116078000D03*
X130302000Y-112268000D03*
X152902394Y-124918000D03*
X116332000Y-111506000D03*
X142875000Y-126776530D03*
X173990000Y-113284000D03*
X142494000Y-121793000D03*
X129794000Y-121158000D03*
X160654998Y-119888000D03*
X125095000Y-116078000D03*
X134620000Y-112776000D03*
X147320000Y-118110000D03*
X122979347Y-114248753D03*
X148082000Y-112726000D03*
X165212534Y-121158000D03*
X145796000Y-109982000D03*
X123063000Y-127508000D03*
X160274000Y-128016000D03*
X173482000Y-119634000D03*
X156718000Y-109728000D03*
X162687000Y-124439400D03*
X157988000Y-123444000D03*
X117348000Y-123190000D03*
X163576000Y-109982000D03*
X174498000Y-127254000D03*
X109220000Y-129413000D03*
X120396000Y-123190000D03*
X167894000Y-112496600D03*
X166370000Y-119126000D03*
X170180000Y-126746000D03*
X122682000Y-124460000D03*
X170434000Y-124206000D03*
X178308000Y-125476000D03*
X112501400Y-114300000D03*
X160782000Y-121920000D03*
%TO.N,+BATT*%
X115443000Y-113030000D03*
X168402000Y-129286000D03*
X162814000Y-118364000D03*
X146304000Y-111506000D03*
X161036000Y-124333000D03*
X160303534Y-126857679D03*
X135763000Y-113664996D03*
X178054000Y-115549400D03*
X132605961Y-113809960D03*
%TO.N,+1V8*%
X132080000Y-109888177D03*
X120443297Y-127460703D03*
X144260500Y-125464500D03*
X151384000Y-123464100D03*
X168148000Y-123444000D03*
X113558600Y-123698000D03*
X124460000Y-115450910D03*
X116807375Y-116078000D03*
X142621000Y-122682000D03*
X123550378Y-126120512D03*
X122625725Y-120085720D03*
X159766000Y-124206000D03*
X166116000Y-113812600D03*
X174477400Y-120650000D03*
X162052000Y-126238000D03*
X144780000Y-127762000D03*
X172720000Y-115824000D03*
X119273600Y-124333000D03*
X129794000Y-121920000D03*
%TO.N,+16V5*%
X153924000Y-115971600D03*
X152527000Y-119380000D03*
%TO.N,VBUS*%
X174498000Y-129794000D03*
X181474456Y-121538454D03*
%TO.N,VREMOTE*%
X140345180Y-127514108D03*
X148971000Y-129667000D03*
X112014000Y-129413000D03*
X142748000Y-129667006D03*
%TO.N,AUDIO_IN_L*%
X113792000Y-126365000D03*
%TO.N,AUDIO_IN_R*%
X112776000Y-127508000D03*
%TO.N,RAW_BATT+*%
X178301324Y-109830940D03*
%TO.N,Net-(CN1-CC2)*%
X181600809Y-123489476D03*
%TO.N,FROM_MD*%
X149098000Y-126492000D03*
X154305000Y-126238000D03*
%TO.N,OLED_FR*%
X140345180Y-126612892D03*
X145669000Y-119761000D03*
%TO.N,OLED_~{CS}*%
X141732000Y-119888000D03*
X138557000Y-122682000D03*
%TO.N,OLED_DC*%
X151250511Y-120889329D03*
X146558000Y-114554000D03*
%TO.N,OLED_SCLK*%
X151239197Y-121648197D03*
X151887182Y-118746204D03*
%TO.N,OLED_DATA*%
X145161000Y-118618000D03*
X149484832Y-121798833D03*
%TO.N,~{MCLR}{slash}Vpp*%
X133297800Y-126255122D03*
%TO.N,ICSPDAT*%
X134112000Y-125984000D03*
%TO.N,ICSPCLK*%
X134912000Y-125984000D03*
%TO.N,Net-(LED1-A1)*%
X175260020Y-123444000D03*
X178054000Y-129540000D03*
%TO.N,I2C_SCL*%
X168402000Y-122174000D03*
X118237000Y-127508000D03*
X135890000Y-126111000D03*
X148463000Y-123825000D03*
%TO.N,I2C_SDA*%
X171196000Y-122428000D03*
X145066351Y-125479113D03*
X117348000Y-127995362D03*
X136643019Y-126373981D03*
%TO.N,BTN_PLAYPAUSE_HV*%
X168402000Y-127762000D03*
X175260000Y-117094000D03*
%TO.N,BTN_DISPLAY_ON*%
X135618039Y-125366961D03*
X145415000Y-112268000D03*
%TO.N,BTN_DISPLAY*%
X130517834Y-114530279D03*
X130175000Y-122682000D03*
%TO.N,BTN_MODE*%
X131252479Y-114692780D03*
X131191000Y-126245920D03*
%TO.N,BTN_TRK_BCK*%
X136398000Y-123931004D03*
X157734000Y-111252000D03*
%TO.N,BTN_TRK_FWD*%
X165100000Y-112014000D03*
X137184641Y-123987864D03*
%TO.N,HOLD_ALL*%
X129667000Y-123571000D03*
X129583585Y-126495840D03*
%TO.N,BTN_VOL_DOWN*%
X182626000Y-129032000D03*
X136656675Y-130001442D03*
%TO.N,BTN_VOL_PRESS*%
X182626000Y-130048000D03*
X132588000Y-130106700D03*
%TO.N,REMOTE_TAKEOVER*%
X163576000Y-123952000D03*
X146519900Y-116332000D03*
%TO.N,REMOTE_SEND*%
X148456892Y-122946180D03*
X156464000Y-123063000D03*
%TO.N,MD_LCD*%
X136398000Y-119888000D03*
X142875000Y-127762000D03*
%TO.N,MD_LCD_DIR*%
X135763000Y-117474999D03*
X139700008Y-127000000D03*
%TO.N,/HCI_RTS*%
X122682000Y-113030000D03*
X124206000Y-113030000D03*
%TO.N,/HCI_CTS*%
X129900400Y-119254195D03*
X123298125Y-116449794D03*
%TO.N,/HCI_TO_BT*%
X129900400Y-118492204D03*
X123991183Y-116927817D03*
%TO.N,/HCI_FROM_BT*%
X129900400Y-120016204D03*
X122555000Y-116205000D03*
%TO.N,/I2S_WCLK*%
X118872000Y-128524000D03*
X115062000Y-123317000D03*
%TO.N,/I2S_BCLK*%
X124079000Y-129032000D03*
X120396000Y-116078000D03*
%TO.N,/I2S_TO_CODEC*%
X118618000Y-117856000D03*
X121285000Y-128651000D03*
%TO.N,/I2C_FROM_CODEC*%
X119126000Y-118872000D03*
X116586000Y-128524000D03*
%TO.N,~{BATT_ALERT}*%
X137922000Y-123444000D03*
%TO.N,/BT_SLOW_CLK*%
X132334000Y-117454400D03*
X114300000Y-123444000D03*
%TO.N,/Power + Charging/FG_KEVIN_POS*%
X170962600Y-110256600D03*
X175768000Y-113792000D03*
%TO.N,/UI/PLAYPAUSE_HOLD*%
X113009400Y-124819296D03*
%TD*%
%TA.AperFunction,Conductor*%
%TO.N,+1V8*%
G36*
X116772835Y-109221424D02*
G01*
X116779340Y-109222454D01*
X116824883Y-109231513D01*
X116844347Y-109238262D01*
X116858113Y-109245277D01*
X116861920Y-109247507D01*
X116889670Y-109266050D01*
X116901062Y-109275400D01*
X116911598Y-109285936D01*
X116920950Y-109297330D01*
X116939483Y-109325065D01*
X116941724Y-109328889D01*
X116948735Y-109342650D01*
X116955486Y-109362117D01*
X116964545Y-109407659D01*
X116965573Y-109414150D01*
X116965574Y-109414151D01*
X116966500Y-109425917D01*
X116966500Y-110239903D01*
X116960379Y-110256720D01*
X116965055Y-110280226D01*
X116966500Y-110294897D01*
X116966500Y-110321759D01*
X116968832Y-110328934D01*
X116968249Y-110345625D01*
X116974162Y-110354475D01*
X116983154Y-110373012D01*
X116986126Y-110382157D01*
X116986127Y-110382160D01*
X117023458Y-110433542D01*
X117074840Y-110470873D01*
X117083991Y-110473846D01*
X117102526Y-110482837D01*
X117110868Y-110488411D01*
X117128067Y-110488168D01*
X117135244Y-110490500D01*
X117135245Y-110490500D01*
X117162107Y-110490500D01*
X117176778Y-110491945D01*
X117200245Y-110496612D01*
X117217096Y-110490500D01*
X120526903Y-110490500D01*
X120543718Y-110496620D01*
X120567221Y-110491945D01*
X120581892Y-110490500D01*
X120608755Y-110490500D01*
X120608756Y-110490500D01*
X120615932Y-110488168D01*
X120632622Y-110488750D01*
X120641469Y-110482839D01*
X120660005Y-110473847D01*
X120669160Y-110470873D01*
X120720542Y-110433542D01*
X120757873Y-110382160D01*
X120760847Y-110373005D01*
X120769839Y-110354469D01*
X120775411Y-110346129D01*
X120775168Y-110328932D01*
X120777500Y-110321756D01*
X120777500Y-110294890D01*
X120778945Y-110280220D01*
X120783612Y-110256755D01*
X120777500Y-110239902D01*
X120777500Y-109425913D01*
X120778426Y-109414150D01*
X120779457Y-109407642D01*
X120788514Y-109362111D01*
X120795260Y-109342656D01*
X120802287Y-109328865D01*
X120804497Y-109325094D01*
X120823057Y-109297318D01*
X120832390Y-109285947D01*
X120842947Y-109275390D01*
X120854318Y-109266057D01*
X120882094Y-109247497D01*
X120885871Y-109245284D01*
X120899657Y-109238260D01*
X120919111Y-109231514D01*
X120964649Y-109222456D01*
X120971165Y-109221424D01*
X120982916Y-109220500D01*
X126133683Y-109220500D01*
X126145435Y-109221424D01*
X126151940Y-109222454D01*
X126197483Y-109231513D01*
X126216947Y-109238262D01*
X126230713Y-109245277D01*
X126234520Y-109247507D01*
X126262270Y-109266050D01*
X126273662Y-109275400D01*
X126284198Y-109285936D01*
X126293550Y-109297330D01*
X126312083Y-109325065D01*
X126314324Y-109328889D01*
X126321335Y-109342650D01*
X126328086Y-109362117D01*
X126337145Y-109407659D01*
X126338173Y-109414150D01*
X126338174Y-109414151D01*
X126339100Y-109425917D01*
X126339100Y-110239903D01*
X126332979Y-110256720D01*
X126337655Y-110280226D01*
X126339100Y-110294897D01*
X126339100Y-110321759D01*
X126341432Y-110328934D01*
X126340849Y-110345625D01*
X126346762Y-110354475D01*
X126355754Y-110373012D01*
X126358726Y-110382157D01*
X126358727Y-110382160D01*
X126396058Y-110433542D01*
X126447440Y-110470873D01*
X126456591Y-110473846D01*
X126475126Y-110482837D01*
X126483468Y-110488411D01*
X126500667Y-110488168D01*
X126507844Y-110490500D01*
X126507845Y-110490500D01*
X126534707Y-110490500D01*
X126549378Y-110491945D01*
X126572845Y-110496612D01*
X126589696Y-110490500D01*
X129899503Y-110490500D01*
X129916318Y-110496620D01*
X129939821Y-110491945D01*
X129954492Y-110490500D01*
X129981355Y-110490500D01*
X129981356Y-110490500D01*
X129988532Y-110488168D01*
X130005222Y-110488750D01*
X130014069Y-110482839D01*
X130032605Y-110473847D01*
X130041760Y-110470873D01*
X130093142Y-110433542D01*
X130130473Y-110382160D01*
X130133447Y-110373005D01*
X130142439Y-110354469D01*
X130148011Y-110346129D01*
X130147768Y-110328932D01*
X130150100Y-110321756D01*
X130150100Y-110294890D01*
X130151545Y-110280220D01*
X130156212Y-110256755D01*
X130150100Y-110239902D01*
X130150100Y-110224737D01*
X136156393Y-110224737D01*
X136186668Y-110396433D01*
X136255720Y-110556514D01*
X136359832Y-110696360D01*
X136493382Y-110808423D01*
X136493383Y-110808424D01*
X136493384Y-110808424D01*
X136493386Y-110808426D01*
X136649185Y-110886671D01*
X136818829Y-110926877D01*
X136949443Y-110926877D01*
X136949445Y-110926876D01*
X136966182Y-110924919D01*
X137016628Y-110919023D01*
X154135021Y-110919023D01*
X154153555Y-111047935D01*
X154207656Y-111166397D01*
X154207658Y-111166400D01*
X154270172Y-111238544D01*
X154287572Y-111258626D01*
X154292944Y-111264825D01*
X154353371Y-111303658D01*
X154390419Y-111327467D01*
X154402504Y-111335233D01*
X154527461Y-111371924D01*
X154657695Y-111371924D01*
X154782651Y-111335233D01*
X154782651Y-111335232D01*
X154782654Y-111335232D01*
X154892214Y-111264823D01*
X154903325Y-111252000D01*
X157276443Y-111252000D01*
X157294977Y-111380911D01*
X157349078Y-111499373D01*
X157349080Y-111499376D01*
X157354820Y-111506000D01*
X157423905Y-111585729D01*
X157434366Y-111597801D01*
X157512668Y-111648121D01*
X157543913Y-111668201D01*
X157543926Y-111668209D01*
X157668883Y-111704900D01*
X157799117Y-111704900D01*
X157924073Y-111668209D01*
X157924073Y-111668208D01*
X157924076Y-111668208D01*
X158033636Y-111597799D01*
X158118921Y-111499374D01*
X158173023Y-111380909D01*
X158191557Y-111252000D01*
X158173023Y-111123091D01*
X158118921Y-111004626D01*
X158118919Y-111004623D01*
X158033633Y-110906198D01*
X157924073Y-110835790D01*
X157799117Y-110799100D01*
X157668883Y-110799100D01*
X157543926Y-110835790D01*
X157434366Y-110906198D01*
X157349080Y-111004623D01*
X157349078Y-111004626D01*
X157294977Y-111123088D01*
X157276443Y-111252000D01*
X154903325Y-111252000D01*
X154977499Y-111166398D01*
X155031601Y-111047933D01*
X155050135Y-110919024D01*
X155031601Y-110790115D01*
X155012679Y-110748683D01*
X154977499Y-110671650D01*
X154977497Y-110671647D01*
X154892211Y-110573222D01*
X154782651Y-110502814D01*
X154657695Y-110466124D01*
X154527461Y-110466124D01*
X154402504Y-110502814D01*
X154292944Y-110573222D01*
X154207658Y-110671647D01*
X154207656Y-110671650D01*
X154153555Y-110790112D01*
X154135021Y-110919023D01*
X137016628Y-110919023D01*
X137079164Y-110911714D01*
X137242993Y-110852085D01*
X137388654Y-110756282D01*
X137508296Y-110629470D01*
X137595467Y-110478484D01*
X137645469Y-110311465D01*
X137655607Y-110137417D01*
X137625332Y-109965723D01*
X137622798Y-109959849D01*
X137556279Y-109805639D01*
X137498479Y-109728000D01*
X137452168Y-109665794D01*
X137416897Y-109636198D01*
X137318617Y-109553730D01*
X137318616Y-109553729D01*
X137162815Y-109475483D01*
X136993171Y-109435277D01*
X136862564Y-109435277D01*
X136862554Y-109435277D01*
X136732838Y-109450439D01*
X136569009Y-109510068D01*
X136569008Y-109510068D01*
X136569007Y-109510069D01*
X136423346Y-109605872D01*
X136423345Y-109605872D01*
X136423345Y-109605873D01*
X136303704Y-109732683D01*
X136216532Y-109883670D01*
X136166531Y-110050686D01*
X136166531Y-110050688D01*
X136156393Y-110224737D01*
X130150100Y-110224737D01*
X130150100Y-109425913D01*
X130151026Y-109414150D01*
X130152057Y-109407642D01*
X130161114Y-109362111D01*
X130167860Y-109342656D01*
X130174887Y-109328865D01*
X130177097Y-109325094D01*
X130195657Y-109297318D01*
X130204990Y-109285947D01*
X130215547Y-109275390D01*
X130226918Y-109266057D01*
X130254694Y-109247497D01*
X130258471Y-109245284D01*
X130272257Y-109238260D01*
X130291711Y-109231514D01*
X130337249Y-109222456D01*
X130343765Y-109221424D01*
X130355516Y-109220500D01*
X140129083Y-109220500D01*
X140140835Y-109221424D01*
X140147340Y-109222454D01*
X140192883Y-109231513D01*
X140212347Y-109238262D01*
X140226113Y-109245277D01*
X140229920Y-109247507D01*
X140257670Y-109266050D01*
X140269062Y-109275400D01*
X140279598Y-109285936D01*
X140288950Y-109297330D01*
X140307483Y-109325065D01*
X140309724Y-109328889D01*
X140316735Y-109342650D01*
X140323486Y-109362117D01*
X140332545Y-109407659D01*
X140333573Y-109414150D01*
X140333574Y-109414151D01*
X140334500Y-109425917D01*
X140334500Y-110239903D01*
X140328379Y-110256720D01*
X140333055Y-110280226D01*
X140334500Y-110294897D01*
X140334500Y-110321759D01*
X140336832Y-110328934D01*
X140336249Y-110345625D01*
X140342162Y-110354475D01*
X140351154Y-110373012D01*
X140354126Y-110382157D01*
X140354127Y-110382160D01*
X140391458Y-110433542D01*
X140442840Y-110470873D01*
X140451991Y-110473846D01*
X140470526Y-110482837D01*
X140478868Y-110488411D01*
X140496067Y-110488168D01*
X140503244Y-110490500D01*
X140503245Y-110490500D01*
X140530107Y-110490500D01*
X140544778Y-110491945D01*
X140568245Y-110496612D01*
X140585096Y-110490500D01*
X143894903Y-110490500D01*
X143911718Y-110496620D01*
X143935221Y-110491945D01*
X143949892Y-110490500D01*
X143976755Y-110490500D01*
X143976756Y-110490500D01*
X143983932Y-110488168D01*
X144000622Y-110488750D01*
X144009469Y-110482839D01*
X144028005Y-110473847D01*
X144037160Y-110470873D01*
X144088542Y-110433542D01*
X144125873Y-110382160D01*
X144128847Y-110373005D01*
X144137839Y-110354469D01*
X144143411Y-110346129D01*
X144143168Y-110328932D01*
X144145500Y-110321756D01*
X144145500Y-110294890D01*
X144146945Y-110280220D01*
X144151612Y-110256755D01*
X144145500Y-110239902D01*
X144145500Y-109982000D01*
X145338443Y-109982000D01*
X145356977Y-110110911D01*
X145411078Y-110229373D01*
X145411080Y-110229376D01*
X145473594Y-110301520D01*
X145491130Y-110321759D01*
X145496366Y-110327801D01*
X145537873Y-110354475D01*
X145580952Y-110382160D01*
X145605926Y-110398209D01*
X145730883Y-110434900D01*
X145861117Y-110434900D01*
X145986073Y-110398209D01*
X145986073Y-110398208D01*
X145986076Y-110398208D01*
X146095636Y-110327799D01*
X146180921Y-110229374D01*
X146235023Y-110110909D01*
X146253557Y-109982000D01*
X146235023Y-109853091D01*
X146229223Y-109840392D01*
X146180921Y-109734626D01*
X146180919Y-109734623D01*
X146095633Y-109636198D01*
X145986073Y-109565790D01*
X145861117Y-109529100D01*
X145730883Y-109529100D01*
X145605926Y-109565790D01*
X145496366Y-109636198D01*
X145411080Y-109734623D01*
X145411078Y-109734626D01*
X145356977Y-109853088D01*
X145338443Y-109982000D01*
X144145500Y-109982000D01*
X144145500Y-109425913D01*
X144146426Y-109414150D01*
X144147457Y-109407642D01*
X144156514Y-109362111D01*
X144163260Y-109342656D01*
X144170287Y-109328865D01*
X144172497Y-109325094D01*
X144191057Y-109297318D01*
X144200390Y-109285947D01*
X144210947Y-109275390D01*
X144222318Y-109266057D01*
X144250094Y-109247497D01*
X144253871Y-109245284D01*
X144267657Y-109238260D01*
X144287111Y-109231514D01*
X144332649Y-109222456D01*
X144339165Y-109221424D01*
X144350916Y-109220500D01*
X156413868Y-109220500D01*
X156462206Y-109238093D01*
X156487926Y-109282642D01*
X156478993Y-109333300D01*
X156454523Y-109358963D01*
X156418366Y-109382198D01*
X156333080Y-109480623D01*
X156333078Y-109480626D01*
X156278977Y-109599088D01*
X156260443Y-109728000D01*
X156278977Y-109856911D01*
X156333078Y-109975373D01*
X156333080Y-109975376D01*
X156418366Y-110073801D01*
X156476109Y-110110909D01*
X156517355Y-110137416D01*
X156527926Y-110144209D01*
X156652883Y-110180900D01*
X156783117Y-110180900D01*
X156908073Y-110144209D01*
X156908073Y-110144208D01*
X156908076Y-110144208D01*
X157017636Y-110073799D01*
X157102921Y-109975374D01*
X157157023Y-109856909D01*
X157175557Y-109728000D01*
X157157023Y-109599091D01*
X157149931Y-109583563D01*
X157102921Y-109480626D01*
X157102919Y-109480623D01*
X157017633Y-109382198D01*
X156981477Y-109358963D01*
X156950324Y-109318029D01*
X156952771Y-109266648D01*
X156987673Y-109228860D01*
X157022132Y-109220500D01*
X157909083Y-109220500D01*
X157920835Y-109221424D01*
X157927340Y-109222454D01*
X157972883Y-109231513D01*
X157992347Y-109238262D01*
X158006113Y-109245277D01*
X158009920Y-109247507D01*
X158037670Y-109266050D01*
X158049062Y-109275400D01*
X158059598Y-109285936D01*
X158068950Y-109297330D01*
X158087483Y-109325065D01*
X158089724Y-109328889D01*
X158096735Y-109342650D01*
X158103486Y-109362117D01*
X158112545Y-109407659D01*
X158113573Y-109414150D01*
X158113574Y-109414151D01*
X158114500Y-109425917D01*
X158114500Y-110239903D01*
X158108379Y-110256720D01*
X158113055Y-110280226D01*
X158114500Y-110294897D01*
X158114500Y-110321759D01*
X158116832Y-110328934D01*
X158116249Y-110345625D01*
X158122162Y-110354475D01*
X158131154Y-110373012D01*
X158134126Y-110382157D01*
X158134127Y-110382160D01*
X158171458Y-110433542D01*
X158222840Y-110470873D01*
X158231991Y-110473846D01*
X158250526Y-110482837D01*
X158258868Y-110488411D01*
X158276067Y-110488168D01*
X158283244Y-110490500D01*
X158283245Y-110490500D01*
X158310107Y-110490500D01*
X158324778Y-110491945D01*
X158348245Y-110496612D01*
X158365096Y-110490500D01*
X161674903Y-110490500D01*
X161691718Y-110496620D01*
X161715221Y-110491945D01*
X161729892Y-110490500D01*
X161756755Y-110490500D01*
X161756756Y-110490500D01*
X161763932Y-110488168D01*
X161780622Y-110488750D01*
X161789469Y-110482839D01*
X161808005Y-110473847D01*
X161817160Y-110470873D01*
X161868542Y-110433542D01*
X161905873Y-110382160D01*
X161908847Y-110373005D01*
X161917839Y-110354469D01*
X161923411Y-110346129D01*
X161923168Y-110328932D01*
X161925500Y-110321756D01*
X161925500Y-110294890D01*
X161926945Y-110280220D01*
X161931612Y-110256755D01*
X161925500Y-110239902D01*
X161925500Y-109982000D01*
X163118443Y-109982000D01*
X163136977Y-110110911D01*
X163191078Y-110229373D01*
X163191080Y-110229376D01*
X163253594Y-110301521D01*
X163271130Y-110321759D01*
X163276366Y-110327801D01*
X163317873Y-110354475D01*
X163360952Y-110382160D01*
X163385926Y-110398209D01*
X163510883Y-110434900D01*
X163641117Y-110434900D01*
X163766073Y-110398209D01*
X163766073Y-110398208D01*
X163766076Y-110398208D01*
X163875636Y-110327799D01*
X163960921Y-110229374D01*
X164015023Y-110110909D01*
X164033557Y-109982000D01*
X164015023Y-109853091D01*
X164009223Y-109840392D01*
X163960921Y-109734626D01*
X163960919Y-109734623D01*
X163875633Y-109636198D01*
X163766073Y-109565790D01*
X163641117Y-109529100D01*
X163510883Y-109529100D01*
X163385926Y-109565790D01*
X163276366Y-109636198D01*
X163191080Y-109734623D01*
X163191078Y-109734626D01*
X163136977Y-109853088D01*
X163118443Y-109982000D01*
X161925500Y-109982000D01*
X161925500Y-109425913D01*
X161926426Y-109414150D01*
X161927457Y-109407642D01*
X161936514Y-109362111D01*
X161943260Y-109342656D01*
X161950287Y-109328865D01*
X161952497Y-109325094D01*
X161971057Y-109297318D01*
X161980390Y-109285947D01*
X161990947Y-109275390D01*
X162002318Y-109266057D01*
X162030094Y-109247497D01*
X162033871Y-109245284D01*
X162047657Y-109238260D01*
X162067111Y-109231514D01*
X162112649Y-109222456D01*
X162119165Y-109221424D01*
X162130916Y-109220500D01*
X165224283Y-109220500D01*
X165236035Y-109221424D01*
X165242540Y-109222454D01*
X165288083Y-109231513D01*
X165307547Y-109238262D01*
X165321313Y-109245277D01*
X165325120Y-109247507D01*
X165352870Y-109266050D01*
X165364262Y-109275400D01*
X165374798Y-109285936D01*
X165384150Y-109297330D01*
X165402683Y-109325065D01*
X165404924Y-109328889D01*
X165411935Y-109342650D01*
X165418686Y-109362117D01*
X165427745Y-109407659D01*
X165428773Y-109414150D01*
X165428774Y-109414151D01*
X165429700Y-109425917D01*
X165429700Y-110239903D01*
X165423579Y-110256720D01*
X165428255Y-110280226D01*
X165429700Y-110294897D01*
X165429700Y-110321759D01*
X165432032Y-110328934D01*
X165431449Y-110345625D01*
X165437362Y-110354475D01*
X165446354Y-110373012D01*
X165449326Y-110382157D01*
X165449327Y-110382160D01*
X165486658Y-110433542D01*
X165538040Y-110470873D01*
X165547191Y-110473846D01*
X165565726Y-110482837D01*
X165574068Y-110488411D01*
X165591267Y-110488168D01*
X165598444Y-110490500D01*
X165598445Y-110490500D01*
X165625307Y-110490500D01*
X165639978Y-110491945D01*
X165663445Y-110496612D01*
X165680296Y-110490500D01*
X168990103Y-110490500D01*
X169006918Y-110496620D01*
X169030421Y-110491945D01*
X169045092Y-110490500D01*
X169071955Y-110490500D01*
X169071956Y-110490500D01*
X169079132Y-110488168D01*
X169095822Y-110488750D01*
X169104669Y-110482839D01*
X169123205Y-110473847D01*
X169132360Y-110470873D01*
X169183742Y-110433542D01*
X169221073Y-110382160D01*
X169224047Y-110373005D01*
X169233039Y-110354469D01*
X169238611Y-110346129D01*
X169238368Y-110328932D01*
X169240700Y-110321756D01*
X169240700Y-110294890D01*
X169242145Y-110280220D01*
X169246812Y-110256755D01*
X169246756Y-110256600D01*
X170505043Y-110256600D01*
X170523577Y-110385511D01*
X170577678Y-110503973D01*
X170577680Y-110503976D01*
X170662966Y-110602401D01*
X170741268Y-110652721D01*
X170770722Y-110671650D01*
X170772526Y-110672809D01*
X170897483Y-110709500D01*
X171027717Y-110709500D01*
X171152673Y-110672809D01*
X171152673Y-110672808D01*
X171152676Y-110672808D01*
X171262236Y-110602399D01*
X171347521Y-110503974D01*
X171401623Y-110385509D01*
X171420157Y-110256600D01*
X171401623Y-110127691D01*
X171379072Y-110078313D01*
X171347521Y-110009226D01*
X171347519Y-110009223D01*
X171262233Y-109910798D01*
X171152673Y-109840390D01*
X171120486Y-109830939D01*
X177843767Y-109830939D01*
X177862301Y-109959851D01*
X177916402Y-110078313D01*
X177916404Y-110078316D01*
X178001690Y-110176741D01*
X178076375Y-110224737D01*
X178099974Y-110239903D01*
X178111250Y-110247149D01*
X178236207Y-110283840D01*
X178366441Y-110283840D01*
X178491397Y-110247149D01*
X178491397Y-110247148D01*
X178491400Y-110247148D01*
X178600960Y-110176739D01*
X178686245Y-110078314D01*
X178740347Y-109959849D01*
X178758881Y-109830940D01*
X178740347Y-109702031D01*
X178723797Y-109665793D01*
X178686245Y-109583566D01*
X178686243Y-109583563D01*
X178600957Y-109485138D01*
X178491397Y-109414730D01*
X178366441Y-109378040D01*
X178236207Y-109378040D01*
X178111250Y-109414730D01*
X178001690Y-109485138D01*
X177916404Y-109583563D01*
X177916402Y-109583566D01*
X177862301Y-109702028D01*
X177843767Y-109830939D01*
X171120486Y-109830939D01*
X171027717Y-109803700D01*
X170897483Y-109803700D01*
X170772526Y-109840390D01*
X170662966Y-109910798D01*
X170577680Y-110009223D01*
X170577678Y-110009226D01*
X170523577Y-110127688D01*
X170505043Y-110256600D01*
X169246756Y-110256600D01*
X169240700Y-110239902D01*
X169240700Y-109425913D01*
X169241626Y-109414150D01*
X169242657Y-109407642D01*
X169251714Y-109362111D01*
X169258460Y-109342656D01*
X169265487Y-109328865D01*
X169267697Y-109325094D01*
X169286257Y-109297318D01*
X169295590Y-109285947D01*
X169306147Y-109275390D01*
X169317518Y-109266057D01*
X169345294Y-109247497D01*
X169349071Y-109245284D01*
X169362857Y-109238260D01*
X169382311Y-109231514D01*
X169427849Y-109222456D01*
X169434365Y-109221424D01*
X169446116Y-109220500D01*
X196390083Y-109220500D01*
X196401835Y-109221424D01*
X196408340Y-109222454D01*
X196453883Y-109231513D01*
X196473347Y-109238262D01*
X196487113Y-109245277D01*
X196490920Y-109247507D01*
X196518670Y-109266050D01*
X196530062Y-109275400D01*
X196540598Y-109285936D01*
X196549950Y-109297330D01*
X196568483Y-109325065D01*
X196570724Y-109328889D01*
X196577735Y-109342650D01*
X196584486Y-109362117D01*
X196593545Y-109407659D01*
X196594573Y-109414150D01*
X196594574Y-109414151D01*
X196595500Y-109425917D01*
X196595500Y-130858081D01*
X196594574Y-130869845D01*
X196593546Y-130876336D01*
X196584486Y-130921881D01*
X196577735Y-130941348D01*
X196570724Y-130955109D01*
X196568483Y-130958933D01*
X196549950Y-130986668D01*
X196540598Y-130998062D01*
X196530062Y-131008598D01*
X196518668Y-131017950D01*
X196490933Y-131036483D01*
X196487109Y-131038724D01*
X196473348Y-131045735D01*
X196453881Y-131052486D01*
X196408336Y-131061546D01*
X196401845Y-131062574D01*
X196390081Y-131063500D01*
X108409918Y-131063500D01*
X108398154Y-131062574D01*
X108391663Y-131061546D01*
X108346117Y-131052486D01*
X108326650Y-131045735D01*
X108312889Y-131038724D01*
X108309069Y-131036485D01*
X108281330Y-131017950D01*
X108269936Y-131008598D01*
X108259400Y-130998062D01*
X108250048Y-130986668D01*
X108231507Y-130958920D01*
X108229275Y-130955110D01*
X108222262Y-130941347D01*
X108215513Y-130921881D01*
X108206453Y-130876336D01*
X108205424Y-130869839D01*
X108204500Y-130858082D01*
X108204500Y-130106700D01*
X132130443Y-130106700D01*
X132133844Y-130130353D01*
X132148977Y-130235611D01*
X132203078Y-130354073D01*
X132203080Y-130354076D01*
X132288366Y-130452501D01*
X132397926Y-130522909D01*
X132522883Y-130559600D01*
X132653117Y-130559600D01*
X132778073Y-130522909D01*
X132778073Y-130522908D01*
X132778076Y-130522908D01*
X132887636Y-130452499D01*
X132972921Y-130354074D01*
X133027023Y-130235609D01*
X133045557Y-130106700D01*
X133030423Y-130001441D01*
X136199118Y-130001441D01*
X136217652Y-130130353D01*
X136271753Y-130248815D01*
X136271755Y-130248818D01*
X136357041Y-130347243D01*
X136466601Y-130417651D01*
X136591558Y-130454342D01*
X136721792Y-130454342D01*
X136846748Y-130417651D01*
X136846748Y-130417650D01*
X136846751Y-130417650D01*
X136956311Y-130347241D01*
X137041596Y-130248816D01*
X137095698Y-130130351D01*
X137114232Y-130001442D01*
X137095698Y-129872533D01*
X137089666Y-129859326D01*
X137041596Y-129754068D01*
X137041594Y-129754065D01*
X136986506Y-129690490D01*
X136966156Y-129667005D01*
X142290443Y-129667005D01*
X142308977Y-129795917D01*
X142363078Y-129914379D01*
X142363080Y-129914382D01*
X142448366Y-130012807D01*
X142503129Y-130048000D01*
X142557916Y-130083209D01*
X142557926Y-130083215D01*
X142682883Y-130119906D01*
X142813117Y-130119906D01*
X142938073Y-130083215D01*
X142938073Y-130083214D01*
X142938076Y-130083214D01*
X143047636Y-130012805D01*
X143132921Y-129914380D01*
X143187023Y-129795915D01*
X143205557Y-129667006D01*
X143205556Y-129667000D01*
X148513443Y-129667000D01*
X148531977Y-129795911D01*
X148586078Y-129914373D01*
X148586080Y-129914376D01*
X148671366Y-130012801D01*
X148780926Y-130083209D01*
X148905883Y-130119900D01*
X149036117Y-130119900D01*
X149161073Y-130083209D01*
X149161073Y-130083208D01*
X149161076Y-130083208D01*
X149270636Y-130012799D01*
X149355921Y-129914374D01*
X149410023Y-129795909D01*
X149410297Y-129794000D01*
X159308443Y-129794000D01*
X159326977Y-129922911D01*
X159381078Y-130041373D01*
X159381080Y-130041376D01*
X159386820Y-130048000D01*
X159458177Y-130130351D01*
X159466366Y-130139801D01*
X159575926Y-130210209D01*
X159700883Y-130246900D01*
X159831117Y-130246900D01*
X159956073Y-130210209D01*
X159956073Y-130210208D01*
X159956076Y-130210208D01*
X160065636Y-130139799D01*
X160150921Y-130041374D01*
X160205023Y-129922909D01*
X160223557Y-129794000D01*
X174040443Y-129794000D01*
X174058977Y-129922911D01*
X174113078Y-130041373D01*
X174113080Y-130041376D01*
X174118820Y-130048000D01*
X174190177Y-130130351D01*
X174198366Y-130139801D01*
X174307926Y-130210209D01*
X174432883Y-130246900D01*
X174563117Y-130246900D01*
X174688073Y-130210209D01*
X174688073Y-130210208D01*
X174688076Y-130210208D01*
X174797636Y-130139799D01*
X174877180Y-130048000D01*
X182168443Y-130048000D01*
X182186977Y-130176911D01*
X182241078Y-130295373D01*
X182241080Y-130295376D01*
X182326366Y-130393801D01*
X182435926Y-130464209D01*
X182560883Y-130500900D01*
X182691117Y-130500900D01*
X182816073Y-130464209D01*
X182816073Y-130464208D01*
X182816076Y-130464208D01*
X182925636Y-130393799D01*
X183010921Y-130295374D01*
X183065023Y-130176909D01*
X183083557Y-130048000D01*
X183065023Y-129919091D01*
X183062872Y-129914382D01*
X183010921Y-129800626D01*
X183010919Y-129800623D01*
X182925633Y-129702198D01*
X182853189Y-129655643D01*
X182816076Y-129631792D01*
X182816069Y-129631790D01*
X182749196Y-129612154D01*
X182707773Y-129581655D01*
X182695645Y-129531665D01*
X182718488Y-129485575D01*
X182749196Y-129467846D01*
X182756474Y-129465709D01*
X182816076Y-129448208D01*
X182925636Y-129377799D01*
X183010921Y-129279374D01*
X183065023Y-129160909D01*
X183083557Y-129032000D01*
X183065023Y-128903091D01*
X183062868Y-128898373D01*
X183010921Y-128784626D01*
X183010919Y-128784623D01*
X182959790Y-128725618D01*
X182925636Y-128686201D01*
X182925635Y-128686200D01*
X182925633Y-128686198D01*
X182816073Y-128615790D01*
X182691117Y-128579100D01*
X182560883Y-128579100D01*
X182435926Y-128615790D01*
X182326366Y-128686198D01*
X182241080Y-128784623D01*
X182241078Y-128784626D01*
X182186977Y-128903088D01*
X182168443Y-129031999D01*
X182186977Y-129160911D01*
X182241078Y-129279373D01*
X182241080Y-129279376D01*
X182277327Y-129321207D01*
X182315729Y-129365526D01*
X182326366Y-129377801D01*
X182391458Y-129419632D01*
X182435913Y-129448201D01*
X182435926Y-129448209D01*
X182502803Y-129467846D01*
X182544226Y-129498345D01*
X182556354Y-129548335D01*
X182533511Y-129594425D01*
X182502803Y-129612154D01*
X182435926Y-129631790D01*
X182326366Y-129702198D01*
X182241080Y-129800623D01*
X182241078Y-129800626D01*
X182186977Y-129919088D01*
X182168443Y-130048000D01*
X174877180Y-130048000D01*
X174882921Y-130041374D01*
X174937023Y-129922909D01*
X174955557Y-129794000D01*
X174937023Y-129665091D01*
X174934868Y-129660373D01*
X174882921Y-129546626D01*
X174882919Y-129546623D01*
X174877180Y-129540000D01*
X177596443Y-129540000D01*
X177596718Y-129541911D01*
X177614977Y-129668911D01*
X177669078Y-129787373D01*
X177669080Y-129787376D01*
X177705328Y-129829208D01*
X177742866Y-129872530D01*
X177754366Y-129885801D01*
X177863926Y-129956209D01*
X177988883Y-129992900D01*
X178119117Y-129992900D01*
X178244073Y-129956209D01*
X178244073Y-129956208D01*
X178244076Y-129956208D01*
X178353636Y-129885799D01*
X178438921Y-129787374D01*
X178493023Y-129668909D01*
X178511557Y-129540000D01*
X178493023Y-129411091D01*
X178472214Y-129365527D01*
X178438921Y-129292626D01*
X178438919Y-129292623D01*
X178377902Y-129222206D01*
X178353636Y-129194201D01*
X178353635Y-129194200D01*
X178353633Y-129194198D01*
X178244073Y-129123790D01*
X178119117Y-129087100D01*
X177988883Y-129087100D01*
X177863926Y-129123790D01*
X177754366Y-129194198D01*
X177669080Y-129292623D01*
X177669078Y-129292626D01*
X177614977Y-129411088D01*
X177596443Y-129539999D01*
X177596443Y-129540000D01*
X174877180Y-129540000D01*
X174814658Y-129467846D01*
X174797636Y-129448201D01*
X174797635Y-129448200D01*
X174797633Y-129448198D01*
X174688073Y-129377790D01*
X174563117Y-129341100D01*
X174432883Y-129341100D01*
X174307926Y-129377790D01*
X174198366Y-129448198D01*
X174113080Y-129546623D01*
X174113078Y-129546626D01*
X174058977Y-129665088D01*
X174040443Y-129794000D01*
X160223557Y-129794000D01*
X160205023Y-129665091D01*
X160202868Y-129660373D01*
X160150921Y-129546626D01*
X160150919Y-129546623D01*
X160082658Y-129467846D01*
X160065636Y-129448201D01*
X160065635Y-129448200D01*
X160065633Y-129448198D01*
X159956073Y-129377790D01*
X159831117Y-129341100D01*
X159700883Y-129341100D01*
X159575926Y-129377790D01*
X159466366Y-129448198D01*
X159381080Y-129546623D01*
X159381078Y-129546626D01*
X159326977Y-129665088D01*
X159308443Y-129794000D01*
X149410297Y-129794000D01*
X149428557Y-129667000D01*
X149410023Y-129538091D01*
X149407868Y-129533373D01*
X149355921Y-129419626D01*
X149355919Y-129419623D01*
X149270641Y-129321207D01*
X149270636Y-129321201D01*
X149270635Y-129321200D01*
X149270633Y-129321198D01*
X149215862Y-129286000D01*
X167944443Y-129286000D01*
X167949505Y-129321207D01*
X167962977Y-129414911D01*
X168017078Y-129533373D01*
X168017080Y-129533376D01*
X168102366Y-129631801D01*
X168157146Y-129667005D01*
X168211913Y-129702201D01*
X168211926Y-129702209D01*
X168336883Y-129738900D01*
X168467117Y-129738900D01*
X168592073Y-129702209D01*
X168592073Y-129702208D01*
X168592076Y-129702208D01*
X168701636Y-129631799D01*
X168786921Y-129533374D01*
X168841023Y-129414909D01*
X168859557Y-129286000D01*
X168841023Y-129157091D01*
X168786921Y-129038626D01*
X168786919Y-129038623D01*
X168706656Y-128945995D01*
X168701636Y-128940201D01*
X168701635Y-128940200D01*
X168701633Y-128940198D01*
X168651247Y-128907818D01*
X178555100Y-128907818D01*
X178567331Y-128996801D01*
X178570599Y-129020577D01*
X178631150Y-129159980D01*
X178727068Y-129277878D01*
X178727070Y-129277880D01*
X178851231Y-129365522D01*
X178851234Y-129365523D01*
X178851239Y-129365527D01*
X178994452Y-129416425D01*
X179146086Y-129426797D01*
X179248838Y-129405444D01*
X179294892Y-129395875D01*
X179294892Y-129395874D01*
X179294896Y-129395874D01*
X179429844Y-129325949D01*
X179540923Y-129222209D01*
X179619894Y-129092347D01*
X179626940Y-129067201D01*
X179660900Y-128945995D01*
X179660900Y-128232187D01*
X179660900Y-128232182D01*
X179655652Y-128194004D01*
X187535099Y-128194004D01*
X187535100Y-128579100D01*
X187535100Y-128907818D01*
X187547331Y-128996801D01*
X187550599Y-129020577D01*
X187611150Y-129159980D01*
X187707068Y-129277878D01*
X187707070Y-129277880D01*
X187831231Y-129365522D01*
X187831234Y-129365523D01*
X187831239Y-129365527D01*
X187974452Y-129416425D01*
X188126086Y-129426797D01*
X188228838Y-129405444D01*
X188274892Y-129395875D01*
X188274892Y-129395874D01*
X188274896Y-129395874D01*
X188409844Y-129325949D01*
X188520923Y-129222209D01*
X188599894Y-129092347D01*
X188606940Y-129067201D01*
X188640900Y-128945995D01*
X188640900Y-128232187D01*
X188640900Y-128232182D01*
X188625402Y-128119427D01*
X188620347Y-128107790D01*
X188580477Y-128015999D01*
X188564850Y-127980021D01*
X188564849Y-127980020D01*
X188564849Y-127980019D01*
X188489243Y-127887088D01*
X188468932Y-127862122D01*
X188468931Y-127862121D01*
X188468929Y-127862119D01*
X188344768Y-127774477D01*
X188344763Y-127774474D01*
X188344761Y-127774473D01*
X188273154Y-127749024D01*
X188201549Y-127723575D01*
X188049913Y-127713202D01*
X188049910Y-127713203D01*
X187901107Y-127744124D01*
X187766153Y-127814052D01*
X187655075Y-127917792D01*
X187655074Y-127917793D01*
X187576104Y-128047654D01*
X187576104Y-128047655D01*
X187535099Y-128194004D01*
X179655652Y-128194004D01*
X179645402Y-128119427D01*
X179640347Y-128107790D01*
X179600477Y-128015999D01*
X179584850Y-127980021D01*
X179584849Y-127980020D01*
X179584849Y-127980019D01*
X179509243Y-127887088D01*
X179488932Y-127862122D01*
X179488931Y-127862121D01*
X179488929Y-127862119D01*
X179364768Y-127774477D01*
X179364763Y-127774474D01*
X179364761Y-127774473D01*
X179293154Y-127749024D01*
X179221549Y-127723575D01*
X179069913Y-127713202D01*
X179069910Y-127713203D01*
X178921107Y-127744124D01*
X178786153Y-127814052D01*
X178675075Y-127917792D01*
X178675074Y-127917793D01*
X178596104Y-128047654D01*
X178596104Y-128047655D01*
X178555100Y-128194004D01*
X178555100Y-128194005D01*
X178555100Y-128194006D01*
X178555100Y-128907818D01*
X168651247Y-128907818D01*
X168592073Y-128869790D01*
X168467117Y-128833100D01*
X168336883Y-128833100D01*
X168211926Y-128869790D01*
X168102366Y-128940198D01*
X168017080Y-129038623D01*
X168017078Y-129038626D01*
X167962977Y-129157088D01*
X167949505Y-129250790D01*
X167944443Y-129286000D01*
X149215862Y-129286000D01*
X149161073Y-129250790D01*
X149036117Y-129214100D01*
X148905883Y-129214100D01*
X148780926Y-129250790D01*
X148671366Y-129321198D01*
X148586080Y-129419623D01*
X148586078Y-129419626D01*
X148531977Y-129538088D01*
X148513443Y-129667000D01*
X143205556Y-129667000D01*
X143187023Y-129538097D01*
X143187020Y-129538091D01*
X143132921Y-129419632D01*
X143132919Y-129419629D01*
X143047633Y-129321204D01*
X142938073Y-129250796D01*
X142813117Y-129214106D01*
X142682883Y-129214106D01*
X142557926Y-129250796D01*
X142448366Y-129321204D01*
X142363080Y-129419629D01*
X142363078Y-129419632D01*
X142308977Y-129538094D01*
X142290443Y-129667005D01*
X136966156Y-129667005D01*
X136956311Y-129655643D01*
X136956310Y-129655642D01*
X136956308Y-129655640D01*
X136846748Y-129585232D01*
X136721792Y-129548542D01*
X136591558Y-129548542D01*
X136466601Y-129585232D01*
X136357041Y-129655640D01*
X136271755Y-129754065D01*
X136271753Y-129754068D01*
X136217652Y-129872530D01*
X136199118Y-130001441D01*
X133030423Y-130001441D01*
X133027023Y-129977791D01*
X133017166Y-129956208D01*
X132972921Y-129859326D01*
X132972919Y-129859323D01*
X132917977Y-129795917D01*
X132887636Y-129760901D01*
X132887635Y-129760900D01*
X132887633Y-129760898D01*
X132778073Y-129690490D01*
X132653117Y-129653800D01*
X132522883Y-129653800D01*
X132397926Y-129690490D01*
X132288366Y-129760898D01*
X132203080Y-129859323D01*
X132203078Y-129859326D01*
X132148977Y-129977788D01*
X132130443Y-130106699D01*
X132130443Y-130106700D01*
X108204500Y-130106700D01*
X108204500Y-129413000D01*
X108762443Y-129413000D01*
X108763395Y-129419623D01*
X108780977Y-129541911D01*
X108835078Y-129660373D01*
X108835080Y-129660376D01*
X108920366Y-129758801D01*
X109029926Y-129829209D01*
X109154883Y-129865900D01*
X109285117Y-129865900D01*
X109410073Y-129829209D01*
X109410073Y-129829208D01*
X109410076Y-129829208D01*
X109519636Y-129758799D01*
X109604921Y-129660374D01*
X109659023Y-129541909D01*
X109677557Y-129413000D01*
X111556443Y-129413000D01*
X111557395Y-129419623D01*
X111574977Y-129541911D01*
X111629078Y-129660373D01*
X111629080Y-129660376D01*
X111714366Y-129758801D01*
X111823926Y-129829209D01*
X111948883Y-129865900D01*
X112079117Y-129865900D01*
X112204073Y-129829209D01*
X112204073Y-129829208D01*
X112204076Y-129829208D01*
X112313636Y-129758799D01*
X112398921Y-129660374D01*
X112453023Y-129541909D01*
X112471557Y-129413000D01*
X112453023Y-129284091D01*
X112450868Y-129279373D01*
X112398921Y-129165626D01*
X112398919Y-129165623D01*
X112313633Y-129067198D01*
X112204073Y-128996790D01*
X112079117Y-128960100D01*
X111948883Y-128960100D01*
X111823926Y-128996790D01*
X111714366Y-129067198D01*
X111629080Y-129165623D01*
X111629078Y-129165626D01*
X111574977Y-129284088D01*
X111563268Y-129365527D01*
X111556443Y-129413000D01*
X109677557Y-129413000D01*
X109659023Y-129284091D01*
X109656868Y-129279373D01*
X109604921Y-129165626D01*
X109604919Y-129165623D01*
X109519633Y-129067198D01*
X109410073Y-128996790D01*
X109285117Y-128960100D01*
X109154883Y-128960100D01*
X109029926Y-128996790D01*
X108920366Y-129067198D01*
X108835080Y-129165623D01*
X108835078Y-129165626D01*
X108780977Y-129284088D01*
X108769268Y-129365527D01*
X108762443Y-129413000D01*
X108204500Y-129413000D01*
X108204500Y-128524000D01*
X116128443Y-128524000D01*
X116146977Y-128652911D01*
X116201078Y-128771373D01*
X116201080Y-128771376D01*
X116286366Y-128869801D01*
X116364668Y-128920121D01*
X116395913Y-128940201D01*
X116395926Y-128940209D01*
X116520883Y-128976900D01*
X116651117Y-128976900D01*
X116776073Y-128940209D01*
X116776073Y-128940208D01*
X116776076Y-128940208D01*
X116885636Y-128869799D01*
X116970921Y-128771374D01*
X117025023Y-128652909D01*
X117043557Y-128524000D01*
X118414443Y-128524000D01*
X118432977Y-128652911D01*
X118487078Y-128771373D01*
X118487080Y-128771376D01*
X118572366Y-128869801D01*
X118650668Y-128920121D01*
X118681913Y-128940201D01*
X118681926Y-128940209D01*
X118806883Y-128976900D01*
X118937117Y-128976900D01*
X119062073Y-128940209D01*
X119062073Y-128940208D01*
X119062076Y-128940208D01*
X119171636Y-128869799D01*
X119256921Y-128771374D01*
X119311023Y-128652909D01*
X119311297Y-128651000D01*
X120827443Y-128651000D01*
X120827718Y-128652911D01*
X120845977Y-128779911D01*
X120900078Y-128898373D01*
X120900080Y-128898376D01*
X120985366Y-128996801D01*
X121050444Y-129038623D01*
X121094913Y-129067201D01*
X121094926Y-129067209D01*
X121219883Y-129103900D01*
X121350117Y-129103900D01*
X121475073Y-129067209D01*
X121475073Y-129067208D01*
X121475076Y-129067208D01*
X121529861Y-129032000D01*
X123621443Y-129032000D01*
X123639977Y-129160911D01*
X123694078Y-129279373D01*
X123694080Y-129279376D01*
X123730327Y-129321207D01*
X123768729Y-129365526D01*
X123779366Y-129377801D01*
X123844458Y-129419632D01*
X123888913Y-129448201D01*
X123888926Y-129448209D01*
X124013883Y-129484900D01*
X124144117Y-129484900D01*
X124269073Y-129448209D01*
X124269073Y-129448208D01*
X124269076Y-129448208D01*
X124378636Y-129377799D01*
X124463921Y-129279374D01*
X124518023Y-129160909D01*
X124534041Y-129049500D01*
X144502783Y-129049500D01*
X144521317Y-129178411D01*
X144575418Y-129296873D01*
X144575420Y-129296876D01*
X144634902Y-129365522D01*
X144645532Y-129377790D01*
X144660706Y-129395301D01*
X144770266Y-129465709D01*
X144895223Y-129502400D01*
X145025457Y-129502400D01*
X145150413Y-129465709D01*
X145150413Y-129465708D01*
X145150416Y-129465708D01*
X145259976Y-129395299D01*
X145345261Y-129296874D01*
X145399363Y-129178409D01*
X145417897Y-129049500D01*
X145399363Y-128920591D01*
X145389216Y-128898373D01*
X145345261Y-128802126D01*
X145345259Y-128802123D01*
X145259973Y-128703698D01*
X145150413Y-128633290D01*
X145025457Y-128596600D01*
X144895223Y-128596600D01*
X144770266Y-128633290D01*
X144660706Y-128703698D01*
X144575420Y-128802123D01*
X144575418Y-128802126D01*
X144521317Y-128920588D01*
X144502783Y-129049500D01*
X124534041Y-129049500D01*
X124536557Y-129032000D01*
X124518023Y-128903091D01*
X124515868Y-128898373D01*
X124463921Y-128784626D01*
X124463919Y-128784623D01*
X124412790Y-128725617D01*
X124378636Y-128686201D01*
X124378635Y-128686200D01*
X124378633Y-128686198D01*
X124269073Y-128615790D01*
X124144117Y-128579100D01*
X124013883Y-128579100D01*
X123888926Y-128615790D01*
X123779366Y-128686198D01*
X123694080Y-128784623D01*
X123694078Y-128784626D01*
X123639977Y-128903088D01*
X123621443Y-129032000D01*
X121529861Y-129032000D01*
X121584636Y-128996799D01*
X121669921Y-128898374D01*
X121724023Y-128779909D01*
X121742557Y-128651000D01*
X121724023Y-128522091D01*
X121669921Y-128403626D01*
X121669919Y-128403623D01*
X121584633Y-128305198D01*
X121475073Y-128234790D01*
X121350117Y-128198100D01*
X121219883Y-128198100D01*
X121094926Y-128234790D01*
X120985366Y-128305198D01*
X120900080Y-128403623D01*
X120900078Y-128403626D01*
X120845977Y-128522088D01*
X120837780Y-128579100D01*
X120827443Y-128651000D01*
X119311297Y-128651000D01*
X119329557Y-128524000D01*
X119311023Y-128395091D01*
X119256921Y-128276626D01*
X119256919Y-128276623D01*
X119171633Y-128178198D01*
X119062073Y-128107790D01*
X118937117Y-128071100D01*
X118806883Y-128071100D01*
X118681926Y-128107790D01*
X118572366Y-128178198D01*
X118487080Y-128276623D01*
X118487078Y-128276626D01*
X118432977Y-128395088D01*
X118414443Y-128524000D01*
X117043557Y-128524000D01*
X117037537Y-128482130D01*
X117048071Y-128431781D01*
X117088505Y-128399983D01*
X117139919Y-128401614D01*
X117152626Y-128408165D01*
X117157926Y-128411571D01*
X117282883Y-128448262D01*
X117413117Y-128448262D01*
X117538073Y-128411571D01*
X117538073Y-128411570D01*
X117538076Y-128411570D01*
X117647636Y-128341161D01*
X117732921Y-128242736D01*
X117787023Y-128124271D01*
X117805557Y-127995362D01*
X117791380Y-127896760D01*
X117801916Y-127846413D01*
X117842350Y-127814615D01*
X117893764Y-127816247D01*
X117922648Y-127836815D01*
X117937364Y-127853799D01*
X118036940Y-127917792D01*
X118046926Y-127924209D01*
X118171883Y-127960900D01*
X118302117Y-127960900D01*
X118427073Y-127924209D01*
X118427073Y-127924208D01*
X118427076Y-127924208D01*
X118536636Y-127853799D01*
X118621921Y-127755374D01*
X118676023Y-127636909D01*
X118694557Y-127508000D01*
X122605443Y-127508000D01*
X122623977Y-127636911D01*
X122678078Y-127755373D01*
X122678080Y-127755376D01*
X122728922Y-127814051D01*
X122748647Y-127836815D01*
X122763366Y-127853801D01*
X122841668Y-127904121D01*
X122862940Y-127917792D01*
X122872926Y-127924209D01*
X122997883Y-127960900D01*
X123128117Y-127960900D01*
X123253073Y-127924209D01*
X123253073Y-127924208D01*
X123253076Y-127924208D01*
X123362636Y-127853799D01*
X123447921Y-127755374D01*
X123502023Y-127636909D01*
X123520557Y-127508000D01*
X123502023Y-127379091D01*
X123453958Y-127273846D01*
X123447921Y-127260626D01*
X123447919Y-127260623D01*
X123389096Y-127192738D01*
X123362636Y-127162201D01*
X123362635Y-127162200D01*
X123362633Y-127162198D01*
X123253073Y-127091790D01*
X123128117Y-127055100D01*
X122997883Y-127055100D01*
X122872926Y-127091790D01*
X122763366Y-127162198D01*
X122678080Y-127260623D01*
X122678078Y-127260626D01*
X122623977Y-127379088D01*
X122605443Y-127508000D01*
X118694557Y-127508000D01*
X118676023Y-127379091D01*
X118627958Y-127273846D01*
X118621921Y-127260626D01*
X118621919Y-127260623D01*
X118563096Y-127192738D01*
X118536636Y-127162201D01*
X118536635Y-127162200D01*
X118536633Y-127162198D01*
X118427073Y-127091790D01*
X118302117Y-127055100D01*
X118171883Y-127055100D01*
X118046926Y-127091790D01*
X117937366Y-127162198D01*
X117852080Y-127260623D01*
X117852078Y-127260626D01*
X117797977Y-127379088D01*
X117779443Y-127508000D01*
X117793619Y-127606600D01*
X117783083Y-127656949D01*
X117742648Y-127688747D01*
X117691234Y-127687114D01*
X117662352Y-127666547D01*
X117647636Y-127649563D01*
X117647635Y-127649562D01*
X117647633Y-127649560D01*
X117538073Y-127579152D01*
X117413117Y-127542462D01*
X117282883Y-127542462D01*
X117157926Y-127579152D01*
X117048366Y-127649560D01*
X116963080Y-127747985D01*
X116963078Y-127747988D01*
X116908977Y-127866450D01*
X116900673Y-127924208D01*
X116890443Y-127995362D01*
X116892457Y-128009373D01*
X116896463Y-128037231D01*
X116885927Y-128087581D01*
X116845492Y-128119379D01*
X116794079Y-128117746D01*
X116781374Y-128111197D01*
X116776073Y-128107790D01*
X116651117Y-128071100D01*
X116520883Y-128071100D01*
X116395926Y-128107790D01*
X116286366Y-128178198D01*
X116201080Y-128276623D01*
X116201078Y-128276626D01*
X116146977Y-128395088D01*
X116128443Y-128524000D01*
X108204500Y-128524000D01*
X108204500Y-127508000D01*
X112318443Y-127508000D01*
X112336977Y-127636911D01*
X112391078Y-127755373D01*
X112391080Y-127755376D01*
X112441922Y-127814051D01*
X112461647Y-127836815D01*
X112476366Y-127853801D01*
X112554668Y-127904121D01*
X112575940Y-127917792D01*
X112585926Y-127924209D01*
X112710883Y-127960900D01*
X112841117Y-127960900D01*
X112966073Y-127924209D01*
X112966073Y-127924208D01*
X112966076Y-127924208D01*
X113075636Y-127853799D01*
X113160921Y-127755374D01*
X113215023Y-127636909D01*
X113233557Y-127508000D01*
X113215023Y-127379091D01*
X113166958Y-127273846D01*
X113160921Y-127260626D01*
X113160919Y-127260623D01*
X113102096Y-127192738D01*
X113075636Y-127162201D01*
X113075635Y-127162200D01*
X113075633Y-127162198D01*
X112966073Y-127091790D01*
X112841117Y-127055100D01*
X112710883Y-127055100D01*
X112585926Y-127091790D01*
X112476366Y-127162198D01*
X112391080Y-127260623D01*
X112391078Y-127260626D01*
X112336977Y-127379088D01*
X112318443Y-127508000D01*
X108204500Y-127508000D01*
X108204500Y-127026472D01*
X115909723Y-127026472D01*
X115928257Y-127155384D01*
X115982358Y-127273846D01*
X115982360Y-127273849D01*
X116067646Y-127372274D01*
X116177206Y-127442682D01*
X116302163Y-127479373D01*
X116432397Y-127479373D01*
X116557353Y-127442682D01*
X116557353Y-127442681D01*
X116557356Y-127442681D01*
X116666916Y-127372272D01*
X116752201Y-127273847D01*
X116806303Y-127155382D01*
X116824837Y-127026473D01*
X116821031Y-127000000D01*
X139242451Y-127000000D01*
X139260985Y-127128911D01*
X139315086Y-127247373D01*
X139315088Y-127247376D01*
X139400374Y-127345801D01*
X139441565Y-127372272D01*
X139509921Y-127416201D01*
X139509934Y-127416209D01*
X139634891Y-127452900D01*
X139765126Y-127452900D01*
X139780130Y-127448494D01*
X139791235Y-127445233D01*
X139842572Y-127448494D01*
X139879801Y-127483991D01*
X139885648Y-127508957D01*
X139886858Y-127508784D01*
X139887623Y-127514106D01*
X139887623Y-127514108D01*
X139891700Y-127542462D01*
X139906157Y-127643019D01*
X139960258Y-127761481D01*
X139960260Y-127761484D01*
X140007713Y-127816247D01*
X140040251Y-127853799D01*
X140045546Y-127859909D01*
X140102892Y-127896762D01*
X140145601Y-127924209D01*
X140155106Y-127930317D01*
X140280063Y-127967008D01*
X140410297Y-127967008D01*
X140535253Y-127930317D01*
X140535253Y-127930316D01*
X140535256Y-127930316D01*
X140644816Y-127859907D01*
X140729652Y-127762000D01*
X142417443Y-127762000D01*
X142435977Y-127890911D01*
X142490078Y-128009373D01*
X142490080Y-128009376D01*
X142575366Y-128107801D01*
X142600995Y-128124271D01*
X142684913Y-128178201D01*
X142684926Y-128178209D01*
X142809883Y-128214900D01*
X142940117Y-128214900D01*
X143065073Y-128178209D01*
X143065073Y-128178208D01*
X143065076Y-128178208D01*
X143174636Y-128107799D01*
X143254180Y-128016000D01*
X159816443Y-128016000D01*
X159834977Y-128144911D01*
X159889078Y-128263373D01*
X159889080Y-128263376D01*
X159974366Y-128361801D01*
X160083926Y-128432209D01*
X160208883Y-128468900D01*
X160339117Y-128468900D01*
X160464073Y-128432209D01*
X160464073Y-128432208D01*
X160464076Y-128432208D01*
X160573636Y-128361799D01*
X160658921Y-128263374D01*
X160713023Y-128144909D01*
X160731557Y-128016000D01*
X160713023Y-127887091D01*
X160703596Y-127866450D01*
X160658921Y-127768626D01*
X160658919Y-127768623D01*
X160653179Y-127761999D01*
X167944443Y-127761999D01*
X167962977Y-127890911D01*
X168017078Y-128009373D01*
X168017080Y-128009376D01*
X168102366Y-128107801D01*
X168127995Y-128124271D01*
X168211913Y-128178201D01*
X168211926Y-128178209D01*
X168336883Y-128214900D01*
X168467117Y-128214900D01*
X168592073Y-128178209D01*
X168592073Y-128178208D01*
X168592076Y-128178208D01*
X168701636Y-128107799D01*
X168786921Y-128009374D01*
X168841023Y-127890909D01*
X168859557Y-127762000D01*
X168841023Y-127633091D01*
X168816390Y-127579154D01*
X168786921Y-127514626D01*
X168786919Y-127514623D01*
X168701633Y-127416198D01*
X168592073Y-127345790D01*
X168467117Y-127309100D01*
X168336883Y-127309100D01*
X168211926Y-127345790D01*
X168102366Y-127416198D01*
X168017080Y-127514623D01*
X168017078Y-127514626D01*
X167962977Y-127633088D01*
X167944443Y-127761999D01*
X160653179Y-127761999D01*
X160573633Y-127670198D01*
X160464073Y-127599790D01*
X160339117Y-127563100D01*
X160208883Y-127563100D01*
X160083926Y-127599790D01*
X159974366Y-127670198D01*
X159889080Y-127768623D01*
X159889078Y-127768626D01*
X159834977Y-127887088D01*
X159816443Y-128016000D01*
X143254180Y-128016000D01*
X143259921Y-128009374D01*
X143314023Y-127890909D01*
X143332557Y-127762000D01*
X143314023Y-127633091D01*
X143289390Y-127579154D01*
X143259921Y-127514626D01*
X143259919Y-127514623D01*
X143174633Y-127416198D01*
X143106280Y-127372272D01*
X143065076Y-127345792D01*
X143065073Y-127345791D01*
X143050184Y-127341419D01*
X143008761Y-127310920D01*
X142996633Y-127260930D01*
X143019476Y-127214840D01*
X143050184Y-127197111D01*
X143053241Y-127196213D01*
X143065076Y-127192738D01*
X143174636Y-127122329D01*
X143259921Y-127023904D01*
X143314023Y-126905439D01*
X143332557Y-126776530D01*
X143314023Y-126647621D01*
X143303578Y-126624751D01*
X143259921Y-126529156D01*
X143259919Y-126529153D01*
X143227726Y-126492000D01*
X147624443Y-126492000D01*
X147642977Y-126620911D01*
X147697078Y-126739373D01*
X147697080Y-126739376D01*
X147782366Y-126837801D01*
X147834163Y-126871088D01*
X147891913Y-126908201D01*
X147891926Y-126908209D01*
X148016883Y-126944900D01*
X148147117Y-126944900D01*
X148272073Y-126908209D01*
X148272073Y-126908208D01*
X148272076Y-126908208D01*
X148381636Y-126837799D01*
X148466921Y-126739374D01*
X148508825Y-126647618D01*
X148521596Y-126619655D01*
X148557680Y-126582995D01*
X148608887Y-126578105D01*
X148651256Y-126607275D01*
X148658404Y-126619655D01*
X148713078Y-126739373D01*
X148713080Y-126739376D01*
X148798366Y-126837801D01*
X148850163Y-126871088D01*
X148907913Y-126908201D01*
X148907926Y-126908209D01*
X149032883Y-126944900D01*
X149163117Y-126944900D01*
X149288073Y-126908209D01*
X149288073Y-126908208D01*
X149288076Y-126908208D01*
X149366702Y-126857679D01*
X159845977Y-126857679D01*
X159864511Y-126986590D01*
X159918612Y-127105052D01*
X159918614Y-127105055D01*
X160003900Y-127203480D01*
X160082202Y-127253800D01*
X160113394Y-127273846D01*
X160113460Y-127273888D01*
X160238417Y-127310579D01*
X160368651Y-127310579D01*
X160493607Y-127273888D01*
X160493607Y-127273887D01*
X160493610Y-127273887D01*
X160524555Y-127254000D01*
X174040443Y-127254000D01*
X174058977Y-127382911D01*
X174113078Y-127501373D01*
X174113080Y-127501376D01*
X174198366Y-127599801D01*
X174275795Y-127649560D01*
X174307913Y-127670201D01*
X174307926Y-127670209D01*
X174432883Y-127706900D01*
X174563117Y-127706900D01*
X174688073Y-127670209D01*
X174688073Y-127670208D01*
X174688076Y-127670208D01*
X174797636Y-127599799D01*
X174882921Y-127501374D01*
X174937023Y-127382909D01*
X174955557Y-127254000D01*
X174937023Y-127125091D01*
X174927871Y-127105052D01*
X174882921Y-127006626D01*
X174882919Y-127006623D01*
X174797633Y-126908198D01*
X174688073Y-126837790D01*
X174563117Y-126801100D01*
X174432883Y-126801100D01*
X174307926Y-126837790D01*
X174198366Y-126908198D01*
X174113080Y-127006623D01*
X174113078Y-127006626D01*
X174058977Y-127125088D01*
X174040443Y-127254000D01*
X160524555Y-127254000D01*
X160603170Y-127203478D01*
X160688455Y-127105053D01*
X160742557Y-126986588D01*
X160761091Y-126857679D01*
X160745034Y-126746000D01*
X169722443Y-126746000D01*
X169740977Y-126874911D01*
X169795078Y-126993373D01*
X169795080Y-126993376D01*
X169880366Y-127091801D01*
X169938109Y-127128909D01*
X169989913Y-127162201D01*
X169989926Y-127162209D01*
X170114883Y-127198900D01*
X170245117Y-127198900D01*
X170370073Y-127162209D01*
X170370073Y-127162208D01*
X170370076Y-127162208D01*
X170479636Y-127091799D01*
X170564921Y-126993374D01*
X170619023Y-126874909D01*
X170637557Y-126746000D01*
X170619023Y-126617091D01*
X170617105Y-126612892D01*
X170564921Y-126498626D01*
X170564919Y-126498623D01*
X170506090Y-126430731D01*
X170479636Y-126400201D01*
X170479635Y-126400200D01*
X170479633Y-126400198D01*
X170370073Y-126329790D01*
X170245117Y-126293100D01*
X170114883Y-126293100D01*
X169989926Y-126329790D01*
X169880366Y-126400198D01*
X169795080Y-126498623D01*
X169795078Y-126498626D01*
X169740977Y-126617088D01*
X169722443Y-126746000D01*
X160745034Y-126746000D01*
X160742557Y-126728770D01*
X160738452Y-126719782D01*
X160688455Y-126610305D01*
X160688453Y-126610302D01*
X160626725Y-126539064D01*
X160603170Y-126511880D01*
X160603169Y-126511879D01*
X160603167Y-126511877D01*
X160493607Y-126441469D01*
X160368651Y-126404779D01*
X160238417Y-126404779D01*
X160113460Y-126441469D01*
X160003900Y-126511877D01*
X159918614Y-126610302D01*
X159918612Y-126610305D01*
X159864511Y-126728767D01*
X159845977Y-126857679D01*
X149366702Y-126857679D01*
X149397636Y-126837799D01*
X149482921Y-126739374D01*
X149537023Y-126620909D01*
X149555557Y-126492000D01*
X149537023Y-126363091D01*
X149535758Y-126360322D01*
X149482921Y-126244626D01*
X149482919Y-126244623D01*
X149477180Y-126238000D01*
X153847443Y-126238000D01*
X153865977Y-126366911D01*
X153920078Y-126485373D01*
X153920080Y-126485376D01*
X153956328Y-126527208D01*
X154004667Y-126582995D01*
X154005366Y-126583801D01*
X154063109Y-126620909D01*
X154114913Y-126654201D01*
X154114926Y-126654209D01*
X154239883Y-126690900D01*
X154370117Y-126690900D01*
X154495073Y-126654209D01*
X154495073Y-126654208D01*
X154495076Y-126654208D01*
X154604636Y-126583799D01*
X154689921Y-126485374D01*
X154744023Y-126366909D01*
X154762557Y-126238000D01*
X154744023Y-126109091D01*
X154730569Y-126079632D01*
X154689921Y-125990626D01*
X154689919Y-125990623D01*
X154619472Y-125909323D01*
X154604636Y-125892201D01*
X154604635Y-125892200D01*
X154604633Y-125892198D01*
X154495073Y-125821790D01*
X154370117Y-125785100D01*
X154239883Y-125785100D01*
X154114926Y-125821790D01*
X154005366Y-125892198D01*
X153920080Y-125990623D01*
X153920078Y-125990626D01*
X153865977Y-126109088D01*
X153847443Y-126238000D01*
X149477180Y-126238000D01*
X149400963Y-126150041D01*
X149397636Y-126146201D01*
X149397635Y-126146200D01*
X149397633Y-126146198D01*
X149288073Y-126075790D01*
X149163117Y-126039100D01*
X149032883Y-126039100D01*
X148907926Y-126075790D01*
X148798366Y-126146198D01*
X148713080Y-126244623D01*
X148713078Y-126244626D01*
X148658404Y-126364344D01*
X148622320Y-126401004D01*
X148571113Y-126405894D01*
X148528743Y-126376724D01*
X148521596Y-126364344D01*
X148466921Y-126244626D01*
X148466919Y-126244623D01*
X148384963Y-126150041D01*
X148381636Y-126146201D01*
X148381635Y-126146200D01*
X148381633Y-126146198D01*
X148272073Y-126075790D01*
X148147117Y-126039100D01*
X148016883Y-126039100D01*
X147891926Y-126075790D01*
X147782366Y-126146198D01*
X147697080Y-126244623D01*
X147697078Y-126244626D01*
X147642977Y-126363088D01*
X147624443Y-126492000D01*
X143227726Y-126492000D01*
X143208790Y-126470147D01*
X143174636Y-126430731D01*
X143174635Y-126430730D01*
X143174633Y-126430728D01*
X143065073Y-126360320D01*
X142940117Y-126323630D01*
X142809883Y-126323630D01*
X142684926Y-126360320D01*
X142575366Y-126430728D01*
X142490080Y-126529153D01*
X142490078Y-126529156D01*
X142435977Y-126647618D01*
X142417443Y-126776529D01*
X142435977Y-126905441D01*
X142490078Y-127023903D01*
X142490080Y-127023906D01*
X142543737Y-127085829D01*
X142561322Y-127106124D01*
X142575366Y-127122331D01*
X142626796Y-127155382D01*
X142684924Y-127192738D01*
X142693313Y-127195201D01*
X142699816Y-127197111D01*
X142741239Y-127227611D01*
X142753366Y-127277601D01*
X142730522Y-127323690D01*
X142699816Y-127341419D01*
X142684925Y-127345791D01*
X142575366Y-127416198D01*
X142490080Y-127514623D01*
X142490078Y-127514626D01*
X142435977Y-127633088D01*
X142417443Y-127762000D01*
X140729652Y-127762000D01*
X140730101Y-127761482D01*
X140784203Y-127643017D01*
X140802737Y-127514108D01*
X140784203Y-127385199D01*
X140783157Y-127382909D01*
X140730101Y-127266734D01*
X140730099Y-127266731D01*
X140644813Y-127168306D01*
X140590080Y-127133133D01*
X140580167Y-127126762D01*
X140549015Y-127085829D01*
X140551462Y-127034448D01*
X140580168Y-127000237D01*
X140644813Y-126958693D01*
X140644813Y-126958692D01*
X140644816Y-126958691D01*
X140730101Y-126860266D01*
X140784203Y-126741801D01*
X140802737Y-126612892D01*
X140784203Y-126483983D01*
X140771788Y-126456799D01*
X140730101Y-126365518D01*
X140730099Y-126365515D01*
X140667351Y-126293100D01*
X140644816Y-126267093D01*
X140644815Y-126267092D01*
X140644813Y-126267090D01*
X140535253Y-126196682D01*
X140410297Y-126159992D01*
X140280063Y-126159992D01*
X140155106Y-126196682D01*
X140045546Y-126267090D01*
X139960260Y-126365515D01*
X139960257Y-126365520D01*
X139906157Y-126483982D01*
X139906156Y-126483986D01*
X139904087Y-126498376D01*
X139879793Y-126543717D01*
X139832037Y-126562834D01*
X139808467Y-126559826D01*
X139765125Y-126547100D01*
X139634891Y-126547100D01*
X139509934Y-126583790D01*
X139400374Y-126654198D01*
X139315088Y-126752623D01*
X139315086Y-126752626D01*
X139260985Y-126871088D01*
X139242451Y-127000000D01*
X116821031Y-127000000D01*
X116806303Y-126897564D01*
X116789269Y-126860266D01*
X116752201Y-126779099D01*
X116752199Y-126779096D01*
X116666913Y-126680671D01*
X116557353Y-126610263D01*
X116432397Y-126573573D01*
X116302163Y-126573573D01*
X116177206Y-126610263D01*
X116067646Y-126680671D01*
X115982360Y-126779096D01*
X115982358Y-126779099D01*
X115928257Y-126897561D01*
X115909723Y-127026472D01*
X108204500Y-127026472D01*
X108204500Y-126365000D01*
X113334443Y-126365000D01*
X113352977Y-126493911D01*
X113407078Y-126612373D01*
X113407080Y-126612376D01*
X113492366Y-126710801D01*
X113557444Y-126752623D01*
X113598642Y-126779099D01*
X113601926Y-126781209D01*
X113726883Y-126817900D01*
X113857117Y-126817900D01*
X113982073Y-126781209D01*
X113982073Y-126781208D01*
X113982076Y-126781208D01*
X114091636Y-126710799D01*
X114176921Y-126612374D01*
X114230141Y-126495840D01*
X129126028Y-126495840D01*
X129144562Y-126624751D01*
X129198663Y-126743213D01*
X129198665Y-126743216D01*
X129248822Y-126801100D01*
X129280623Y-126837801D01*
X129283951Y-126841641D01*
X129335722Y-126874911D01*
X129387535Y-126908209D01*
X129393511Y-126912049D01*
X129518468Y-126948740D01*
X129648702Y-126948740D01*
X129773658Y-126912049D01*
X129773658Y-126912048D01*
X129773661Y-126912048D01*
X129883221Y-126841639D01*
X129968506Y-126743214D01*
X130022608Y-126624749D01*
X130041142Y-126495840D01*
X130022608Y-126366931D01*
X130021961Y-126365515D01*
X129968506Y-126248466D01*
X129968504Y-126248463D01*
X129966300Y-126245920D01*
X130733443Y-126245920D01*
X130751977Y-126374831D01*
X130806078Y-126493293D01*
X130806080Y-126493296D01*
X130849770Y-126543717D01*
X130884501Y-126583799D01*
X130891366Y-126591721D01*
X131000926Y-126662129D01*
X131125883Y-126698820D01*
X131256117Y-126698820D01*
X131381073Y-126662129D01*
X131381073Y-126662128D01*
X131381076Y-126662128D01*
X131490636Y-126591719D01*
X131575921Y-126493294D01*
X131630023Y-126374829D01*
X131647234Y-126255122D01*
X132840243Y-126255122D01*
X132858777Y-126384033D01*
X132912878Y-126502495D01*
X132912880Y-126502498D01*
X132944565Y-126539064D01*
X132990190Y-126591719D01*
X132998166Y-126600923D01*
X133107726Y-126671331D01*
X133232683Y-126708022D01*
X133362917Y-126708022D01*
X133487873Y-126671331D01*
X133487873Y-126671330D01*
X133487876Y-126671330D01*
X133597436Y-126600921D01*
X133682721Y-126502496D01*
X133736823Y-126384031D01*
X133736823Y-126384030D01*
X133737059Y-126383514D01*
X133773143Y-126346854D01*
X133824350Y-126341964D01*
X133846115Y-126351489D01*
X133921924Y-126400208D01*
X134046883Y-126436900D01*
X134177117Y-126436900D01*
X134302073Y-126400209D01*
X134302073Y-126400208D01*
X134302076Y-126400208D01*
X134411636Y-126329799D01*
X134455167Y-126279560D01*
X134500118Y-126254551D01*
X134550629Y-126264286D01*
X134568832Y-126279560D01*
X134612366Y-126329801D01*
X134670143Y-126366931D01*
X134721913Y-126400201D01*
X134721926Y-126400209D01*
X134846883Y-126436900D01*
X134977117Y-126436900D01*
X135102073Y-126400209D01*
X135102073Y-126400208D01*
X135102076Y-126400208D01*
X135211636Y-126329799D01*
X135296921Y-126231374D01*
X135306764Y-126209820D01*
X135342849Y-126173159D01*
X135394055Y-126168269D01*
X135436425Y-126197439D01*
X135449603Y-126230356D01*
X135450976Y-126239906D01*
X135450977Y-126239911D01*
X135505078Y-126358373D01*
X135505080Y-126358376D01*
X135590366Y-126456801D01*
X135699926Y-126527209D01*
X135824883Y-126563900D01*
X135955117Y-126563900D01*
X136080076Y-126527208D01*
X136111457Y-126507040D01*
X136161631Y-126495708D01*
X136207353Y-126519279D01*
X136220516Y-126539064D01*
X136258096Y-126621352D01*
X136258099Y-126621357D01*
X136343385Y-126719782D01*
X136394488Y-126752623D01*
X136435686Y-126779099D01*
X136452945Y-126790190D01*
X136577902Y-126826881D01*
X136708136Y-126826881D01*
X136833092Y-126790190D01*
X136833092Y-126790189D01*
X136833095Y-126790189D01*
X136942655Y-126719780D01*
X137027940Y-126621355D01*
X137082042Y-126502890D01*
X137100576Y-126373981D01*
X137082042Y-126245072D01*
X137081838Y-126244626D01*
X137027940Y-126126607D01*
X137027938Y-126126604D01*
X136942652Y-126028179D01*
X136833092Y-125957771D01*
X136708136Y-125921081D01*
X136577902Y-125921081D01*
X136452945Y-125957771D01*
X136421562Y-125977940D01*
X136371386Y-125989272D01*
X136325665Y-125965700D01*
X136312503Y-125945917D01*
X136274921Y-125863626D01*
X136274919Y-125863623D01*
X136189633Y-125765198D01*
X136093959Y-125703714D01*
X136080076Y-125694792D01*
X136080074Y-125694791D01*
X136080072Y-125694790D01*
X136062947Y-125689761D01*
X136021525Y-125659260D01*
X136009400Y-125609270D01*
X136015732Y-125586368D01*
X136024217Y-125567790D01*
X136057062Y-125495870D01*
X136059471Y-125479112D01*
X144608794Y-125479112D01*
X144627328Y-125608024D01*
X144681429Y-125726486D01*
X144681431Y-125726489D01*
X144730545Y-125783169D01*
X144764019Y-125821801D01*
X144766717Y-125824914D01*
X144813675Y-125855091D01*
X144871415Y-125892198D01*
X144876277Y-125895322D01*
X145001234Y-125932013D01*
X145131468Y-125932013D01*
X145256424Y-125895322D01*
X145256424Y-125895321D01*
X145256427Y-125895321D01*
X145365987Y-125824912D01*
X145451272Y-125726487D01*
X145505374Y-125608022D01*
X145523908Y-125479113D01*
X145523460Y-125476000D01*
X177850443Y-125476000D01*
X177868977Y-125604911D01*
X177923078Y-125723373D01*
X177923080Y-125723376D01*
X178008366Y-125821801D01*
X178060168Y-125855091D01*
X178117913Y-125892201D01*
X178117926Y-125892209D01*
X178242883Y-125928900D01*
X178373117Y-125928900D01*
X178498073Y-125892209D01*
X178498073Y-125892208D01*
X178498076Y-125892208D01*
X178607636Y-125821799D01*
X178692921Y-125723374D01*
X178747023Y-125604909D01*
X178765557Y-125476000D01*
X178747023Y-125347091D01*
X178741139Y-125334208D01*
X178692921Y-125228626D01*
X178692919Y-125228623D01*
X178610333Y-125133314D01*
X178607636Y-125130201D01*
X178607635Y-125130200D01*
X178607633Y-125130198D01*
X178498073Y-125059790D01*
X178373117Y-125023100D01*
X178242883Y-125023100D01*
X178117926Y-125059790D01*
X178008366Y-125130198D01*
X177923080Y-125228623D01*
X177923078Y-125228626D01*
X177868977Y-125347088D01*
X177850443Y-125476000D01*
X145523460Y-125476000D01*
X145505374Y-125350204D01*
X145503952Y-125347091D01*
X145451272Y-125231739D01*
X145451270Y-125231736D01*
X145393525Y-125165095D01*
X145365987Y-125133314D01*
X145365986Y-125133313D01*
X145365984Y-125133311D01*
X145256424Y-125062903D01*
X145131468Y-125026213D01*
X145001234Y-125026213D01*
X144876277Y-125062903D01*
X144766717Y-125133311D01*
X144681431Y-125231736D01*
X144681429Y-125231739D01*
X144627328Y-125350201D01*
X144608794Y-125479112D01*
X136059471Y-125479112D01*
X136075596Y-125366961D01*
X136057062Y-125238052D01*
X136055898Y-125235504D01*
X136002960Y-125119587D01*
X136002958Y-125119584D01*
X135939985Y-125046909D01*
X135917675Y-125021162D01*
X135917674Y-125021161D01*
X135917672Y-125021159D01*
X135808112Y-124950751D01*
X135696571Y-124918000D01*
X152444837Y-124918000D01*
X152463371Y-125046911D01*
X152517472Y-125165373D01*
X152517474Y-125165376D01*
X152602760Y-125263801D01*
X152712320Y-125334209D01*
X152837277Y-125370900D01*
X152967511Y-125370900D01*
X153092467Y-125334209D01*
X153092467Y-125334208D01*
X153092470Y-125334208D01*
X153202030Y-125263799D01*
X153287315Y-125165374D01*
X153341417Y-125046909D01*
X153359951Y-124918000D01*
X153341417Y-124789091D01*
X153339640Y-124785201D01*
X153287315Y-124670626D01*
X153287313Y-124670623D01*
X153225800Y-124599633D01*
X153202030Y-124572201D01*
X153202029Y-124572200D01*
X153202027Y-124572198D01*
X153092467Y-124501790D01*
X152967511Y-124465100D01*
X152837277Y-124465100D01*
X152712320Y-124501790D01*
X152602760Y-124572198D01*
X152517474Y-124670623D01*
X152517472Y-124670626D01*
X152463371Y-124789088D01*
X152444837Y-124918000D01*
X135696571Y-124918000D01*
X135683156Y-124914061D01*
X135552922Y-124914061D01*
X135427965Y-124950751D01*
X135318405Y-125021159D01*
X135233119Y-125119584D01*
X135233117Y-125119587D01*
X135179016Y-125238049D01*
X135160482Y-125366961D01*
X135176551Y-125478726D01*
X135166015Y-125529076D01*
X135125580Y-125560874D01*
X135080930Y-125561582D01*
X134977117Y-125531100D01*
X134846883Y-125531100D01*
X134721926Y-125567790D01*
X134612366Y-125638198D01*
X134568832Y-125688440D01*
X134523882Y-125713449D01*
X134473371Y-125703714D01*
X134455168Y-125688440D01*
X134430890Y-125660422D01*
X134411636Y-125638201D01*
X134411635Y-125638200D01*
X134411633Y-125638198D01*
X134302073Y-125567790D01*
X134177117Y-125531100D01*
X134046883Y-125531100D01*
X133921926Y-125567790D01*
X133812366Y-125638198D01*
X133727080Y-125736623D01*
X133727078Y-125736626D01*
X133672741Y-125855607D01*
X133636657Y-125892267D01*
X133585450Y-125897157D01*
X133563682Y-125887630D01*
X133487873Y-125838912D01*
X133362917Y-125802222D01*
X133232683Y-125802222D01*
X133107726Y-125838912D01*
X132998166Y-125909320D01*
X132912880Y-126007745D01*
X132912878Y-126007748D01*
X132858777Y-126126210D01*
X132840243Y-126255122D01*
X131647234Y-126255122D01*
X131648557Y-126245920D01*
X131630023Y-126117011D01*
X131612952Y-126079632D01*
X131575921Y-125998546D01*
X131575919Y-125998543D01*
X131508798Y-125921081D01*
X131490636Y-125900121D01*
X131490635Y-125900120D01*
X131490633Y-125900118D01*
X131381073Y-125829710D01*
X131256117Y-125793020D01*
X131125883Y-125793020D01*
X131000926Y-125829710D01*
X130891366Y-125900118D01*
X130806080Y-125998543D01*
X130806078Y-125998546D01*
X130751977Y-126117008D01*
X130733443Y-126245920D01*
X129966300Y-126245920D01*
X129903253Y-126173159D01*
X129883221Y-126150041D01*
X129883220Y-126150040D01*
X129883218Y-126150038D01*
X129773658Y-126079630D01*
X129648702Y-126042940D01*
X129518468Y-126042940D01*
X129393511Y-126079630D01*
X129283951Y-126150038D01*
X129198665Y-126248463D01*
X129198663Y-126248466D01*
X129144562Y-126366928D01*
X129126028Y-126495840D01*
X114230141Y-126495840D01*
X114231023Y-126493909D01*
X114249557Y-126365000D01*
X114231023Y-126236091D01*
X114228867Y-126231371D01*
X114176921Y-126117626D01*
X114176919Y-126117623D01*
X114091633Y-126019198D01*
X113982073Y-125948790D01*
X113857117Y-125912100D01*
X113726883Y-125912100D01*
X113601926Y-125948790D01*
X113492366Y-126019198D01*
X113407080Y-126117623D01*
X113407078Y-126117626D01*
X113352977Y-126236088D01*
X113334443Y-126365000D01*
X108204500Y-126365000D01*
X108204500Y-124819296D01*
X112551843Y-124819296D01*
X112552614Y-124824657D01*
X112570377Y-124948207D01*
X112624478Y-125066669D01*
X112624480Y-125066672D01*
X112709766Y-125165097D01*
X112772428Y-125205366D01*
X112813465Y-125231739D01*
X112819326Y-125235505D01*
X112944283Y-125272196D01*
X113074517Y-125272196D01*
X113199473Y-125235505D01*
X113199473Y-125235504D01*
X113199476Y-125235504D01*
X113308602Y-125165374D01*
X113309033Y-125165097D01*
X113309033Y-125165096D01*
X113309036Y-125165095D01*
X113394321Y-125066670D01*
X113448423Y-124948205D01*
X113466957Y-124819296D01*
X113448423Y-124690387D01*
X113439398Y-124670626D01*
X113394321Y-124571922D01*
X113394319Y-124571919D01*
X113336553Y-124505254D01*
X113309036Y-124473497D01*
X113309035Y-124473496D01*
X113309033Y-124473494D01*
X113288035Y-124460000D01*
X122224443Y-124460000D01*
X122230451Y-124501790D01*
X122242977Y-124588911D01*
X122297078Y-124707373D01*
X122297080Y-124707376D01*
X122347136Y-124765143D01*
X122378285Y-124801092D01*
X122382366Y-124805801D01*
X122459869Y-124855608D01*
X122490721Y-124875435D01*
X122491926Y-124876209D01*
X122616883Y-124912900D01*
X122747117Y-124912900D01*
X122872073Y-124876209D01*
X122872073Y-124876208D01*
X122872076Y-124876208D01*
X122975055Y-124810028D01*
X122981633Y-124805801D01*
X122981633Y-124805800D01*
X122981636Y-124805799D01*
X123066921Y-124707374D01*
X123121023Y-124588909D01*
X123139557Y-124460000D01*
X123121023Y-124331091D01*
X123088665Y-124260239D01*
X123066921Y-124212626D01*
X123066919Y-124212623D01*
X122983866Y-124116775D01*
X122981636Y-124114201D01*
X122981635Y-124114200D01*
X122981633Y-124114198D01*
X122872073Y-124043790D01*
X122747117Y-124007100D01*
X122616883Y-124007100D01*
X122491926Y-124043790D01*
X122382366Y-124114198D01*
X122297080Y-124212623D01*
X122297078Y-124212626D01*
X122242977Y-124331088D01*
X122225396Y-124453373D01*
X122224443Y-124460000D01*
X113288035Y-124460000D01*
X113199473Y-124403086D01*
X113074517Y-124366396D01*
X112944283Y-124366396D01*
X112819326Y-124403086D01*
X112709766Y-124473494D01*
X112624480Y-124571919D01*
X112624478Y-124571922D01*
X112570377Y-124690384D01*
X112552019Y-124818070D01*
X112551843Y-124819296D01*
X108204500Y-124819296D01*
X108204500Y-123444000D01*
X113842443Y-123444000D01*
X113847504Y-123479200D01*
X113860977Y-123572911D01*
X113915078Y-123691373D01*
X113915080Y-123691376D01*
X114000366Y-123789801D01*
X114071127Y-123835275D01*
X114109913Y-123860201D01*
X114109926Y-123860209D01*
X114234883Y-123896900D01*
X114365117Y-123896900D01*
X114490073Y-123860209D01*
X114490073Y-123860208D01*
X114490076Y-123860208D01*
X114599636Y-123789799D01*
X114684921Y-123691374D01*
X114684922Y-123691370D01*
X114685852Y-123690298D01*
X114730803Y-123665288D01*
X114781313Y-123675022D01*
X114783340Y-123676280D01*
X114871926Y-123733209D01*
X114996883Y-123769900D01*
X115127117Y-123769900D01*
X115252073Y-123733209D01*
X115252073Y-123733208D01*
X115252076Y-123733208D01*
X115361636Y-123662799D01*
X115446921Y-123564374D01*
X115501023Y-123445909D01*
X115519557Y-123317000D01*
X115501297Y-123190000D01*
X116890443Y-123190000D01*
X116908977Y-123318911D01*
X116963078Y-123437373D01*
X116963080Y-123437376D01*
X116999321Y-123479200D01*
X117047640Y-123534964D01*
X117048366Y-123535801D01*
X117103317Y-123571115D01*
X117157913Y-123606201D01*
X117157926Y-123606209D01*
X117282883Y-123642900D01*
X117413117Y-123642900D01*
X117538073Y-123606209D01*
X117538073Y-123606208D01*
X117538076Y-123606208D01*
X117647636Y-123535799D01*
X117732921Y-123437374D01*
X117787023Y-123318909D01*
X117805557Y-123190000D01*
X119938443Y-123190000D01*
X119943504Y-123225198D01*
X119956977Y-123318911D01*
X120011078Y-123437373D01*
X120011080Y-123437376D01*
X120047321Y-123479200D01*
X120095640Y-123534964D01*
X120096366Y-123535801D01*
X120151317Y-123571115D01*
X120205913Y-123606201D01*
X120205926Y-123606209D01*
X120330883Y-123642900D01*
X120461117Y-123642900D01*
X120586073Y-123606209D01*
X120586073Y-123606208D01*
X120586076Y-123606208D01*
X120640861Y-123571000D01*
X129209443Y-123571000D01*
X129209718Y-123572911D01*
X129227977Y-123699911D01*
X129282078Y-123818373D01*
X129282080Y-123818376D01*
X129367366Y-123916801D01*
X129425109Y-123953909D01*
X129476913Y-123987201D01*
X129476926Y-123987209D01*
X129601883Y-124023900D01*
X129732117Y-124023900D01*
X129857073Y-123987209D01*
X129857073Y-123987208D01*
X129857076Y-123987208D01*
X129944532Y-123931004D01*
X135940443Y-123931004D01*
X135958977Y-124059915D01*
X136013078Y-124178377D01*
X136013080Y-124178380D01*
X136067521Y-124241208D01*
X136086146Y-124262703D01*
X136098366Y-124276805D01*
X136150784Y-124310491D01*
X136185809Y-124333000D01*
X136207926Y-124347213D01*
X136332883Y-124383904D01*
X136463117Y-124383904D01*
X136588073Y-124347213D01*
X136588073Y-124347212D01*
X136588076Y-124347212D01*
X136697636Y-124276803D01*
X136709853Y-124262703D01*
X136754802Y-124237693D01*
X136805312Y-124247426D01*
X136823516Y-124262700D01*
X136883818Y-124332293D01*
X136885007Y-124333665D01*
X136994567Y-124404073D01*
X137119524Y-124440764D01*
X137249758Y-124440764D01*
X137374714Y-124404073D01*
X137374714Y-124404072D01*
X137374717Y-124404072D01*
X137484277Y-124333663D01*
X137484851Y-124333000D01*
X160578443Y-124333000D01*
X160596977Y-124461911D01*
X160651078Y-124580373D01*
X160651080Y-124580376D01*
X160736366Y-124678801D01*
X160809800Y-124725993D01*
X160843319Y-124747534D01*
X160845926Y-124749209D01*
X160970883Y-124785900D01*
X161101117Y-124785900D01*
X161226073Y-124749209D01*
X161226073Y-124749208D01*
X161226076Y-124749208D01*
X161335636Y-124678799D01*
X161420921Y-124580374D01*
X161475023Y-124461909D01*
X161478259Y-124439400D01*
X162229443Y-124439400D01*
X162247977Y-124568311D01*
X162302078Y-124686773D01*
X162302080Y-124686776D01*
X162387366Y-124785201D01*
X162465668Y-124835521D01*
X162488241Y-124850028D01*
X162496926Y-124855609D01*
X162621883Y-124892300D01*
X162752117Y-124892300D01*
X162877073Y-124855609D01*
X162877073Y-124855608D01*
X162877076Y-124855608D01*
X162986636Y-124785199D01*
X163071921Y-124686774D01*
X163126023Y-124568309D01*
X163144557Y-124439400D01*
X163130373Y-124340750D01*
X163140909Y-124290405D01*
X163181343Y-124258607D01*
X163232757Y-124260239D01*
X163261640Y-124280806D01*
X163276366Y-124297801D01*
X163334109Y-124334909D01*
X163385603Y-124368002D01*
X163385926Y-124368209D01*
X163510883Y-124404900D01*
X163641117Y-124404900D01*
X163766073Y-124368209D01*
X163766073Y-124368208D01*
X163766076Y-124368208D01*
X163875636Y-124297799D01*
X163955180Y-124206000D01*
X169976443Y-124206000D01*
X169994977Y-124334911D01*
X170049078Y-124453373D01*
X170049080Y-124453376D01*
X170134366Y-124551801D01*
X170243926Y-124622209D01*
X170368883Y-124658900D01*
X170499117Y-124658900D01*
X170624073Y-124622209D01*
X170624073Y-124622208D01*
X170624076Y-124622208D01*
X170733636Y-124551799D01*
X170818921Y-124453374D01*
X170869544Y-124342527D01*
X176543511Y-124342527D01*
X176546866Y-124368002D01*
X176547188Y-124372915D01*
X176547189Y-124431004D01*
X176547190Y-124431012D01*
X176558184Y-124479173D01*
X176557325Y-124486028D01*
X176560299Y-124493208D01*
X176564138Y-124505254D01*
X176572290Y-124540967D01*
X176572293Y-124540977D01*
X176600544Y-124599633D01*
X176601290Y-124607087D01*
X176604203Y-124610883D01*
X176612294Y-124624029D01*
X176621234Y-124642591D01*
X176669897Y-124703607D01*
X176672568Y-124711557D01*
X176674734Y-124713219D01*
X176687748Y-124725990D01*
X176691562Y-124730772D01*
X176691563Y-124730773D01*
X176696341Y-124734583D01*
X176709112Y-124747594D01*
X176710760Y-124749742D01*
X176718725Y-124752431D01*
X176740158Y-124769522D01*
X176779751Y-124801093D01*
X176798308Y-124810028D01*
X176811460Y-124818120D01*
X176814820Y-124820697D01*
X176821639Y-124821272D01*
X176822693Y-124821768D01*
X176881375Y-124850024D01*
X176917111Y-124858178D01*
X176929148Y-124862014D01*
X176935101Y-124864479D01*
X176940637Y-124863591D01*
X176943142Y-124864118D01*
X176991340Y-124875116D01*
X177044133Y-124875112D01*
X177049049Y-124875112D01*
X177053975Y-124875435D01*
X177076500Y-124878407D01*
X177084005Y-124875217D01*
X177087983Y-124875112D01*
X177276715Y-124875112D01*
X177286604Y-124878711D01*
X177311302Y-124875458D01*
X177316217Y-124875135D01*
X177317736Y-124875134D01*
X177317736Y-124875136D01*
X177374129Y-124875132D01*
X177374131Y-124875131D01*
X177374134Y-124875131D01*
X177422700Y-124864043D01*
X177429460Y-124864889D01*
X177436451Y-124861993D01*
X177448492Y-124858154D01*
X177484087Y-124850028D01*
X177542968Y-124821668D01*
X177550369Y-124820927D01*
X177554093Y-124818070D01*
X177567235Y-124809980D01*
X177585702Y-124801087D01*
X177646858Y-124752313D01*
X177654769Y-124749655D01*
X177656397Y-124747534D01*
X177669168Y-124734520D01*
X177673880Y-124730763D01*
X177677635Y-124726053D01*
X177690650Y-124713279D01*
X177692755Y-124711663D01*
X177695431Y-124703737D01*
X177744200Y-124642582D01*
X177753085Y-124624130D01*
X177761179Y-124610978D01*
X177763704Y-124607686D01*
X177764276Y-124600914D01*
X177764776Y-124599854D01*
X177793136Y-124540964D01*
X177801262Y-124505362D01*
X177805099Y-124493326D01*
X177807490Y-124487552D01*
X177806617Y-124482102D01*
X177807147Y-124479582D01*
X177808560Y-124473389D01*
X177818235Y-124431005D01*
X177818235Y-124420000D01*
X193504435Y-124420000D01*
X193524631Y-124599252D01*
X193524633Y-124599260D01*
X193569003Y-124726061D01*
X193584211Y-124769522D01*
X193644134Y-124864889D01*
X193680185Y-124922264D01*
X193807735Y-125049814D01*
X193807737Y-125049815D01*
X193807738Y-125049816D01*
X193960478Y-125145789D01*
X194130745Y-125205368D01*
X194265046Y-125220500D01*
X194265048Y-125220500D01*
X194354952Y-125220500D01*
X194354954Y-125220500D01*
X194489255Y-125205368D01*
X194659522Y-125145789D01*
X194812262Y-125049816D01*
X194939816Y-124922262D01*
X195035789Y-124769522D01*
X195095368Y-124599255D01*
X195115565Y-124420000D01*
X195113770Y-124404073D01*
X195105837Y-124333663D01*
X195095368Y-124240745D01*
X195035789Y-124070478D01*
X194939816Y-123917738D01*
X194939815Y-123917737D01*
X194939814Y-123917735D01*
X194812264Y-123790185D01*
X194753243Y-123753100D01*
X194659522Y-123694211D01*
X194648339Y-123690298D01*
X194489260Y-123634633D01*
X194489252Y-123634631D01*
X194389058Y-123623342D01*
X194354954Y-123619500D01*
X194265046Y-123619500D01*
X194234784Y-123622909D01*
X194130747Y-123634631D01*
X194130739Y-123634633D01*
X193960480Y-123694210D01*
X193960478Y-123694210D01*
X193960478Y-123694211D01*
X193943903Y-123704626D01*
X193807735Y-123790185D01*
X193680185Y-123917735D01*
X193654494Y-123958623D01*
X193590850Y-124059913D01*
X193584210Y-124070480D01*
X193524633Y-124240739D01*
X193524631Y-124240747D01*
X193504435Y-124419999D01*
X193504435Y-124420000D01*
X177818235Y-124420000D01*
X177818236Y-124374612D01*
X177818236Y-124374112D01*
X177818236Y-124373266D01*
X177818558Y-124368361D01*
X177821503Y-124346025D01*
X177818341Y-124338585D01*
X177818236Y-124334617D01*
X177818236Y-123489476D01*
X181143252Y-123489476D01*
X181161786Y-123618387D01*
X181215887Y-123736849D01*
X181215889Y-123736852D01*
X181272420Y-123802092D01*
X181286527Y-123818373D01*
X181301175Y-123835277D01*
X181410735Y-123905685D01*
X181535692Y-123942376D01*
X181665926Y-123942376D01*
X181790882Y-123905685D01*
X181790882Y-123905684D01*
X181790885Y-123905684D01*
X181900445Y-123835275D01*
X181985730Y-123736850D01*
X182039832Y-123618385D01*
X182058366Y-123489476D01*
X182039832Y-123360567D01*
X182022961Y-123323626D01*
X181985730Y-123242102D01*
X181985728Y-123242099D01*
X181900442Y-123143674D01*
X181790882Y-123073266D01*
X181665926Y-123036576D01*
X181535692Y-123036576D01*
X181410735Y-123073266D01*
X181301175Y-123143674D01*
X181215889Y-123242099D01*
X181215887Y-123242102D01*
X181161786Y-123360564D01*
X181143252Y-123489476D01*
X177818236Y-123489476D01*
X177818236Y-122957818D01*
X178915100Y-122957818D01*
X178930468Y-123069626D01*
X178930599Y-123070577D01*
X178991150Y-123209980D01*
X179087068Y-123327878D01*
X179087070Y-123327880D01*
X179211231Y-123415522D01*
X179211234Y-123415523D01*
X179211239Y-123415527D01*
X179354452Y-123466425D01*
X179506086Y-123476797D01*
X179608838Y-123455444D01*
X179654892Y-123445875D01*
X179654892Y-123445874D01*
X179654896Y-123445874D01*
X179789844Y-123375949D01*
X179900923Y-123272209D01*
X179979894Y-123142347D01*
X179992961Y-123095711D01*
X180020900Y-122995995D01*
X180020900Y-122282187D01*
X180020900Y-122282182D01*
X180005402Y-122169427D01*
X179994632Y-122144632D01*
X179953815Y-122050660D01*
X179950694Y-121999315D01*
X179981307Y-121957976D01*
X180022789Y-121945500D01*
X180185717Y-121945500D01*
X180185720Y-121945500D01*
X180298236Y-121930687D01*
X180438233Y-121872698D01*
X180558451Y-121780451D01*
X180650698Y-121660233D01*
X180701141Y-121538454D01*
X181016899Y-121538454D01*
X181035433Y-121667365D01*
X181089534Y-121785827D01*
X181089536Y-121785830D01*
X181174822Y-121884255D01*
X181242491Y-121927742D01*
X181270123Y-121945500D01*
X181284382Y-121954663D01*
X181409339Y-121991354D01*
X181539573Y-121991354D01*
X181664529Y-121954663D01*
X181664529Y-121954662D01*
X181664532Y-121954662D01*
X181774092Y-121884253D01*
X181859377Y-121785828D01*
X181913479Y-121667363D01*
X181932013Y-121538454D01*
X181913479Y-121409545D01*
X181909494Y-121400820D01*
X181895419Y-121370000D01*
X186617534Y-121370000D01*
X186637313Y-121520237D01*
X186644859Y-121538454D01*
X186695302Y-121660233D01*
X186695303Y-121660235D01*
X186695304Y-121660236D01*
X186787548Y-121780451D01*
X186896498Y-121864051D01*
X186907767Y-121872698D01*
X187047764Y-121930687D01*
X187160280Y-121945500D01*
X187160283Y-121945500D01*
X187174889Y-121945500D01*
X187223227Y-121963093D01*
X187248947Y-122007642D01*
X187240014Y-122058300D01*
X187239141Y-122059773D01*
X187216104Y-122097654D01*
X187216104Y-122097655D01*
X187175100Y-122244004D01*
X187175100Y-122244005D01*
X187175100Y-122244006D01*
X187175100Y-122957818D01*
X187190468Y-123069626D01*
X187190599Y-123070577D01*
X187251150Y-123209980D01*
X187347068Y-123327878D01*
X187347070Y-123327880D01*
X187471231Y-123415522D01*
X187471234Y-123415523D01*
X187471239Y-123415527D01*
X187614452Y-123466425D01*
X187766086Y-123476797D01*
X187868838Y-123455444D01*
X187914892Y-123445875D01*
X187914892Y-123445874D01*
X187914896Y-123445874D01*
X188049844Y-123375949D01*
X188160923Y-123272209D01*
X188239894Y-123142347D01*
X188252961Y-123095711D01*
X188280900Y-122995995D01*
X188280900Y-122282187D01*
X188280900Y-122282182D01*
X188265402Y-122169427D01*
X188240522Y-122112148D01*
X188212225Y-122047000D01*
X188204850Y-122030021D01*
X188204849Y-122030020D01*
X188204849Y-122030019D01*
X188108931Y-121912121D01*
X188108929Y-121912119D01*
X187984768Y-121824477D01*
X187984763Y-121824474D01*
X187984761Y-121824473D01*
X187896202Y-121792999D01*
X187841549Y-121773575D01*
X187763306Y-121768223D01*
X187716282Y-121747372D01*
X187693662Y-121701172D01*
X187698963Y-121664420D01*
X187700696Y-121660234D01*
X187700698Y-121660233D01*
X187758687Y-121520236D01*
X187778466Y-121370000D01*
X187758687Y-121219764D01*
X187700698Y-121079767D01*
X187661813Y-121029091D01*
X187608451Y-120959548D01*
X187488236Y-120867304D01*
X187488235Y-120867303D01*
X187488233Y-120867302D01*
X187397734Y-120829816D01*
X187348237Y-120809313D01*
X187320107Y-120805609D01*
X187235720Y-120794500D01*
X187160280Y-120794500D01*
X187092770Y-120803387D01*
X187047762Y-120809313D01*
X186948766Y-120850319D01*
X186907767Y-120867302D01*
X186907766Y-120867302D01*
X186907763Y-120867304D01*
X186787548Y-120959548D01*
X186695304Y-121079763D01*
X186637313Y-121219762D01*
X186617534Y-121370000D01*
X181895419Y-121370000D01*
X181859377Y-121291080D01*
X181859375Y-121291077D01*
X181792971Y-121214443D01*
X181774092Y-121192655D01*
X181774091Y-121192654D01*
X181774089Y-121192652D01*
X181664529Y-121122244D01*
X181539573Y-121085554D01*
X181409339Y-121085554D01*
X181284382Y-121122244D01*
X181174822Y-121192652D01*
X181089536Y-121291077D01*
X181089534Y-121291080D01*
X181035433Y-121409542D01*
X181016899Y-121538454D01*
X180701141Y-121538454D01*
X180708687Y-121520236D01*
X180728466Y-121370000D01*
X180708687Y-121219764D01*
X180650698Y-121079767D01*
X180611813Y-121029091D01*
X180558451Y-120959548D01*
X180438236Y-120867304D01*
X180438235Y-120867303D01*
X180438233Y-120867302D01*
X180347734Y-120829816D01*
X180298237Y-120809313D01*
X180270106Y-120805609D01*
X180185720Y-120794500D01*
X179810280Y-120794500D01*
X179742770Y-120803387D01*
X179697762Y-120809313D01*
X179598766Y-120850319D01*
X179557767Y-120867302D01*
X179557766Y-120867302D01*
X179557763Y-120867304D01*
X179437548Y-120959548D01*
X179345304Y-121079763D01*
X179287313Y-121219762D01*
X179267534Y-121369999D01*
X179287313Y-121520237D01*
X179297830Y-121545626D01*
X179340316Y-121648197D01*
X179345304Y-121660237D01*
X179352159Y-121669170D01*
X179367628Y-121718229D01*
X179347944Y-121765753D01*
X179307802Y-121788577D01*
X179281106Y-121794125D01*
X179146153Y-121864052D01*
X179035075Y-121967792D01*
X179035074Y-121967793D01*
X178956104Y-122097654D01*
X178956104Y-122097655D01*
X178915100Y-122244004D01*
X178915100Y-122244005D01*
X178915100Y-122244006D01*
X178915100Y-122957818D01*
X177818236Y-122957818D01*
X177818236Y-119420000D01*
X193504435Y-119420000D01*
X193524631Y-119599252D01*
X193524633Y-119599260D01*
X193539107Y-119640623D01*
X193584211Y-119769522D01*
X193600980Y-119796209D01*
X193680185Y-119922264D01*
X193807735Y-120049814D01*
X193807737Y-120049815D01*
X193807738Y-120049816D01*
X193960478Y-120145789D01*
X194130745Y-120205368D01*
X194265046Y-120220500D01*
X194265048Y-120220500D01*
X194354952Y-120220500D01*
X194354954Y-120220500D01*
X194489255Y-120205368D01*
X194659522Y-120145789D01*
X194812262Y-120049816D01*
X194939816Y-119922262D01*
X195035789Y-119769522D01*
X195095368Y-119599255D01*
X195115565Y-119420000D01*
X195095368Y-119240745D01*
X195035789Y-119070478D01*
X194939816Y-118917738D01*
X194939815Y-118917737D01*
X194939814Y-118917735D01*
X194812264Y-118790185D01*
X194742268Y-118746204D01*
X194659522Y-118694211D01*
X194648923Y-118690502D01*
X194489260Y-118634633D01*
X194489252Y-118634631D01*
X194389058Y-118623342D01*
X194354954Y-118619500D01*
X194265046Y-118619500D01*
X194234783Y-118622909D01*
X194130747Y-118634631D01*
X194130739Y-118634633D01*
X193960480Y-118694210D01*
X193807735Y-118790185D01*
X193680185Y-118917735D01*
X193584210Y-119070480D01*
X193524633Y-119240739D01*
X193524631Y-119240747D01*
X193504435Y-119419999D01*
X193504435Y-119420000D01*
X177818236Y-119420000D01*
X177818236Y-118813130D01*
X177821981Y-118802837D01*
X177818610Y-118777257D01*
X177818287Y-118772343D01*
X177818287Y-118770612D01*
X177818288Y-118770612D01*
X177818280Y-118714218D01*
X177807295Y-118666122D01*
X177808154Y-118659255D01*
X177805171Y-118652055D01*
X177801332Y-118640014D01*
X177793166Y-118604264D01*
X177793166Y-118604263D01*
X177793166Y-118604262D01*
X177764928Y-118545641D01*
X177764181Y-118538180D01*
X177761260Y-118534374D01*
X177753166Y-118521223D01*
X177753002Y-118520883D01*
X177744219Y-118502648D01*
X177695577Y-118441662D01*
X177692905Y-118433710D01*
X177690735Y-118432045D01*
X177677724Y-118419276D01*
X177673894Y-118414475D01*
X177673889Y-118414469D01*
X177669082Y-118410636D01*
X177656313Y-118397628D01*
X177654660Y-118395475D01*
X177646695Y-118392785D01*
X177585712Y-118344156D01*
X177585708Y-118344153D01*
X177567119Y-118335201D01*
X177553975Y-118327112D01*
X177550595Y-118324519D01*
X177543759Y-118323942D01*
X177542705Y-118323444D01*
X177484094Y-118295218D01*
X177484086Y-118295215D01*
X177448339Y-118287055D01*
X177436298Y-118283217D01*
X177430300Y-118280732D01*
X177424740Y-118281623D01*
X177422229Y-118281094D01*
X177374134Y-118270115D01*
X177374127Y-118270114D01*
X177320461Y-118270112D01*
X177317835Y-118270112D01*
X177316423Y-118270112D01*
X177311495Y-118269788D01*
X177288956Y-118266810D01*
X177281434Y-118270007D01*
X177277466Y-118270112D01*
X177086199Y-118270112D01*
X177076994Y-118266761D01*
X177053981Y-118269790D01*
X177049071Y-118270112D01*
X177040749Y-118270112D01*
X177040505Y-118270134D01*
X176991345Y-118270132D01*
X176991342Y-118270132D01*
X176941925Y-118281408D01*
X176935357Y-118280584D01*
X176928725Y-118283331D01*
X176916682Y-118287168D01*
X176881388Y-118295221D01*
X176822031Y-118323803D01*
X176814734Y-118324532D01*
X176811154Y-118327280D01*
X176798006Y-118335370D01*
X176779770Y-118344151D01*
X176779763Y-118344155D01*
X176718321Y-118393151D01*
X176710477Y-118395786D01*
X176708908Y-118397831D01*
X176696139Y-118410840D01*
X176691590Y-118414467D01*
X176687957Y-118419023D01*
X176674947Y-118431790D01*
X176672921Y-118433344D01*
X176670266Y-118441205D01*
X176621268Y-118502644D01*
X176621265Y-118502649D01*
X176612484Y-118520883D01*
X176604392Y-118534033D01*
X176601974Y-118537183D01*
X176601412Y-118543853D01*
X176600912Y-118544912D01*
X176572333Y-118604257D01*
X176572330Y-118604264D01*
X176564274Y-118639565D01*
X176560435Y-118651608D01*
X176558197Y-118657008D01*
X176559044Y-118662280D01*
X176558514Y-118664799D01*
X176547236Y-118714218D01*
X176547235Y-118714222D01*
X176547235Y-118771943D01*
X176546914Y-118776847D01*
X176544026Y-118798818D01*
X176547130Y-118806113D01*
X176547236Y-118810110D01*
X176547236Y-124332293D01*
X176543511Y-124342527D01*
X170869544Y-124342527D01*
X170873023Y-124334909D01*
X170891557Y-124206000D01*
X170873023Y-124077091D01*
X170870868Y-124072373D01*
X170818921Y-123958626D01*
X170818919Y-123958623D01*
X170750878Y-123880100D01*
X170733636Y-123860201D01*
X170733635Y-123860200D01*
X170733633Y-123860198D01*
X170624073Y-123789790D01*
X170499117Y-123753100D01*
X170368883Y-123753100D01*
X170243926Y-123789790D01*
X170134366Y-123860198D01*
X170049080Y-123958623D01*
X170049078Y-123958626D01*
X169994977Y-124077088D01*
X169976443Y-124206000D01*
X163955180Y-124206000D01*
X163960921Y-124199374D01*
X164015023Y-124080909D01*
X164033557Y-123952000D01*
X164015023Y-123823091D01*
X164012868Y-123818373D01*
X163960921Y-123704626D01*
X163960919Y-123704623D01*
X163900271Y-123634632D01*
X163875636Y-123606201D01*
X163875635Y-123606200D01*
X163875633Y-123606198D01*
X163766073Y-123535790D01*
X163641117Y-123499100D01*
X163510883Y-123499100D01*
X163385926Y-123535790D01*
X163276366Y-123606198D01*
X163191080Y-123704623D01*
X163191078Y-123704626D01*
X163136977Y-123823088D01*
X163128780Y-123880100D01*
X163118443Y-123952000D01*
X163131640Y-124043792D01*
X163132626Y-124050645D01*
X163122090Y-124100995D01*
X163081656Y-124132792D01*
X163030242Y-124131160D01*
X163001359Y-124110593D01*
X162986636Y-124093601D01*
X162986635Y-124093600D01*
X162986633Y-124093598D01*
X162877073Y-124023190D01*
X162752117Y-123986500D01*
X162621883Y-123986500D01*
X162496926Y-124023190D01*
X162387366Y-124093598D01*
X162302080Y-124192023D01*
X162302078Y-124192026D01*
X162247977Y-124310488D01*
X162229443Y-124439400D01*
X161478259Y-124439400D01*
X161493557Y-124333000D01*
X161475023Y-124204091D01*
X161472868Y-124199373D01*
X161420921Y-124085626D01*
X161420919Y-124085623D01*
X161335633Y-123987198D01*
X161226073Y-123916790D01*
X161101117Y-123880100D01*
X160970883Y-123880100D01*
X160845926Y-123916790D01*
X160736366Y-123987198D01*
X160651080Y-124085623D01*
X160651078Y-124085626D01*
X160596977Y-124204088D01*
X160578443Y-124333000D01*
X137484851Y-124333000D01*
X137569562Y-124235238D01*
X137623664Y-124116773D01*
X137642198Y-123987864D01*
X137635732Y-123942894D01*
X137646268Y-123892547D01*
X137686702Y-123860749D01*
X137731354Y-123860040D01*
X137731922Y-123860206D01*
X137731924Y-123860208D01*
X137856883Y-123896900D01*
X137856885Y-123896900D01*
X137987117Y-123896900D01*
X138112073Y-123860209D01*
X138112073Y-123860208D01*
X138112076Y-123860208D01*
X138221636Y-123789799D01*
X138306921Y-123691374D01*
X138361023Y-123572909D01*
X138379557Y-123444000D01*
X138361023Y-123315091D01*
X138358868Y-123310373D01*
X138341438Y-123272206D01*
X138314126Y-123212404D01*
X138310050Y-123161128D01*
X138339887Y-123119226D01*
X138389678Y-123106306D01*
X138403717Y-123109012D01*
X138491883Y-123134900D01*
X138622117Y-123134900D01*
X138747073Y-123098209D01*
X138747073Y-123098208D01*
X138747076Y-123098208D01*
X138856636Y-123027799D01*
X138927359Y-122946180D01*
X147999335Y-122946180D01*
X148001008Y-122957818D01*
X148017869Y-123075091D01*
X148071970Y-123193553D01*
X148071972Y-123193556D01*
X148157258Y-123291981D01*
X148207532Y-123324289D01*
X148238685Y-123365223D01*
X148236238Y-123416604D01*
X148207533Y-123450814D01*
X148163367Y-123479197D01*
X148078080Y-123577623D01*
X148078078Y-123577626D01*
X148023977Y-123696088D01*
X148005443Y-123825000D01*
X148023977Y-123953911D01*
X148078078Y-124072373D01*
X148078080Y-124072376D01*
X148163366Y-124170801D01*
X148228444Y-124212623D01*
X148272194Y-124240739D01*
X148272926Y-124241209D01*
X148397883Y-124277900D01*
X148528117Y-124277900D01*
X148653073Y-124241209D01*
X148653073Y-124241208D01*
X148653076Y-124241208D01*
X148762636Y-124170799D01*
X148847921Y-124072374D01*
X148902023Y-123953909D01*
X148920557Y-123825000D01*
X148902023Y-123696091D01*
X148901164Y-123694211D01*
X148847921Y-123577626D01*
X148847919Y-123577623D01*
X148810954Y-123534964D01*
X148762636Y-123479201D01*
X148712357Y-123446889D01*
X148681206Y-123405956D01*
X148683653Y-123354575D01*
X148712359Y-123320364D01*
X148714620Y-123318911D01*
X148756528Y-123291979D01*
X148841813Y-123193554D01*
X148895915Y-123075089D01*
X148897653Y-123063000D01*
X156006443Y-123063000D01*
X156024977Y-123191911D01*
X156079078Y-123310373D01*
X156079080Y-123310376D01*
X156164366Y-123408801D01*
X156229741Y-123450814D01*
X156273913Y-123479201D01*
X156273926Y-123479209D01*
X156398883Y-123515900D01*
X156529117Y-123515900D01*
X156654073Y-123479209D01*
X156654073Y-123479208D01*
X156654076Y-123479208D01*
X156708861Y-123444000D01*
X157530443Y-123444000D01*
X157535504Y-123479200D01*
X157548977Y-123572911D01*
X157603078Y-123691373D01*
X157603080Y-123691376D01*
X157688366Y-123789801D01*
X157759127Y-123835275D01*
X157797913Y-123860201D01*
X157797926Y-123860209D01*
X157922883Y-123896900D01*
X158053117Y-123896900D01*
X158178073Y-123860209D01*
X158178073Y-123860208D01*
X158178076Y-123860208D01*
X158287636Y-123789799D01*
X158372921Y-123691374D01*
X158427023Y-123572909D01*
X158445557Y-123444000D01*
X174802463Y-123444000D01*
X174807524Y-123479200D01*
X174820997Y-123572911D01*
X174875098Y-123691373D01*
X174875100Y-123691376D01*
X174960386Y-123789801D01*
X175031147Y-123835275D01*
X175069933Y-123860201D01*
X175069946Y-123860209D01*
X175194903Y-123896900D01*
X175325137Y-123896900D01*
X175450093Y-123860209D01*
X175450093Y-123860208D01*
X175450096Y-123860208D01*
X175559656Y-123789799D01*
X175644941Y-123691374D01*
X175699043Y-123572909D01*
X175717577Y-123444000D01*
X175699043Y-123315091D01*
X175696888Y-123310373D01*
X175644941Y-123196626D01*
X175644939Y-123196623D01*
X175591456Y-123134900D01*
X175559656Y-123098201D01*
X175559655Y-123098200D01*
X175559653Y-123098198D01*
X175450093Y-123027790D01*
X175325137Y-122991100D01*
X175194903Y-122991100D01*
X175069946Y-123027790D01*
X174960386Y-123098198D01*
X174875100Y-123196623D01*
X174875098Y-123196626D01*
X174820997Y-123315088D01*
X174814197Y-123362388D01*
X174802463Y-123444000D01*
X158445557Y-123444000D01*
X158427023Y-123315091D01*
X158424868Y-123310373D01*
X158372921Y-123196626D01*
X158372919Y-123196623D01*
X158319436Y-123134900D01*
X158287636Y-123098201D01*
X158287635Y-123098200D01*
X158287633Y-123098198D01*
X158178073Y-123027790D01*
X158053117Y-122991100D01*
X157922883Y-122991100D01*
X157797926Y-123027790D01*
X157688366Y-123098198D01*
X157603080Y-123196623D01*
X157603078Y-123196626D01*
X157548977Y-123315088D01*
X157542177Y-123362388D01*
X157530443Y-123444000D01*
X156708861Y-123444000D01*
X156763636Y-123408799D01*
X156848921Y-123310374D01*
X156903023Y-123191909D01*
X156921557Y-123063000D01*
X156903023Y-122934091D01*
X156900868Y-122929373D01*
X156848921Y-122815626D01*
X156848919Y-122815623D01*
X156763633Y-122717198D01*
X156654073Y-122646790D01*
X156529117Y-122610100D01*
X156398883Y-122610100D01*
X156273926Y-122646790D01*
X156164366Y-122717198D01*
X156079080Y-122815623D01*
X156079078Y-122815626D01*
X156024977Y-122934088D01*
X156006443Y-123063000D01*
X148897653Y-123063000D01*
X148914449Y-122946180D01*
X148895915Y-122817271D01*
X148895162Y-122815623D01*
X148841813Y-122698806D01*
X148841811Y-122698803D01*
X148756526Y-122600379D01*
X148755928Y-122599995D01*
X148755627Y-122599599D01*
X148752459Y-122596854D01*
X148753033Y-122596191D01*
X148724777Y-122559060D01*
X148727227Y-122507678D01*
X148762131Y-122469892D01*
X148775401Y-122464580D01*
X148780076Y-122463208D01*
X148889636Y-122392799D01*
X148974921Y-122294374D01*
X149029023Y-122175909D01*
X149031671Y-122157488D01*
X149055962Y-122112148D01*
X149103716Y-122093028D01*
X149152588Y-122109077D01*
X149162937Y-122118944D01*
X149185196Y-122144632D01*
X149285682Y-122209209D01*
X149294758Y-122215042D01*
X149419715Y-122251733D01*
X149549949Y-122251733D01*
X149674905Y-122215042D01*
X149674905Y-122215041D01*
X149674908Y-122215041D01*
X149784468Y-122144632D01*
X149869753Y-122046207D01*
X149923855Y-121927742D01*
X149942389Y-121798833D01*
X149923855Y-121669924D01*
X149922686Y-121667365D01*
X149913932Y-121648197D01*
X150781640Y-121648197D01*
X150784396Y-121667363D01*
X150800174Y-121777108D01*
X150854275Y-121895570D01*
X150854277Y-121895573D01*
X150939563Y-121993998D01*
X151011731Y-122040376D01*
X151041913Y-122059773D01*
X151049123Y-122064406D01*
X151174080Y-122101097D01*
X151304314Y-122101097D01*
X151429270Y-122064406D01*
X151429270Y-122064405D01*
X151429273Y-122064405D01*
X151538833Y-121993996D01*
X151602950Y-121920000D01*
X160324443Y-121920000D01*
X160342977Y-122048911D01*
X160397078Y-122167373D01*
X160397080Y-122167376D01*
X160482366Y-122265801D01*
X160526828Y-122294374D01*
X160591913Y-122336201D01*
X160591926Y-122336209D01*
X160716883Y-122372900D01*
X160847117Y-122372900D01*
X160972073Y-122336209D01*
X160972073Y-122336208D01*
X160972076Y-122336208D01*
X161081636Y-122265799D01*
X161161180Y-122174000D01*
X167944443Y-122174000D01*
X167962977Y-122302911D01*
X168017078Y-122421373D01*
X168017080Y-122421376D01*
X168102366Y-122519801D01*
X168211926Y-122590209D01*
X168336883Y-122626900D01*
X168467117Y-122626900D01*
X168592073Y-122590209D01*
X168592073Y-122590208D01*
X168592076Y-122590208D01*
X168701636Y-122519799D01*
X168781180Y-122428000D01*
X170738443Y-122428000D01*
X170756977Y-122556911D01*
X170811078Y-122675373D01*
X170811080Y-122675376D01*
X170896366Y-122773801D01*
X170954109Y-122810909D01*
X171005913Y-122844201D01*
X171005926Y-122844209D01*
X171130883Y-122880900D01*
X171261117Y-122880900D01*
X171386073Y-122844209D01*
X171386073Y-122844208D01*
X171386076Y-122844208D01*
X171495636Y-122773799D01*
X171580921Y-122675374D01*
X171635023Y-122556909D01*
X171653557Y-122428000D01*
X171635023Y-122299091D01*
X171632868Y-122294373D01*
X171580921Y-122180626D01*
X171580919Y-122180623D01*
X171509025Y-122097653D01*
X171495636Y-122082201D01*
X171495635Y-122082200D01*
X171495633Y-122082198D01*
X171386073Y-122011790D01*
X171261117Y-121975100D01*
X171130883Y-121975100D01*
X171005926Y-122011790D01*
X170896366Y-122082198D01*
X170811080Y-122180623D01*
X170811078Y-122180626D01*
X170756977Y-122299088D01*
X170738443Y-122428000D01*
X168781180Y-122428000D01*
X168786921Y-122421374D01*
X168841023Y-122302909D01*
X168859557Y-122174000D01*
X168841023Y-122045091D01*
X168838868Y-122040373D01*
X168786921Y-121926626D01*
X168786919Y-121926623D01*
X168701633Y-121828198D01*
X168592073Y-121757790D01*
X168467117Y-121721100D01*
X168336883Y-121721100D01*
X168211926Y-121757790D01*
X168102366Y-121828198D01*
X168017080Y-121926623D01*
X168017078Y-121926626D01*
X167962977Y-122045088D01*
X167944443Y-122174000D01*
X161161180Y-122174000D01*
X161166921Y-122167374D01*
X161221023Y-122048909D01*
X161239557Y-121920000D01*
X161221023Y-121791091D01*
X161218620Y-121785830D01*
X161166921Y-121672626D01*
X161166919Y-121672623D01*
X161081633Y-121574198D01*
X160972073Y-121503790D01*
X160847117Y-121467100D01*
X160716883Y-121467100D01*
X160591926Y-121503790D01*
X160482366Y-121574198D01*
X160397080Y-121672623D01*
X160397078Y-121672626D01*
X160342977Y-121791088D01*
X160324443Y-121920000D01*
X151602950Y-121920000D01*
X151624118Y-121895571D01*
X151678220Y-121777106D01*
X151696754Y-121648197D01*
X151678220Y-121519288D01*
X151671147Y-121503801D01*
X151624118Y-121400823D01*
X151624116Y-121400820D01*
X151576556Y-121345933D01*
X151558015Y-121324536D01*
X151539657Y-121276484D01*
X151556482Y-121227874D01*
X151557973Y-121226095D01*
X151616979Y-121157999D01*
X164754977Y-121157999D01*
X164773511Y-121286911D01*
X164827612Y-121405373D01*
X164827614Y-121405376D01*
X164912900Y-121503801D01*
X164966823Y-121538454D01*
X165022447Y-121574201D01*
X165022460Y-121574209D01*
X165147417Y-121610900D01*
X165277651Y-121610900D01*
X165402607Y-121574209D01*
X165402607Y-121574208D01*
X165402610Y-121574208D01*
X165512170Y-121503799D01*
X165597455Y-121405374D01*
X165651557Y-121286909D01*
X165670091Y-121158000D01*
X165651557Y-121029091D01*
X165646601Y-121018240D01*
X165597455Y-120910626D01*
X165597453Y-120910623D01*
X165561077Y-120868643D01*
X168741799Y-120868643D01*
X168760333Y-120997555D01*
X168814434Y-121116017D01*
X168814436Y-121116020D01*
X168832358Y-121136703D01*
X168898458Y-121212987D01*
X168899722Y-121214445D01*
X169009282Y-121284853D01*
X169134239Y-121321544D01*
X169264473Y-121321544D01*
X169389429Y-121284853D01*
X169389429Y-121284852D01*
X169389432Y-121284852D01*
X169498992Y-121214443D01*
X169584277Y-121116018D01*
X169638379Y-120997553D01*
X169656913Y-120868644D01*
X169638379Y-120739735D01*
X169622561Y-120705100D01*
X169584277Y-120621270D01*
X169584275Y-120621267D01*
X169498989Y-120522842D01*
X169389429Y-120452434D01*
X169264473Y-120415744D01*
X169134239Y-120415744D01*
X169009282Y-120452434D01*
X168899722Y-120522842D01*
X168814436Y-120621267D01*
X168814434Y-120621270D01*
X168760333Y-120739732D01*
X168741799Y-120868643D01*
X165561077Y-120868643D01*
X165512167Y-120812198D01*
X165402607Y-120741790D01*
X165277651Y-120705100D01*
X165147417Y-120705100D01*
X165022460Y-120741790D01*
X164912900Y-120812198D01*
X164827614Y-120910623D01*
X164827612Y-120910626D01*
X164773511Y-121029088D01*
X164754977Y-121157999D01*
X151616979Y-121157999D01*
X151635432Y-121136703D01*
X151689534Y-121018238D01*
X151708068Y-120889329D01*
X151689534Y-120760420D01*
X151680087Y-120739735D01*
X151635432Y-120641955D01*
X151635430Y-120641952D01*
X151550144Y-120543527D01*
X151440584Y-120473119D01*
X151315628Y-120436429D01*
X151185394Y-120436429D01*
X151060437Y-120473119D01*
X150950877Y-120543527D01*
X150865591Y-120641952D01*
X150865589Y-120641955D01*
X150811488Y-120760417D01*
X150792954Y-120889328D01*
X150811488Y-121018240D01*
X150865589Y-121136702D01*
X150865591Y-121136705D01*
X150931690Y-121212987D01*
X150950049Y-121261040D01*
X150933224Y-121309650D01*
X150931691Y-121311478D01*
X150854277Y-121400820D01*
X150854275Y-121400823D01*
X150800174Y-121519285D01*
X150789418Y-121594100D01*
X150781640Y-121648197D01*
X149913932Y-121648197D01*
X149869753Y-121551459D01*
X149869751Y-121551456D01*
X149784465Y-121453031D01*
X149674905Y-121382623D01*
X149549949Y-121345933D01*
X149419715Y-121345933D01*
X149294758Y-121382623D01*
X149185198Y-121453031D01*
X149099912Y-121551456D01*
X149099910Y-121551459D01*
X149045809Y-121669921D01*
X149043161Y-121688344D01*
X149018867Y-121733686D01*
X148971112Y-121752804D01*
X148922240Y-121736753D01*
X148911894Y-121726888D01*
X148889633Y-121701198D01*
X148780073Y-121630790D01*
X148655117Y-121594100D01*
X148524883Y-121594100D01*
X148399926Y-121630790D01*
X148290366Y-121701198D01*
X148205080Y-121799623D01*
X148205078Y-121799626D01*
X148150977Y-121918088D01*
X148137505Y-122011790D01*
X148132443Y-122047000D01*
X148134946Y-122064406D01*
X148150977Y-122175911D01*
X148205078Y-122294373D01*
X148205080Y-122294376D01*
X148212476Y-122302911D01*
X148290364Y-122392799D01*
X148290960Y-122393182D01*
X148291259Y-122393575D01*
X148294433Y-122396326D01*
X148293857Y-122396989D01*
X148322112Y-122434116D01*
X148319665Y-122485498D01*
X148284763Y-122523285D01*
X148271492Y-122528599D01*
X148266816Y-122529971D01*
X148157258Y-122600378D01*
X148071972Y-122698803D01*
X148071970Y-122698806D01*
X148017869Y-122817268D01*
X148001073Y-122934091D01*
X147999335Y-122946180D01*
X138927359Y-122946180D01*
X138941921Y-122929374D01*
X138996023Y-122810909D01*
X139014557Y-122682000D01*
X138996023Y-122553091D01*
X138985464Y-122529971D01*
X138941921Y-122434626D01*
X138941919Y-122434623D01*
X138856633Y-122336198D01*
X138747073Y-122265790D01*
X138622117Y-122229100D01*
X138491883Y-122229100D01*
X138366926Y-122265790D01*
X138257366Y-122336198D01*
X138172080Y-122434623D01*
X138172078Y-122434626D01*
X138117977Y-122553088D01*
X138099443Y-122682000D01*
X138117977Y-122810911D01*
X138164872Y-122913593D01*
X138168949Y-122964871D01*
X138139111Y-123006773D01*
X138089320Y-123019693D01*
X138075282Y-123016987D01*
X137987117Y-122991100D01*
X137856883Y-122991100D01*
X137731926Y-123027790D01*
X137622366Y-123098198D01*
X137537080Y-123196623D01*
X137537078Y-123196626D01*
X137482977Y-123315088D01*
X137464443Y-123444000D01*
X137470908Y-123488968D01*
X137460372Y-123539317D01*
X137419937Y-123571115D01*
X137375287Y-123571823D01*
X137249758Y-123534964D01*
X137119524Y-123534964D01*
X136994567Y-123571654D01*
X136885007Y-123642062D01*
X136872784Y-123656168D01*
X136827831Y-123681175D01*
X136777322Y-123671437D01*
X136759123Y-123656166D01*
X136697636Y-123585205D01*
X136697635Y-123585204D01*
X136697633Y-123585202D01*
X136588073Y-123514794D01*
X136463117Y-123478104D01*
X136332883Y-123478104D01*
X136207926Y-123514794D01*
X136098366Y-123585202D01*
X136013080Y-123683627D01*
X136013078Y-123683630D01*
X135958977Y-123802092D01*
X135940443Y-123931004D01*
X129944532Y-123931004D01*
X129966636Y-123916799D01*
X130051921Y-123818374D01*
X130106023Y-123699909D01*
X130124557Y-123571000D01*
X130106023Y-123442091D01*
X130103868Y-123437373D01*
X130051921Y-123323626D01*
X130051919Y-123323623D01*
X130007368Y-123272209D01*
X129980517Y-123241220D01*
X129962159Y-123193171D01*
X129978983Y-123144560D01*
X130023118Y-123118136D01*
X130058536Y-123119823D01*
X130109883Y-123134900D01*
X130240117Y-123134900D01*
X130365073Y-123098209D01*
X130365073Y-123098208D01*
X130365076Y-123098208D01*
X130474636Y-123027799D01*
X130559921Y-122929374D01*
X130614023Y-122810909D01*
X130632557Y-122682000D01*
X130614023Y-122553091D01*
X130603464Y-122529971D01*
X130559921Y-122434626D01*
X130559919Y-122434623D01*
X130474633Y-122336198D01*
X130365073Y-122265790D01*
X130240117Y-122229100D01*
X130109883Y-122229100D01*
X129984926Y-122265790D01*
X129875366Y-122336198D01*
X129790080Y-122434623D01*
X129790078Y-122434626D01*
X129735977Y-122553088D01*
X129717443Y-122681999D01*
X129735977Y-122810911D01*
X129790078Y-122929373D01*
X129790080Y-122929376D01*
X129820837Y-122964871D01*
X129861481Y-123011777D01*
X129879840Y-123059828D01*
X129863016Y-123108439D01*
X129818881Y-123134863D01*
X129783463Y-123133176D01*
X129732117Y-123118100D01*
X129601883Y-123118100D01*
X129476926Y-123154790D01*
X129367366Y-123225198D01*
X129282080Y-123323623D01*
X129282078Y-123323626D01*
X129227977Y-123442088D01*
X129222641Y-123479201D01*
X129209443Y-123571000D01*
X120640861Y-123571000D01*
X120695636Y-123535799D01*
X120780921Y-123437374D01*
X120835023Y-123318909D01*
X120853557Y-123190000D01*
X120835023Y-123061091D01*
X120834446Y-123059828D01*
X120780921Y-122942626D01*
X120780919Y-122942623D01*
X120695633Y-122844198D01*
X120586073Y-122773790D01*
X120461117Y-122737100D01*
X120330883Y-122737100D01*
X120205926Y-122773790D01*
X120096366Y-122844198D01*
X120011080Y-122942623D01*
X120011078Y-122942626D01*
X119956977Y-123061088D01*
X119943505Y-123154790D01*
X119938443Y-123190000D01*
X117805557Y-123190000D01*
X117787023Y-123061091D01*
X117786446Y-123059828D01*
X117732921Y-122942626D01*
X117732919Y-122942623D01*
X117647633Y-122844198D01*
X117538073Y-122773790D01*
X117413117Y-122737100D01*
X117282883Y-122737100D01*
X117157926Y-122773790D01*
X117048366Y-122844198D01*
X116963080Y-122942623D01*
X116963078Y-122942626D01*
X116908977Y-123061088D01*
X116890443Y-123190000D01*
X115501297Y-123190000D01*
X115501023Y-123188091D01*
X115488709Y-123161128D01*
X115446921Y-123069626D01*
X115446919Y-123069623D01*
X115361633Y-122971198D01*
X115252073Y-122900790D01*
X115127117Y-122864100D01*
X114996883Y-122864100D01*
X114871926Y-122900790D01*
X114762366Y-122971198D01*
X114676145Y-123070702D01*
X114631194Y-123095711D01*
X114580684Y-123085976D01*
X114578658Y-123084719D01*
X114490073Y-123027790D01*
X114365117Y-122991100D01*
X114234883Y-122991100D01*
X114109926Y-123027790D01*
X114000366Y-123098198D01*
X113915080Y-123196623D01*
X113915078Y-123196626D01*
X113860977Y-123315088D01*
X113854177Y-123362388D01*
X113842443Y-123444000D01*
X108204500Y-123444000D01*
X108204500Y-121792999D01*
X142036443Y-121792999D01*
X142054977Y-121921911D01*
X142109078Y-122040373D01*
X142109080Y-122040376D01*
X142194366Y-122138801D01*
X142303926Y-122209209D01*
X142428883Y-122245900D01*
X142559117Y-122245900D01*
X142684073Y-122209209D01*
X142684073Y-122209208D01*
X142684076Y-122209208D01*
X142793636Y-122138799D01*
X142878921Y-122040374D01*
X142933023Y-121921909D01*
X142951557Y-121793000D01*
X142933023Y-121664091D01*
X142931262Y-121660236D01*
X142878921Y-121545626D01*
X142878919Y-121545623D01*
X142798690Y-121453034D01*
X142793636Y-121447201D01*
X142793635Y-121447200D01*
X142793633Y-121447198D01*
X142684073Y-121376790D01*
X142559117Y-121340100D01*
X142428883Y-121340100D01*
X142303926Y-121376790D01*
X142194366Y-121447198D01*
X142109080Y-121545623D01*
X142109078Y-121545626D01*
X142054977Y-121664088D01*
X142036443Y-121792999D01*
X108204500Y-121792999D01*
X108204500Y-121157999D01*
X129336443Y-121157999D01*
X129354977Y-121286911D01*
X129409078Y-121405373D01*
X129409080Y-121405376D01*
X129494366Y-121503801D01*
X129548289Y-121538454D01*
X129603913Y-121574201D01*
X129603926Y-121574209D01*
X129728883Y-121610900D01*
X129859117Y-121610900D01*
X129984073Y-121574209D01*
X129984073Y-121574208D01*
X129984076Y-121574208D01*
X130093636Y-121503799D01*
X130178921Y-121405374D01*
X130233023Y-121286909D01*
X130251557Y-121158000D01*
X130233023Y-121029091D01*
X130228067Y-121018240D01*
X130178921Y-120910626D01*
X130178919Y-120910623D01*
X130093633Y-120812198D01*
X129984073Y-120741790D01*
X129859117Y-120705100D01*
X129728883Y-120705100D01*
X129603926Y-120741790D01*
X129494366Y-120812198D01*
X129409080Y-120910623D01*
X129409078Y-120910626D01*
X129354977Y-121029088D01*
X129336443Y-121157999D01*
X108204500Y-121157999D01*
X108204500Y-120016204D01*
X129442843Y-120016204D01*
X129461377Y-120145115D01*
X129515478Y-120263577D01*
X129515480Y-120263580D01*
X129600766Y-120362005D01*
X129710326Y-120432413D01*
X129835283Y-120469104D01*
X129965517Y-120469104D01*
X130090473Y-120432413D01*
X130090473Y-120432412D01*
X130090476Y-120432412D01*
X130200036Y-120362003D01*
X130285321Y-120263578D01*
X130339423Y-120145113D01*
X130357957Y-120016204D01*
X130339524Y-119888000D01*
X135940443Y-119888000D01*
X135958977Y-120016911D01*
X136013078Y-120135373D01*
X136013080Y-120135376D01*
X136049328Y-120177208D01*
X136086840Y-120220500D01*
X136098366Y-120233801D01*
X136207926Y-120304209D01*
X136332883Y-120340900D01*
X136463117Y-120340900D01*
X136588073Y-120304209D01*
X136588073Y-120304208D01*
X136588076Y-120304208D01*
X136697636Y-120233799D01*
X136782921Y-120135374D01*
X136837023Y-120016909D01*
X136855557Y-119888000D01*
X141274443Y-119888000D01*
X141292977Y-120016911D01*
X141347078Y-120135373D01*
X141347080Y-120135376D01*
X141383328Y-120177208D01*
X141420840Y-120220500D01*
X141432366Y-120233801D01*
X141541926Y-120304209D01*
X141666883Y-120340900D01*
X141797117Y-120340900D01*
X141922073Y-120304209D01*
X141922073Y-120304208D01*
X141922076Y-120304208D01*
X142031636Y-120233799D01*
X142116921Y-120135374D01*
X142171023Y-120016909D01*
X142189557Y-119888000D01*
X142171297Y-119761000D01*
X145211443Y-119761000D01*
X145229977Y-119889911D01*
X145284078Y-120008373D01*
X145284080Y-120008376D01*
X145369366Y-120106801D01*
X145478926Y-120177209D01*
X145603883Y-120213900D01*
X145734117Y-120213900D01*
X145859073Y-120177209D01*
X145859073Y-120177208D01*
X145859076Y-120177208D01*
X145968636Y-120106799D01*
X146053921Y-120008374D01*
X146108023Y-119889909D01*
X146108297Y-119888000D01*
X160197441Y-119888000D01*
X160197716Y-119889911D01*
X160215975Y-120016911D01*
X160270076Y-120135373D01*
X160270078Y-120135376D01*
X160306326Y-120177208D01*
X160343838Y-120220500D01*
X160355364Y-120233801D01*
X160464924Y-120304209D01*
X160589881Y-120340900D01*
X160720115Y-120340900D01*
X160845071Y-120304209D01*
X160845071Y-120304208D01*
X160845074Y-120304208D01*
X160954634Y-120233799D01*
X161039919Y-120135374D01*
X161094021Y-120016909D01*
X161112555Y-119888000D01*
X161094021Y-119759091D01*
X161059095Y-119682616D01*
X161039919Y-119640626D01*
X161039917Y-119640623D01*
X161034178Y-119634000D01*
X173024443Y-119634000D01*
X173024787Y-119636392D01*
X173042977Y-119762911D01*
X173097078Y-119881373D01*
X173097080Y-119881376D01*
X173182366Y-119979801D01*
X173291926Y-120050209D01*
X173416883Y-120086900D01*
X173547117Y-120086900D01*
X173672073Y-120050209D01*
X173672073Y-120050208D01*
X173672076Y-120050208D01*
X173781636Y-119979799D01*
X173866921Y-119881374D01*
X173921023Y-119762909D01*
X173939557Y-119634000D01*
X173921023Y-119505091D01*
X173919415Y-119501571D01*
X173866921Y-119386626D01*
X173866919Y-119386623D01*
X173781633Y-119288198D01*
X173672073Y-119217790D01*
X173547117Y-119181100D01*
X173416883Y-119181100D01*
X173291926Y-119217790D01*
X173182366Y-119288198D01*
X173097080Y-119386623D01*
X173097078Y-119386626D01*
X173042977Y-119505088D01*
X173037642Y-119542198D01*
X173024443Y-119634000D01*
X161034178Y-119634000D01*
X160954631Y-119542198D01*
X160845071Y-119471790D01*
X160720115Y-119435100D01*
X160589881Y-119435100D01*
X160464924Y-119471790D01*
X160355364Y-119542198D01*
X160270078Y-119640623D01*
X160270076Y-119640626D01*
X160215975Y-119759088D01*
X160214475Y-119769522D01*
X160197441Y-119888000D01*
X146108297Y-119888000D01*
X146126557Y-119761000D01*
X146108023Y-119632091D01*
X146105868Y-119627373D01*
X146053921Y-119513626D01*
X146053919Y-119513623D01*
X145968633Y-119415198D01*
X145859073Y-119344790D01*
X145734117Y-119308100D01*
X145603883Y-119308100D01*
X145478926Y-119344790D01*
X145369366Y-119415198D01*
X145284080Y-119513623D01*
X145284078Y-119513626D01*
X145229977Y-119632088D01*
X145211443Y-119761000D01*
X142171297Y-119761000D01*
X142171023Y-119759091D01*
X142136097Y-119682616D01*
X142116921Y-119640626D01*
X142116919Y-119640623D01*
X142031633Y-119542198D01*
X141922073Y-119471790D01*
X141797117Y-119435100D01*
X141666883Y-119435100D01*
X141541926Y-119471790D01*
X141432366Y-119542198D01*
X141347080Y-119640623D01*
X141347078Y-119640626D01*
X141292977Y-119759088D01*
X141274443Y-119888000D01*
X136855557Y-119888000D01*
X136837023Y-119759091D01*
X136802097Y-119682616D01*
X136782921Y-119640626D01*
X136782919Y-119640623D01*
X136697633Y-119542198D01*
X136588073Y-119471790D01*
X136463117Y-119435100D01*
X136332883Y-119435100D01*
X136207926Y-119471790D01*
X136098366Y-119542198D01*
X136013080Y-119640623D01*
X136013078Y-119640626D01*
X135958977Y-119759088D01*
X135940443Y-119888000D01*
X130339524Y-119888000D01*
X130339423Y-119887295D01*
X130336718Y-119881373D01*
X130285321Y-119768830D01*
X130285319Y-119768827D01*
X130248035Y-119725799D01*
X130212200Y-119684443D01*
X130193842Y-119636392D01*
X130210667Y-119587782D01*
X130212156Y-119586006D01*
X130285321Y-119501569D01*
X130339423Y-119383104D01*
X130357957Y-119254195D01*
X130339423Y-119125286D01*
X130330540Y-119105836D01*
X130285321Y-119006821D01*
X130285319Y-119006818D01*
X130212209Y-118922445D01*
X130193850Y-118874392D01*
X130210675Y-118825782D01*
X130212170Y-118823999D01*
X130285321Y-118739578D01*
X130339423Y-118621113D01*
X130339871Y-118618000D01*
X144703443Y-118618000D01*
X144721977Y-118746911D01*
X144776078Y-118865373D01*
X144776080Y-118865376D01*
X144861366Y-118963801D01*
X144913163Y-118997088D01*
X144970913Y-119034201D01*
X144970926Y-119034209D01*
X145095883Y-119070900D01*
X145226117Y-119070900D01*
X145351073Y-119034209D01*
X145351073Y-119034208D01*
X145351076Y-119034208D01*
X145460636Y-118963799D01*
X145545921Y-118865374D01*
X145600023Y-118746909D01*
X145600124Y-118746204D01*
X151429625Y-118746204D01*
X151448159Y-118875115D01*
X151502260Y-118993577D01*
X151502262Y-118993580D01*
X151587548Y-119092005D01*
X151697108Y-119162413D01*
X151822065Y-119199104D01*
X151952300Y-119199104D01*
X151963341Y-119195861D01*
X151989487Y-119188184D01*
X152040822Y-119191445D01*
X152078052Y-119226941D01*
X152085109Y-119271039D01*
X152069443Y-119379999D01*
X152087977Y-119508911D01*
X152142078Y-119627373D01*
X152142080Y-119627376D01*
X152227366Y-119725801D01*
X152336926Y-119796209D01*
X152461883Y-119832900D01*
X152592117Y-119832900D01*
X152717073Y-119796209D01*
X152717073Y-119796208D01*
X152717076Y-119796208D01*
X152826636Y-119725799D01*
X152911921Y-119627374D01*
X152966023Y-119508909D01*
X152984557Y-119380000D01*
X152966023Y-119251091D01*
X152961295Y-119240739D01*
X152911921Y-119132626D01*
X152911919Y-119132623D01*
X152906180Y-119126000D01*
X165912443Y-119126000D01*
X165930977Y-119254911D01*
X165985078Y-119373373D01*
X165985080Y-119373376D01*
X166070366Y-119471801D01*
X166122163Y-119505088D01*
X166179913Y-119542201D01*
X166179926Y-119542209D01*
X166304883Y-119578900D01*
X166435117Y-119578900D01*
X166560073Y-119542209D01*
X166560073Y-119542208D01*
X166560076Y-119542208D01*
X166669636Y-119471799D01*
X166754921Y-119373374D01*
X166809023Y-119254909D01*
X166827557Y-119126000D01*
X166809023Y-118997091D01*
X166807418Y-118993577D01*
X166754921Y-118878626D01*
X166754919Y-118878623D01*
X166689250Y-118802837D01*
X166669636Y-118780201D01*
X166669635Y-118780200D01*
X166669633Y-118780198D01*
X166560073Y-118709790D01*
X166435117Y-118673100D01*
X166304883Y-118673100D01*
X166179926Y-118709790D01*
X166070366Y-118780198D01*
X165985080Y-118878623D01*
X165985078Y-118878626D01*
X165930977Y-118997088D01*
X165912443Y-119126000D01*
X152906180Y-119126000D01*
X152826633Y-119034198D01*
X152717073Y-118963790D01*
X152592117Y-118927100D01*
X152461883Y-118927100D01*
X152461882Y-118927100D01*
X152424692Y-118938019D01*
X152373355Y-118934756D01*
X152336127Y-118899257D01*
X152329072Y-118855167D01*
X152344739Y-118746204D01*
X152326205Y-118617295D01*
X152323500Y-118611373D01*
X152272103Y-118498830D01*
X152272101Y-118498827D01*
X152215677Y-118433710D01*
X152186818Y-118400405D01*
X152186817Y-118400404D01*
X152186815Y-118400402D01*
X152077255Y-118329994D01*
X151952299Y-118293304D01*
X151822065Y-118293304D01*
X151697108Y-118329994D01*
X151587548Y-118400402D01*
X151502262Y-118498827D01*
X151502260Y-118498830D01*
X151448159Y-118617292D01*
X151429625Y-118746204D01*
X145600124Y-118746204D01*
X145618557Y-118618000D01*
X145600023Y-118489091D01*
X145586364Y-118459183D01*
X145545921Y-118370626D01*
X145545919Y-118370623D01*
X145492436Y-118308900D01*
X145460636Y-118272201D01*
X145460635Y-118272200D01*
X145460633Y-118272198D01*
X145351073Y-118201790D01*
X145226117Y-118165100D01*
X145095883Y-118165100D01*
X144970926Y-118201790D01*
X144861366Y-118272198D01*
X144776080Y-118370623D01*
X144776078Y-118370626D01*
X144721977Y-118489088D01*
X144703443Y-118618000D01*
X130339871Y-118618000D01*
X130357957Y-118492204D01*
X130339423Y-118363295D01*
X130336718Y-118357373D01*
X130285321Y-118244830D01*
X130285319Y-118244827D01*
X130200033Y-118146402D01*
X130143389Y-118110000D01*
X146862443Y-118110000D01*
X146880977Y-118238911D01*
X146935078Y-118357373D01*
X146935080Y-118357376D01*
X147020366Y-118455801D01*
X147072163Y-118489088D01*
X147129913Y-118526201D01*
X147129926Y-118526209D01*
X147254883Y-118562900D01*
X147385117Y-118562900D01*
X147510073Y-118526209D01*
X147510073Y-118526208D01*
X147510076Y-118526208D01*
X147619636Y-118455799D01*
X147704921Y-118357374D01*
X147759023Y-118238909D01*
X147777557Y-118110000D01*
X152598043Y-118110000D01*
X152616577Y-118238911D01*
X152670678Y-118357373D01*
X152670680Y-118357376D01*
X152755966Y-118455801D01*
X152807763Y-118489088D01*
X152865513Y-118526201D01*
X152865526Y-118526209D01*
X152990483Y-118562900D01*
X153120717Y-118562900D01*
X153245673Y-118526209D01*
X153245673Y-118526208D01*
X153245676Y-118526208D01*
X153355236Y-118455799D01*
X153434780Y-118364000D01*
X162356443Y-118364000D01*
X162374977Y-118492911D01*
X162429078Y-118611373D01*
X162429080Y-118611376D01*
X162514366Y-118709801D01*
X162566163Y-118743088D01*
X162623913Y-118780201D01*
X162623926Y-118780209D01*
X162748883Y-118816900D01*
X162879117Y-118816900D01*
X163004073Y-118780209D01*
X163004073Y-118780208D01*
X163004076Y-118780208D01*
X163113636Y-118709799D01*
X163198921Y-118611374D01*
X163253023Y-118492909D01*
X163271557Y-118364000D01*
X163253023Y-118235091D01*
X163212519Y-118146402D01*
X163198921Y-118116626D01*
X163198919Y-118116623D01*
X163113633Y-118018198D01*
X163004073Y-117947790D01*
X162879117Y-117911100D01*
X162748883Y-117911100D01*
X162623926Y-117947790D01*
X162514366Y-118018198D01*
X162429080Y-118116623D01*
X162429078Y-118116626D01*
X162374977Y-118235088D01*
X162356443Y-118364000D01*
X153434780Y-118364000D01*
X153440521Y-118357374D01*
X153494623Y-118238909D01*
X153513157Y-118110000D01*
X153494623Y-117981091D01*
X153440521Y-117862626D01*
X153440519Y-117862623D01*
X153355233Y-117764198D01*
X153245673Y-117693790D01*
X153120717Y-117657100D01*
X152990483Y-117657100D01*
X152865526Y-117693790D01*
X152755966Y-117764198D01*
X152670680Y-117862623D01*
X152670678Y-117862626D01*
X152616577Y-117981088D01*
X152598043Y-118110000D01*
X147777557Y-118110000D01*
X147759023Y-117981091D01*
X147704921Y-117862626D01*
X147704919Y-117862623D01*
X147619633Y-117764198D01*
X147510073Y-117693790D01*
X147385117Y-117657100D01*
X147254883Y-117657100D01*
X147129926Y-117693790D01*
X147020366Y-117764198D01*
X146935080Y-117862623D01*
X146935078Y-117862626D01*
X146880977Y-117981088D01*
X146862443Y-118110000D01*
X130143389Y-118110000D01*
X130090473Y-118075994D01*
X129965517Y-118039304D01*
X129835283Y-118039304D01*
X129710326Y-118075994D01*
X129600766Y-118146402D01*
X129515480Y-118244827D01*
X129515478Y-118244830D01*
X129461377Y-118363292D01*
X129442843Y-118492203D01*
X129442843Y-118492204D01*
X129442945Y-118492911D01*
X129461377Y-118621115D01*
X129515478Y-118739577D01*
X129515480Y-118739580D01*
X129559329Y-118790184D01*
X129582478Y-118816900D01*
X129588590Y-118823953D01*
X129606949Y-118872006D01*
X129590124Y-118920616D01*
X129588591Y-118922444D01*
X129515480Y-119006819D01*
X129515478Y-119006821D01*
X129461377Y-119125283D01*
X129442843Y-119254195D01*
X129461377Y-119383106D01*
X129515478Y-119501568D01*
X129515480Y-119501571D01*
X129588598Y-119585953D01*
X129606957Y-119634006D01*
X129590132Y-119682616D01*
X129588598Y-119684444D01*
X129515483Y-119768823D01*
X129515478Y-119768830D01*
X129461377Y-119887292D01*
X129442843Y-120016204D01*
X108204500Y-120016204D01*
X108204500Y-118872000D01*
X118668443Y-118872000D01*
X118668787Y-118874392D01*
X118686977Y-119000911D01*
X118741078Y-119119373D01*
X118741080Y-119119376D01*
X118826366Y-119217801D01*
X118862069Y-119240745D01*
X118935913Y-119288201D01*
X118935926Y-119288209D01*
X119060883Y-119324900D01*
X119191117Y-119324900D01*
X119316073Y-119288209D01*
X119316073Y-119288208D01*
X119316076Y-119288208D01*
X119425636Y-119217799D01*
X119510921Y-119119374D01*
X119565023Y-119000909D01*
X119583557Y-118872000D01*
X119565023Y-118743091D01*
X119563418Y-118739577D01*
X119510921Y-118624626D01*
X119510919Y-118624623D01*
X119449628Y-118553890D01*
X119425636Y-118526201D01*
X119425635Y-118526200D01*
X119425633Y-118526198D01*
X119316073Y-118455790D01*
X119191117Y-118419100D01*
X119060883Y-118419100D01*
X118935926Y-118455790D01*
X118826366Y-118526198D01*
X118741080Y-118624623D01*
X118741078Y-118624626D01*
X118686977Y-118743088D01*
X118678387Y-118802837D01*
X118668443Y-118872000D01*
X108204500Y-118872000D01*
X108204500Y-117856000D01*
X118160443Y-117856000D01*
X118178977Y-117984911D01*
X118233078Y-118103373D01*
X118233080Y-118103376D01*
X118318366Y-118201801D01*
X118370163Y-118235088D01*
X118427913Y-118272201D01*
X118427926Y-118272209D01*
X118552883Y-118308900D01*
X118683117Y-118308900D01*
X118808073Y-118272209D01*
X118808073Y-118272208D01*
X118808076Y-118272208D01*
X118917636Y-118201799D01*
X119002921Y-118103374D01*
X119057023Y-117984909D01*
X119075557Y-117856000D01*
X119057023Y-117727091D01*
X119054869Y-117722375D01*
X119002921Y-117608626D01*
X119002919Y-117608623D01*
X118917633Y-117510198D01*
X118830807Y-117454400D01*
X131876443Y-117454400D01*
X131879405Y-117474999D01*
X131894977Y-117583311D01*
X131949078Y-117701773D01*
X131949080Y-117701776D01*
X132034366Y-117800201D01*
X132143926Y-117870609D01*
X132268883Y-117907300D01*
X132399117Y-117907300D01*
X132524073Y-117870609D01*
X132524073Y-117870608D01*
X132524076Y-117870608D01*
X132633636Y-117800199D01*
X132718921Y-117701774D01*
X132773023Y-117583309D01*
X132788595Y-117474999D01*
X135305443Y-117474999D01*
X135323977Y-117603910D01*
X135378078Y-117722372D01*
X135378080Y-117722375D01*
X135463366Y-117820800D01*
X135572926Y-117891208D01*
X135697883Y-117927899D01*
X135828117Y-117927899D01*
X135953073Y-117891208D01*
X135953073Y-117891207D01*
X135953076Y-117891207D01*
X136062636Y-117820798D01*
X136147921Y-117722373D01*
X136202023Y-117603908D01*
X136220557Y-117474999D01*
X136202023Y-117346090D01*
X136201080Y-117344026D01*
X136147921Y-117227625D01*
X136147919Y-117227622D01*
X136062633Y-117129197D01*
X136007864Y-117094000D01*
X174802443Y-117094000D01*
X174807504Y-117129200D01*
X174820977Y-117222911D01*
X174875078Y-117341373D01*
X174875080Y-117341376D01*
X174960366Y-117439801D01*
X175015135Y-117474998D01*
X175069913Y-117510201D01*
X175069926Y-117510209D01*
X175194883Y-117546900D01*
X175325117Y-117546900D01*
X175450073Y-117510209D01*
X175450073Y-117510208D01*
X175450076Y-117510208D01*
X175559636Y-117439799D01*
X175644921Y-117341374D01*
X175699023Y-117222909D01*
X175717557Y-117094000D01*
X175699023Y-116965091D01*
X175688299Y-116941610D01*
X175644921Y-116846626D01*
X175644919Y-116846623D01*
X175559633Y-116748198D01*
X175450073Y-116677790D01*
X175325117Y-116641100D01*
X175194883Y-116641100D01*
X175069926Y-116677790D01*
X174960366Y-116748198D01*
X174875080Y-116846623D01*
X174875078Y-116846626D01*
X174820977Y-116965088D01*
X174810467Y-117038190D01*
X174802443Y-117094000D01*
X136007864Y-117094000D01*
X135953073Y-117058789D01*
X135828117Y-117022099D01*
X135697883Y-117022099D01*
X135572926Y-117058789D01*
X135463366Y-117129197D01*
X135378080Y-117227622D01*
X135378078Y-117227625D01*
X135323977Y-117346087D01*
X135305443Y-117474999D01*
X132788595Y-117474999D01*
X132791557Y-117454400D01*
X132773023Y-117325491D01*
X132718921Y-117207026D01*
X132718919Y-117207023D01*
X132633633Y-117108598D01*
X132524073Y-117038190D01*
X132399117Y-117001500D01*
X132268883Y-117001500D01*
X132143926Y-117038190D01*
X132034366Y-117108598D01*
X131949080Y-117207023D01*
X131949078Y-117207026D01*
X131894977Y-117325488D01*
X131878543Y-117439792D01*
X131876443Y-117454400D01*
X118830807Y-117454400D01*
X118808073Y-117439790D01*
X118683117Y-117403100D01*
X118552883Y-117403100D01*
X118427926Y-117439790D01*
X118318366Y-117510198D01*
X118233080Y-117608623D01*
X118233078Y-117608626D01*
X118178977Y-117727088D01*
X118160443Y-117856000D01*
X108204500Y-117856000D01*
X108204500Y-116078000D01*
X119938443Y-116078000D01*
X119956977Y-116206911D01*
X120011078Y-116325373D01*
X120011080Y-116325376D01*
X120096366Y-116423801D01*
X120140828Y-116452374D01*
X120205894Y-116494189D01*
X120205926Y-116494209D01*
X120330883Y-116530900D01*
X120461117Y-116530900D01*
X120586073Y-116494209D01*
X120586073Y-116494208D01*
X120586076Y-116494208D01*
X120695636Y-116423799D01*
X120780921Y-116325374D01*
X120835023Y-116206909D01*
X120835297Y-116205000D01*
X122097443Y-116205000D01*
X122115977Y-116333911D01*
X122170078Y-116452373D01*
X122170080Y-116452376D01*
X122255366Y-116550801D01*
X122364926Y-116621209D01*
X122489883Y-116657900D01*
X122620117Y-116657900D01*
X122745076Y-116621208D01*
X122775230Y-116601829D01*
X122825403Y-116590497D01*
X122871125Y-116614068D01*
X122884288Y-116633852D01*
X122913203Y-116697167D01*
X122913205Y-116697170D01*
X122998491Y-116795595D01*
X123108051Y-116866003D01*
X123233008Y-116902694D01*
X123363240Y-116902694D01*
X123363242Y-116902694D01*
X123439990Y-116880158D01*
X123491323Y-116883420D01*
X123528552Y-116918917D01*
X123535609Y-116941610D01*
X123552160Y-117056728D01*
X123606261Y-117175190D01*
X123606263Y-117175193D01*
X123691549Y-117273618D01*
X123769851Y-117323938D01*
X123796980Y-117341373D01*
X123801109Y-117344026D01*
X123926066Y-117380717D01*
X124056300Y-117380717D01*
X124181256Y-117344026D01*
X124181256Y-117344025D01*
X124181259Y-117344025D01*
X124290819Y-117273616D01*
X124376104Y-117175191D01*
X124430206Y-117056726D01*
X124448740Y-116927817D01*
X124430206Y-116798908D01*
X124376104Y-116680443D01*
X124376102Y-116680440D01*
X124294269Y-116586000D01*
X124290819Y-116582018D01*
X124290818Y-116582017D01*
X124290816Y-116582015D01*
X124181256Y-116511607D01*
X124056300Y-116474917D01*
X123926066Y-116474917D01*
X123849319Y-116497452D01*
X123797983Y-116494189D01*
X123760754Y-116458692D01*
X123753699Y-116436004D01*
X123737148Y-116320885D01*
X123737147Y-116320883D01*
X123737147Y-116320881D01*
X123683046Y-116202420D01*
X123683044Y-116202417D01*
X123597758Y-116103992D01*
X123557313Y-116078000D01*
X124637443Y-116078000D01*
X124641245Y-116104444D01*
X124655977Y-116206911D01*
X124710078Y-116325373D01*
X124710080Y-116325376D01*
X124795366Y-116423801D01*
X124839828Y-116452374D01*
X124904894Y-116494189D01*
X124904926Y-116494209D01*
X125029883Y-116530900D01*
X125160117Y-116530900D01*
X125285073Y-116494209D01*
X125285073Y-116494208D01*
X125285076Y-116494208D01*
X125394636Y-116423799D01*
X125474180Y-116332000D01*
X146062343Y-116332000D01*
X146062618Y-116333911D01*
X146080877Y-116460911D01*
X146134978Y-116579373D01*
X146134980Y-116579376D01*
X146220266Y-116677801D01*
X146250406Y-116697170D01*
X146329813Y-116748201D01*
X146329826Y-116748209D01*
X146454783Y-116784900D01*
X146585017Y-116784900D01*
X146709973Y-116748209D01*
X146709973Y-116748208D01*
X146709976Y-116748208D01*
X146815422Y-116680443D01*
X146819533Y-116677801D01*
X146819533Y-116677800D01*
X146819536Y-116677799D01*
X146899080Y-116586000D01*
X161848443Y-116586000D01*
X161866977Y-116714911D01*
X161921078Y-116833373D01*
X161921080Y-116833376D01*
X162006366Y-116931801D01*
X162021630Y-116941610D01*
X162114822Y-117001500D01*
X162115926Y-117002209D01*
X162240883Y-117038900D01*
X162371117Y-117038900D01*
X162496073Y-117002209D01*
X162496073Y-117002208D01*
X162496076Y-117002208D01*
X162605636Y-116931799D01*
X162690921Y-116833374D01*
X162745023Y-116714909D01*
X162763557Y-116586000D01*
X162745023Y-116457091D01*
X162742868Y-116452373D01*
X162690921Y-116338626D01*
X162690919Y-116338623D01*
X162605633Y-116240198D01*
X162496073Y-116169790D01*
X162371117Y-116133100D01*
X162240883Y-116133100D01*
X162115926Y-116169790D01*
X162006366Y-116240198D01*
X161921080Y-116338623D01*
X161921078Y-116338626D01*
X161866977Y-116457088D01*
X161848443Y-116586000D01*
X146899080Y-116586000D01*
X146904821Y-116579374D01*
X146958923Y-116460909D01*
X146977457Y-116332000D01*
X146958923Y-116203091D01*
X146958615Y-116202417D01*
X146904821Y-116084626D01*
X146904819Y-116084623D01*
X146819533Y-115986198D01*
X146796816Y-115971599D01*
X153466443Y-115971599D01*
X153484977Y-116100511D01*
X153539078Y-116218973D01*
X153539080Y-116218976D01*
X153624366Y-116317401D01*
X153733926Y-116387809D01*
X153858883Y-116424500D01*
X153989117Y-116424500D01*
X154114073Y-116387809D01*
X154114073Y-116387808D01*
X154114076Y-116387808D01*
X154223636Y-116317399D01*
X154308921Y-116218974D01*
X154363023Y-116100509D01*
X154366259Y-116078000D01*
X155498443Y-116078000D01*
X155502245Y-116104444D01*
X155516977Y-116206911D01*
X155571078Y-116325373D01*
X155571080Y-116325376D01*
X155656366Y-116423801D01*
X155700828Y-116452374D01*
X155765894Y-116494189D01*
X155765926Y-116494209D01*
X155890883Y-116530900D01*
X156021117Y-116530900D01*
X156146073Y-116494209D01*
X156146073Y-116494208D01*
X156146076Y-116494208D01*
X156255636Y-116423799D01*
X156340921Y-116325374D01*
X156395023Y-116206909D01*
X156413557Y-116078000D01*
X156395023Y-115949091D01*
X156340921Y-115830626D01*
X156340919Y-115830623D01*
X156255633Y-115732198D01*
X156146073Y-115661790D01*
X156021117Y-115625100D01*
X155890883Y-115625100D01*
X155765926Y-115661790D01*
X155656366Y-115732198D01*
X155571080Y-115830623D01*
X155571078Y-115830626D01*
X155516977Y-115949088D01*
X155500413Y-116064296D01*
X155498443Y-116078000D01*
X154366259Y-116078000D01*
X154381557Y-115971600D01*
X154363023Y-115842691D01*
X154308921Y-115724226D01*
X154308919Y-115724223D01*
X154223633Y-115625798D01*
X154114073Y-115555390D01*
X154093669Y-115549399D01*
X177596443Y-115549399D01*
X177614977Y-115678311D01*
X177669078Y-115796773D01*
X177669080Y-115796776D01*
X177754366Y-115895201D01*
X177863926Y-115965609D01*
X177988883Y-116002300D01*
X178119117Y-116002300D01*
X178244073Y-115965609D01*
X178244073Y-115965608D01*
X178244076Y-115965608D01*
X178353636Y-115895199D01*
X178438921Y-115796774D01*
X178493023Y-115678309D01*
X178511557Y-115549400D01*
X178493023Y-115420491D01*
X178438921Y-115302026D01*
X178438919Y-115302023D01*
X178353633Y-115203598D01*
X178244073Y-115133190D01*
X178119117Y-115096500D01*
X177988883Y-115096500D01*
X177863926Y-115133190D01*
X177754366Y-115203598D01*
X177669080Y-115302023D01*
X177669078Y-115302026D01*
X177614977Y-115420488D01*
X177596443Y-115549399D01*
X154093669Y-115549399D01*
X153989117Y-115518700D01*
X153858883Y-115518700D01*
X153733926Y-115555390D01*
X153624366Y-115625798D01*
X153539080Y-115724223D01*
X153539078Y-115724226D01*
X153484977Y-115842688D01*
X153466443Y-115971599D01*
X146796816Y-115971599D01*
X146709973Y-115915790D01*
X146585017Y-115879100D01*
X146454783Y-115879100D01*
X146329826Y-115915790D01*
X146220266Y-115986198D01*
X146134980Y-116084623D01*
X146134978Y-116084626D01*
X146080877Y-116203088D01*
X146063941Y-116320885D01*
X146062343Y-116332000D01*
X125474180Y-116332000D01*
X125479921Y-116325374D01*
X125534023Y-116206909D01*
X125552557Y-116078000D01*
X125534023Y-115949091D01*
X125479921Y-115830626D01*
X125479919Y-115830623D01*
X125394633Y-115732198D01*
X125285073Y-115661790D01*
X125160117Y-115625100D01*
X125029883Y-115625100D01*
X124904926Y-115661790D01*
X124795366Y-115732198D01*
X124710080Y-115830623D01*
X124710078Y-115830626D01*
X124655977Y-115949088D01*
X124639413Y-116064296D01*
X124637443Y-116078000D01*
X123557313Y-116078000D01*
X123488198Y-116033584D01*
X123363242Y-115996894D01*
X123233008Y-115996894D01*
X123108050Y-116033585D01*
X123077895Y-116052964D01*
X123027718Y-116064296D01*
X122981997Y-116040724D01*
X122968836Y-116020940D01*
X122939922Y-115957628D01*
X122939919Y-115957623D01*
X122854633Y-115859198D01*
X122745073Y-115788790D01*
X122620117Y-115752100D01*
X122489883Y-115752100D01*
X122364926Y-115788790D01*
X122255366Y-115859198D01*
X122170080Y-115957623D01*
X122170078Y-115957626D01*
X122115977Y-116076088D01*
X122097443Y-116205000D01*
X120835297Y-116205000D01*
X120853557Y-116078000D01*
X120835023Y-115949091D01*
X120780921Y-115830626D01*
X120780919Y-115830623D01*
X120695633Y-115732198D01*
X120586073Y-115661790D01*
X120461117Y-115625100D01*
X120330883Y-115625100D01*
X120205926Y-115661790D01*
X120096366Y-115732198D01*
X120011080Y-115830623D01*
X120011078Y-115830626D01*
X119956977Y-115949088D01*
X119938443Y-116078000D01*
X108204500Y-116078000D01*
X108204500Y-114300000D01*
X112043843Y-114300000D01*
X112062377Y-114428911D01*
X112116478Y-114547373D01*
X112116480Y-114547376D01*
X112201766Y-114645801D01*
X112311326Y-114716209D01*
X112436283Y-114752900D01*
X112566517Y-114752900D01*
X112691473Y-114716209D01*
X112691473Y-114716208D01*
X112691476Y-114716208D01*
X112801036Y-114645799D01*
X112886321Y-114547374D01*
X112940423Y-114428909D01*
X112958957Y-114300000D01*
X112951589Y-114248753D01*
X122521790Y-114248753D01*
X122540324Y-114377664D01*
X122594425Y-114496126D01*
X122594427Y-114496129D01*
X122638831Y-114547374D01*
X122675081Y-114589209D01*
X122679713Y-114594554D01*
X122789273Y-114664962D01*
X122914230Y-114701653D01*
X123044464Y-114701653D01*
X123169420Y-114664962D01*
X123169420Y-114664961D01*
X123169423Y-114664961D01*
X123278983Y-114594552D01*
X123334676Y-114530278D01*
X130060277Y-114530278D01*
X130078811Y-114659190D01*
X130132912Y-114777652D01*
X130132914Y-114777655D01*
X130218200Y-114876080D01*
X130327760Y-114946488D01*
X130452717Y-114983179D01*
X130582951Y-114983179D01*
X130707910Y-114946487D01*
X130760562Y-114912649D01*
X130810737Y-114901317D01*
X130856458Y-114924888D01*
X130863922Y-114936101D01*
X130864652Y-114935632D01*
X130867559Y-114940156D01*
X130952845Y-115038581D01*
X131062405Y-115108989D01*
X131187362Y-115145680D01*
X131317596Y-115145680D01*
X131442552Y-115108989D01*
X131442552Y-115108988D01*
X131442555Y-115108988D01*
X131552115Y-115038579D01*
X131637400Y-114940154D01*
X131691502Y-114821689D01*
X131710036Y-114692780D01*
X131691502Y-114563871D01*
X131686993Y-114553999D01*
X146100443Y-114553999D01*
X146118977Y-114682911D01*
X146173078Y-114801373D01*
X146173080Y-114801376D01*
X146258366Y-114899801D01*
X146367926Y-114970209D01*
X146492883Y-115006900D01*
X146623117Y-115006900D01*
X146748073Y-114970209D01*
X146748073Y-114970208D01*
X146748076Y-114970208D01*
X146857636Y-114899799D01*
X146942921Y-114801374D01*
X146997023Y-114682909D01*
X147015557Y-114554000D01*
X146997023Y-114425091D01*
X146994868Y-114420373D01*
X146942921Y-114306626D01*
X146942919Y-114306623D01*
X146857633Y-114208198D01*
X146802861Y-114172999D01*
X152196443Y-114172999D01*
X152214977Y-114301911D01*
X152269078Y-114420373D01*
X152269080Y-114420376D01*
X152354366Y-114518801D01*
X152463926Y-114589209D01*
X152588883Y-114625900D01*
X152719117Y-114625900D01*
X152844073Y-114589209D01*
X152844073Y-114589208D01*
X152844076Y-114589208D01*
X152953636Y-114518799D01*
X153038921Y-114420374D01*
X153093023Y-114301909D01*
X153111557Y-114173000D01*
X153093023Y-114044091D01*
X153090868Y-114039373D01*
X153038921Y-113925626D01*
X153038919Y-113925623D01*
X152970878Y-113847100D01*
X152953636Y-113827201D01*
X152953635Y-113827200D01*
X152953633Y-113827198D01*
X152898862Y-113792000D01*
X175310443Y-113792000D01*
X175328977Y-113920911D01*
X175383078Y-114039373D01*
X175383080Y-114039376D01*
X175419325Y-114081205D01*
X175452803Y-114119841D01*
X175468366Y-114137801D01*
X175540997Y-114184477D01*
X175577913Y-114208201D01*
X175577926Y-114208209D01*
X175702883Y-114244900D01*
X175833117Y-114244900D01*
X175958073Y-114208209D01*
X175958073Y-114208208D01*
X175958076Y-114208208D01*
X176067636Y-114137799D01*
X176152921Y-114039374D01*
X176207023Y-113920909D01*
X176225557Y-113792000D01*
X187248443Y-113792000D01*
X187266977Y-113920911D01*
X187321078Y-114039373D01*
X187321080Y-114039376D01*
X187357325Y-114081205D01*
X187390803Y-114119841D01*
X187406366Y-114137801D01*
X187478997Y-114184477D01*
X187515913Y-114208201D01*
X187515926Y-114208209D01*
X187640883Y-114244900D01*
X187771117Y-114244900D01*
X187896073Y-114208209D01*
X187896073Y-114208208D01*
X187896076Y-114208208D01*
X188005636Y-114137799D01*
X188090921Y-114039374D01*
X188145023Y-113920909D01*
X188163557Y-113792000D01*
X188145023Y-113663091D01*
X188090921Y-113544626D01*
X188090919Y-113544623D01*
X188021198Y-113464161D01*
X188005636Y-113446201D01*
X188005635Y-113446200D01*
X188005633Y-113446198D01*
X187896073Y-113375790D01*
X187771117Y-113339100D01*
X187640883Y-113339100D01*
X187515926Y-113375790D01*
X187406366Y-113446198D01*
X187321080Y-113544623D01*
X187321078Y-113544626D01*
X187266977Y-113663088D01*
X187248443Y-113792000D01*
X176225557Y-113792000D01*
X176207023Y-113663091D01*
X176152921Y-113544626D01*
X176152919Y-113544623D01*
X176083198Y-113464161D01*
X176067636Y-113446201D01*
X176067635Y-113446200D01*
X176067633Y-113446198D01*
X175958073Y-113375790D01*
X175833117Y-113339100D01*
X175702883Y-113339100D01*
X175577926Y-113375790D01*
X175468366Y-113446198D01*
X175383080Y-113544623D01*
X175383078Y-113544626D01*
X175328977Y-113663088D01*
X175310443Y-113792000D01*
X152898862Y-113792000D01*
X152844073Y-113756790D01*
X152719117Y-113720100D01*
X152588883Y-113720100D01*
X152463926Y-113756790D01*
X152354366Y-113827198D01*
X152269080Y-113925623D01*
X152269078Y-113925626D01*
X152214977Y-114044088D01*
X152196443Y-114172999D01*
X146802861Y-114172999D01*
X146748073Y-114137790D01*
X146623117Y-114101100D01*
X146492883Y-114101100D01*
X146367926Y-114137790D01*
X146258366Y-114208198D01*
X146173080Y-114306623D01*
X146173078Y-114306626D01*
X146118977Y-114425088D01*
X146100443Y-114553999D01*
X131686993Y-114553999D01*
X131683967Y-114547373D01*
X131637400Y-114445406D01*
X131637398Y-114445403D01*
X131552112Y-114346978D01*
X131442552Y-114276570D01*
X131317596Y-114239880D01*
X131187362Y-114239880D01*
X131062405Y-114276570D01*
X131009750Y-114310409D01*
X130959574Y-114321741D01*
X130913853Y-114298169D01*
X130906397Y-114286953D01*
X130905661Y-114287427D01*
X130902753Y-114282902D01*
X130838024Y-114208201D01*
X130817470Y-114184480D01*
X130817469Y-114184479D01*
X130817467Y-114184477D01*
X130707907Y-114114069D01*
X130582951Y-114077379D01*
X130452717Y-114077379D01*
X130327760Y-114114069D01*
X130218200Y-114184477D01*
X130132914Y-114282902D01*
X130132912Y-114282905D01*
X130078811Y-114401367D01*
X130060277Y-114530278D01*
X123334676Y-114530278D01*
X123364268Y-114496127D01*
X123418370Y-114377662D01*
X123436904Y-114248753D01*
X123418370Y-114119844D01*
X123417480Y-114117896D01*
X123364268Y-114001379D01*
X123364266Y-114001376D01*
X123298628Y-113925626D01*
X123278983Y-113902954D01*
X123278982Y-113902953D01*
X123278980Y-113902951D01*
X123169420Y-113832543D01*
X123092505Y-113809959D01*
X132148404Y-113809959D01*
X132166938Y-113938871D01*
X132221039Y-114057333D01*
X132221041Y-114057336D01*
X132241723Y-114081204D01*
X132290764Y-114137801D01*
X132306327Y-114155761D01*
X132415887Y-114226169D01*
X132540844Y-114262860D01*
X132671078Y-114262860D01*
X132796034Y-114226169D01*
X132796034Y-114226168D01*
X132796037Y-114226168D01*
X132905597Y-114155759D01*
X132990882Y-114057334D01*
X133044984Y-113938869D01*
X133063518Y-113809960D01*
X133044984Y-113681051D01*
X133037651Y-113664995D01*
X135305443Y-113664995D01*
X135323977Y-113793907D01*
X135378078Y-113912369D01*
X135378080Y-113912372D01*
X135389565Y-113925626D01*
X135455202Y-114001376D01*
X135463366Y-114010797D01*
X135572926Y-114081205D01*
X135697883Y-114117896D01*
X135828117Y-114117896D01*
X135953073Y-114081205D01*
X135953073Y-114081204D01*
X135953076Y-114081204D01*
X136062636Y-114010795D01*
X136147921Y-113912370D01*
X136202023Y-113793905D01*
X136220557Y-113664996D01*
X136202023Y-113536087D01*
X136199870Y-113531373D01*
X136147921Y-113417622D01*
X136147919Y-113417619D01*
X136062633Y-113319194D01*
X136007869Y-113284000D01*
X173532443Y-113284000D01*
X173538621Y-113326969D01*
X173550977Y-113412911D01*
X173605078Y-113531373D01*
X173605080Y-113531376D01*
X173690366Y-113629801D01*
X173799926Y-113700209D01*
X173924883Y-113736900D01*
X174055117Y-113736900D01*
X174180073Y-113700209D01*
X174180073Y-113700208D01*
X174180076Y-113700208D01*
X174289636Y-113629799D01*
X174374921Y-113531374D01*
X174429023Y-113412909D01*
X174447557Y-113284000D01*
X174429023Y-113155091D01*
X174423139Y-113142208D01*
X174374921Y-113036626D01*
X174374919Y-113036623D01*
X174307551Y-112958876D01*
X174289636Y-112938201D01*
X174289635Y-112938200D01*
X174289633Y-112938198D01*
X174180073Y-112867790D01*
X174055117Y-112831100D01*
X173924883Y-112831100D01*
X173799926Y-112867790D01*
X173690366Y-112938198D01*
X173605080Y-113036623D01*
X173605078Y-113036626D01*
X173550977Y-113155088D01*
X173533396Y-113277373D01*
X173532443Y-113284000D01*
X136007869Y-113284000D01*
X135953073Y-113248786D01*
X135828117Y-113212096D01*
X135697883Y-113212096D01*
X135572926Y-113248786D01*
X135463366Y-113319194D01*
X135378080Y-113417619D01*
X135378078Y-113417622D01*
X135323977Y-113536084D01*
X135305443Y-113664995D01*
X133037651Y-113664995D01*
X132990882Y-113562586D01*
X132990880Y-113562583D01*
X132905594Y-113464158D01*
X132796034Y-113393750D01*
X132671078Y-113357060D01*
X132540844Y-113357060D01*
X132415887Y-113393750D01*
X132306327Y-113464158D01*
X132221041Y-113562583D01*
X132221039Y-113562586D01*
X132166938Y-113681048D01*
X132148404Y-113809959D01*
X123092505Y-113809959D01*
X123044464Y-113795853D01*
X122914230Y-113795853D01*
X122789273Y-113832543D01*
X122679713Y-113902951D01*
X122594427Y-114001376D01*
X122594425Y-114001379D01*
X122540324Y-114119841D01*
X122521790Y-114248753D01*
X112951589Y-114248753D01*
X112940423Y-114171091D01*
X112914382Y-114114071D01*
X112886321Y-114052626D01*
X112886319Y-114052623D01*
X112801033Y-113954198D01*
X112691473Y-113883790D01*
X112566517Y-113847100D01*
X112436283Y-113847100D01*
X112311326Y-113883790D01*
X112201766Y-113954198D01*
X112116480Y-114052623D01*
X112116478Y-114052626D01*
X112062377Y-114171088D01*
X112043843Y-114300000D01*
X108204500Y-114300000D01*
X108204500Y-113030000D01*
X114985443Y-113030000D01*
X115003977Y-113158911D01*
X115058078Y-113277373D01*
X115058080Y-113277376D01*
X115143366Y-113375801D01*
X115201109Y-113412909D01*
X115252913Y-113446201D01*
X115252926Y-113446209D01*
X115377883Y-113482900D01*
X115508117Y-113482900D01*
X115633073Y-113446209D01*
X115633073Y-113446208D01*
X115633076Y-113446208D01*
X115742636Y-113375799D01*
X115827921Y-113277374D01*
X115882023Y-113158909D01*
X115900557Y-113030000D01*
X115900557Y-113029999D01*
X122224443Y-113029999D01*
X122242977Y-113158911D01*
X122297078Y-113277373D01*
X122297080Y-113277376D01*
X122382366Y-113375801D01*
X122440109Y-113412909D01*
X122491913Y-113446201D01*
X122491926Y-113446209D01*
X122616883Y-113482900D01*
X122747117Y-113482900D01*
X122872073Y-113446209D01*
X122872073Y-113446208D01*
X122872076Y-113446208D01*
X122981636Y-113375799D01*
X123066921Y-113277374D01*
X123121023Y-113158909D01*
X123139557Y-113030000D01*
X123139557Y-113029999D01*
X123748443Y-113029999D01*
X123766977Y-113158911D01*
X123821078Y-113277373D01*
X123821080Y-113277376D01*
X123906366Y-113375801D01*
X123964109Y-113412909D01*
X124015913Y-113446201D01*
X124015926Y-113446209D01*
X124140883Y-113482900D01*
X124271117Y-113482900D01*
X124396073Y-113446209D01*
X124396073Y-113446208D01*
X124396076Y-113446208D01*
X124505636Y-113375799D01*
X124590921Y-113277374D01*
X124645023Y-113158909D01*
X124663557Y-113030000D01*
X124645023Y-112901091D01*
X124637256Y-112884085D01*
X124590921Y-112782626D01*
X124590919Y-112782623D01*
X124585179Y-112775999D01*
X134162443Y-112775999D01*
X134180977Y-112904911D01*
X134235078Y-113023373D01*
X134235080Y-113023376D01*
X134320366Y-113121801D01*
X134429926Y-113192209D01*
X134554883Y-113228900D01*
X134685117Y-113228900D01*
X134810073Y-113192209D01*
X134810073Y-113192208D01*
X134810076Y-113192208D01*
X134919636Y-113121799D01*
X135004921Y-113023374D01*
X135059023Y-112904909D01*
X135077557Y-112776000D01*
X135059023Y-112647091D01*
X135036188Y-112597091D01*
X135004921Y-112528626D01*
X135004919Y-112528623D01*
X134919633Y-112430198D01*
X134810073Y-112359790D01*
X134685117Y-112323100D01*
X134554883Y-112323100D01*
X134429926Y-112359790D01*
X134320366Y-112430198D01*
X134235080Y-112528623D01*
X134235078Y-112528626D01*
X134180977Y-112647088D01*
X134162443Y-112775999D01*
X124585179Y-112775999D01*
X124505633Y-112684198D01*
X124396073Y-112613790D01*
X124271117Y-112577100D01*
X124140883Y-112577100D01*
X124015926Y-112613790D01*
X123906366Y-112684198D01*
X123821080Y-112782623D01*
X123821078Y-112782626D01*
X123766977Y-112901088D01*
X123748443Y-113029999D01*
X123139557Y-113029999D01*
X123121023Y-112901091D01*
X123113256Y-112884085D01*
X123066921Y-112782626D01*
X123066919Y-112782623D01*
X122981633Y-112684198D01*
X122872073Y-112613790D01*
X122747117Y-112577100D01*
X122616883Y-112577100D01*
X122491926Y-112613790D01*
X122382366Y-112684198D01*
X122297080Y-112782623D01*
X122297078Y-112782626D01*
X122242977Y-112901088D01*
X122224443Y-113029999D01*
X115900557Y-113029999D01*
X115882023Y-112901091D01*
X115874256Y-112884085D01*
X115827921Y-112782626D01*
X115827919Y-112782623D01*
X115742633Y-112684198D01*
X115633073Y-112613790D01*
X115508117Y-112577100D01*
X115377883Y-112577100D01*
X115252926Y-112613790D01*
X115143366Y-112684198D01*
X115058080Y-112782623D01*
X115058078Y-112782626D01*
X115003977Y-112901088D01*
X114985443Y-113030000D01*
X108204500Y-113030000D01*
X108204500Y-112267999D01*
X129844443Y-112267999D01*
X129862977Y-112396911D01*
X129917078Y-112515373D01*
X129917080Y-112515376D01*
X130002366Y-112613801D01*
X130080668Y-112664121D01*
X130111913Y-112684201D01*
X130111926Y-112684209D01*
X130236883Y-112720900D01*
X130367117Y-112720900D01*
X130492073Y-112684209D01*
X130492073Y-112684208D01*
X130492076Y-112684208D01*
X130601636Y-112613799D01*
X130686921Y-112515374D01*
X130741023Y-112396909D01*
X130759557Y-112268000D01*
X130757938Y-112256737D01*
X136156393Y-112256737D01*
X136186668Y-112428433D01*
X136255720Y-112588514D01*
X136359832Y-112728360D01*
X136493382Y-112840423D01*
X136493383Y-112840424D01*
X136493384Y-112840424D01*
X136493386Y-112840426D01*
X136649185Y-112918671D01*
X136818829Y-112958877D01*
X136949443Y-112958877D01*
X136949445Y-112958876D01*
X136966182Y-112956919D01*
X137079164Y-112943714D01*
X137242993Y-112884085D01*
X137388654Y-112788282D01*
X137447415Y-112726000D01*
X147624443Y-112726000D01*
X147642977Y-112854911D01*
X147697078Y-112973373D01*
X147697080Y-112973376D01*
X147782366Y-113071801D01*
X147891926Y-113142209D01*
X148016883Y-113178900D01*
X148147117Y-113178900D01*
X148272073Y-113142209D01*
X148272073Y-113142208D01*
X148272076Y-113142208D01*
X148381636Y-113071799D01*
X148466921Y-112973374D01*
X148521023Y-112854909D01*
X148539557Y-112726000D01*
X148521023Y-112597091D01*
X148517106Y-112588515D01*
X148475130Y-112496600D01*
X167436443Y-112496600D01*
X167454977Y-112625511D01*
X167509078Y-112743973D01*
X167509080Y-112743976D01*
X167571594Y-112816120D01*
X167592654Y-112840426D01*
X167594366Y-112842401D01*
X167703926Y-112912809D01*
X167828883Y-112949500D01*
X167959117Y-112949500D01*
X168084073Y-112912809D01*
X168084073Y-112912808D01*
X168084076Y-112912808D01*
X168193636Y-112842399D01*
X168278921Y-112743974D01*
X168333023Y-112625509D01*
X168351557Y-112496600D01*
X168333023Y-112367691D01*
X168287494Y-112267999D01*
X168278921Y-112249226D01*
X168278919Y-112249223D01*
X168193633Y-112150798D01*
X168084073Y-112080390D01*
X167959117Y-112043700D01*
X167828883Y-112043700D01*
X167703926Y-112080390D01*
X167594366Y-112150798D01*
X167509080Y-112249223D01*
X167509078Y-112249226D01*
X167454977Y-112367688D01*
X167436443Y-112496600D01*
X148475130Y-112496600D01*
X148466921Y-112478626D01*
X148466919Y-112478623D01*
X148381633Y-112380198D01*
X148272073Y-112309790D01*
X148147117Y-112273100D01*
X148016883Y-112273100D01*
X147891926Y-112309790D01*
X147782366Y-112380198D01*
X147697080Y-112478623D01*
X147697078Y-112478626D01*
X147642977Y-112597088D01*
X147624443Y-112726000D01*
X137447415Y-112726000D01*
X137508296Y-112661470D01*
X137595467Y-112510484D01*
X137645469Y-112343465D01*
X137655607Y-112169417D01*
X137625332Y-111997723D01*
X137601673Y-111942876D01*
X137556279Y-111837639D01*
X137452167Y-111697793D01*
X137318617Y-111585730D01*
X137318616Y-111585729D01*
X137162815Y-111507483D01*
X137156558Y-111506000D01*
X139496443Y-111506000D01*
X139514977Y-111634911D01*
X139569078Y-111753373D01*
X139569080Y-111753376D01*
X139611409Y-111802226D01*
X139644995Y-111840987D01*
X139654366Y-111851801D01*
X139706163Y-111885088D01*
X139763913Y-111922201D01*
X139763926Y-111922209D01*
X139888883Y-111958900D01*
X140019117Y-111958900D01*
X140144073Y-111922209D01*
X140144073Y-111922208D01*
X140144076Y-111922208D01*
X140253636Y-111851799D01*
X140338921Y-111753374D01*
X140393023Y-111634909D01*
X140411557Y-111506000D01*
X140411557Y-111505999D01*
X144322443Y-111505999D01*
X144340977Y-111634911D01*
X144395078Y-111753373D01*
X144395080Y-111753376D01*
X144437409Y-111802226D01*
X144470995Y-111840987D01*
X144480366Y-111851801D01*
X144532163Y-111885088D01*
X144589913Y-111922201D01*
X144589926Y-111922209D01*
X144714883Y-111958900D01*
X144845116Y-111958900D01*
X144845117Y-111958900D01*
X144933281Y-111933012D01*
X144984618Y-111936275D01*
X145021847Y-111971772D01*
X145027548Y-112022895D01*
X145022872Y-112036406D01*
X144975977Y-112139087D01*
X144957443Y-112268000D01*
X144975977Y-112396911D01*
X145030078Y-112515373D01*
X145030080Y-112515376D01*
X145115366Y-112613801D01*
X145193668Y-112664121D01*
X145224913Y-112684201D01*
X145224926Y-112684209D01*
X145349883Y-112720900D01*
X145480117Y-112720900D01*
X145605073Y-112684209D01*
X145605073Y-112684208D01*
X145605076Y-112684208D01*
X145714636Y-112613799D01*
X145799921Y-112515374D01*
X145854023Y-112396909D01*
X145872557Y-112268000D01*
X145854023Y-112139091D01*
X145854021Y-112139087D01*
X145799921Y-112020626D01*
X145799919Y-112020623D01*
X145794180Y-112014000D01*
X164642443Y-112014000D01*
X164660977Y-112142911D01*
X164715078Y-112261373D01*
X164715080Y-112261376D01*
X164800366Y-112359801D01*
X164858109Y-112396909D01*
X164909913Y-112430201D01*
X164909926Y-112430209D01*
X165034883Y-112466900D01*
X165165117Y-112466900D01*
X165290073Y-112430209D01*
X165290073Y-112430208D01*
X165290076Y-112430208D01*
X165399636Y-112359799D01*
X165484921Y-112261374D01*
X165539023Y-112142909D01*
X165557557Y-112014000D01*
X165539023Y-111885091D01*
X165531256Y-111868085D01*
X165484921Y-111766626D01*
X165484919Y-111766623D01*
X165399633Y-111668198D01*
X165290073Y-111597790D01*
X165165117Y-111561100D01*
X165034883Y-111561100D01*
X164909926Y-111597790D01*
X164800366Y-111668198D01*
X164715080Y-111766623D01*
X164715078Y-111766626D01*
X164660977Y-111885088D01*
X164642443Y-112014000D01*
X145794180Y-112014000D01*
X145726831Y-111936275D01*
X145714636Y-111922201D01*
X145714635Y-111922200D01*
X145714633Y-111922198D01*
X145605073Y-111851790D01*
X145480117Y-111815100D01*
X145349883Y-111815100D01*
X145261717Y-111840987D01*
X145210380Y-111837724D01*
X145173152Y-111802226D01*
X145167451Y-111751103D01*
X145172123Y-111737602D01*
X145219023Y-111634909D01*
X145237557Y-111506000D01*
X145846443Y-111506000D01*
X145864977Y-111634911D01*
X145919078Y-111753373D01*
X145919080Y-111753376D01*
X145961409Y-111802226D01*
X145994995Y-111840987D01*
X146004366Y-111851801D01*
X146056163Y-111885088D01*
X146113913Y-111922201D01*
X146113926Y-111922209D01*
X146238883Y-111958900D01*
X146369117Y-111958900D01*
X146494073Y-111922209D01*
X146494073Y-111922208D01*
X146494076Y-111922208D01*
X146603636Y-111851799D01*
X146688921Y-111753374D01*
X146743023Y-111634909D01*
X146761557Y-111506000D01*
X146743023Y-111377091D01*
X146740663Y-111371924D01*
X146688921Y-111258626D01*
X146688919Y-111258623D01*
X146609007Y-111166400D01*
X146603636Y-111160201D01*
X146603635Y-111160200D01*
X146603633Y-111160198D01*
X146494073Y-111089790D01*
X146369117Y-111053100D01*
X146238883Y-111053100D01*
X146113926Y-111089790D01*
X146004366Y-111160198D01*
X145919080Y-111258623D01*
X145919078Y-111258626D01*
X145864977Y-111377088D01*
X145846443Y-111506000D01*
X145237557Y-111506000D01*
X145219023Y-111377091D01*
X145216663Y-111371924D01*
X145164921Y-111258626D01*
X145164919Y-111258623D01*
X145085007Y-111166400D01*
X145079636Y-111160201D01*
X145079635Y-111160200D01*
X145079633Y-111160198D01*
X144970073Y-111089790D01*
X144845117Y-111053100D01*
X144714883Y-111053100D01*
X144589926Y-111089790D01*
X144480366Y-111160198D01*
X144395080Y-111258623D01*
X144395078Y-111258626D01*
X144340977Y-111377088D01*
X144322443Y-111505999D01*
X140411557Y-111505999D01*
X140393023Y-111377091D01*
X140390663Y-111371924D01*
X140338921Y-111258626D01*
X140338919Y-111258623D01*
X140259007Y-111166400D01*
X140253636Y-111160201D01*
X140253635Y-111160200D01*
X140253633Y-111160198D01*
X140144073Y-111089790D01*
X140019117Y-111053100D01*
X139888883Y-111053100D01*
X139763926Y-111089790D01*
X139654366Y-111160198D01*
X139569080Y-111258623D01*
X139569078Y-111258626D01*
X139514977Y-111377088D01*
X139496443Y-111506000D01*
X137156558Y-111506000D01*
X136993171Y-111467277D01*
X136862564Y-111467277D01*
X136862554Y-111467277D01*
X136732838Y-111482439D01*
X136569009Y-111542068D01*
X136569008Y-111542068D01*
X136569007Y-111542069D01*
X136423346Y-111637872D01*
X136423345Y-111637872D01*
X136423345Y-111637873D01*
X136303704Y-111764683D01*
X136216532Y-111915670D01*
X136166531Y-112082686D01*
X136166531Y-112082688D01*
X136156393Y-112256737D01*
X130757938Y-112256737D01*
X130741023Y-112139091D01*
X130741021Y-112139087D01*
X130686921Y-112020626D01*
X130686919Y-112020623D01*
X130613831Y-111936275D01*
X130601636Y-111922201D01*
X130601635Y-111922200D01*
X130601633Y-111922198D01*
X130492073Y-111851790D01*
X130367117Y-111815100D01*
X130236883Y-111815100D01*
X130111926Y-111851790D01*
X130002366Y-111922198D01*
X129917080Y-112020623D01*
X129917078Y-112020626D01*
X129862977Y-112139088D01*
X129844443Y-112267999D01*
X108204500Y-112267999D01*
X108204500Y-111506000D01*
X115874443Y-111506000D01*
X115892977Y-111634911D01*
X115947078Y-111753373D01*
X115947080Y-111753376D01*
X115989409Y-111802226D01*
X116022995Y-111840987D01*
X116032366Y-111851801D01*
X116084163Y-111885088D01*
X116141913Y-111922201D01*
X116141926Y-111922209D01*
X116266883Y-111958900D01*
X116397117Y-111958900D01*
X116522073Y-111922209D01*
X116522073Y-111922208D01*
X116522076Y-111922208D01*
X116631636Y-111851799D01*
X116716921Y-111753374D01*
X116771023Y-111634909D01*
X116789557Y-111506000D01*
X123240443Y-111506000D01*
X123258977Y-111634911D01*
X123313078Y-111753373D01*
X123313080Y-111753376D01*
X123355409Y-111802226D01*
X123388995Y-111840987D01*
X123398366Y-111851801D01*
X123450163Y-111885088D01*
X123507913Y-111922201D01*
X123507926Y-111922209D01*
X123632883Y-111958900D01*
X123763117Y-111958900D01*
X123888073Y-111922209D01*
X123888073Y-111922208D01*
X123888076Y-111922208D01*
X123997636Y-111851799D01*
X124082921Y-111753374D01*
X124137023Y-111634909D01*
X124155557Y-111506000D01*
X124137023Y-111377091D01*
X124134663Y-111371924D01*
X124082921Y-111258626D01*
X124082919Y-111258623D01*
X124067421Y-111240737D01*
X131076393Y-111240737D01*
X131106668Y-111412433D01*
X131175720Y-111572514D01*
X131279832Y-111712360D01*
X131413382Y-111824423D01*
X131413383Y-111824424D01*
X131413384Y-111824424D01*
X131413386Y-111824426D01*
X131569185Y-111902671D01*
X131738829Y-111942877D01*
X131869443Y-111942877D01*
X131869445Y-111942876D01*
X131886182Y-111940919D01*
X131999164Y-111927714D01*
X132162993Y-111868085D01*
X132308654Y-111772282D01*
X132428296Y-111645470D01*
X132515467Y-111494484D01*
X132565469Y-111327465D01*
X132575607Y-111153417D01*
X132545332Y-110981723D01*
X132521673Y-110926876D01*
X132476279Y-110821639D01*
X132372167Y-110681793D01*
X132238617Y-110569730D01*
X132238616Y-110569729D01*
X132082815Y-110491483D01*
X131913171Y-110451277D01*
X131782564Y-110451277D01*
X131782554Y-110451277D01*
X131652838Y-110466439D01*
X131489009Y-110526068D01*
X131489008Y-110526068D01*
X131489007Y-110526069D01*
X131343346Y-110621872D01*
X131343345Y-110621872D01*
X131343345Y-110621873D01*
X131223704Y-110748683D01*
X131136532Y-110899670D01*
X131086531Y-111066686D01*
X131086531Y-111066688D01*
X131076393Y-111240737D01*
X124067421Y-111240737D01*
X124003007Y-111166400D01*
X123997636Y-111160201D01*
X123997635Y-111160200D01*
X123997633Y-111160198D01*
X123888073Y-111089790D01*
X123763117Y-111053100D01*
X123632883Y-111053100D01*
X123507926Y-111089790D01*
X123398366Y-111160198D01*
X123313080Y-111258623D01*
X123313078Y-111258626D01*
X123258977Y-111377088D01*
X123240443Y-111506000D01*
X116789557Y-111506000D01*
X116771023Y-111377091D01*
X116768663Y-111371924D01*
X116716921Y-111258626D01*
X116716919Y-111258623D01*
X116637007Y-111166400D01*
X116631636Y-111160201D01*
X116631635Y-111160200D01*
X116631633Y-111160198D01*
X116522073Y-111089790D01*
X116397117Y-111053100D01*
X116266883Y-111053100D01*
X116141926Y-111089790D01*
X116032366Y-111160198D01*
X115947080Y-111258623D01*
X115947078Y-111258626D01*
X115892977Y-111377088D01*
X115874443Y-111506000D01*
X108204500Y-111506000D01*
X108204500Y-111259055D01*
X109075100Y-111259055D01*
X109075101Y-111259057D01*
X109083972Y-111303659D01*
X109117764Y-111354232D01*
X109117765Y-111354232D01*
X109117766Y-111354234D01*
X109168342Y-111388028D01*
X109212943Y-111396900D01*
X110243056Y-111396899D01*
X110287658Y-111388028D01*
X110338234Y-111354234D01*
X110372028Y-111303658D01*
X110380900Y-111259057D01*
X110380899Y-110228944D01*
X110372028Y-110184342D01*
X110338234Y-110133766D01*
X110287658Y-110099972D01*
X110287656Y-110099971D01*
X110243057Y-110091100D01*
X109212944Y-110091100D01*
X109212942Y-110091101D01*
X109168340Y-110099972D01*
X109117767Y-110133764D01*
X109083972Y-110184342D01*
X109083971Y-110184343D01*
X109075100Y-110228942D01*
X109075100Y-111259055D01*
X108204500Y-111259055D01*
X108204500Y-109425916D01*
X108205424Y-109414165D01*
X108206454Y-109407659D01*
X108211519Y-109382198D01*
X108215514Y-109362111D01*
X108222260Y-109342657D01*
X108229284Y-109328871D01*
X108231497Y-109325094D01*
X108250057Y-109297318D01*
X108259390Y-109285947D01*
X108269947Y-109275390D01*
X108281318Y-109266057D01*
X108309094Y-109247497D01*
X108312871Y-109245284D01*
X108326657Y-109238260D01*
X108346111Y-109231514D01*
X108391649Y-109222456D01*
X108398165Y-109221424D01*
X108409916Y-109220500D01*
X116761083Y-109220500D01*
X116772835Y-109221424D01*
G37*
%TD.AperFunction*%
%TD*%
M02*
